<svg xmlns="http://www.w3.org/2000/svg" xmlns:xlink="http://www.w3.org/1999/xlink" version="1.1" id="Calque_1" x="0px" y="0px" width="255.118px" height="170.078px" viewBox="0 39.961 255.118 170.078" enable-background="new 0 39.961 255.118 170.078" xml:space="preserve">
<g>
	<path fill="#141412" d="M132.906,117.276c-0.079,0.699-0.179,1.396-0.235,2.096c-0.088,1.062-0.209,2.149-0.789,3.04   c-0.493,0.76-0.959,1.591-1.781,2.106c-0.645,0.405-1.246,0.883-1.887,1.296c-1.127,0.731-2.386,1.006-3.717,1.053   c-0.375,0.013-0.739,0.229-1.118,0.271c-0.53,0.059-1.069,0.014-1.601,0.062c-1.172,0.103-2.347,0.205-3.46,0.636   c-0.036,0.016-0.071,0.021-0.108,0.03c-1.077,0.225-1.159,0.25-0.87,1.212c0.305,1.017,0.071,1.988-0.06,2.956   c-0.212,1.563-0.567,3.108-0.854,4.659c-0.201,1.084-1.111,1.962-2.149,2.246c-0.988,0.271-1.957,0.238-2.938,0.078   c-0.734-0.119-1.474-0.408-2.196-0.367c-1.306,0.07-1.665-0.933-2.246-1.705c-0.771-1.03-1.497-2.094-2.278-3.116   c-0.587-0.769-1.301-1.448-1.828-2.254c-0.503-0.771-0.539-1.695-0.242-2.565c0.535-1.566,0.75-3.179,0.768-4.82   c0.018-1.726-0.023-3.45,0.015-5.175c0.027-1.295,0.125-2.591,0.217-3.886c0.09-1.292,0.24-2.583,0.306-3.875   c0.056-1.098,0.009-2.2,0.045-3.3c0.036-1.057,0.17-2.113,0.17-3.168c0.001-1.339-0.048-2.68-0.152-4.015   c-0.085-1.079,0.511-2.432,1.508-2.773c0.677-0.231,1.451-0.258,2.18-0.249c1.203,0.014,2.406,0.127,3.609,0.202   c1.033,0.063,2.065,0.14,3.098,0.194c1.315,0.071,2.634,0.075,3.943,0.206c0.936,0.094,1.863,0.316,2.779,0.542   c1.035,0.256,2.049,0.606,3.083,0.865c1.016,0.255,1.877,0.771,2.518,1.562c0.897,1.109,1.705,2.289,2.543,3.445   c0.75,1.038,1.59,2.027,2.203,3.142c0.64,1.164,1.182,2.402,1.293,3.776c0.044,0.57,0.287,1.126,0.312,1.695   c0.053,1.091,0.016,2.187,0.102,3.31c0.271-0.701,0.535-1.402,0.808-2.101c0.62-1.592,1.108-3.252,1.897-4.755   c1.053-1.998,2.539-3.72,4.178-5.279c1.095-1.041,2.275-1.991,3.418-2.98c0.027-0.023,0.05-0.078,0.068-0.076   c0.949,0.104,1.465-0.723,2.215-1.053c1.719-0.757,3.515-1.054,5.359-1.133c2.43-0.104,4.86-0.122,7.285-0.272   c1.335-0.083,2.657-0.167,3.958,0.167c0.897,0.231,1.812,0.477,2.646,0.87c1.353,0.639,2.681,1.346,3.947,2.137   c1.168,0.729,2.137,1.715,3.043,2.766c1.057,1.223,2.229,2.342,3.289,3.562c0.584,0.675,1.049,1.456,1.551,2.199   c1.05,1.546,1.627,3.312,2.301,5.029c0.334,0.848,0.625,1.715,0.883,2.588c0.089,0.304,0.012,0.654,0.023,0.982   c0.03,0.71,0.117,1.419,0.096,2.126c-0.028,1.014-0.062,2.037-0.227,3.034c-0.145,0.883-0.426,1.749-0.721,2.599   c-0.732,2.118-1.745,4.113-3.044,5.936c-0.737,1.034-1.657,1.938-2.517,2.885c-0.543,0.597-1.075,1.226-1.709,1.719   c-0.646,0.507-1.379,0.938-2.133,1.269c-1.226,0.535-2.496,0.968-3.752,1.429c-0.259,0.095-0.541,0.121-0.812,0.185   c-1.029,0.241-2.056,0.498-3.088,0.725c-1.33,0.29-2.668,0.488-4.042,0.434c-0.987-0.038-1.98,0.073-2.969,0.032   c-1.021-0.044-2.039-0.168-3.055-0.299c-1.238-0.159-2.473-0.347-3.705-0.554c-0.322-0.054-0.632-0.205-0.939-0.33   c-0.907-0.368-1.793-0.787-2.717-1.105c-0.793-0.273-1.635-0.396-2.433-0.658c-0.507-0.165-1.024-0.39-1.444-0.71   c-1.041-0.79-2.031-1.646-3.037-2.483c-0.644-0.535-1.221-1.108-1.594-1.9c-0.209-0.443-0.719-0.736-1.033-1.141   c-1.311-1.683-1.963-3.648-2.426-5.696c-0.125-0.554-0.375-1.093-0.421-1.648c-0.067-0.846-0.095-1.717,0.024-2.552   c0.201-1.391,0.554-2.76,0.792-4.147c0.065-0.382-0.046-0.796-0.078-1.195C132.956,117.28,132.932,117.279,132.906,117.276z    M158.571,140.139c1.354-0.166,2.641-0.291,3.912-0.492c0.896-0.143,1.785-0.361,2.663-0.599c0.838-0.227,1.704-0.425,2.478-0.8   c1.48-0.721,2.93-1.544,4.112-2.702c1.521-1.489,3.003-3.022,4.398-4.629c0.544-0.625,0.911-1.465,1.168-2.269   c0.336-1.056,0.504-2.17,0.709-3.266c0.149-0.805,0.248-1.617,0.36-2.428c0.084-0.606,0.172-1.212,0.221-1.821   c0.044-0.542-0.036-1.101,0.062-1.629c0.202-1.104-0.155-2.041-0.713-2.944c-0.419-0.681-0.846-1.355-1.258-2.04   c-0.384-0.638-0.644-1.395-1.154-1.897c-0.653-0.643-1.081-1.371-1.44-2.175c-0.062-0.134-0.15-0.256-0.24-0.371   c-0.712-0.908-1.475-1.765-2.378-2.496c-0.443-0.358-0.739-0.924-1.216-1.211c-1.635-0.993-3.387-1.709-5.332-1.853   c-0.42-0.031-0.828-0.179-1.24-0.274c-0.965-0.221-1.917-0.542-2.893-0.634c-1.091-0.103-2.205-0.047-3.301,0.032   c-1.32,0.095-2.639,0.25-3.947,0.448c-2.678,0.407-5.252,1.144-7.586,2.57c-0.246,0.149-0.363,0.518-0.613,0.652   c-1.42,0.766-2.326,2.04-3.223,3.293c-0.885,1.234-1.645,2.562-2.412,3.875c-0.346,0.594-0.642,1.231-0.852,1.884   c-0.417,1.293-0.484,2.636-0.443,3.993c0.043,1.44-0.095,2.892,0.047,4.32c0.16,1.601,0.41,3.204,1.033,4.722   c0.428,1.043,0.862,2.061,1.729,2.826c0.407,0.359,0.854,0.686,1.206,1.092c1.498,1.73,3.242,3.134,5.306,4.132   c0.133,0.064,0.274,0.122,0.417,0.157c1.27,0.312,2.545,0.596,3.807,0.936c1.312,0.354,2.6,0.799,3.916,1.129   C156.773,139.895,157.706,139.993,158.571,140.139z M118.912,126.247c0.004,0.026,0.007,0.054,0.01,0.08   c0.818-0.062,1.653-0.042,2.449-0.204c1.671-0.341,3.323-0.779,4.984-1.175c1.171-0.279,2.263-0.762,3.252-1.426   c1.25-0.841,1.804-2.184,2.126-3.566c0.26-1.115,0.329-2.271,0.325-3.449c-0.004-1.138,0.216-2.295,0.028-3.439   c-0.109-0.667-0.243-1.376-0.566-1.953c-0.879-1.561-1.566-3.251-2.939-4.496c-0.709-0.645-1.291-1.482-2.092-1.962   c-0.967-0.576-1.985-1.196-3.17-1.268c-0.742-0.044-1.488-0.001-2.23-0.005c-0.373-0.001-0.749-0.057-1.117-0.024   c-0.61,0.055-1.214,0.159-1.82,0.249c-0.75,0.112-1.499,0.327-2.247,0.327c-1.839,0-3.68-0.093-5.482-0.526   c-1.06-0.255-1.643,0.262-1.548,1.356c0.044,0.502,0.089,1.006,0.09,1.511c0.006,1.81,0.062,3.625-0.028,5.432   c-0.112,2.237-0.404,4.462-0.518,6.698c-0.103,2.011-0.078,4.027-0.097,6.041c-0.009,0.954,0.033,1.905,0.017,2.858   c-0.044,2.662-0.133,5.324-0.154,7.984c-0.009,1.244,0.461,1.785,1.649,2.128c0.454,0.132,0.928,0.198,1.375,0.351   c0.86,0.297,1.73,0.396,2.629,0.269c0.568-0.082,1.422-0.749,1.487-1.304c0.206-1.756,0.394-3.512,0.513-5.272   c0.088-1.315,0.056-2.641,0.084-3.961c0.011-0.515,0.338-0.896,0.845-0.971C117.479,126.424,118.197,126.34,118.912,126.247z    M146.043,138.487c0.021-0.075,0.043-0.149,0.064-0.225c-0.968-0.758-1.943-1.505-2.9-2.276c-0.418-0.34-0.863-0.682-1.183-1.106   c-1.024-1.37-1.989-2.786-2.991-4.174c-1.352-1.87-1.953-3.995-2.061-6.258c-0.057-1.201,0.013-2.418,0.141-3.616   c0.145-1.329,0.402-2.646,0.646-3.963c0.107-0.581,0.277-1.152,0.458-1.716c0.334-1.041,0.544-2.134,1.31-2.997   c0.417-0.471,0.784-0.992,1.155-1.503c0.218-0.3,0.368-0.655,0.608-0.932c0.531-0.61,1.17-1.137,1.64-1.79   c0.448-0.624,0.955-1.132,1.621-1.497c0.344-0.188,0.719-0.335,1.026-0.571c1.746-1.336,3.868-1.619,5.905-2.129   c0.853-0.212,1.728-0.333,2.601-0.451c1.291-0.176,2.586-0.353,3.886-0.451c0.931-0.071,1.879,0.068,2.802-0.031   c1.824-0.196,3.509,0.342,5.216,0.812c0.765,0.211,1.528,0.418,2.445,0.668c-0.554-0.448-0.964-0.819-1.412-1.135   c-0.774-0.541-1.54-1.103-2.365-1.552c-0.827-0.45-1.692-0.928-2.598-1.111c-1.156-0.234-2.368-0.197-3.558-0.254   c-1.041-0.051-2.084-0.116-3.125-0.09c-1.526,0.038-3.058,0.269-4.576,0.197c-1.495-0.069-2.711,0.428-3.875,1.252   c-0.236,0.168-0.536,0.246-0.799,0.38c-0.679,0.345-1.409,0.62-2.018,1.062c-1.65,1.199-2.97,2.727-4.139,4.391   c-0.428,0.608-0.903,1.18-1.34,1.782c-0.103,0.143-0.099,0.363-0.204,0.502c-0.269,0.348-0.604,0.648-0.853,1.009   c-0.412,0.6-0.849,1.2-1.146,1.859c-0.267,0.587-0.11,1.263-0.685,1.85c-0.529,0.539-0.779,1.411-0.996,2.181   c-0.381,1.358-0.774,2.735-0.916,4.128c-0.137,1.351,0.019,2.732,0.086,4.099c0.023,0.475,0.303,0.968,0.225,1.41   c-0.084,0.468-0.087,0.872,0.104,1.282c0.457,0.985,0.883,1.994,1.411,2.943c0.39,0.702,1.089,1.186,1.351,2.021   c0.171,0.539,0.574,1.062,1,1.453c1.012,0.928,2.035,1.867,3.175,2.619c0.985,0.649,2.122,1.082,3.219,1.541   C144.915,138.316,145.495,138.364,146.043,138.487z M105.488,100.363c-0.05,0.342-0.103,0.549-0.107,0.756   c-0.018,1.256-0.018,2.513-0.037,3.769c-0.013,0.857-0.055,1.715-0.069,2.572c-0.011,0.668,0.029,1.338-0.006,2.005   c-0.047,0.886-0.283,1.787-0.191,2.654c0.171,1.611-0.155,3.173-0.23,4.759c-0.066,1.381-0.207,2.758-0.275,4.139   c-0.044,0.91,0.004,1.826-0.029,2.738c-0.055,1.44-0.174,2.879-0.207,4.32c-0.036,1.526,0.253,2.987,1.047,4.325   c0.473,0.801,0.889,1.631,1.345,2.438c0.161,0.287,0.362,0.552,0.543,0.825c0.046-0.021,0.09-0.048,0.136-0.071   c-0.061-0.761-0.149-1.521-0.176-2.282c-0.048-1.394-0.12-2.791-0.072-4.185c0.052-1.531,0.233-3.058,0.339-4.588   c0.022-0.312-0.081-0.629-0.067-0.941c0.044-0.988,0.129-1.976,0.178-2.964c0.043-0.905,0.053-1.812,0.09-2.717   c0.08-1.974,0.197-3.948,0.243-5.922c0.041-1.757,0.017-3.515,0.002-5.271c-0.004-0.505-0.214-1.056-0.072-1.503   c0.286-0.899,0.101-1.598-0.471-2.301C106.757,102.131,106.177,101.29,105.488,100.363z M126.818,103.852   c0.042-0.051,0.085-0.104,0.127-0.156c-0.838-0.607-1.671-1.221-2.515-1.82c-1.152-0.818-2.408-1.382-3.831-1.535   c-0.892-0.095-1.786-0.187-2.672-0.315c-1.248-0.179-2.483-0.443-3.736-0.572c-1.111-0.114-2.237-0.079-3.355-0.135   c-0.719-0.036-1.437-0.132-2.156-0.176c-0.994-0.062-1.993-0.163-3.034,0.132c0.281,0.374,0.504,0.686,0.743,0.986   c0.546,0.683,1.098,1.363,1.653,2.04c0.062,0.076,0.167,0.175,0.248,0.17c0.865-0.051,1.729-0.136,2.594-0.18   c0.504-0.025,1.011,0,1.517,0.015c0.595,0.018,1.189,0.075,1.784,0.065c1.583-0.024,3.166-0.115,4.747-0.1   c1.042,0.01,2.083,0.2,3.128,0.236c1.184,0.041,2.336,0.182,3.422,0.681C125.931,103.396,126.372,103.63,126.818,103.852z"/>
	<path fill="#141412" d="M85.773,105.637c0.146-0.478,0.263-0.966,0.442-1.432c0.32-0.826,0.728-1.621,1.003-2.459   c0.34-1.03,0.549-2.102,0.88-3.133c0.211-0.656,0.529-1.278,0.832-1.9c0.041-0.083,0.293-0.037,0.4-0.114   c0.643-0.473,1.352-0.488,2.119-0.467c1.042,0.029,2.092-0.17,3.133-0.116c1.222,0.064,2.449,0.219,3.342,1.27   c1.014,1.192,2.063,2.35,3.251,3.388c0.644,0.562,1.062,1.334,1.268,2.224c0.105,0.452,0.484,0.79,0.409,1.374   c-0.114,0.889-0.48,1.604-0.996,2.305c-0.401,0.545-0.692,1.17-1.03,1.759c-0.055,0.098-0.079,0.22-0.152,0.299   c-0.991,1.062-1.415,2.441-2.083,3.684c-0.917,1.702-1.88,3.383-2.734,5.115c-0.507,1.027-0.944,2.115-1.227,3.223   c-0.285,1.107,0.019,2.184,0.652,3.168c1.1,1.715,1.88,3.586,2.608,5.481c0.413,1.076,0.85,2.146,1.33,3.193   c0.555,1.213,1.245,2.369,1.73,3.605c0.281,0.713,0.304,1.537,0.369,2.314c0.013,0.151-0.292,0.393-0.498,0.487   c-1.12,0.521-2.296,0.553-3.519,0.469c-0.877-0.062-1.772,0.168-2.661,0.221c-1.24,0.072-2.495-0.843-2.897-1.995   c-0.236-0.679-0.564-1.324-0.849-1.986c-0.334-0.781-0.659-1.566-0.997-2.346c-0.331-0.764-0.678-1.519-1.006-2.281   c-0.241-0.559-0.455-1.129-0.7-1.685c-0.234-0.528-0.531-0.593-0.832-0.12c-0.603,0.948-1.176,1.92-1.7,2.913   c-0.535,1.013-0.969,2.076-1.495,3.095c-0.615,1.192-1.26,2.371-1.942,3.527c-0.128,0.219-0.484,0.301-0.733,0.446   c-0.747,0.44-1.475,0.524-2.36,0.272c-1.48-0.424-3.016-0.65-4.531-0.941c-1.325-0.255-2.219-0.983-2.653-2.278   c-0.15-0.45-0.397-0.866-0.553-1.315c-0.26-0.762-0.479-1.538-0.723-2.308c-0.044-0.14-0.125-0.269-0.188-0.401   c-0.429-0.92-0.424-1.863,0.07-2.721c0.541-0.94,1.221-1.803,1.821-2.711c0.792-1.193,1.559-2.403,2.347-3.602   c0.759-1.153,1.546-2.29,2.294-3.451c0.371-0.579,0.73-1.175,1.005-1.801c0.251-0.573,0.195-1.189,0.026-1.806   c-0.541-1.981-1.403-3.834-2.303-5.667c-0.979-1.995-2.062-3.941-3.003-5.955c-0.502-1.074-0.786-2.249-1.193-3.371   c-0.15-0.413-0.378-0.795-0.546-1.202c-0.338-0.826-0.678-1.65-0.98-2.488c-0.184-0.509,0.516-1.416,1.151-1.712   c0.987-0.461,1.961-0.17,2.938-0.047c0.915,0.114,1.816,0.355,2.734,0.415c1.747,0.114,3.12,0.835,4.146,2.25   c0.871,1.203,1.761,2.392,2.648,3.583c0.458,0.615,0.95,1.206,1.383,1.838c0.149,0.217,0.158,0.528,0.244,0.792   c0.117,0.362,0.248,0.719,0.372,1.078C85.68,105.622,85.726,105.63,85.773,105.637z M97.291,138.646c0-0.018,0-0.033-0.001-0.051   c0.579,0,1.16,0.032,1.735-0.007c1.368-0.094,1.503-0.847,1.142-1.885c-0.361-1.04-0.891-2.021-1.349-3.028   c-0.541-1.185-1.076-2.372-1.628-3.553c-0.559-1.189-1.007-2.46-1.736-3.538c-0.892-1.313-1.402-2.779-2.082-4.179   c-0.27-0.551-0.416-1.165-0.205-1.723c0.576-1.532,1.184-3.056,1.876-4.538c0.653-1.399,1.443-2.732,2.143-4.111   c0.356-0.7,0.539-1.514,1.001-2.125c0.327-0.429,0.452-0.875,0.668-1.323c0.575-1.197,1.294-2.325,1.939-3.489   c0.159-0.287,0.36-0.611,0.356-0.916c-0.004-0.341-0.12-0.786-0.619-0.785c-0.604,0.002-1.21,0.112-1.809,0.071   c-1.183-0.084-2.357-0.255-3.539-0.352c-0.372-0.032-0.947-0.085-1.095,0.117c-0.499,0.68-0.856,1.466-1.251,2.221   c-0.111,0.209-0.138,0.464-0.252,0.669c-0.493,0.886-1.014,1.758-1.502,2.647c-0.22,0.403-0.356,0.853-0.587,1.248   c-0.423,0.718-0.892,1.41-1.336,2.116c-0.396,0.631-0.777,1.273-1.185,1.896c-0.154,0.236-0.405,0.524-0.659,0.17   c-0.35-0.486-0.69-1.01-0.882-1.569c-0.263-0.767-0.362-1.59-0.577-2.376c-0.108-0.396-0.333-0.759-0.475-1.146   c-0.109-0.294-0.141-0.619-0.258-0.91c-0.47-1.172-0.974-2.331-1.437-3.507c-0.248-0.633-0.64-1.159-1.294-1.293   c-1.687-0.349-3.389-0.639-5.095-0.896c-0.335-0.049-0.728,0.109-1.061,0.251c-0.62,0.266-0.673,1.228-0.144,1.627   c0.169,0.125,0.278,0.362,0.359,0.568c0.071,0.183,0.017,0.42,0.101,0.593c0.663,1.37,1.371,2.717,2.017,4.093   c0.427,0.908,0.73,1.875,1.174,2.773c0.349,0.709,0.86,1.336,1.241,2.032c0.434,0.793,0.8,1.624,1.205,2.432   c0.181,0.356,0.395,0.696,0.582,1.049c0.125,0.236,0.3,0.473,0.335,0.726c0.215,1.485-0.507,2.682-1.236,3.877   c-0.763,1.25-1.514,2.506-2.249,3.772c-0.489,0.844-0.927,1.716-1.412,2.561c-0.308,0.537-0.673,1.039-0.992,1.569   c-0.668,1.101-1.325,2.209-1.98,3.319c-0.38,0.641-0.782,1.273-1.105,1.943c-0.372,0.771,0.045,1.506,0.874,1.641   c0.165,0.027,0.338,0.014,0.505,0.031c0.658,0.069,1.318,0.128,1.973,0.227c0.762,0.114,1.52,0.273,2.281,0.4   c0.291,0.049,0.597,0.111,0.882,0.074c1.196-0.162,1.66-1.125,2.081-2.057c0.794-1.76,1.524-3.548,2.278-5.326   c0.063-0.15,0.089-0.318,0.145-0.476c0.12-0.326,0.217-0.666,0.379-0.972c0.224-0.428,0.509-0.819,0.749-1.238   c0.358-0.628,1.757-0.885,2.162-0.354c0.358,0.469,0.723,0.914,0.912,1.531c0.304,0.987,0.795,1.919,1.237,2.86   c0.969,2.069,1.945,4.139,2.958,6.188c0.125,0.253,0.479,0.437,0.766,0.548c0.169,0.065,0.417-0.109,0.63-0.113   C95.727,138.638,96.51,138.646,97.291,138.646z M73.195,135.045c0.303-0.462,0.577-0.896,0.865-1.32   c0.537-0.787,1.114-1.548,1.62-2.354c0.798-1.27,1.547-2.569,2.327-3.852c0.697-1.146,1.458-2.258,2.1-3.436   c0.593-1.09,1.054-2.249,1.594-3.368c0.283-0.586,0.178-1.263-0.271-1.692c-0.399-0.384-0.76-0.807-1.142-1.208   c-0.12-0.126-0.251-0.239-0.444-0.42c-0.05,0.211-0.125,0.335-0.09,0.407c0.213,0.433,0.01,0.654-0.365,0.818   c-0.08,0.036-0.156,0.109-0.206,0.183c-0.64,0.953-1.278,1.908-1.913,2.864c-0.642,0.967-1.255,1.952-1.923,2.9   c-1.104,1.563-2.29,3.071-3.344,4.667c-0.436,0.658-0.872,1.439-0.408,2.322c0.214,0.403,0.403,0.819,0.592,1.235   C72.53,133.547,72.865,134.307,73.195,135.045z M89.46,98.756c-0.776,1.758-1.143,3.744-2.003,5.561   c-0.394,0.832-0.596,1.761-0.836,2.657c-0.219,0.812-0.506,1.621-0.124,2.486c0.247,0.559,0.38,1.166,0.588,1.743   c0.184,0.508,0.402,1.003,0.604,1.497c0.392-0.583,0.805-1.115,1.128-1.697c0.858-1.55,1.741-3.092,2.483-4.696   c0.325-0.701,0.602-1.409,1.017-2.073c0.337-0.538,0.5-1.188,0.716-1.796c0.028-0.078-0.064-0.23-0.143-0.306   C91.757,101.007,90.615,99.891,89.46,98.756z M82.928,102.385c-0.719-0.77-1.352-1.471-2.013-2.143   c-0.146-0.148-0.53-0.145-0.583-0.291c-0.32-0.879-1.077-1.339-1.729-1.895c-0.259-0.223-0.577-0.467-0.897-0.519   c-1.574-0.255-3.158-0.455-4.74-0.664c-0.322-0.043-0.658-0.113-0.97-0.062c-0.512,0.085-0.789,0.769-0.5,1.09   c0.66,0.734,1.299,1.486,1.964,2.217c0.636,0.7,1.293,1.379,1.943,2.071c1.172-0.812,2.441-0.883,3.686-0.702   C80.345,101.668,81.572,102.059,82.928,102.385z M101.037,102.333c0.038-0.058,0.076-0.118,0.114-0.176   c-0.601-0.535-1.206-1.066-1.801-1.604c-0.568-0.515-1.129-1.034-1.688-1.558c-0.753-0.704-1.466-1.449-2.617-1.473   c-1.112-0.021-2.219-0.114-3.33-0.161c-0.345-0.015-0.734,0.121-1.031,0.005c-0.462-0.18-0.685-0.053-0.79,0.177   c0.871,2.082,2.911,2.985,3.95,4.532C96.315,102.164,98.676,102.25,101.037,102.333z M81.885,118.608   c0.038-0.024,0.078-0.049,0.116-0.075c-0.021-0.124-0.015-0.262-0.068-0.369c-0.882-1.736-1.762-3.474-2.66-5.202   c-0.616-1.187-1.279-2.348-1.884-3.539c-0.672-1.325-1.33-2.659-1.935-4.015c-0.297-0.667-0.565-1.381-0.65-2.097   c-0.063-0.53-0.231-0.926-0.574-1.282c-0.424-0.438-0.873-0.854-1.292-1.295c-0.24-0.257-0.442-0.549-0.66-0.825   c0.259,0.799,0.593,1.537,0.935,2.272c0.523,1.128,1.061,2.25,1.575,3.381c0.4,0.882,0.718,1.805,1.172,2.655   c0.772,1.445,1.626,2.847,2.441,4.269c0.779,1.355,0.926,3.001,1.957,4.243C80.871,117.351,81.376,117.981,81.885,118.608z"/>
	<path fill="#141412" d="M42.433,122.566c0.093-2.049,0.202-4.1,0.271-6.149c0.039-1.165-0.002-2.331,0.018-3.497   c0.016-0.917,0.055-1.834,0.113-2.749c0.071-1.106,0.169-2.212,0.266-3.316c0.09-1.054,0.201-2.104,0.29-3.157   c0.122-1.471,0.193-2.948,0.361-4.414c0.102-0.898,0.627-1.537,1.547-1.761c1.049-0.254,2.124-0.423,3.149-0.747   c1.479-0.466,3-0.353,4.5-0.481c1.582-0.136,3.177-0.104,4.764-0.208c1.344-0.087,2.68-0.298,4.025-0.39   c0.842-0.058,1.743-0.156,2.387,0.597c0.3,0.351,0.535,0.756,0.803,1.132c0.85,1.195,1.682,2.405,2.562,3.576   c0.358,0.476,0.822,0.877,1.246,1.305c0.677,0.681,0.67,1.602,0.849,2.45c0.137,0.651,0.24,1.316,0.291,1.979   c0.06,0.777,0.183,1.647-0.604,2.134c-0.46,0.285-1.069,0.492-1.601,0.472c-2.003-0.075-4.004-0.252-6.003-0.405   c-0.703-0.053-1.4-0.156-2.103-0.207c-0.14-0.009-0.395,0.098-0.419,0.194c-0.136,0.558-0.243,1.128-0.297,1.7   c-0.009,0.09,0.292,0.292,0.46,0.306c1.522,0.122,3.017,0.307,4.226,1.375c1.006,0.888,1.997,1.796,3.007,2.68   c0.728,0.636,0.78,1.482,0.86,2.363c0.155,1.716,0.377,3.426,0.591,5.136c0.089,0.715-0.647,1.39-1.452,1.319   c-1.341-0.117-2.687-0.198-4.025-0.329c-0.976-0.096-1.945-0.259-2.919-0.372c-0.416-0.048-0.842-0.086-1.254-0.04   c-0.142,0.016-0.356,0.301-0.359,0.467c-0.015,0.698,0.02,1.397,0.078,2.093c0.009,0.112,0.213,0.282,0.345,0.301   c0.478,0.069,0.961,0.103,1.444,0.119c0.898,0.032,1.809-0.031,2.693,0.097c0.413,0.06,0.786,0.456,1.16,0.726   c0.314,0.225,0.588,0.505,0.907,0.724c0.75,0.516,1.556,0.96,2.271,1.521c1.071,0.841,1.805,1.896,1.845,3.343   c0.013,0.509,0.206,1.01,0.284,1.519c0.15,0.959,0.357,1.92,0.39,2.885c0.029,0.875-0.466,1.321-1.352,1.405   c-1.099,0.104-2.203,0.238-3.301,0.224c-1.677-0.027-3.353-0.164-5.028-0.27c-1.796-0.109-3.588,0.033-5.382,0.055   c-0.398,0.006-0.799-0.117-1.198-0.121c-0.623-0.004-1.244,0.063-1.866,0.065c-1.313,0-2.378-0.5-3.188-1.567   c-0.41-0.543-0.939-0.994-1.37-1.521c-0.755-0.926-1.399-1.954-2.231-2.799c-0.913-0.929-1.477-2.07-2.178-3.122   c-0.279-0.418-0.278-1.084-0.253-1.63c0.042-0.907,0.22-1.806,0.313-2.709c0.079-0.761,0.12-1.526,0.178-2.289   C42.507,122.571,42.47,122.568,42.433,122.566z M66.417,122.331c0-0.324,0.021-0.493-0.004-0.654   c-0.177-1.078-0.507-2.138-0.353-3.254c0.034-0.249-0.028-0.51,0.001-0.761c0.084-0.737-0.233-1.103-0.979-1.085   c-0.167,0.004-0.336,0.024-0.503,0.048c-1.444,0.215-2.885,0.123-4.332-0.004c-0.657-0.057-1.329,0.004-1.99,0.059   c-0.324,0.026-0.652-0.185-0.646-0.508c0.006-0.342,0.028-0.688-0.005-1.025c-0.028-0.277-0.191-0.549-0.181-0.818   c0.023-0.608,0.135-1.214,0.174-1.822c0.028-0.441-0.027-0.887,0.002-1.328c0.062-0.95,0.148-1.899,0.241-2.848   c0.01-0.105,0.126-0.273,0.211-0.287c0.64-0.097,1.287-0.229,1.931-0.222c0.949,0.009,1.896,0.151,2.845,0.187   c0.897,0.033,1.795-0.02,2.69,0.001c0.655,0.014,1.312,0.146,1.962,0.114c0.792-0.037,1.037-0.275,0.96-1.026   c-0.131-1.281-0.206-2.567-0.351-3.846c-0.028-0.248-0.217-0.559-0.427-0.692c-0.816-0.52-1.771-0.378-2.662-0.371   c-1.361,0.01-2.722,0.199-4.083,0.282c-1.568,0.096-3.136,0.158-4.704,0.235c-1.684,0.084-3.37,0.161-5.053,0.258   c-0.49,0.028-0.873,0.234-1.001,0.772c-0.132,0.554-0.31,1.098-0.432,1.654c-0.08,0.361-0.122,0.736-0.132,1.105   c-0.02,0.73-0.023,1.464,0.002,2.195c0.048,1.395,0.117,2.787,0.184,4.181c0.042,0.899,0.183,1.802,0.128,2.694   c-0.135,2.181-0.356,4.357-0.544,6.536c-0.03,0.354-0.072,0.708-0.104,1.061c-0.079,0.86-0.161,1.72-0.23,2.58   c-0.051,0.648-0.089,1.301-0.123,1.951c-0.028,0.527,0.005,1.054-0.074,1.589c-0.075,0.51,0.07,1.048,0.085,1.573   c0.036,1.252,0.048,2.506,0.076,3.758c0.029,1.277,1.292,2.363,2.56,2.281c1.174-0.076,2.354-0.112,3.529-0.086   c1.043,0.024,2.101,0.068,3.121,0.269c1.708,0.33,3.425,0.437,5.154,0.416c1.124-0.013,2.247-0.109,3.371-0.119   c1.002-0.01,1.002,0.021,0.926-0.991c-0.005-0.056,0.004-0.111,0.004-0.169c-0.004-1.185-0.004-2.37-0.013-3.555   c-0.004-0.788-0.164-0.871-0.948-0.838c-1.42,0.061-2.848,0.125-4.263,0.045c-1.582-0.089-3.157-0.321-4.728-0.537   c-0.236-0.033-0.613-0.299-0.63-0.483c-0.125-1.388-0.244-2.783-0.225-4.175c0.017-1.114,0.159-2.221-0.209-3.308   c-0.099-0.291-0.12-0.593,0.271-0.741c0.112-0.042,0.23-0.166,0.269-0.278c0.159-0.471,0.537-0.386,0.89-0.387   c0.669-0.003,1.301,0.172,1.951,0.317c0.95,0.213,1.954,0.264,2.933,0.263C64.11,122.534,65.255,122.405,66.417,122.331z    M45.944,99.46c-0.079-0.01-0.16-0.021-0.24-0.03c-0.2,0.352-0.523,0.688-0.57,1.061c-0.095,0.747-0.057,1.513-0.043,2.271   c0.067,3.826-0.068,7.638-0.554,11.439c-0.203,1.582-0.272,3.182-0.375,4.777c-0.086,1.344-0.14,2.69-0.195,4.037   c-0.057,1.348,0.037,2.719-0.186,4.037c-0.245,1.461,0.235,2.566,1.141,3.597c0.685,0.779,1.378,1.551,2.063,2.33   c0.302,0.344,0.593,0.695,0.997,1.168c-0.033-0.441-0.076-0.698-0.067-0.953c0.044-1.236,0.097-2.475,0.16-3.709   c0.114-2.23,0.232-4.463,0.361-6.693c0.116-2.025,0.241-4.048,0.372-6.071c0.065-1.006,0.16-2.009,0.219-3.016   c0.018-0.314-0.042-0.63-0.056-0.946c-0.058-1.252,0.041-2.537-0.203-3.752c-0.351-1.74-0.335-3.456-0.19-5.198   c0.039-0.493,0.095-0.995-0.401-1.379c-0.28-0.216-0.449-0.577-0.667-0.872C46.987,100.857,46.467,100.159,45.944,99.46z    M65.547,101.188c-0.278-0.401-0.498-0.7-0.696-1.011c-0.503-0.788-1.014-1.571-1.49-2.375c-0.316-0.535-1.131-0.979-1.754-0.911   c-0.255,0.028-0.517,0.002-0.775,0.017c-0.776,0.039-1.555,0.068-2.328,0.137c-1.154,0.104-2.307,0.358-3.454,0.332   c-1.697-0.04-3.331,0.217-4.965,0.6c-0.998,0.233-2.012,0.397-3.011,0.627c-0.653,0.15-0.661,0.248-0.248,0.741   c0.31,0.369,0.578,0.771,0.88,1.146c0.432,0.535,0.876,1.058,1.316,1.585c0.73-0.608,1.003-0.711,2.121-0.699   c1.501,0.018,3.004,0.107,4.506,0.093c2.598-0.024,5.195-0.1,7.793-0.165C64.122,101.287,64.8,101.23,65.547,101.188z    M57.999,127.311c-0.024,0.182-0.042,0.271-0.047,0.359c-0.038,0.727-0.095,1.451-0.1,2.176c-0.004,0.432,0.234,0.728,0.696,0.75   c0.783,0.038,1.566,0.057,2.35,0.086c1.906,0.076,3.812,0.155,5.719,0.229c0.109,0.004,0.221-0.029,0.443-0.06   c-0.39-0.24-0.682-0.405-0.958-0.593c-0.333-0.225-0.69-0.432-0.971-0.713c-1.054-1.056-2.126-2.028-3.756-2.054   C60.269,127.477,59.164,127.377,57.999,127.311z M65.382,115.844c0.013-0.043,0.028-0.086,0.042-0.129   c-0.423-0.362-0.831-0.743-1.27-1.083c-0.784-0.604-1.644-1.122-2.356-1.798c-0.358-0.34-0.712-0.513-1.134-0.505   c-0.489,0.011-0.971,0.188-1.461,0.228c-0.577,0.044-0.723,0.397-0.766,0.881c-0.04,0.461-0.105,0.92-0.141,1.381   c-0.057,0.722,0.214,1.071,0.934,1.111c0.711,0.038,1.428,0.023,2.14,0.01C62.707,115.915,64.044,115.875,65.382,115.844z"/>
	<path fill="#141412" d="M208.437,106.703c-0.298,1.058-0.547,2.035-0.854,2.994c-0.19,0.601-0.373,1.243-0.734,1.742   c-0.331,0.46-0.921,0.688-1.546,0.525c-1.222-0.324-2.455-0.612-3.657-1.002c-1.738-0.562-3.497-0.647-5.243-0.199   c-0.526,0.136-1.039,0.606-1.397,1.051c-0.756,0.932-0.828,1.975-0.162,3.02c0.08,0.124,0.154,0.265,0.269,0.353   c1.572,1.232,3.126,2.491,4.735,3.674c1.564,1.149,3.257,2.133,4.765,3.349c1.261,1.016,2.384,2.217,3.476,3.418   c0.809,0.888,0.922,2.099,1.089,3.237c0.118,0.809,0.147,1.633,0.194,2.451c0.015,0.257-0.058,0.516-0.067,0.772   c-0.036,0.74-0.097,1.481-0.082,2.222c0.022,1.359-0.661,2.403-1.431,3.427c-0.925,1.23-1.984,2.368-3.278,3.165   c-1.413,0.871-2.933,1.668-4.665,1.719c-1.753,0.05-3.508,0.027-5.262,0.044c-1.338,0.013-2.61-0.358-3.896-0.658   c-0.942-0.22-1.864-0.587-2.815-0.679c-0.97-0.092-1.641-0.668-2.379-1.126c-0.757-0.468-1.406-1.103-2.138-1.613   c-0.95-0.666-1.687-1.505-2.285-2.489c-0.266-0.434-0.64-0.801-0.901-1.238c-0.683-1.137-0.807-2.358-0.535-3.657   c0.271-1.296,0.722-2.491,1.453-3.604c0.664-1.01,0.64-1.051,1.73-0.524c1.27,0.61,2.534,1.231,3.799,1.853   c0.579,0.284,1.135,0.629,1.736,0.853c1.284,0.474,2.626,0.829,3.992,0.587c0.514-0.092,1.002-0.547,1.417-0.928   c1.213-1.112,0.874-1.617,0.122-2.92c-0.65-1.128-1.7-1.773-2.826-2.358c-1.178-0.61-2.3-1.328-3.443-2.002   c-0.928-0.549-1.924-1.014-2.766-1.673c-1.366-1.068-2.569-2.276-3.297-3.943c-0.965-2.204-1.057-4.416-0.633-6.736   c0.279-1.541,0.859-2.955,1.531-4.338c0.252-0.52,0.651-1.005,1.086-1.391c1.061-0.941,2.141-1.873,3.293-2.692   c0.487-0.347,1.174-0.518,1.784-0.561c1.033-0.073,2.081-0.008,3.119,0.052c0.906,0.051,1.812,0.156,2.716,0.268   c0.729,0.09,1.451,0.253,2.185,0.331c0.918,0.096,1.843,0.174,2.767,0.198c1.428,0.036,2.707,0.526,3.928,1.206   c1.267,0.707,2.521,1.438,3.773,2.169c0.363,0.212,0.794,0.333,0.757,0.95C207.844,106.235,208.261,106.501,208.437,106.703z    M196.854,104.524c-0.007-0.046-0.013-0.093-0.021-0.139c-1.471,0.253-2.955,0.446-4.407,0.779   c-1.155,0.264-2.343,0.623-3.179,1.517c-0.592,0.63-1.041,1.411-1.463,2.176c-1.149,2.09-1.781,4.302-1.32,6.711   c0.312,1.636,1.132,3.063,1.957,4.479c0.302,0.512,0.648,1.004,1.023,1.464c1.035,1.269,2.577,1.729,3.979,2.396   c1.041,0.495,2.146,0.857,3.224,1.278c0.289,0.114,0.603,0.19,0.864,0.349c0.505,0.304,0.965,0.684,1.474,0.979   c1.449,0.841,2.036,2.175,2.089,3.755c0.053,1.528-0.613,2.785-1.812,3.722c-1.438,1.12-3.049,1.685-4.914,1.534   c-0.648-0.051-1.211-0.102-1.836-0.383c-1.213-0.55-2.573-0.771-3.784-1.32c-1.272-0.581-1.647-0.398-2.435,0.578   c-0.555,0.69-0.787,1.633-1.285,2.383c-0.441,0.662-0.227,1.156,0.168,1.66c0.168,0.215,0.412,0.38,0.645,0.535   c1.195,0.795,2.607,0.959,3.955,1.277c1.944,0.462,3.909,0.837,5.865,1.245c0.201,0.043,0.412,0.103,0.611,0.085   c1.356-0.127,2.722-0.213,4.066-0.422c2.932-0.453,5.33-1.805,6.979-4.342c0.149-0.234,0.338-0.452,0.459-0.699   c0.162-0.333,0.371-0.684,0.395-1.037c0.057-0.891,0.105-1.797,0.001-2.679c-0.2-1.697-0.473-3.388-0.783-5.068   c-0.245-1.325-0.771-2.571-1.819-3.45c-1.17-0.978-2.409-1.877-3.68-2.718c-0.67-0.443-1.473-0.685-2.209-1.025   c-0.193-0.09-0.383-0.201-0.558-0.325c-0.974-0.691-1.955-1.371-2.903-2.095c-0.594-0.454-1.158-0.954-1.688-1.481   c-0.312-0.31-0.564-0.696-0.786-1.081c-0.342-0.596-0.717-1.265-0.43-1.933c0.377-0.874,0.819-1.766,1.43-2.486   c1.064-1.262,2.635-1.39,4.119-1.221c2.183,0.25,4.341,0.716,6.507,1.103c0.553,0.099,0.934-0.06,1.132-0.6   c0.212-0.575,0.454-1.141,0.637-1.725c0.313-1.007-0.123-1.847-1.117-2.219c-0.104-0.039-0.209-0.079-0.318-0.102   c-1.059-0.216-2.135-0.377-3.178-0.653C200.648,104.834,198.786,104.453,196.854,104.524z M186.259,119.882   c-0.786-1.842-1.093-3.691-0.994-5.699c0.091-1.893,0.541-3.665,1.237-5.348c0.604-1.464,1.365-2.962,3.113-3.522   c1.184-0.38,2.326-0.885,3.512-1.253c0.648-0.201,1.35-0.243,2.028-0.337c1.646-0.229,3.296-0.274,4.941-0.026   c0.893,0.133,1.776,0.321,2.751,0.499c-0.106-0.11-0.137-0.163-0.184-0.188c-0.113-0.062-0.233-0.117-0.354-0.16   c-1.29-0.458-2.626-0.615-3.983-0.741c-1.541-0.144-3.076-0.409-4.594-0.714c-0.992-0.2-1.967-0.408-2.977-0.24   c-0.512,0.084-1.015,0.226-1.522,0.327c-1.473,0.292-2.794,0.875-3.848,1.979c-0.347,0.363-0.755,0.686-1.033,1.096   c-0.536,0.794-1.083,1.6-1.472,2.468c-0.553,1.234-0.666,2.587-0.827,3.922c-0.177,1.462,0.085,2.871,0.588,4.202   C183.293,117.865,184.728,118.935,186.259,119.882z M183.534,128.802c0.125,0.179,0.18,0.308,0.276,0.386   c0.79,0.656,1.545,1.365,2.396,1.933c0.748,0.498,1.565,0.961,2.422,1.206c1.048,0.3,2.054,0.615,2.985,1.203   c0.574,0.359,1.229,0.781,1.865,0.812c0.955,0.043,1.94-0.166,2.886-0.391c1.245-0.298,1.913-1.429,2.85-2.173   c0.188-0.148,0.324-0.361,0.472-0.555c0.362-0.479,0.593-1.029,0.451-1.617c-0.243-1.006-0.788-1.859-1.675-2.4   c-0.873-0.532-1.812-0.957-2.87-1.507c0.103,0.6,0.12,1.045,0.26,1.45c0.29,0.844-0.111,1.561-0.454,2.222   c-0.514,0.994-1.307,1.729-2.458,2.052c-0.817,0.229-1.681,0.575-2.458,0.335c-1.208-0.371-2.316-1.053-3.496-1.538   C185.865,129.758,184.935,128.84,183.534,128.802z M183.499,137.594c0.065-0.007,0.131-0.012,0.196-0.019   c0.121-0.399,0.222-0.808,0.367-1.197c0.249-0.667,0.591-1.306,0.776-1.989c0.186-0.675,0.363-1.289,1.11-1.535   c0.078-0.024,0.136-0.114,0.257-0.226c-1.312-1.231-2.605-2.44-3.898-3.653c-0.104,0.114-0.145,0.14-0.152,0.172   c-0.404,1.366-0.779,2.744-1.223,4.101c-0.214,0.653,0.033,1.127,0.396,1.604c0.485,0.635,0.967,1.271,1.459,1.899   C183.015,137.038,183.262,137.312,183.499,137.594z"/>
	<path fill="#141412" d="M214.238,117.421c0.306-0.042,0.673-0.116,1.044-0.136c0.396-0.022,0.797,0.019,1.195,0.015   c0.5-0.006,1.009,0.017,1.501-0.055c1.465-0.213,2.925-0.068,4.388-0.021c0.483,0.016,0.979,0.013,1.451-0.08   c0.997-0.195,1.814,0.224,2.619,0.685c0.934,0.538,1.863,1.087,2.756,1.689c0.691,0.466,1.354,0.986,1.962,1.553   c0.244,0.228,0.419,0.641,0.438,0.979c0.089,1.692,0.122,3.386,0.163,5.08c0.039,1.698-0.935,1.992-2.369,2.002   c-0.503,0.005-1.012,0.037-1.508,0.118c-1.766,0.287-3.525,0.191-5.295,0.034c-0.892-0.08-1.791-0.039-2.688-0.048   c-1.113-0.008-2.229,0.039-3.336-0.04c-0.456-0.034-0.913-0.3-1.334-0.527c-0.783-0.424-1.552-0.879-2.304-1.356   c-1.084-0.688-1.795-1.597-1.719-2.978c0.021-0.362-0.132-0.731-0.148-1.1c-0.076-1.743,0.083-3.486,1.02-4.972   C212.452,117.668,213.263,117.191,214.238,117.421z M218.56,122.965c0,0.006,0,0.013,0,0.019c-0.5,0.043-1.001,0.118-1.5,0.118   c-0.423-0.001-0.543,0.156-0.552,0.567c-0.018,0.781-0.125,1.561-0.141,2.342c-0.006,0.448,0.04,0.916,0.17,1.343   c0.203,0.668,0.74,0.371,1.181,0.312c0.056-0.006,0.112-0.005,0.169-0.005c1.092,0.004,2.184,0,3.275,0.013   c1.864,0.021,3.729,0.067,5.592,0.072c0.943,0.003,1.891-0.016,2.826-0.107c0.814-0.08,1.002-0.27,0.916-0.817   c-0.164-1.046-0.358-2.088-0.599-3.119c-0.149-0.638-0.625-0.89-1.272-0.807c-0.166,0.022-0.338,0.019-0.508,0.015   c-1.697-0.035-3.394-0.108-5.091-0.1C221.538,122.815,220.05,122.91,218.56,122.965z M213.885,118.726   c-0.014,0.065-0.027,0.128-0.042,0.192c0.983,0.742,1.881,1.55,2.288,2.759c0.037,0.108,0.291,0.215,0.438,0.203   c1.525-0.11,3.051-0.248,4.575-0.372c0.723-0.059,1.444-0.123,2.169-0.153c0.626-0.027,1.255,0.014,1.88-0.016   c0.759-0.034,1.517-0.127,2.277-0.164c0.546-0.027,1.096-0.005,1.645-0.005c0.031-0.039,0.062-0.079,0.093-0.119   c-0.326-0.308-0.617-0.663-0.98-0.915c-0.743-0.51-1.516-0.983-2.297-1.435c-0.279-0.163-0.616-0.304-0.932-0.312   c-0.953-0.031-1.912,0.005-2.869,0.02c-2.202,0.036-4.405,0.062-6.606,0.12C214.975,118.542,214.43,118.657,213.885,118.726z    M212.969,120.619c-0.09,0.312-0.217,0.642-0.275,0.982c-0.072,0.424,0.001,0.896-0.152,1.279c-0.172,0.417-0.134,0.734,0.08,1.082   c0.127,0.206,0.234,0.424,0.381,0.615c0.547,0.707,0.674,1.745,1.814,2.142c0.066-0.264,0.229-0.548,0.188-0.799   c-0.137-0.85-0.231-1.682,0.025-2.531c0.074-0.238,0.102-0.581-0.018-0.771C214.509,121.818,214.336,120.682,212.969,120.619z"/>
	<path fill="#141412" d="M37.902,125.654c-1.019,0.053-2.037,0.121-3.056,0.152c-0.404,0.012-0.808-0.089-1.212-0.084   c-1.068,0.018-2.142,0.008-3.204,0.106c-2.384,0.228-4.728,0.269-6.958-0.821c-1.146-0.561-1.89-1.465-2.564-2.519   c-0.963-1.504-1.321-3.041-0.912-4.804c0.163-0.701,0.07-1.472,0.023-2.208c-0.05-0.792,0.31-1.447,0.781-1.958   c0.237-0.258,0.869-0.203,1.321-0.201c1.038,0.002,2.077,0.044,3.114,0.102c1.156,0.062,2.309,0.18,3.465,0.234   c0.641,0.029,1.286-0.045,1.927-0.034c1.583,0.022,3.187-0.328,4.742,0.182c1.448,0.475,2.529,1.452,3.4,2.674   c0.334,0.469,0.755,0.911,0.953,1.434c0.317,0.838,0.59,1.724,0.685,2.61c0.123,1.153,0.11,2.331,0.033,3.489   c-0.024,0.375-0.365,0.813-0.684,1.066C39.085,125.604,39.052,125.562,37.902,125.654z M28.468,118.632   c-0.001,0.003-0.001,0.005-0.001,0.008c-0.759-0.043-1.518-0.105-2.277-0.122c-0.625-0.014-1.161,0.325-1.218,0.839   c-0.109,0.977-0.205,1.963-0.183,2.944c0.035,1.487,0.717,1.711,1.857,1.739c1.237,0.031,2.475,0.087,3.712,0.075   c1.137-0.011,2.275-0.138,3.413-0.141c1.001-0.003,2.003,0.101,3.004,0.151c0.569,0.027,1.17,0.171,1.7,0.037   c0.71-0.18,1.222-1.421,1.063-2.186c-0.157-0.768-0.271-1.542-0.449-2.305c-0.046-0.193-0.224-0.433-0.399-0.504   c-1.14-0.46-2.354-0.39-3.547-0.416c-0.852-0.018-1.706,0.083-2.557,0.065C31.212,118.784,29.84,118.697,28.468,118.632z    M38.398,118.032c-0.672-1.028-1.509-1.802-2.422-2.484c-0.211-0.157-0.593-0.094-0.898-0.113c-0.167-0.011-0.338,0.04-0.504,0.024   c-1.094-0.099-2.187-0.241-3.281-0.308c-1.729-0.104-3.46-0.164-5.19-0.233c-0.985-0.04-1.973-0.071-2.958-0.087   c-0.295-0.005-0.591,0.062-0.886,0.097c-0.021,0.074-0.041,0.149-0.061,0.223c0.709,0.935,1.418,1.871,2.113,2.787   c0.325-0.091,0.59-0.228,0.856-0.227c1.377,0.01,2.754,0.061,4.131,0.086c0.409,0.006,0.819-0.018,1.229-0.038   c1.003-0.047,2.011-0.178,3.01-0.132C35.123,117.698,36.707,117.885,38.398,118.032z M23.524,122.746c0-0.198,0-0.327,0.001-0.457   c0.005-1.031-0.086-2.075,0.051-3.089c0.097-0.719-0.148-1.177-0.58-1.642c-0.203-0.217-0.408-0.44-0.57-0.688   c-0.356-0.546-0.687-1.11-1.026-1.665c-0.168,0.245-0.232,0.44-0.24,0.64c-0.044,1.074-0.121,2.149-0.093,3.222   c0.015,0.57,0.091,1.208,0.363,1.689C21.893,121.578,22.57,122.261,23.524,122.746z"/>
	<path fill="#141412" d="M158.774,109.067c2.415-0.066,4.539,0.762,6.432,2.131c1.644,1.188,2.967,2.736,4.342,4.225   c1.133,1.226,1.377,2.713,1.636,4.244c0.31,1.827-0.027,3.589-0.321,5.384c-0.348,2.102-1.295,3.875-2.643,5.432   c-0.879,1.016-1.842,2.037-3.34,2.18c-0.157,0.015-0.307,0.131-0.461,0.195c-1.645,0.693-3.397,0.914-5.138,1.194   c-0.616,0.101-1.231,0.226-1.851,0.316c-1.948,0.288-3.834,0.389-5.62-0.795c-1.405-0.931-2.356-2.179-3.187-3.579   c-0.582-0.975-1.192-1.934-1.783-2.903c-0.112-0.187-0.227-0.386-0.279-0.595c-0.252-0.992-0.527-1.98-0.712-2.986   c-0.226-1.229-0.679-2.469-0.293-3.732c0.328-1.076,0.856-2.093,1.142-3.177c0.475-1.802,1.92-2.726,3.186-3.848   c1.908-1.689,4.209-2.596,6.568-3.372C157.182,109.141,157.999,109.164,158.774,109.067z M153.808,130.896   c0.797-0.174,1.587-0.393,2.391-0.508c1.285-0.186,2.527-0.479,3.636-1.173c0.482-0.302,0.959-0.633,1.377-1.018   c0.92-0.847,1.711-1.796,2.156-2.993c0.385-1.035,0.824-2.051,1.18-3.095c0.279-0.819,0.555-1.658,0.666-2.509   c0.131-1.009,0.082-2.04,0.115-3.063c0.043-1.168-0.135-2.298-0.578-3.382c-0.182-0.44-0.39-0.761-0.853-1.067   c-1.13-0.75-2.304-1.378-3.552-1.881c-0.232-0.094-0.506-0.163-0.748-0.136c-0.702,0.076-1.449-0.271-2.111,0.203   c-0.663-0.391-1.248-0.01-1.8,0.247c-2.147,1.001-4.127,2.25-5.595,4.167c-0.846,1.104-1.811,2.15-2.463,3.362   c-0.883,1.64-1.156,3.45-0.576,5.299c0.201,0.639,0.457,1.267,0.6,1.918c0.266,1.207,0.458,2.365,1.395,3.357   C150.37,130.025,151.838,130.875,153.808,130.896z M151.661,131.645c-0.018,0.039-0.033,0.075-0.05,0.113   c0.329,0.141,0.653,0.293,0.989,0.414c0.162,0.059,0.376,0.004,0.514,0.088c0.672,0.404,1.357,0.674,2.146,0.858   c1.475,0.347,2.906,0.093,4.339-0.032c1.276-0.111,2.539-0.445,3.794-0.738c0.684-0.158,1.38-0.36,2.001-0.678   c1.878-0.955,3.078-2.574,3.938-4.427c0.934-2.012,1.215-4.174,1.082-6.379c-0.047-0.779-0.113-1.581-0.347-2.316   c-0.453-1.433-1.321-2.636-2.392-3.685c-0.252-0.247-0.562-0.436-0.856-0.661c0.056,0.603,0.165,1.141,0.144,1.671   c-0.047,1.075-0.137,2.151-0.256,3.221c-0.217,1.953-0.621,3.874-1.496,5.641c-0.405,0.818-1.1,1.49-1.576,2.279   c-0.926,1.533-1.998,2.903-3.561,3.849c-0.873,0.526-1.812,0.967-2.789,1.028c-1.425,0.092-2.865-0.076-4.299-0.143   C152.543,131.729,152.101,131.68,151.661,131.645z"/>
	<path fill="#141412" d="M119.287,121.121c-1.475-0.14-2.147-0.26-2.548-1.347c-0.154-0.416-0.178-0.894-0.19-1.345   c-0.04-1.604-0.027-3.212-0.076-4.818c-0.031-0.983-0.154-1.962-0.206-2.945c-0.024-0.456-0.027-0.924,0.052-1.371   c0.033-0.188,0.271-0.416,0.466-0.489c1.266-0.474,2.539-0.654,3.803,0.048c0.663,0.37,1.348,0.699,2.017,1.056   c1.125,0.6,1.618,1.641,1.935,2.8c0.034,0.127,0.028,0.278,0.098,0.378c0.622,0.898,0.562,1.899,0.325,2.863   c-0.178,0.725-0.509,1.428-0.873,2.085c-0.934,1.688-2.481,2.563-4.283,3.054C119.63,121.136,119.434,121.113,119.287,121.121z    M117.749,115.596c-0.023,0.002-0.047,0.003-0.071,0.006c0,0.187-0.016,0.375,0.002,0.56c0.1,1.019,0.226,2.034,0.31,3.054   c0.057,0.704,0.491,1.157,1.21,1.095c0.916-0.078,1.781-0.321,2.494-0.963c1.122-1.01,1.821-2.287,2.323-3.682   c0.074-0.204-0.182-0.57-0.079-0.715c0.342-0.478,0.112-0.984,0.029-1.387c-0.291-1.421-0.998-2.568-2.382-3.286   c-1.168-0.607-2.326-1.028-3.655-0.928c-0.354,0.026-0.469,0.198-0.474,0.481c-0.011,0.58-0.017,1.161,0.018,1.741   C117.553,112.915,117.656,114.255,117.749,115.596z"/>
</g>
</svg>