<svg xmlns="http://www.w3.org/2000/svg" xmlns:xlink="http://www.w3.org/1999/xlink" version="1.1" id="Calque_1" x="0px" y="0px" width="255.118px" height="170.078px" viewBox="0 0 255.118 170.078" enable-background="new 0 0 255.118 170.078" xml:space="preserve">
<g>
	<path fill="#141412" d="M25.539,39.854l1.817,0.166l2.479,0.328c0.992,0.165,2.038,0.442,2.976,0.771   c0.385,0.109,0.77,0.273,1.1,0.438c0.499,0.224,0.828,0.605,0.938,1.158c0.111,0.44,0.22,0.883,0.22,1.321   c0,0.661,0,1.323-0.056,1.983l-0.165,1.545l-0.332,1.981c-0.22,1.103-0.495,2.261-0.825,3.306   c-0.276,1.045-0.606,1.982-1.046,2.977l-0.33,0.607c-0.223,0.493-0.661,0.715-1.214,0.715c-0.44,0-0.827,0-1.212-0.057   c-0.661-0.109-1.268-0.33-1.819-0.496l-1.321-0.494c-0.22-0.108-0.441-0.166-0.717-0.224c-0.33-0.108-0.606-0.33-0.826-0.604   c-0.274-0.332-0.386-0.827-0.054-1.265l0.11-0.167c0.608-0.718,0.991-1.542,1.211-2.479c0.222-1.045,0.276-2.038,0.167-3.09   c0-0.383-0.11-0.713-0.167-1.045c-0.165-0.553-0.385-1.047-0.715-1.484c-0.441-0.553-0.993-1.05-1.652-1.379   c-0.604-0.387-1.323-0.662-2.038-0.827c-0.552-0.108-1.103-0.167-1.598-0.056c-0.332,0.056-0.607,0.111-0.881,0.221   c-0.497,0.275-0.881,0.662-1.158,1.156c-0.11,0.274-0.165,0.555-0.22,0.828c-0.109,0.386-0.165,0.771-0.165,1.155   c-0.054,1.048,0.111,2.093,0.385,3.142c0.22,0.992,0.552,1.981,0.936,2.976c0.442,1.265,0.993,2.479,1.599,3.69   c0,0.111,0.054,0.166,0.111,0.275c0,0.109-0.057,0.223-0.167,0.223l-0.55-0.113c0,0-0.056,0.056-0.056,0.113h0.056v0.052   c0.22,0.058,0.385,0.114,0.55,0.114c0.11,0.05,0.221-0.057,0.332,0.05l0.165,0.278l3.141,6.275c0.55,1.105,1.1,2.262,1.596,3.418   c0.497,1.158,0.936,2.426,1.268,3.689c0.165,0.72,0.33,1.434,0.33,2.147c0,0.33-0.055,0.607-0.055,0.938l-0.165,0.551   c-0.11,0.277-0.274,0.607-0.497,0.883c-0.439,0.661-0.936,1.266-1.542,1.817c-0.826,0.77-1.761,1.487-2.752,2.091   c-0.773,0.497-1.653,0.938-2.535,1.323c-0.993,0.388-1.984,0.718-3.085,0.885c-0.771,0.106-1.597,0.165-2.423,0.053   c-0.662-0.11-1.27-0.22-1.876-0.44c-0.937-0.328-1.708-0.881-2.369-1.541c-0.827-0.826-1.431-1.819-1.818-2.922   c-0.441-0.99-0.66-2.093-0.827-3.19c-0.165-1.16-0.165-2.315-0.053-3.418c0.053-0.661,0.165-1.267,0.385-1.874   c0.053-0.219,0.165-0.382,0.274-0.607c0.167-0.33,0.44-0.604,0.826-0.712c0.332-0.112,0.662-0.167,0.993-0.221   c0.66,0,1.321,0.055,1.927,0.165c0.551,0.056,1.047,0.219,1.544,0.384c0.44,0.113,0.88,0.332,1.267,0.552   c0.221,0.11,0.385,0.221,0.553,0.388c0.054,0.052,0.054,0.105,0.108,0.105c0.057,0.165,0,0.332-0.108,0.442l-0.223,0.167   c-0.33,0.163-0.55,0.384-0.717,0.714c-0.165,0.386-0.33,0.771-0.384,1.156c-0.165,0.553-0.165,1.158-0.165,1.711   c0,0.494,0,1.047,0.109,1.54c0.056,0.333,0.165,0.604,0.274,0.938c0.111,0.438,0.278,0.826,0.496,1.156   c0.221,0.438,0.552,0.826,0.992,1.048c0.165,0.108,0.332,0.165,0.442,0.165c0.604,0.164,1.156,0.22,1.763,0.11   c0.661-0.11,1.266-0.275,1.873-0.605c0.441-0.167,0.826-0.443,1.156-0.775c0.606-0.604,0.826-1.372,0.718-2.256   c-0.112-0.825-0.332-1.651-0.662-2.424c-0.386-1.154-0.936-2.203-1.433-3.305c-0.717-1.377-1.487-2.756-2.259-4.134l-1.816-3.251   l-1.158-2.147c-0.33-0.606-0.551-1.269-0.826-1.93c-0.276-0.826-0.606-1.651-0.826-2.531c-0.387-1.157-0.662-2.368-0.773-3.583   c-0.053-0.66-0.109-1.375-0.053-2.093c0-0.497,0.053-0.935,0.109-1.433c0.167-0.937,0.331-1.817,0.718-2.699l0.275-0.662   c0.165-0.382,0.33-0.768,0.551-1.102c0.385-0.442,0.826-0.826,1.323-1.156c0.44-0.273,0.935-0.495,1.432-0.719   c0.771-0.271,1.543-0.438,2.314-0.604c0.771-0.106,1.488-0.219,2.257-0.272h0.167c0.717-0.055,1.488-0.055,2.203-0.055   C24.105,39.798,24.821,39.798,25.539,39.854"/>
	<path fill="#141412" d="M46.586,55.939h0.056v4.408c0,0.164,0.111,0.271,0.276,0.271c0.055,0.058,0.055,0.058,0.109,0.058   c0.332,0.057,0.717,0.108,1.047,0.108c1.046,0.167,2.094,0.059,3.14-0.167c1.156-0.271,2.203-0.823,3.084-1.594   c0.551-0.44,0.883-1.049,1.047-1.763c0.165-0.72,0.111-1.546,0.055-2.315c-0.111-0.659-0.22-1.319-0.387-1.982   c-0.219-0.659-0.386-1.322-0.66-1.982c-0.221-0.608-0.497-1.213-0.827-1.818c-0.276-0.605-0.661-1.213-1.103-1.762   c-0.109-0.168-0.274-0.332-0.441-0.442c-0.271-0.219-0.55-0.274-0.881-0.108l-0.935,0.717c-0.441,0.384-0.883,0.824-1.268,1.322   l-2.092,2.311l-0.111,0.113c-0.056,0.107-0.111,0.166-0.111,0.274v4.353H46.586z M38.379,47.232v-4.129   c0-0.717,0.053-1.436,0.108-2.203l0.167-0.883V39.85c0.054-0.107,0.109-0.166,0.219-0.217l0.937-0.334   c1.047-0.33,2.094-0.658,3.141-0.935c0.662-0.112,1.266-0.222,1.873-0.222h0.606c0.33,0.056,0.606,0.222,0.771,0.498   c0.11,0.107,0.165,0.272,0.22,0.383c0.165,0.33,0.221,0.66,0.276,0.994c0.165,0.937,0.221,1.873,0.221,2.809   c0,0.939-0.056,1.874-0.11,2.809c0,0.276-0.055,0.553-0.111,0.885v0.22c0,0.052,0.056,0.052,0.056,0.11h0.109l0.22-0.275   c0.662-0.881,1.268-1.766,1.985-2.592c1.044-1.323,2.091-2.588,3.303-3.748c0.497-0.493,0.937-0.936,1.543-1.321   c0.22-0.165,0.441-0.33,0.715-0.437c0.111-0.06,0.221-0.113,0.331-0.113c0.386-0.167,0.716-0.055,0.992,0.113   c0.332,0.162,0.606,0.379,0.826,0.603c0.441,0.44,0.827,0.993,1.212,1.542c0.607,0.938,1.158,1.93,1.655,2.921   c0.438,0.993,0.879,2.039,1.211,3.03c0.495,1.375,0.88,2.811,1.156,4.24c0.165,0.664,0.22,1.322,0.33,2.037v0.496l0.111,0.991   v0.444c-0.056,0.601-0.056,1.156-0.165,1.759l-0.275,1.104c-0.771,2.148-2.094,3.855-3.967,5.068   c-1.268,0.878-2.589,1.434-4.022,1.872c-0.66,0.163-1.321,0.329-1.982,0.442c-0.441,0.054-0.938,0.164-1.433,0.164h-0.165   c-0.717,0.111-1.376,0.111-2.038,0.111c-0.387,0-0.717-0.058-1.103-0.111h-0.44c-0.109,0-0.165,0.054-0.165,0.166   c-0.056,0.164-0.056,0.332-0.056,0.496v3.91c0,2.092,0,4.188-0.056,6.336c0,0.328-0.055,0.717-0.109,1.103   c0,0.112-0.056,0.165-0.165,0.22h-0.33c-0.937,0.112-1.819,0.112-2.756,0c-0.548-0.055-1.101-0.165-1.653-0.332l-0.604-0.33   c-0.167-0.166-0.332-0.382-0.387-0.604c0-0.162-0.055-0.273-0.055-0.438l-0.11-0.661l-0.109-1.322   c-0.055-0.606-0.11-1.215-0.222-1.817c0-0.442-0.054-0.826-0.11-1.214c0-0.551-0.055-1.048-0.109-1.596l-0.167-1.818l-0.165-1.764   c0-0.166,0-0.33-0.056-0.549c0-0.168,0-0.389-0.056-0.607c0-0.219,0-0.496-0.053-0.717v-0.387c0-0.22,0-0.438-0.057-0.715   l-0.108-1.048c0-0.388-0.057-0.826-0.057-1.267l-0.165-2.204l-0.165-1.709l-0.111-2.534l-0.165-2.591l-0.112-2.863   c0-0.222,0-0.44,0.056-0.604C38.432,47.564,38.379,47.4,38.379,47.232"/>
	<path fill="#141412" d="M65.212,67.509v-2.095c0.055-1.211,0.055-2.369,0.055-3.525l0.109-2.26v-1.21l0.111-1.981   c0-1.053,0.054-2.041,0.11-3.086l0.165-3.416c0-0.276,0-0.55,0.055-0.828l0.165-2.367c0-0.387,0.056-0.828,0.111-1.213l0.221-2.094   c0.109-0.443,0.165-0.938,0.329-1.377c0-0.057,0-0.11,0.055-0.224l0.167-0.108c0.055-0.056,0.108-0.056,0.165-0.056   c0.331-0.108,0.717-0.219,1.046-0.274c0.221-0.107,0.441-0.166,0.662-0.221c0.055,0,0.108-0.055,0.165-0.055   c0.605-0.057,1.267-0.221,1.928-0.275c0.386-0.054,0.771-0.054,1.156-0.054c0.221,0,0.497,0,0.771-0.058   c0.991-0.166,1.984-0.387,3.031-0.605c0.662-0.107,1.379-0.275,2.038-0.441l3.417-0.715l1.927-0.441   c0.332-0.109,0.662-0.161,0.993-0.217c0.053,0,0.053-0.059,0.109-0.059c0.276-0.054,0.496,0.059,0.661,0.275l0.274,0.551   c0.111,0.332,0.167,0.662,0.22,0.993c0.112,0.659,0.112,1.323,0.112,1.928v0.989c0,0.609-0.112,1.271-0.221,1.876l-0.165,0.604   c-0.112,0.167-0.221,0.333-0.441,0.388l-0.771,0.168c-0.661,0.107-1.267,0.219-1.928,0.219c-0.386,0.053-0.716,0.111-1.047,0.111   l-1.873,0.166h-0.055l-2.976,0.164h-0.33l-1.929,0.108h-0.22c-0.11,0-0.165,0.113-0.165,0.167   c-0.056,0.111-0.056,0.163-0.056,0.223l-0.384,2.258c0,0.221-0.058,0.441-0.058,0.658l-0.22,1.875l-0.109,1.543   c-0.056,0.113-0.056,0.221-0.056,0.332l-0.165,1.764c0,0.547-0.109,1.156-0.109,1.708c-0.056,0.438-0.111,0.821-0.111,1.267   l-0.165,1.872l-0.165,1.763c0,0.221,0,0.44-0.055,0.607c0,0.107,0.112,0.165,0.165,0.165h0.165c0.662-0.165,1.323-0.275,1.984-0.39   c0.606-0.051,1.212-0.164,1.873-0.271c0.826-0.111,1.653-0.163,2.534-0.221c0.386-0.053,0.827,0,1.268,0.058   c0.055,0,0.165,0.052,0.274,0.106c0.057,0.057,0.111,0.166,0.111,0.222c0.054,0.497,0.054,0.993,0,1.487   c0,0.168-0.054,0.33-0.111,0.498c-0.11,0.271-0.33,0.384-0.551,0.496c-0.22,0.055-0.44,0.055-0.659,0.055   c-0.607,0-1.269,0.054-1.875,0.109l-1.046,0.107c-0.55,0.112-1.046,0.167-1.597,0.225l-2.423,0.33   c-0.057,0.055-0.112,0.055-0.167,0.055c-0.11,0.051-0.222,0.108-0.222,0.218v0.167l-0.108,0.988   c-0.056,0.611-0.111,1.158-0.111,1.769l-0.165,1.649l-0.165,1.814l-0.109,0.885v0.332c0,0.057,0.109,0.106,0.165,0.106   c0.056,0.058,0.165,0.058,0.221,0.058c0.662,0.057,1.321,0.168,2.038,0.168c0.495,0,1.047,0.056,1.543,0.104   c0.716,0,1.488,0.056,2.206,0.056c0.548,0,1.1,0.059,1.652,0.059c0.771,0,1.485,0.055,2.201,0.055c0.881,0,1.763,0,2.646,0.054   h1.762c0.276,0,0.441,0.112,0.496,0.332c0.11,0.165,0.165,0.388,0.165,0.607c0.057,0.491,0.057,0.991,0,1.485   c-0.108,0.824-0.275,1.651-0.55,2.479c-0.167,0.661-0.387,1.322-0.717,1.93l-0.274,0.44c-0.111,0.108-0.276,0.167-0.441,0.167   h-1.267l-1.103-0.11l-2.589-0.444l-2.148-0.33l-1.874-0.383l-1.928-0.33c-1.047-0.222-2.094-0.494-3.197-0.662   c-0.385-0.108-0.715-0.108-1.1-0.164c-0.717-0.055-1.433-0.164-2.095-0.441c-0.329-0.107-0.661-0.219-0.937-0.438   c-0.33-0.276-0.551-0.606-0.551-1.049v-9.916h0.057V67.509z"/>
	<path fill="#141412" d="M86.701,60.787l0.165-1.819c0-0.493,0.053-0.937,0.111-1.432c0-0.108,0.054-0.167,0.165-0.273   c0.054-0.058,0.054-0.11,0-0.167c-0.055-0.056-0.111-0.164-0.111-0.221c0.111-0.549,0.111-1.046,0.221-1.542   c0.055-0.606,0.165-1.212,0.276-1.817c0.108-0.883,0.275-1.764,0.44-2.645c0.165-0.938,0.384-1.874,0.606-2.809   c0.165-0.662,0.385-1.323,0.606-1.984c0.221-0.495,0.495-0.938,0.882-1.323c0.385-0.386,0.882-0.718,1.376-1.048   c0.882-0.495,1.82-0.879,2.755-1.21c0.935-0.332,1.873-0.606,2.809-0.826l2.479-0.495l1.873-0.221   c0.608-0.109,1.211-0.165,1.817-0.165c0.607-0.058,1.213-0.111,1.875-0.111c0.495,0,0.991,0,1.486,0.054   c0.717,0,1.433,0.058,2.096,0.276l0.659,0.167c0.385,0.163,0.662,0.44,0.826,0.826c0.221,0.384,0.276,0.771,0.333,1.21   c0,0.604,0,1.212-0.056,1.815c-0.276,1.652-0.717,3.307-1.323,4.853c-0.221,0.603-0.495,1.21-0.771,1.817   c-0.221,0.549-0.496,1.102-0.828,1.595c-0.165,0.333-0.384,0.556-0.606,0.828c-0.218,0.33-0.494,0.553-0.824,0.716   c-0.606,0.275-1.158,0.442-1.819,0.607c-0.495,0.107-0.991,0.219-1.542,0.272c-0.606,0.112-1.268,0.112-1.873,0.056   c-0.33-0.056-0.606-0.11-0.827-0.221c-0.167-0.107-0.221-0.167-0.276-0.33c-0.053-0.164-0.11-0.274-0.11-0.439   c0-0.497,0-0.936,0.057-1.379c0.163-1.598,0.55-3.082,0.935-4.629c0.165-0.933,0.441-1.869,0.662-2.807l0.109-0.658   c0-0.112,0-0.224,0.055-0.334c0-0.22-0.109-0.383-0.332-0.55c0,0-0.054-0.056-0.107-0.056c-0.388-0.167-0.773-0.217-1.214-0.167   c-0.826,0.058-1.543,0.446-2.149,0.938c-0.659,0.551-1.211,1.267-1.652,1.981c-0.438,0.718-0.771,1.49-1.045,2.262   c-0.387,0.938-0.661,1.87-0.884,2.861l-0.494,2.536c-0.055,0.662-0.222,1.322-0.222,1.984l-0.165,1.265l-0.165,1.487   c-0.11,1.486-0.164,2.975-0.11,4.519v3.03c0,0.33,0.055,0.66,0.11,0.99l0.11,1.213c0.055,0.771,0.167,1.543,0.332,2.313   c0.11,0.552,0.274,1.048,0.495,1.545l0.332,0.604l0.274,0.222c0.22,0.11,0.44,0.163,0.661,0.055   c0.332-0.11,0.605-0.332,0.771-0.605l0.332-0.662l0.221-0.826c0.165-0.604,0.22-1.156,0.33-1.761   c0.165-0.883,0.275-1.766,0.497-2.645c0.165-0.494,0.33-0.99,0.604-1.436c0.221-0.328,0.551-0.604,0.938-0.771   c0.497-0.217,0.991-0.217,1.488-0.167c0.715,0.167,1.321,0.496,1.873,0.884c0.496,0.385,0.881,0.828,1.156,1.321   c0.332,0.499,0.497,1.101,0.552,1.707c0.054,0.497-0.056,0.991-0.275,1.435c-0.167,0.438-0.387,0.826-0.606,1.269   c-0.606,0.938-1.268,1.875-2.091,2.646c-0.497,0.554-1.049,0.988-1.599,1.431c-1.103,0.771-2.259,1.269-3.526,1.544   c-0.662,0.107-1.323,0.221-1.982,0.167c-0.883-0.06-1.708-0.167-2.535-0.497l-0.496-0.164c-0.662-0.224-1.158-0.554-1.653-1.05   c-0.386-0.44-0.716-0.991-0.993-1.54c-0.33-0.66-0.551-1.378-0.771-2.098c-0.221-0.937-0.439-1.928-0.55-2.861   c-0.11-0.885-0.165-1.711-0.221-2.536c-0.055-0.885-0.055-1.761-0.055-3.084C86.589,63.045,86.644,61.889,86.701,60.787"/>
	<path fill="#141412" d="M103.948,35.005c-0.277-0.167-0.497-0.386-0.718-0.608l-0.66-1.101c-0.055-0.167-0.165-0.386-0.11-0.604   c0-0.055,0-0.166,0.056-0.166c0.33-0.112,0.608-0.276,0.881-0.385c0.495-0.168,0.936-0.33,1.379-0.554   c0.108-0.108,0.273-0.165,0.383-0.165c1.156-0.439,2.37-0.826,3.638-1.21c0.385-0.055,0.717-0.165,1.102-0.277   c0.716-0.22,1.486-0.384,2.259-0.549c0.274-0.056,0.55-0.056,0.826-0.056c0.11,0,0.221,0,0.33-0.057   c0.385-0.273,0.826-0.273,1.323-0.329c0.771-0.111,1.597-0.167,2.424-0.22c0.605-0.056,1.267,0,1.873,0.053l1.871,0.332   c0.662,0.056,1.27,0.165,1.875,0.277c0.332,0.054,0.662,0.107,0.937,0.107c0.274,0.058,0.496,0.058,0.771,0.169   c0.334,0.054,0.664,0.163,0.993,0.108c0.386,0.11,0.771,0.165,1.158,0.219c0.109,0,0.219,0.059,0.329,0.111   c0,0,0.056,0,0.056,0.058c0.11,0.055,0.274,0.109,0.387,0.055c0.33-0.055,0.604-0.055,0.88,0c1.047,0.219,2.148,0.332,3.252,0.385   c0.107,0.055,0.275,0.055,0.385,0.055c0.496,0.107,0.99,0.107,1.484,0.107c0.332,0.059,0.609,0.059,0.939,0.059   c1.486,0.164,2.973,0.164,4.463,0.164h0.383c0.498,0,0.939-0.056,1.383-0.11c0.385-0.054,0.77-0.054,1.154-0.054   c0.494,0,0.99-0.059,1.486-0.168l1.764-0.272c0.441-0.055,0.826-0.111,1.268-0.22c0.494-0.058,1.047-0.169,1.545-0.277   c0.604-0.11,1.154-0.277,1.76-0.44c0.719-0.275,1.434-0.44,2.205-0.716c0.166-0.11,0.332-0.11,0.496-0.221   c0.826-0.386,1.762-0.716,2.59-1.1c1.102-0.442,2.146-0.884,3.248-1.272c0.221-0.109,0.443-0.163,0.719-0.215   c0.166,0,0.275-0.059,0.385-0.165c0.391-0.279,0.826-0.497,1.271-0.663c0.494-0.163,0.934-0.386,1.377-0.605l0.492-0.167   c0.389-0.165,0.719-0.275,1.049-0.496l0.717-0.274c0.33-0.109,0.662-0.219,0.938-0.386c0.328-0.167,0.658-0.33,0.99-0.384h0.221   c0.604,0.273,1.213,0.604,1.764,0.933l0.883,0.607c0.439,0.277,0.771,0.609,1.156,0.939c0.715,0.603,1.1,1.323,1.268,2.2   c0.055,0.114,0.055,0.167,0.055,0.223c-0.055,0.44-0.223,0.827-0.492,1.156c-0.332,0.275-0.662,0.553-1.049,0.77   c-0.494,0.277-1.047,0.555-1.543,0.883c-0.664,0.332-1.322,0.66-2.039,0.937c-0.221,0.058-0.439,0.165-0.66,0.277   c-0.275,0.11-0.494,0.218-0.771,0.274c-0.221,0.108-0.494,0.221-0.715,0.274c-0.883,0.388-1.766,0.718-2.645,0.991l-0.607,0.165   c-1.211,0.444-2.424,0.825-3.635,1.104c-0.111,0-0.223,0-0.33,0.052c-0.771,0.277-1.652,0.444-2.424,0.721   c-0.334,0.107-0.607,0.165-0.939,0.22c-0.438,0.054-0.828,0.165-1.211,0.274c-0.994,0.22-2.039,0.387-3.031,0.554   c-0.439,0.108-0.934,0.108-1.377,0.165c-0.604,0.107-1.266,0.217-1.873,0.275c-0.219,0.052-0.496,0.052-0.715,0.052h-0.553   c-1.1,0.11-2.201,0.054-3.25,0c-0.771,0-1.486-0.052-2.256-0.163c-0.557-0.057-1.16-0.113-1.768-0.277l-1.049-0.109   c-0.273-0.056-0.604-0.109-0.936-0.109c-1.156-0.167-2.312-0.277-3.416-0.553c-0.439-0.056-0.883-0.108-1.268-0.221   c-0.387-0.107-0.824-0.107-1.268-0.216c-0.439-0.112-0.881-0.112-1.32-0.167c-0.055-0.056-0.167,0-0.223,0   c-0.107,0-0.273,0.111-0.33,0.219c0,0.164-0.055,0.276-0.055,0.441c0,1.323-0.056,2.646-0.109,4.02c0,0.553-0.055,1.159,0,1.764   c0,0.609,0,1.212-0.055,1.818c0,0.442,0,0.883-0.056,1.379v0.494c0.056,2.205,0,4.406,0.056,6.557c0.055,0.885,0,1.709,0,2.535   v0.771c0,0.33,0.055,0.718,0,1.049c0,0.107,0,0.273-0.056,0.386c-0.058,0.108-0.058,0.218,0,0.33   c0.056,0.166,0.109,0.328,0.109,0.498c0,0.383,0,0.77,0.056,1.153c0,1.156,0,2.261,0.057,3.416c0.055,1.323,0.055,2.646,0.055,3.97   v0.771c0,1.487,0,2.976,0.055,4.461v5.069c0.055,0.603,0,1.265,0,1.873c0,0.053-0.055,0.164-0.055,0.218   c0,0.112-0.165,0.222-0.274,0.278c-0.717,0.108-1.488,0.054-2.205,0l-0.826-0.166c-0.441-0.06-0.826-0.223-1.158-0.496   c-0.274-0.164-0.439-0.388-0.494-0.659c-0.11-0.332-0.165-0.662-0.165-1.048c-0.054-0.605-0.11-1.156-0.221-1.766   c0-0.165,0-0.326-0.056-0.553c0-0.547-0.056-1.1-0.165-1.652c0-0.328,0-0.658-0.056-0.934c0-0.391,0-0.721-0.053-1.104   c-0.112-0.607-0.112-1.211-0.167-1.871c0-0.555,0-1.104-0.11-1.653l-0.111-0.771c0-0.278,0-0.553-0.055-0.825   c-0.054-0.442-0.108-0.826-0.108-1.271c0-0.439,0-0.938-0.055-1.375v-0.551c-0.167-0.553-0.111-1.104-0.167-1.656   c0-0.438-0.055-0.824-0.109-1.264l-0.108-1.049c0-0.547,0-1.043-0.059-1.596c-0.106-1.047-0.163-2.093-0.163-3.14   c0-0.495,0-0.994-0.11-1.486l-0.111-0.827c0-0.938-0.054-1.818-0.11-2.756l-0.109-1.601c0-0.824,0-1.705-0.167-2.531V43.27   l-0.11-0.826c-0.109-0.496-0.109-0.937-0.167-1.375c0-0.331,0-0.661-0.11-0.94c-0.055-0.163-0.055-0.382-0.055-0.547   c-0.053-0.608-0.11-1.267-0.22-1.876c-0.109-0.826-0.221-1.594-0.274-2.421l-0.165-1.158c-0.055-0.272-0.22-0.44-0.496-0.44h-1.377   c-0.167,0-0.276,0-0.441-0.054c-0.44-0.11-0.882,0-1.323,0c-0.109,0-0.165,0.054-0.221,0.108c-0.053,0.057-0.109,0.111-0.165,0.111   c-0.165,0.219-0.441,0.328-0.715,0.44l-2.536,0.66c-0.44,0.11-0.882,0.223-1.321,0.438c-0.552,0.221-1.158,0.332-1.71,0.555   c-0.495,0.052-0.991,0.164-1.432,0.273c-0.497,0.057-0.938,0-1.377-0.055c-0.387-0.055-0.772-0.167-1.1-0.386   c-0.167-0.058-0.278-0.167-0.443-0.33c-0.165-0.11-0.274-0.273-0.385-0.497L103.948,35.005L103.948,35.005z"/>
	<path fill="#141412" d="M146.26,68.112l-0.166-1.765c0-0.768-0.057-1.541-0.107-2.313v-0.271l-0.332-4.299l-0.111-1.323   l-0.162-1.707l-0.168-1.599c0-0.274-0.053-0.551-0.053-0.822c-0.109-0.555-0.166-1.104-0.225-1.655   c-0.055-0.223-0.105-0.439-0.105-0.661h-0.113c-0.107,0.165-0.107,0.329-0.107,0.438c-0.107,0.663-0.223,1.323-0.275,1.984   l-0.385,2.425l-0.223,1.872c-0.107,0.718-0.219,1.381-0.273,2.041l-0.275,1.709l-0.164,1.208c-0.109,0.885-0.221,1.818-0.389,2.7   l-0.219,1.707c-0.057,0.222-0.057,0.444-0.057,0.659c-0.055,0.059,0.057,0.113,0.109,0.168c0.059,0,0.111,0,0.164,0.056   c0.225,0,0.439,0.057,0.662,0.057l2.426,0.384c0.111,0,0.221,0,0.328,0.055c0.166,0,0.223-0.109,0.223-0.221   c0-0.273,0-0.55-0.057-0.826L146.26,68.112L146.26,68.112L146.26,68.112z M139.706,41.561c1.047-0.275,2.094-0.494,3.084-0.607   c0.605-0.107,1.156-0.107,1.764-0.053c0.385,0,0.717,0.108,1.047,0.33c0.66,0.498,1.266,1.045,1.875,1.599   c1.211,1.265,2.256,2.588,3.084,4.073c1.104,1.929,1.875,3.968,2.312,6.117l0.332,2.205c0.059,0.826,0.166,1.652,0.273,2.479   c0,0.275,0.057,0.605,0.057,0.879l0.277,2.372l0.162,1.872c0.057,0.497,0.057,1.044,0.168,1.54   c0.055,0.553,0.055,1.155,0.166,1.709l0.109,1.1c0.053,0.607,0.105,1.214,0.105,1.763c0.057,0.389,0.113,0.774,0.113,1.156   l0.162,1.819l0.166,1.599l0.164,2.149v0.442c0.057,0.933,0.111,1.813,0.221,2.75c0.057,0.939,0.057,1.931,0.057,2.924   c0,0.218,0,0.496-0.057,0.714c0,0.057-0.053,0.11-0.105,0.165c-0.113,0-0.223,0.056-0.334,0.056l-1.541,0.272   c-0.936,0.166-1.873,0.274-2.811,0.332c-0.551,0-1.104,0-1.65-0.166c-0.275-0.053-0.553-0.166-0.828-0.329   c-0.33-0.165-0.549-0.44-0.662-0.771c-0.055-0.165-0.107-0.331-0.107-0.499c-0.109-0.603-0.223-1.212-0.275-1.87l-0.168-1.654   v-0.604c-0.055-0.165-0.055-0.389-0.055-0.606c0-0.056-0.055-0.112-0.055-0.164c0-0.826-0.107-1.601-0.107-2.428l-0.111-0.937   c0-0.604-0.055-1.214-0.109-1.813v-0.168c0-0.107-0.109-0.162-0.271-0.162c-0.113-0.06-0.225-0.06-0.33-0.06   c-0.391,0-0.773,0.06-1.105,0.06h-2.588c-0.166,0.055-0.221,0.105-0.221,0.271l-0.277,1.767c-0.053,0.604-0.164,1.211-0.271,1.815   l-0.223,1.705c-0.166,0.829-0.273,1.653-0.385,2.538l-0.275,1.542l-0.166,0.549c0,0.108-0.057,0.108-0.107,0.108h-0.443   c-0.771-0.108-1.541-0.219-2.258-0.49c-0.438-0.167-0.883-0.444-1.211-0.774c-0.275-0.219-0.438-0.549-0.438-0.935   c0-0.495,0-0.938,0.055-1.381v-0.217l0.166-2.369l0.162-2.479l0.109-1.322c0-0.059-0.055-0.059-0.055-0.109   c0-0.059-0.057-0.165-0.107-0.165h-0.441c-0.713-0.056-1.434-0.056-2.148-0.056c-0.109,0-0.166-0.059-0.275-0.059   c-0.221,0-0.438-0.167-0.438-0.496c0-0.218,0-0.383,0.107-0.605c0.055-0.222,0.109-0.438,0.221-0.659   c0.109-0.33,0.275-0.662,0.33-1.048c0.055-0.166,0.168-0.274,0.33-0.274c0.273-0.056,0.496-0.108,0.717-0.108   c0.443,0,0.881,0,1.322,0.053h0.387c0.221,0,0.275-0.053,0.328-0.276c0-0.44,0.055-0.933,0.111-1.379l0.164-1.815v-0.276   c0.055-0.769,0.111-1.599,0.223-2.368l0.109-1.764l0.164-1.705c0-0.057,0-0.168,0.057-0.224l0.166-2.146l0.162-1.711   c0-0.271,0.057-0.605,0.109-0.881l0.166-1.486l0.109-1.214l0.387-3.247l0.273-1.876c0.166-1.101,0.33-2.149,0.605-3.249   L139.706,41.561z"/>
	<path fill="#141412" d="M157.172,60.787l0.166-1.819c0-0.493,0.057-0.937,0.109-1.432c0-0.108,0.055-0.167,0.166-0.273   c0.055-0.058,0.055-0.11,0-0.167c-0.059-0.056-0.111-0.164-0.111-0.221c0.111-0.549,0.111-1.046,0.221-1.542   c0.057-0.606,0.168-1.212,0.275-1.817c0.107-0.883,0.271-1.764,0.439-2.645c0.164-0.938,0.389-1.874,0.607-2.809   c0.162-0.662,0.383-1.323,0.604-1.984c0.221-0.495,0.496-0.938,0.881-1.323c0.387-0.386,0.881-0.718,1.377-1.048   c0.881-0.495,1.816-0.879,2.756-1.21c0.936-0.332,1.871-0.606,2.809-0.826l2.482-0.495l1.871-0.221   c0.604-0.109,1.213-0.165,1.816-0.165c0.605-0.058,1.211-0.111,1.875-0.111c0.492,0,0.99,0,1.486,0.054   c0.715,0,1.432,0.058,2.094,0.276l0.66,0.167c0.385,0.163,0.66,0.44,0.826,0.826c0.221,0.384,0.271,0.771,0.33,1.21   c0,0.604,0,1.212-0.059,1.815c-0.271,1.652-0.715,3.307-1.318,4.853c-0.223,0.603-0.496,1.21-0.771,1.817   c-0.223,0.549-0.498,1.102-0.828,1.595c-0.164,0.333-0.387,0.556-0.604,0.828c-0.221,0.33-0.498,0.553-0.826,0.716   c-0.605,0.275-1.156,0.442-1.82,0.607c-0.492,0.107-0.988,0.219-1.541,0.272c-0.604,0.112-1.268,0.112-1.873,0.056   c-0.328-0.056-0.604-0.11-0.826-0.221c-0.164-0.107-0.221-0.167-0.273-0.33c-0.057-0.164-0.113-0.274-0.113-0.439   c0-0.497,0-0.936,0.059-1.379c0.166-1.598,0.553-3.082,0.938-4.629c0.166-0.933,0.439-1.869,0.662-2.807l0.109-0.658   c0-0.112,0-0.224,0.055-0.334c0-0.22-0.109-0.383-0.33-0.55c0,0-0.057-0.056-0.111-0.056c-0.385-0.167-0.77-0.217-1.211-0.167   c-0.826,0.058-1.541,0.446-2.148,0.938c-0.66,0.551-1.211,1.267-1.648,1.981c-0.441,0.718-0.771,1.49-1.049,2.262   c-0.387,0.938-0.662,1.87-0.885,2.861l-0.492,2.536c-0.055,0.662-0.221,1.322-0.221,1.984l-0.168,1.265l-0.166,1.487   c-0.107,1.486-0.162,2.975-0.107,4.519v3.03c0,0.33,0.057,0.66,0.107,0.99l0.111,1.213c0.055,0.771,0.164,1.543,0.33,2.313   c0.111,0.552,0.275,1.048,0.496,1.545l0.33,0.604l0.275,0.222c0.221,0.11,0.439,0.163,0.664,0.055   c0.328-0.11,0.604-0.332,0.77-0.605l0.326-0.662l0.223-0.826c0.166-0.604,0.221-1.156,0.332-1.761   c0.164-0.883,0.275-1.766,0.494-2.645c0.166-0.494,0.332-0.99,0.609-1.436c0.221-0.328,0.551-0.604,0.934-0.771   c0.498-0.217,0.992-0.217,1.488-0.167c0.717,0.167,1.322,0.496,1.871,0.884c0.498,0.385,0.883,0.828,1.156,1.321   c0.334,0.499,0.496,1.101,0.553,1.707c0.057,0.497-0.057,0.991-0.275,1.435c-0.164,0.438-0.385,0.826-0.605,1.269   c-0.604,0.938-1.268,1.875-2.094,2.646c-0.494,0.554-1.045,0.988-1.596,1.431c-1.104,0.771-2.26,1.269-3.527,1.544   c-0.658,0.107-1.322,0.221-1.98,0.167c-0.887-0.06-1.707-0.167-2.537-0.497l-0.494-0.164c-0.66-0.224-1.154-0.554-1.65-1.05   c-0.387-0.44-0.719-0.991-0.99-1.54c-0.332-0.66-0.553-1.378-0.771-2.098c-0.223-0.937-0.441-1.928-0.553-2.861   c-0.111-0.885-0.166-1.711-0.221-2.536c-0.055-0.885-0.055-1.761-0.055-3.084C157.065,63.045,157.118,61.889,157.172,60.787"/>
	<path fill="#141412" d="M178.827,82.327c0-0.052,0-0.11-0.057-0.22c-0.105-0.389-0.057-0.826,0.164-1.215   c0.227-0.496,0.605-0.881,1.104-1.155c0.549-0.329,1.104-0.663,1.705-0.937l2.537-1.102c0.055-0.057,0.164-0.113,0.273-0.113   c0.168-0.107,0.223-0.164,0.223-0.219c-0.055-0.11-0.166-0.11-0.223-0.11c-0.273-0.106-0.551-0.167-0.768-0.22   c-0.334-0.11-0.611-0.277-0.83-0.443c-0.33-0.216-0.492-0.548-0.492-0.934v-0.059c-0.059-1.209-0.113-2.425-0.113-3.637   c-0.055-1.375-0.055-2.755-0.055-4.185V66.4c0-1.654-0.059-3.306-0.059-4.959c0-0.603,0.059-1.209,0.059-1.76   c0-2.039,0.055-4.076,0.055-6.117c0-0.274,0-0.496,0.055-0.769c0-0.83,0-1.655,0.061-2.479c0-0.555,0.051-1.104,0.051-1.654   c0-1.049,0.111-2.094,0.168-3.084c0.109-0.719,0.059-1.379,0.162-2.039l0.111-1.381c0.107-0.77,0.219-1.54,0.441-2.312   c0-0.107,0-0.167,0.055-0.272c0.055-0.11,0.107-0.224,0.273-0.277c0.717-0.163,1.377-0.386,2.094-0.493   c0.662-0.167,1.381-0.279,2.039-0.388c0.439-0.108,0.881-0.108,1.377-0.165c0.33,0,0.717,0.057,1.104,0.111   c0.33,0.054,0.551,0.219,0.715,0.492c0.166,0.332,0.279,0.664,0.33,0.994c0.059,0.441,0.111,0.825,0.111,1.322   c0,0.718,0,1.432-0.111,2.148c0,0.387-0.051,0.771-0.051,1.156l-0.389,2.37c-0.109,0.438-0.166,0.826-0.166,1.212   c-0.055,0.66-0.109,1.323-0.223,1.981v0.165l-0.219,3.305l-0.166,1.932l-0.164,1.651l-0.111,1.929l-0.166,1.819v0.054l-0.164,2.094   c0,0.164,0,0.332-0.055,0.438v0.552l-0.109,0.992l-0.107,2.039l-0.168,1.926c-0.055,0.056-0.055,0.108-0.055,0.217l-0.109,1.875   l-0.166,1.709l-0.164,1.652c0,0.385-0.057,0.772-0.113,1.104v0.222c0,0.051,0.113,0.108,0.113,0.108   c0.107-0.061,0.217-0.061,0.273-0.061c0.717-0.271,1.434-0.547,2.094-0.877l4.572-1.711c0.109-0.054,0.273-0.107,0.385-0.107   c0.553-0.221,1.049-0.111,1.545,0.107c0.33,0.165,0.607,0.332,0.881,0.605c0.496,0.496,0.885,1.05,1.156,1.711   c0.439,0.935,0.605,1.927,0.555,2.976c-0.059,0.55-0.221,1.099-0.496,1.651c-0.279,0.551-0.66,0.938-1.215,1.156   c-0.33,0.108-0.604,0.108-0.881,0c-0.113,0-0.168-0.059-0.223-0.059c-0.273-0.105-0.551-0.163-0.881-0.163   c-0.328-0.053-0.717-0.053-1.049-0.053c-0.822,0.053-1.65,0.053-2.479,0.053l-2.203,0.163h-0.164l-2.146,0.167l-1.82,0.162   l-1.762,0.115l-1.766,0.219h-0.107l-1.652,0.111c-0.664,0.108-1.322,0.108-1.982,0.219l-0.334,0.11h-0.107V82.327L178.827,82.327z"/>
	<path fill="#141412" d="M202.188,67.509v-2.095c0.057-1.211,0.057-2.369,0.057-3.525l0.109-2.26v-1.21l0.109-1.981   c0-1.053,0.057-2.041,0.109-3.086l0.166-3.416c0-0.276,0-0.55,0.055-0.828l0.166-2.367c0-0.387,0.057-0.828,0.109-1.213   l0.223-2.094c0.105-0.443,0.164-0.938,0.328-1.377c0-0.057,0-0.11,0.057-0.224l0.168-0.108c0.051-0.056,0.105-0.056,0.162-0.056   c0.332-0.108,0.717-0.219,1.045-0.274c0.223-0.107,0.443-0.166,0.664-0.221c0.055,0,0.111-0.055,0.162-0.055   c0.604-0.057,1.27-0.221,1.93-0.275c0.389-0.054,0.773-0.054,1.156-0.054c0.225,0,0.496,0,0.773-0.058   c0.988-0.166,1.98-0.387,3.025-0.605c0.664-0.107,1.381-0.275,2.041-0.441l3.414-0.715l1.93-0.441   c0.33-0.109,0.66-0.161,0.992-0.217c0.057,0,0.057-0.059,0.107-0.059c0.275-0.054,0.496,0.059,0.662,0.275l0.271,0.551   c0.115,0.332,0.168,0.662,0.225,0.993c0.109,0.659,0.109,1.323,0.109,1.928v0.989c0,0.609-0.109,1.271-0.219,1.876l-0.168,0.604   c-0.109,0.167-0.221,0.333-0.439,0.388l-0.77,0.168c-0.662,0.107-1.268,0.219-1.928,0.219c-0.389,0.053-0.719,0.111-1.049,0.111   l-1.875,0.166h-0.055l-2.975,0.164h-0.33l-1.924,0.106h-0.221c-0.109,0-0.168,0.113-0.168,0.167   c-0.053,0.111-0.053,0.163-0.053,0.223l-0.389,2.258c0,0.221-0.057,0.441-0.057,0.658l-0.215,1.875l-0.111,1.543   c-0.057,0.113-0.057,0.221-0.057,0.332l-0.166,1.764c0,0.547-0.109,1.156-0.109,1.707c-0.053,0.438-0.109,0.822-0.109,1.268   l-0.168,1.872l-0.162,1.763c0,0.221,0,0.44-0.059,0.607c0,0.107,0.111,0.165,0.166,0.165h0.166c0.662-0.165,1.32-0.275,1.982-0.39   c0.609-0.051,1.211-0.164,1.873-0.271c0.826-0.111,1.654-0.163,2.533-0.221c0.387-0.053,0.828,0,1.27,0.058   c0.055,0,0.162,0.052,0.275,0.106c0.055,0.057,0.109,0.166,0.109,0.222c0.055,0.497,0.055,0.993,0,1.487   c0,0.168-0.057,0.33-0.109,0.498c-0.113,0.271-0.332,0.384-0.553,0.496c-0.221,0.055-0.439,0.055-0.66,0.055   c-0.605,0-1.27,0.054-1.871,0.109l-1.047,0.107c-0.553,0.112-1.049,0.167-1.602,0.225l-2.424,0.33   c-0.055,0.055-0.109,0.055-0.164,0.055c-0.107,0.051-0.221,0.108-0.221,0.218v0.167l-0.109,0.988   c-0.057,0.611-0.109,1.158-0.109,1.769l-0.164,1.649l-0.166,1.814l-0.111,0.885v0.332c0,0.057,0.111,0.106,0.168,0.106   c0.055,0.057,0.166,0.057,0.221,0.057c0.66,0.058,1.322,0.168,2.037,0.168c0.496,0,1.049,0.056,1.543,0.105   c0.715,0,1.486,0.056,2.205,0.056c0.549,0,1.102,0.059,1.652,0.059c0.771,0,1.486,0.055,2.203,0.055c0.881,0,1.762,0,2.645,0.054   h1.762c0.277,0,0.439,0.112,0.496,0.332c0.111,0.165,0.166,0.388,0.166,0.607c0.057,0.491,0.057,0.991,0,1.485   c-0.113,0.824-0.273,1.651-0.553,2.479c-0.166,0.661-0.383,1.322-0.715,1.93l-0.273,0.44c-0.111,0.107-0.275,0.167-0.441,0.167   h-1.268l-1.104-0.11l-2.588-0.444l-2.15-0.33l-1.869-0.383l-1.932-0.33c-1.049-0.222-2.094-0.494-3.193-0.662   c-0.389-0.108-0.719-0.108-1.102-0.164c-0.717-0.056-1.434-0.166-2.096-0.441c-0.33-0.107-0.662-0.219-0.938-0.438   c-0.332-0.276-0.553-0.606-0.553-1.05v-9.915h0.059V67.509L202.188,67.509z"/>
	<path fill="#141412" d="M240.153,90.921c0-0.274,0.107-0.493,0.273-0.659c0.33-0.33,0.66-0.662,0.938-1.046   c0.881-1.104,1.486-2.313,1.766-3.692c0.162-0.551,0.217-1.102,0.33-1.652c0.053-0.166,0.053-0.331,0.053-0.496   c0.057-0.714,0.109-1.436,0-2.148v-0.162c0-0.332,0.057-0.664-0.053-0.994c-0.168-0.549-0.275-1.155-0.498-1.704l-1.209-2.479   c-0.777-1.598-1.6-3.195-2.426-4.793c-0.719-1.49-1.543-2.919-2.262-4.406c-0.387-0.719-0.77-1.437-1.213-2.147   c-0.166-0.332-0.328-0.663-0.551-0.993l-0.715-1.27c-0.166-0.217-0.332-0.383-0.607-0.441c-0.166,0-0.273-0.105-0.326-0.219   c-0.443-0.607-0.828-1.268-1.271-1.928c-0.492-0.826-0.936-1.653-1.266-2.531l-0.439-0.993c-0.223-0.606-0.496-1.156-0.605-1.817   c-0.109-0.385-0.275-0.771-0.387-1.213c-0.166-0.551-0.33-1.158-0.439-1.709c-0.109-0.497-0.109-0.99-0.109-1.486   c0.055-0.386,0-0.771,0-1.159c0-0.497,0-0.989,0.055-1.486c0.109-0.44,0.223-0.881,0.273-1.323l0.111-0.33   c0.109-0.88,0.553-1.652,0.992-2.423c0.055-0.167,0.162-0.272,0.328-0.384c0.33-0.386,0.719-0.665,1.156-0.938   c0.168-0.109,0.389-0.166,0.607-0.22c0.107,0,0.219-0.054,0.33-0.165c0.109-0.167,0.273-0.219,0.438-0.33   c0.662-0.276,1.383-0.443,2.096-0.608c1.377-0.273,2.701-0.44,4.133-0.384h0.275c0.496,0,0.936,0.052,1.377,0.164   c0.221,0.112,0.441,0.112,0.715,0.055c0.111-0.055,0.221-0.055,0.33-0.055c0.773,0.055,1.602,0.112,2.369,0.442   c0.109,0,0.277,0.056,0.389,0.056c1.322,0.164,2.479,0.66,3.523,1.375c0.111,0.112,0.219,0.223,0.33,0.274   c0.439,0.551,0.77,1.104,0.992,1.708l0.275,0.607c0.326,0.551,0.553,1.156,0.771,1.765c0.166,0.495,0.221,1.044,0.387,1.597   c0.109,0.719,0.273,1.487,0.273,2.203c-0.057,0.332,0,0.662,0,0.938c-0.057,0.33-0.109,0.66-0.219,0.936   c0,0.223-0.057,0.444-0.111,0.662c-0.164,1.049-0.605,1.982-1.268,2.865c-0.059,0.109-0.166,0.223-0.273,0.332l-0.389,0.332   l-0.494,0.219c-0.109,0.053-0.332,0.111-0.496,0.111c-0.605,0.054-1.27,0.054-1.873-0.168l-0.605-0.106   c-0.439-0.115-0.826-0.167-1.215-0.333l-0.715-0.22c-0.273-0.058-0.496-0.167-0.717-0.224c-0.439-0.164-0.719-0.494-0.771-0.933   c-0.057-0.058-0.057-0.11-0.057-0.226c0-0.162,0-0.329,0.109-0.494l0.059-0.051c0.383-0.498,0.604-1.049,0.768-1.654   c0.223-0.772,0.389-1.544,0.334-2.371v-0.33c0.055-0.938-0.111-1.874-0.389-2.811c-0.055-0.22-0.162-0.44-0.33-0.662l-0.826-0.936   c-0.055-0.111-0.164-0.167-0.273-0.223l-0.605-0.33c-0.826-0.549-1.764-0.77-2.699-0.934c-0.385-0.114-0.771-0.059-1.154,0   l-0.605,0.106c-0.168,0.056-0.334,0.11-0.496,0.224c-0.439,0.164-0.771,0.496-0.994,0.875l-0.273,0.498   c-0.33,0.717-0.385,0.553-0.271,1.488c0.057,0.387,0.109,0.771,0.109,1.156c0.107,0.773,0.27,1.544,0.494,2.26l0.66,2.037   l0.223,0.497c0.604,1.155,1.1,2.425,1.816,3.585c0.221,0.328,0.387,0.712,0.604,1.1l0.33,0.659   c0.441,0.664,0.826,1.379,1.213,2.093l0.441,0.717c0.551,0.88,0.99,1.763,1.541,2.646l1.545,2.921   c0.219,0.33,0.328,0.77,0.551,1.098c0.221,0.332,0.328,0.719,0.551,1.047c0.223,0.275,0.328,0.607,0.496,0.938   c0.551,0.991,0.988,1.982,1.434,3.031c0.107,0.165,0.162,0.33,0.221,0.497c0.549,1.046,0.988,2.089,1.375,3.193   c0.496,1.155,0.883,2.366,1.268,3.58l0.33,1.431c0.33,1.323,0.33,2.866,0.166,4.135c-0.221,0.826-0.33,1.707-0.77,2.479   l-0.275,0.717c-0.33,0.878-0.826,1.707-1.375,2.479c-0.498,0.604-0.994,1.268-1.6,1.816c-0.607,0.605-1.268,1.21-1.982,1.766   c-0.439,0.438-0.99,0.77-1.6,1.043l-0.99,0.497c-1.156,0.604-2.367,1.047-3.635,1.269c-0.939,0.166-1.873,0.219-2.812,0.271   c-0.328,0.061-0.662,0-0.938,0c-0.439,0-0.881-0.055-1.27-0.105c-0.166,0-0.273,0-0.438-0.058   c-0.885-0.167-1.818-0.274-2.701-0.551c-0.223-0.112-0.441-0.165-0.662-0.222c-0.328-0.11-0.662-0.162-0.938-0.275l-1.377-0.604   c-0.107-0.058-0.219-0.108-0.33-0.223c-0.719-0.332-1.377-0.771-1.98-1.211c-0.826-0.553-1.6-1.154-2.262-1.928l-0.164-0.112   c-1.049-1.044-1.93-2.256-2.645-3.575c-0.498-0.887-0.938-1.768-1.268-2.759c-0.113-0.221-0.166-0.384-0.221-0.604   c-0.057-0.219-0.109-0.497-0.223-0.715c-0.164-0.496-0.33-1.047-0.438-1.602c-0.111-0.549-0.223-1.102-0.223-1.705   c-0.168-0.553-0.168-1.104-0.168-1.652c0-0.496,0-0.992-0.053-1.486c0-0.938,0.053-1.82,0.221-2.758   c0.162-0.658,0.387-1.375,0.496-2.035l0.33-0.992c0.221-0.553,0.496-1.1,0.771-1.652c0.109-0.277,0.332-0.553,0.498-0.826   c0.33-0.496,0.33-0.496,0.877-0.883l0.334-0.271l0.164-0.223c0.111-0.273,0.277-0.498,0.496-0.66   c0.439-0.332,0.883-0.607,1.32-0.828c0.443-0.219,0.885-0.383,1.324-0.495c0.107-0.054,0.273-0.054,0.385-0.054   c0.66-0.056,1.375-0.056,2.039-0.056c0.275,0,0.553,0.056,0.826,0.109c0.551,0.165,1.049,0.328,1.598,0.606l0.66,0.332   c0.441,0.217,0.826,0.492,1.211,0.771c0.389,0.273,0.664,0.549,0.826,0.988c0,0.057,0.059,0.111,0.059,0.168   c0.057,0.057,0.057,0.166,0,0.22c-0.111,0.276-0.275,0.442-0.605,0.551c-0.439,0.11-0.938,0.165-1.434,0.224   c-0.221,0-0.439,0.106-0.553,0.271c-0.328,0.389-0.66,0.773-0.881,1.215l-0.826,1.322l-0.166,0.273l-0.162,0.386   c-0.441,0.827-0.771,1.653-1.156,2.534c-0.111,0.22-0.221,0.498-0.277,0.772c0,0.165-0.109,0.329-0.164,0.494   c-0.221,0.604-0.385,1.211-0.441,1.817c-0.221,0.604-0.221,1.213-0.33,1.762c-0.055,0.277-0.055,0.496-0.055,0.771   c-0.055,0.388,0,0.774-0.055,1.158c0,0.276,0.055,0.554,0.109,0.826c0,0.112,0.053,0.223,0.053,0.331   c0.113,0.826,0.443,1.652,0.773,2.426l0.273,0.549c0.383,0.609,0.826,1.105,1.377,1.603c0.551,0.493,1.104,0.989,1.818,1.267   l0.551,0.271c0.275,0.223,0.605,0.332,0.992,0.443c1.43,0.441,2.975,0.771,4.518,0.827c0.826,0.05,1.652-0.058,2.424-0.167   L238,91.757c0.164-0.054,0.223,0.054,0.223,0.274v0.105c-0.059,0.113,0.057,0.167,0.164,0.167c0.057,0,0.164,0,0.221-0.054   c0.166-0.057,0.221-0.163,0.221-0.273v-0.33c0-0.109,0.055-0.223,0.107-0.275c0.277-0.223,0.553-0.332,0.881-0.389h0.334v-0.059   h0.002V90.921z"/>
	<path fill="#141412" d="M10.938,125.584c0,0.107-0.056,0.164-0.165,0.217c-0.167,0.165-0.386,0.165-0.551,0.332l-0.387,0.33   l-0.274,0.166c-0.111,0.057-0.275,0.057-0.387,0c-0.33-0.221-0.604-0.496-0.825-0.77l-0.276-0.391   c-0.275-0.271-0.385-0.66-0.494-1.045c0-0.111-0.058-0.273,0-0.387c0.165-0.555,0.165-1.047,0.165-1.598   c-0.055-1.213-0.055-2.367,0-3.582v-2.645c0.054-1.873,0.054-3.748,0.054-5.617c0-0.826,0-1.707,0.056-2.535   c0.111-1.215,0.111-2.371,0.111-3.58c0-0.607,0.054-1.213,0.108-1.818c0.11-0.443,0.11-0.882,0.11-1.32   c-0.055-0.607-0.055-1.215,0-1.816c0-0.938,0.112-1.819,0.167-2.756c0.054-0.498,0-1.048,0.054-1.601v-0.495   c0.111-0.938,0.167-1.93,0.332-2.863c0-0.164,0.054-0.328,0.054-0.494c0-0.388,0.056-0.773,0.165-1.156l0.11-0.719   c0-0.328,0.11-0.554,0.222-0.825l0.165-0.165h0.111c0.936-0.275,1.874-0.553,2.865-0.77c0.55-0.115,1.155-0.169,1.761-0.169   c0.662,0,1.268-0.057,1.873-0.22c0.606-0.166,1.213-0.227,1.765-0.331c0.385-0.106,0.771-0.106,1.156-0.222l1.158-0.221   c1.046-0.275,2.147-0.551,3.306-0.718l1.102-0.271l1.101-0.277c0.276-0.055,0.552-0.106,0.826-0.22   c0.112-0.059,0.221-0.059,0.33-0.059c0.22,0,0.387,0.109,0.552,0.276c0.165,0.222,0.276,0.492,0.386,0.771   c0.109,0.498,0.221,0.992,0.221,1.541c0.055,0.826,0,1.602-0.056,2.429c0,0.549-0.056,1.104-0.165,1.651   c-0.056,0.219-0.165,0.439-0.332,0.549c-0.274,0.224-0.551,0.332-0.88,0.389l-0.385,0.107l-1.488,0.164   c-0.33,0.059-0.606,0.059-0.936,0.059c-0.497,0-0.99,0.056-1.487,0.107c-0.441,0.111-0.883,0.111-1.377,0.111l-2.314,0.165   c-0.332,0.056-0.607,0.056-0.939,0.056h-1.156c-0.386,0.058-0.551,0.164-0.662,0.604c0,0.221-0.054,0.388-0.054,0.606   c-0.055,0.44-0.165,0.828-0.387,1.211c-0.053,0.223-0.109,0.388-0.109,0.608c0.109,0.715,0.056,1.433-0.055,2.093l-0.165,1.818   c0,0.33-0.055,0.716-0.055,1.048c-0.055,0.33-0.109,0.714-0.109,1.043c-0.056,0.167-0.056,0.39-0.056,0.556l-0.165,0.826v1.485   c-0.165,1.156-0.165,2.369-0.386,3.579v0.495c0,0.058,0,0.166,0.056,0.225c0.053,0.054,0.109,0.106,0.165,0.106   c0.109,0,0.22,0.057,0.33,0c0.44-0.055,0.937-0.106,1.432-0.219c0.057-0.057,0.167-0.057,0.221-0.057   c0.827-0.059,1.653-0.271,2.479-0.386c0.991-0.167,1.984-0.222,2.978-0.108h0.219c0.165,0.055,0.387,0.223,0.44,0.438   c0,0.058,0,0.112,0.056,0.166v0.885c0,0.22-0.109,0.493-0.221,0.716c-0.111,0.276-0.329,0.439-0.605,0.439   c-0.055,0.052-0.111,0.052-0.111,0.052c-0.604,0-1.212,0.058-1.818,0.112c-0.607,0.055-1.213,0.055-1.763,0.224h-0.109   c-0.717,0.052-1.379,0.217-2.094,0.272c-0.552,0.055-1.046,0.166-1.597,0.272c-0.167,0-0.332,0.224-0.388,0.438   c-0.053,0.445-0.108,0.884-0.108,1.322c0,1.049-0.165,2.041-0.276,3.088c0,0.109,0,0.219-0.054,0.276   c-0.165,0.271-0.111,0.549-0.111,0.826c0,0.271-0.053,0.494-0.053,0.769c0,0.112,0.053,0.277,0.109,0.389   c0,0.058,0.056,0.107,0.109,0.168c0.055,0,0.055,0,0.111,0.052c0.112,0,0.221,0.055,0.33,0.055c0.937,0,1.873,0.224,2.811,0.494   c0.66,0.167,1.321,0.39,1.982,0.664c0.33,0.163,0.662,0.39,0.991,0.606c0.276,0.22,0.552,0.438,0.717,0.771   c0.33,0.388,0.608,0.771,0.882,1.156l1.379,2.041c0.053,0.106,0.164,0.217,0.273,0.328l1.818,2.202   c0.441,0.554,0.881,0.938,1.433,1.485l0.22,0.224c0.826,0.882,1.765,1.543,2.699,2.259c0.551,0.332,1.048,0.718,1.598,0.993   c0.111,0.055,0.22,0.055,0.275,0.106c1.158,0.662,2.369,0.992,3.582,1.323c0.33,0.055,0.604,0.165,0.936,0.165l1.378,0.165   c0.385,0.056,0.771,0.056,1.156,0c0.112-0.053,0.22-0.053,0.332-0.053l1.212-0.112l1.266-0.22c0.167-0.058,0.275-0.058,0.442,0   c0.109,0,0.274,0,0.386-0.112c0.165-0.164,0.33-0.22,0.55-0.271l3.029-1.16c0.276-0.108,0.553-0.22,0.771-0.388   c0.332-0.106,0.662-0.273,0.993-0.438c0.606-0.273,1.156-0.717,1.818-1.047l0.385-0.33l0.495-0.44   c0.167-0.108,0.276-0.167,0.498-0.167l1.542-0.163c1.103-0.11,2.149-0.056,3.195,0.163l0.717,0.167   c0.22,0.11,0.441,0.222,0.606,0.386c0.167,0.111,0.22,0.273,0.275,0.44c0,0.058,0.056,0.167,0.056,0.222   c-0.056,0.219-0.111,0.496-0.276,0.661c-0.441,0.604-0.826,1.21-1.378,1.763c-0.055,0.057-0.109,0.164-0.219,0.222   c-0.55,0.661-1.211,1.157-1.873,1.707c-0.606,0.497-1.268,0.937-1.985,1.321c-0.165,0.11-0.33,0.164-0.441,0.277   c-0.55,0.439-1.156,0.771-1.706,1.102c-0.664,0.386-1.323,0.662-2.04,0.936l-1.541,0.605c-0.497,0.221-0.991,0.334-1.488,0.553   c-0.276,0.109-0.606,0.164-0.936,0.275c-0.332,0.053-0.662,0.11-1.047,0.219c-0.773,0.221-1.544,0.275-2.369,0.388   c-0.274,0.058-0.551,0.058-0.827,0.058c-0.938,0-1.874,0-2.755-0.058c-0.33,0-0.662,0-0.936-0.056   c-0.276-0.057-0.495-0.111-0.772-0.111c-0.439-0.11-0.881-0.162-1.323-0.327c-0.274-0.108-0.549-0.165-0.824-0.224   c-0.662-0.164-1.323-0.383-1.984-0.717c-0.827-0.385-1.653-0.879-2.424-1.484c-0.991-0.662-1.873-1.485-2.699-2.312   c-0.937-0.94-1.763-1.985-2.535-3.031l-1.982-2.7c-0.22-0.384-0.497-0.716-0.662-1.104l-0.22-0.33   c-0.167-0.166-0.332-0.385-0.441-0.604l-1.156-1.489c-0.441-0.551-0.882-1.048-1.378-1.485l-0.662-0.328   c-0.441-0.111-0.881-0.168-1.377-0.111c-0.55,0.053-1.1,0.111-1.652,0.218c-0.386,0.06-0.771,0.167-1.101,0.331   c-0.167,0.113-0.387,0.059-0.552-0.052c-0.054,0-0.109-0.058-0.165-0.058v0.225h-0.008V125.584z"/>
	<path fill="#141412" d="M30.224,110.048c0.055-1.104,0.055-2.147,0.055-3.253c0-1.486,0.055-2.918,0.112-4.406   c0-0.553,0-1.156,0.053-1.763c0-0.718,0-1.435,0.056-2.147c0-0.992,0.111-1.982,0.111-2.976c0.054-0.112,0.054-0.224,0.054-0.33   c0-0.44,0.056-0.883,0.056-1.321c0-0.273,0.055-0.555,0.055-0.828l0.165-1.764l0.165-1.484l0.22-1.157   c0.057-0.165,0.109-0.277,0.276-0.331c0.495-0.164,0.937-0.33,1.433-0.443c0.605-0.16,1.155-0.271,1.708-0.384   c0.385-0.052,0.771-0.108,1.156-0.108c0.275-0.055,0.55,0,0.826,0.059c0.33,0.052,0.55,0.219,0.664,0.494   c0.109,0.164,0.163,0.385,0.216,0.551c0.056,0.275,0.111,0.607,0.111,0.879c0.056,0.941,0,1.876,0,2.811   c0,0.166-0.056,0.391-0.111,0.555v0.549l-0.163,1.16l-0.222,1.648c-0.055,0.383-0.11,0.717-0.11,1.047L37,98.372l-0.165,1.981   l-0.167,2.312l-0.111,1.932c0,0.274-0.054,0.494-0.054,0.771c0,0.056-0.056,0.164-0.056,0.221l-0.109,2.365l-0.165,2.207v0.107   l-0.167,2.096c-0.055,0.715-0.108,1.376-0.108,2.092v0.221h0.054c0.111-0.054,0.167-0.221,0.167-0.332   c0.881-2.26,1.818-4.516,2.699-6.83l2.206-5.781l2.312-6.062l2.206-5.618l1.486-3.912l0.167-0.33   c0.053-0.222,0.218-0.33,0.385-0.386c0.22-0.108,0.441-0.108,0.66-0.108c0.552-0.057,1.103,0.054,1.653,0.164   c0.773,0.166,1.488,0.384,2.26,0.605l1.707,0.661l0.33,0.108c0.112,0.057,0.167,0.162,0.222,0.274c0.11,0.22,0.11,0.496,0.11,0.771   l-0.165,0.826c-0.054,0.224-0.054,0.498-0.054,0.718c0,0.659,0,1.319,0.054,2.038c0,0.387,0,0.771-0.054,1.156   c-0.058,0.717-0.058,1.433-0.167,2.203c-0.11,1.266-0.22,2.533-0.275,3.854c0,1.323-0.109,2.7-0.109,4.021   c-0.056,0.388-0.056,0.771-0.056,1.158c0,0.769-0.054,1.544-0.054,2.37c-0.055,0.66-0.055,1.374-0.055,2.035   c-0.057,0.494-0.057,0.99-0.057,1.486c-0.054,0.557-0.054,1.104-0.054,1.652c0,0.497-0.054,0.993-0.054,1.544   c0,0.497,0,0.991-0.055,1.433l-0.112,4.684l-0.109,3.251l-0.11,2.371c0,0.659-0.055,1.265-0.055,1.87l-0.165,2.976   c0,0.163,0,0.33-0.055,0.496c-0.056,0.386-0.056,0.386-0.441,0.438c-0.497,0-0.937-0.056-1.378-0.108l-0.935-0.167   c-0.441-0.107-0.826-0.271-1.212-0.549c-0.385-0.221-0.662-0.606-0.716-1.046c0-0.11-0.054-0.227-0.054-0.331   c0-0.938-0.056-1.876-0.111-2.865c0-0.604,0-1.21-0.056-1.818c-0.054-0.492-0.054-0.992-0.054-1.485   c-0.055-0.714-0.055-1.378-0.055-2.093l-0.165-4.076c0-1.215-0.055-2.37-0.055-3.526c-0.056-0.993-0.056-1.928-0.056-2.863   c0-0.441-0.056-0.883-0.056-1.321c0-1.709,0-3.361-0.053-5.016v-3.031c0-0.056-0.057-0.056-0.057-0.056   c-0.055-0.054-0.108-0.054-0.108,0l-0.276,0.334l-1.653,2.479c-0.991,1.649-1.982,3.354-2.866,5.065   c-1.101,2.093-2.147,4.24-3.083,6.392c-0.938,1.927-1.763,3.854-2.59,5.839c-0.496,1.104-0.936,2.26-1.377,3.36   c-0.165,0.327-0.22,0.661-0.275,0.991c0,0.442-0.055,0.884-0.111,1.271c0,0.051,0,0.106-0.056,0.164c0,0.166-0.109,0.22-0.219,0.22   c-0.165,0-0.387,0.057-0.552,0c-0.662-0.054-1.268-0.108-1.926-0.275c-0.276-0.058-0.606-0.165-0.883-0.329   c-0.22-0.057-0.385-0.222-0.605-0.33c-0.277-0.226-0.386-0.555-0.441-0.885v-0.438c-0.055-1.711-0.055-3.364-0.055-5.019v-8.923   L30.224,110.048L30.224,110.048z"/>
	<path fill="#141412" d="M82.731,137.758c0-0.277,0.109-0.494,0.275-0.66c0.33-0.33,0.66-0.662,0.936-1.047   c0.882-1.104,1.488-2.312,1.765-3.693c0.165-0.549,0.218-1.098,0.329-1.65c0.056-0.167,0.056-0.33,0.056-0.497   c0.053-0.714,0.108-1.433,0-2.147V127.9c0-0.33,0.053-0.664-0.056-0.994c-0.165-0.549-0.276-1.156-0.496-1.705l-1.213-2.479   c-0.77-1.6-1.596-3.197-2.423-4.794c-0.718-1.487-1.544-2.92-2.259-4.407c-0.385-0.715-0.771-1.437-1.211-2.146   c-0.165-0.332-0.332-0.662-0.553-0.992l-0.715-1.269c-0.165-0.221-0.332-0.385-0.605-0.442c-0.165,0-0.276-0.106-0.33-0.221   c-0.443-0.604-0.828-1.269-1.27-1.929c-0.497-0.827-0.936-1.652-1.266-2.531l-0.442-0.993c-0.219-0.606-0.497-1.156-0.606-1.817   c-0.109-0.384-0.274-0.771-0.385-1.212c-0.165-0.552-0.328-1.155-0.441-1.709c-0.109-0.497-0.109-0.989-0.109-1.485   c0.054-0.385,0-0.771,0-1.159c0-0.494,0-0.989,0.054-1.486c0.113-0.438,0.222-0.881,0.275-1.321l0.11-0.33   c0.111-0.881,0.552-1.651,0.993-2.424c0.055-0.164,0.165-0.271,0.33-0.386c0.33-0.385,0.717-0.662,1.158-0.938   c0.165-0.106,0.385-0.164,0.606-0.221c0.11,0,0.22-0.053,0.332-0.164c0.108-0.164,0.273-0.219,0.44-0.328   c0.659-0.276,1.377-0.444,2.092-0.605c1.378-0.275,2.699-0.439,4.132-0.389h0.275c0.497,0,0.936,0.055,1.377,0.166   c0.22,0.111,0.44,0.111,0.716,0.056c0.11-0.056,0.221-0.056,0.33-0.056c0.773,0.056,1.6,0.111,2.368,0.441   c0.112,0,0.276,0.057,0.387,0.057c1.323,0.16,2.48,0.658,3.526,1.375c0.11,0.108,0.22,0.223,0.33,0.273   c0.44,0.553,0.771,1.104,0.993,1.709l0.275,0.605c0.33,0.553,0.551,1.154,0.771,1.766c0.165,0.496,0.221,1.043,0.386,1.598   c0.109,0.717,0.276,1.486,0.276,2.204c-0.056,0.329,0,0.659,0,0.936c-0.056,0.332-0.112,0.661-0.221,0.937   c0,0.223-0.056,0.443-0.111,0.663c-0.165,1.048-0.606,1.981-1.268,2.863c-0.056,0.106-0.165,0.223-0.273,0.332l-0.388,0.33   l-0.495,0.221c-0.11,0.052-0.33,0.108-0.497,0.108c-0.607,0.057-1.265,0.057-1.873-0.166l-0.606-0.105   c-0.44-0.113-0.826-0.167-1.213-0.334l-0.715-0.219c-0.276-0.061-0.495-0.167-0.715-0.223c-0.441-0.168-0.718-0.496-0.773-0.936   c-0.054-0.059-0.054-0.111-0.054-0.225c0-0.164,0-0.33,0.109-0.493l0.056-0.054c0.385-0.498,0.605-1.051,0.771-1.653   c0.22-0.772,0.385-1.542,0.33-2.368V96.5c0.055-0.936-0.11-1.874-0.385-2.809c-0.053-0.224-0.165-0.443-0.33-0.664l-0.827-0.937   c-0.055-0.11-0.165-0.167-0.276-0.222l-0.605-0.33c-0.825-0.552-1.762-0.771-2.701-0.936c-0.385-0.113-0.77-0.059-1.156,0   l-0.605,0.107c-0.165,0.055-0.332,0.109-0.497,0.223c-0.441,0.166-0.771,0.495-0.991,0.879l-0.274,0.496   c-0.332,0.715-0.387,0.551-0.275,1.487c0.053,0.386,0.108,0.771,0.108,1.156c0.11,0.772,0.276,1.544,0.497,2.262l0.661,2.036   l0.22,0.497c0.606,1.155,1.101,2.423,1.818,3.583c0.221,0.328,0.386,0.712,0.606,1.1l0.33,0.66   c0.441,0.663,0.827,1.377,1.212,2.094l0.441,0.719c0.55,0.879,0.991,1.762,1.543,2.644l1.541,2.922   c0.221,0.329,0.332,0.769,0.551,1.099c0.222,0.334,0.332,0.719,0.552,1.051c0.221,0.271,0.332,0.604,0.495,0.935   c0.552,0.991,0.993,1.984,1.433,3.032c0.112,0.167,0.167,0.33,0.222,0.496c0.552,1.046,0.991,2.092,1.376,3.195   c0.497,1.152,0.882,2.365,1.268,3.578l0.329,1.433c0.332,1.323,0.332,2.866,0.165,4.136c-0.218,0.826-0.33,1.705-0.771,2.479   l-0.273,0.719c-0.332,0.878-0.829,1.707-1.379,2.479c-0.494,0.604-0.991,1.268-1.596,1.815c-0.606,0.606-1.268,1.211-1.985,1.767   c-0.441,0.438-0.991,0.77-1.597,1.047l-0.991,0.492c-1.156,0.607-2.37,1.049-3.637,1.268c-0.935,0.168-1.871,0.223-2.809,0.274   c-0.329,0.058-0.662,0-0.938,0c-0.439,0-0.879-0.054-1.266-0.106c-0.165,0-0.275,0-0.44-0.059c-0.882-0.166-1.819-0.271-2.7-0.553   c-0.222-0.107-0.438-0.162-0.661-0.217c-0.33-0.113-0.662-0.165-0.936-0.275l-1.379-0.605c-0.11-0.059-0.22-0.108-0.332-0.219   c-0.714-0.334-1.376-0.774-1.981-1.215c-0.826-0.553-1.597-1.154-2.259-1.928l-0.165-0.113c-1.046-1.043-1.929-2.256-2.644-3.576   c-0.497-0.885-0.938-1.766-1.268-2.756c-0.111-0.223-0.165-0.385-0.221-0.606c-0.055-0.218-0.109-0.495-0.222-0.714   c-0.163-0.496-0.33-1.045-0.439-1.603c-0.108-0.549-0.22-1.1-0.22-1.705c-0.165-0.551-0.165-1.104-0.165-1.653   c0-0.494,0-0.988-0.053-1.485c0-0.938,0.053-1.819,0.218-2.755c0.165-0.661,0.387-1.377,0.497-2.036l0.33-0.993   c0.22-0.553,0.494-1.1,0.771-1.652c0.11-0.273,0.33-0.554,0.495-0.826c0.332-0.495,0.332-0.495,0.88-0.883l0.332-0.272l0.167-0.222   c0.108-0.274,0.273-0.497,0.495-0.661c0.44-0.332,0.882-0.606,1.323-0.828c0.438-0.218,0.88-0.383,1.321-0.494   c0.11-0.055,0.275-0.055,0.385-0.055c0.662-0.054,1.377-0.054,2.038-0.054c0.276,0,0.552,0.054,0.828,0.106   c0.55,0.165,1.047,0.327,1.596,0.606l0.662,0.332c0.442,0.219,0.828,0.494,1.213,0.771c0.385,0.274,0.661,0.551,0.824,0.991   c0,0.057,0.058,0.107,0.058,0.164c0.056,0.057,0.056,0.168,0,0.222c-0.111,0.274-0.275,0.442-0.607,0.549   c-0.441,0.11-0.936,0.165-1.433,0.224c-0.22,0-0.439,0.108-0.548,0.271c-0.332,0.389-0.664,0.773-0.885,1.214l-0.824,1.323   l-0.167,0.273l-0.165,0.387c-0.44,0.828-0.772,1.654-1.158,2.533c-0.108,0.221-0.218,0.496-0.273,0.771   c0,0.165-0.111,0.332-0.167,0.495c-0.22,0.604-0.383,1.21-0.439,1.817c-0.22,0.604-0.22,1.212-0.332,1.764   c-0.054,0.273-0.054,0.496-0.054,0.768c-0.055,0.391,0,0.776-0.055,1.16c0,0.275,0.055,0.553,0.109,0.826   c0,0.11,0.056,0.223,0.056,0.33c0.109,0.826,0.44,1.65,0.77,2.425l0.276,0.552c0.385,0.606,0.826,1.104,1.376,1.602   c0.552,0.492,1.103,0.988,1.82,1.267l0.55,0.271c0.276,0.223,0.606,0.332,0.991,0.444c1.433,0.439,2.976,0.771,4.52,0.825   c0.825,0.054,1.652-0.057,2.423-0.167l0.936-0.162c0.167-0.057,0.22,0.051,0.22,0.272v0.108c-0.053,0.109,0.056,0.164,0.165,0.164   c0.055,0,0.167,0,0.22-0.055c0.167-0.052,0.222-0.163,0.222-0.273v-0.33c0-0.108,0.055-0.223,0.11-0.273   c0.274-0.223,0.551-0.333,0.881-0.389h0.332L82.731,137.758L82.731,137.758z"/>
	<path fill="#141412" d="M105.93,114.947l-0.167-1.762c0-0.77-0.054-1.543-0.108-2.315V110.6l-0.33-4.301l-0.111-1.32l-0.165-1.709   l-0.165-1.597c0-0.276-0.055-0.554-0.055-0.823c-0.112-0.557-0.165-1.104-0.221-1.654c-0.053-0.226-0.108-0.44-0.108-0.661h-0.112   c-0.11,0.164-0.11,0.331-0.11,0.438c-0.108,0.662-0.222,1.321-0.273,1.984l-0.388,2.426l-0.22,1.869   c-0.11,0.718-0.22,1.382-0.274,2.041l-0.277,1.709l-0.165,1.209c-0.11,0.884-0.219,1.817-0.386,2.7l-0.22,1.707   c-0.054,0.221-0.054,0.442-0.054,0.659c-0.056,0.059,0.054,0.111,0.109,0.166c0.056,0,0.11,0,0.165,0.057   c0.224,0,0.441,0.059,0.662,0.059l2.424,0.383c0.111,0,0.222,0,0.331,0.058c0.165,0,0.221-0.11,0.221-0.224   c0-0.273,0-0.547-0.056-0.826h0.053V114.947z M99.374,88.395c1.046-0.273,2.095-0.494,3.086-0.604   c0.604-0.107,1.156-0.107,1.763-0.055c0.385,0,0.717,0.106,1.046,0.33c0.662,0.496,1.268,1.046,1.873,1.599   c1.213,1.265,2.259,2.588,3.085,4.073c1.103,1.929,1.873,3.967,2.314,6.115l0.33,2.207c0.056,0.824,0.165,1.65,0.276,2.479   c0,0.275,0.056,0.605,0.056,0.881l0.274,2.37l0.167,1.871c0.053,0.496,0.053,1.047,0.165,1.541c0.053,0.554,0.053,1.157,0.165,1.71   l0.109,1.102c0.056,0.605,0.112,1.215,0.112,1.762c0.055,0.39,0.111,0.773,0.111,1.156l0.165,1.819l0.165,1.599l0.165,2.148v0.441   c0.053,0.937,0.109,1.815,0.22,2.752c0.055,0.938,0.055,1.929,0.055,2.921c0,0.22,0,0.497-0.055,0.717   c0,0.056-0.054,0.11-0.111,0.164c-0.109,0-0.221,0.059-0.33,0.059l-1.543,0.271c-0.936,0.167-1.873,0.274-2.809,0.332   c-0.55,0-1.103,0-1.653-0.165c-0.274-0.055-0.55-0.167-0.826-0.332c-0.33-0.165-0.55-0.44-0.661-0.77   c-0.056-0.164-0.11-0.33-0.11-0.498c-0.111-0.604-0.22-1.214-0.276-1.871l-0.165-1.654v-0.603   c-0.056-0.168-0.056-0.389-0.056-0.608c0-0.055-0.056-0.112-0.056-0.165c0-0.824-0.108-1.599-0.108-2.427l-0.109-0.935   c0-0.604-0.056-1.215-0.112-1.815v-0.168c0-0.107-0.109-0.162-0.273-0.162c-0.112-0.06-0.221-0.06-0.332-0.06   c-0.386,0-0.773,0.06-1.103,0.06H101.8c-0.165,0.055-0.221,0.106-0.221,0.271l-0.276,1.767c-0.055,0.604-0.165,1.209-0.273,1.818   l-0.221,1.703c-0.167,0.828-0.275,1.654-0.387,2.537l-0.275,1.541l-0.167,0.551c0,0.11-0.055,0.11-0.109,0.11H99.43   c-0.771-0.11-1.543-0.22-2.258-0.495c-0.441-0.166-0.882-0.441-1.212-0.771c-0.275-0.222-0.44-0.549-0.44-0.936   c0-0.494,0-0.938,0.055-1.377v-0.219l0.165-2.369l0.165-2.479l0.111-1.323c0-0.059-0.056-0.059-0.056-0.108   c0-0.058-0.056-0.165-0.111-0.165H95.41c-0.717-0.057-1.434-0.057-2.149-0.057c-0.11,0-0.165-0.058-0.277-0.058   c-0.22,0-0.44-0.167-0.44-0.497c0-0.218,0-0.382,0.11-0.604c0.056-0.223,0.109-0.44,0.221-0.661c0.109-0.33,0.276-0.662,0.33-1.048   c0.056-0.167,0.165-0.275,0.332-0.275c0.273-0.054,0.494-0.107,0.715-0.107c0.441,0,0.881,0,1.323,0.056h0.385   c0.221,0,0.274-0.056,0.33-0.277c0-0.439,0.056-0.934,0.112-1.378l0.165-1.816v-0.274c0.055-0.769,0.11-1.597,0.22-2.367   l0.109-1.765l0.165-1.705c0-0.057,0-0.165,0.055-0.223l0.165-2.146l0.167-1.711c0-0.271,0.057-0.604,0.11-0.88l0.165-1.486   l0.112-1.215l0.385-3.247l0.275-1.876c0.165-1.101,0.33-2.146,0.606-3.249L99.374,88.395z"/>
	<path fill="#141412" d="M119.981,88.838c0.771-0.277,1.542-0.497,2.368-0.662c0.441-0.111,0.938-0.221,1.435-0.277   c0.44-0.055,0.827-0.055,1.265,0c0.331,0.112,0.553,0.277,0.661,0.555c0.056,0.22,0.165,0.387,0.165,0.604   c0.111,0.33,0.111,0.659,0.167,0.991c0.056,0.661,0.056,1.323,0,1.982v0.825c0,0.225-0.056,0.441-0.056,0.608   c0,0.11-0.053,0.22-0.053,0.33c0,0.938-0.167,1.928-0.278,2.863c-0.053,0.438-0.11,0.882-0.11,1.321   c-0.108,0.884-0.165,1.765-0.22,2.646v0.274l-0.165,2.643c0,0.828-0.056,1.602-0.111,2.427c-0.056,0.386-0.056,0.772-0.056,1.156   l-0.165,2.922c0,0.108-0.053,0.222-0.053,0.331c0,0.604-0.056,1.207-0.056,1.814l-0.165,2.921c-0.11,0.937-0.11,1.872-0.167,2.753   c-0.053,0.662-0.106,1.271-0.106,1.878l-0.167,2.475l-0.165,2.813l-0.165,2.091c0,0.388-0.056,0.772-0.112,1.156   c0,0.106,0,0.163-0.053,0.276c0,0-0.057,0.053-0.112,0.053c-0.112,0.059-0.22,0.059-0.332,0.059c-0.88,0-1.763-0.109-2.645-0.388   c-0.22-0.054-0.494-0.222-0.715-0.328c-0.167-0.056-0.329-0.167-0.441-0.333c-0.276-0.219-0.385-0.495-0.385-0.827   c-0.056-0.935-0.111-1.815-0.111-2.696c0-1.542-0.054-3.029-0.054-4.572c-0.056-1.156-0.056-2.314-0.056-3.473v-12.615l0.109-3.14   c0-0.771,0-1.599,0.055-2.37c0-0.881,0.056-1.764,0.056-2.646c0-0.108,0.056-0.218,0.056-0.384v-0.388l0.165-2.312   c0-0.438,0.055-0.88,0.11-1.267c0.055-0.496,0.11-0.937,0.22-1.38c0-0.108,0-0.219,0.056-0.329c0-0.055,0.054-0.164,0.054-0.22   L119.981,88.838z"/>
	<path fill="#141412" d="M146.262,86.688l1.816,0.168l2.479,0.328c0.988,0.166,2.035,0.441,2.973,0.771   c0.389,0.107,0.771,0.275,1.104,0.438c0.496,0.225,0.826,0.606,0.938,1.157c0.111,0.441,0.219,0.884,0.219,1.321   c0,0.663,0,1.322-0.053,1.984l-0.166,1.545l-0.33,1.981c-0.223,1.103-0.498,2.261-0.826,3.308   c-0.277,1.043-0.607,1.981-1.049,2.974l-0.33,0.606c-0.221,0.498-0.662,0.717-1.211,0.717c-0.439,0-0.826,0-1.213-0.058   c-0.66-0.11-1.268-0.329-1.818-0.495l-1.32-0.494c-0.221-0.109-0.439-0.166-0.717-0.226c-0.33-0.106-0.604-0.33-0.826-0.603   c-0.273-0.332-0.387-0.827-0.055-1.268l0.107-0.167c0.605-0.717,0.992-1.542,1.213-2.479c0.223-1.046,0.275-2.039,0.164-3.089   c0-0.383-0.107-0.713-0.164-1.045c-0.164-0.552-0.387-1.05-0.717-1.486c-0.439-0.553-0.988-1.049-1.652-1.379   c-0.604-0.387-1.322-0.661-2.039-0.826c-0.551-0.105-1.104-0.165-1.596-0.057c-0.33,0.057-0.605,0.11-0.885,0.222   c-0.492,0.274-0.877,0.661-1.154,1.155c-0.109,0.274-0.166,0.556-0.221,0.828c-0.111,0.387-0.166,0.771-0.166,1.155   c-0.055,1.05,0.109,2.095,0.387,3.144c0.219,0.99,0.549,1.981,0.936,2.974c0.439,1.267,0.992,2.479,1.598,3.692   c0,0.108,0.057,0.164,0.111,0.276c0,0.105-0.057,0.22-0.164,0.22l-0.551-0.112c0,0-0.057,0.057-0.057,0.112h0.057v0.053   c0.219,0.058,0.385,0.113,0.551,0.113c0.107,0.054,0.219-0.058,0.33,0.054l0.164,0.276l3.141,6.274   c0.555,1.104,1.104,2.262,1.6,3.418c0.496,1.158,0.938,2.426,1.268,3.688c0.166,0.723,0.33,1.437,0.33,2.148   c0,0.329-0.055,0.605-0.055,0.938l-0.166,0.55c-0.109,0.278-0.275,0.608-0.498,0.883c-0.439,0.664-0.936,1.265-1.539,1.82   c-0.826,0.768-1.764,1.485-2.756,2.091c-0.771,0.494-1.652,0.936-2.533,1.32c-0.992,0.389-1.982,0.72-3.086,0.885   c-0.771,0.107-1.596,0.165-2.422,0.053c-0.664-0.109-1.271-0.218-1.875-0.439c-0.939-0.33-1.707-0.883-2.369-1.543   c-0.824-0.826-1.43-1.817-1.818-2.922c-0.438-0.988-0.66-2.091-0.826-3.188c-0.164-1.158-0.164-2.316-0.055-3.418   c0.055-0.662,0.166-1.269,0.385-1.872c0.057-0.223,0.166-0.385,0.275-0.608c0.168-0.329,0.441-0.604,0.826-0.713   c0.332-0.11,0.66-0.167,0.994-0.221c0.66,0,1.316,0.054,1.926,0.164c0.549,0.057,1.047,0.222,1.543,0.385   c0.438,0.112,0.881,0.332,1.266,0.551c0.221,0.112,0.387,0.222,0.555,0.39c0.055,0.055,0.055,0.106,0.107,0.106   c0.055,0.163,0,0.33-0.107,0.442l-0.223,0.165c-0.332,0.165-0.551,0.385-0.717,0.714c-0.164,0.386-0.33,0.771-0.385,1.158   c-0.166,0.551-0.166,1.154-0.166,1.709c0,0.494,0,1.048,0.107,1.542c0.059,0.332,0.17,0.604,0.277,0.938   c0.107,0.438,0.275,0.826,0.498,1.158c0.219,0.437,0.549,0.826,0.986,1.043c0.168,0.113,0.33,0.169,0.441,0.169   c0.605,0.161,1.156,0.219,1.764,0.108c0.66-0.108,1.268-0.277,1.873-0.605c0.439-0.168,0.826-0.442,1.156-0.772   c0.605-0.604,0.826-1.375,0.719-2.258c-0.111-0.826-0.332-1.652-0.662-2.422c-0.387-1.156-0.938-2.203-1.434-3.308   c-0.717-1.377-1.488-2.757-2.26-4.134l-1.818-3.251l-1.156-2.149c-0.33-0.604-0.551-1.265-0.826-1.929   c-0.273-0.826-0.604-1.65-0.824-2.531c-0.389-1.158-0.66-2.367-0.771-3.583c-0.055-0.659-0.107-1.375-0.055-2.093   c0-0.496,0.055-0.935,0.109-1.431c0.164-0.938,0.328-1.818,0.717-2.701l0.273-0.661c0.166-0.386,0.332-0.771,0.551-1.103   c0.389-0.44,0.826-0.824,1.324-1.156c0.439-0.273,0.936-0.492,1.432-0.719c0.771-0.271,1.545-0.438,2.312-0.604   c0.771-0.107,1.488-0.223,2.258-0.275h0.168c0.715-0.053,1.484-0.053,2.201-0.053C144.829,86.636,145.543,86.636,146.262,86.688"/>
	<path fill="#141412" d="M175.959,95.668c0-0.826,0-1.6-0.055-2.371c0-0.107-0.057-0.273-0.057-0.384   c0-0.495-0.105-0.938-0.221-1.378c0-0.055,0-0.108-0.055-0.164c-0.055-0.111-0.223-0.111-0.275-0.057   c-0.055,0.057-0.109,0.11-0.109,0.166c-0.109,0.164-0.164,0.328-0.219,0.494l-0.498,1.602c-0.273,0.771-0.496,1.597-0.881,2.312   c-0.221,0.548-0.496,1.044-0.826,1.54l-0.662,0.719c-0.549,0.496-1.211,0.719-1.979,0.662c-1.051-0.058-2.098-0.274-3.088-0.554   c-0.715-0.218-0.551-0.33-0.883,0.331c-0.055,0.109-0.109,0.165-0.109,0.277c-0.385,0.881-0.77,1.762-1.045,2.695   c-0.223,0.773-0.441,1.545-0.607,2.37c-0.164,0.884-0.385,1.819-0.438,2.755c-0.055,0.659-0.168,1.267-0.168,1.93   c-0.055,1.212-0.055,2.369,0.057,3.58c0.057,0.938,0.164,1.929,0.33,2.922c0.164,1.156,0.439,2.256,0.771,3.414   c0.221,0.826,0.551,1.707,0.938,2.533c0.162,0.438,0.385,0.828,0.658,1.213c0.111,0.166,0.221,0.33,0.387,0.44   c0.166,0.165,0.389,0.273,0.66,0.273l0.607-0.165c0.439-0.221,0.77-0.497,1.104-0.826l0.99-1.211   c0.826-1.155,1.486-2.426,2.145-3.691l0.721-1.599l0.99-2.479c0.33-0.771,0.494-1.541,0.66-2.369   c0.168-0.715,0.275-1.435,0.389-2.147c0.107-0.553,0.162-1.158,0.219-1.709l0.166-1.433v-0.221l0.109-0.716v-0.44   c0.111-0.657,0.059-1.379,0.164-2.094c0.057-1.268,0.166-2.591,0.109-3.854C175.959,97.266,176.014,96.436,175.959,95.668    M174.473,82.225c0.057,0.057,0.107,0.057,0.162,0.057c0.279,0.056,0.553,0.111,0.83,0.111c0.99,0.164,1.873,0.495,2.699,0.938   c0.826,0.437,1.541,1.046,2.092,1.815c0.551,0.769,0.826,1.597,0.826,2.586c0,1.382,0,2.755-0.053,4.076v2.043l-0.113,1.596v0.772   c0,0.605,0,1.208-0.109,1.817v0.107c0,0.825-0.055,1.707-0.111,2.588l-0.162,1.981l-0.166,1.546l-0.164,1.762   c-0.057,0.388-0.109,0.72-0.109,1.102c-0.109,0.993-0.273,1.986-0.441,2.924c-0.055,0.494-0.109,0.938-0.223,1.434   c-0.16,1.045-0.381,2.149-0.604,3.194c-0.273,1.209-0.605,2.423-0.99,3.579c-0.443,1.432-0.992,2.865-1.707,4.241   c-0.496,1.047-1.156,2.095-1.875,2.975c-0.715,0.827-1.484,1.546-2.424,2.15c-0.77,0.438-1.596,0.717-2.48,0.882   c-0.824,0.165-1.65,0.221-2.479,0.165h-0.385c-0.826-0.055-1.6-0.33-2.312-0.771c-0.883-0.498-1.543-1.156-2.203-1.933   c-1.047-1.319-1.816-2.694-2.537-4.237c-0.768-1.652-1.375-3.416-1.871-5.232c-0.162-0.553-0.328-1.106-0.438-1.707   c-0.168-0.557-0.277-1.156-0.387-1.766c-0.273-1.156-0.33-2.312-0.33-3.471c0-0.885,0.057-1.711,0.109-2.535   c0.055-0.72,0.162-1.375,0.275-2.093c0.107-0.938,0.273-1.876,0.492-2.866c0.275-1.375,0.607-2.811,0.992-4.188   c0.33-1.045,0.605-2.096,0.992-3.141c0.439-1.269,0.936-2.479,1.486-3.691l0.826-1.544l0.826-1.156   c0.387-0.497,0.881-0.824,1.49-0.987c0.549-0.169,1.1-0.223,1.646-0.279h0.334c0.162,0,0.271-0.053,0.33-0.163l0.219-0.271   c0.277-0.555,0.662-1.052,1.104-1.489c0.938-0.994,2.037-1.764,3.305-2.259c0.771-0.278,1.541-0.444,2.312-0.553   c0.221-0.056,0.441-0.11,0.658-0.11H174.473z"/>
	<path fill="#141412" d="M169.292,144.59c-0.66,0-1.322,0-1.984-0.113c-0.328-0.055-0.715-0.055-1.047-0.055l-1.156-0.161   c-0.439-0.057-0.938-0.112-1.377-0.112c-0.658-0.055-1.322-0.109-1.982-0.332c-0.107-0.053-0.273-0.053-0.389-0.053l-1.484-0.166   c-0.166-0.053-0.385-0.053-0.551-0.053l-2.863-0.664c-0.168,0-0.275-0.109-0.389-0.109c-0.441-0.053-0.826-0.22-1.268-0.276   c-0.271-0.108-0.605-0.165-0.936-0.22c-0.441-0.109-0.881-0.219-1.324-0.383c-0.33-0.109-0.713-0.276-1.1-0.276   c-0.99-0.277-1.984-0.496-2.924-0.881l-0.492-0.166c-1.541-0.44-3.029-1.05-4.463-1.712c-0.055,0-0.111-0.051-0.168-0.106   c-0.439-0.221-0.881-0.438-1.32-0.718c-0.33-0.166-0.66-0.385-0.938-0.659c-0.33-0.332-0.496-0.771-0.439-1.269   c0.057-0.387,0.221-0.771,0.439-1.156c0.109-0.223,0.33-0.438,0.496-0.661c0.33-0.387,0.715-0.716,1.104-0.993   c0.441-0.33,0.883-0.604,1.379-0.769c0.271-0.058,0.496-0.058,0.713,0.055l0.994,0.438c0.99,0.553,2.039,1.047,3.141,1.434   l2.865,1.049c0.826,0.271,1.65,0.497,2.422,0.714c0.605,0.224,1.268,0.332,1.818,0.607l0.332,0.11   c0.381,0.057,0.822,0.164,1.211,0.271c0.604,0.115,1.268,0.277,1.875,0.441l1.102,0.274c0.99,0.167,1.924,0.44,2.92,0.663   c0.439,0.053,0.883,0.22,1.318,0.22c0.168,0,0.332,0.054,0.498,0.11c0.439,0.107,0.822,0.163,1.268,0.163l2.203,0.106   c0.275,0,0.496,0,0.771-0.052c0.883-0.11,1.766-0.165,2.588-0.33c1.047-0.22,2.094-0.442,3.088-0.825l0.992-0.387   c0.938-0.441,1.871-0.938,2.752-1.545c9.365-6.994,8.539-16.803,7.879-27.875c-0.055-0.441-0.055-0.881-0.055-1.377   c-0.055-1.156-0.055-2.312-0.055-3.469c0-0.389,0-0.772-0.057-1.16c-0.109-0.66-0.109-1.321-0.109-1.982   c-0.057-1.269,0-2.588-0.221-3.803v-0.221c0-0.661-0.166-1.322-0.166-2.037c-0.059-0.659-0.059-1.322-0.059-1.982v-0.555   c-0.053-0.659-0.053-1.318,0-1.982c0-0.33,0-0.657-0.105-0.935c-0.109-0.33-0.109-0.718-0.109-1.048   c0.055-0.273,0.164-0.439,0.439-0.605l0.439-0.162c1.928-0.662,2.645-0.994,4.188-1.215c0.107,0,0.166-0.055,0.273-0.055   c0.113-0.054,0.225-0.054,0.33-0.054l1.049,0.165c0.223,0.052,0.385,0.164,0.494,0.386c0,0.052,0.059,0.11,0.059,0.165l1.873,4.738   l0.496,1.266c0.604,1.432,1.154,2.919,1.65,4.354c0.057,0.272,0.164,0.552,0.277,0.826c0.16,0.272,0.271,0.604,0.438,0.937   c0.166,0.551,0.391,1.155,0.662,1.711l1.104,2.809c0.162,0.386,0.273,0.716,0.33,1.104l0.328,0.881   c0.275,0.551,0.553,1.103,0.717,1.707l0.273,0.772c0.166,0.33,0.33,0.713,0.441,1.102l0.439,1.047   c0.111,0.218,0.166,0.443,0.223,0.715c0.053,0.166,0.107,0.329,0.219,0.496c0.332,0.989,0.719,1.982,1.158,2.922   c0.107,0.219,0.164,0.385,0.221,0.604c0,0.057,0.053,0.108,0.053,0.169c0.061,0.105,0.111,0.161,0.111,0.218   c0.055,0.056,0.111,0.111,0.168,0.111c0.055,0,0.164-0.058,0.164-0.168c0.053-0.551-0.057-1.102,0-1.65   c0-0.165-0.057-0.275-0.057-0.441c0-0.052,0-0.162-0.055-0.219c-0.109-0.441-0.109-0.882-0.109-1.381c0-0.493,0-0.989-0.111-1.432   c-0.053-0.438-0.111-0.883-0.111-1.267c0-0.442-0.053-0.881-0.107-1.269c0-0.497,0-0.938-0.055-1.376c0-0.552,0-1.156-0.057-1.709   c-0.111-0.989-0.223-2.04-0.273-3.029v-0.33c-0.055-0.334-0.109-0.606-0.109-0.938v-0.659c-0.057-0.826-0.221-1.652-0.221-2.535   v-0.108c-0.055-0.271-0.166-0.496-0.166-0.826c-0.057-0.273,0-0.553-0.057-0.828v-0.219c-0.111-0.332-0.162-0.717-0.162-1.104   c0-0.22-0.059-0.386-0.059-0.55c-0.166-0.605-0.221-1.268-0.109-1.87v-0.109c-0.057-0.661,0.057-1.321,0.109-2.04   c0-0.057,0.059-0.165,0.109-0.275c0.057-0.328,0.277-0.604,0.553-0.713c0.162-0.06,0.271-0.06,0.438-0.06   c0.553-0.055,1.049,0,1.602,0.112c0.713,0.106,1.486,0.273,2.258,0.496c0.275,0.052,0.551,0.218,0.883,0.33   c0.107,0,0.164,0.107,0.221,0.218c0.057,0.223,0.166,0.442,0.166,0.718c0,0.167,0.055,0.331,0.109,0.497   c0.053,0.221,0.109,0.494,0.109,0.717c0.055,0.33,0.107,0.662,0.107,0.937c0.057,0.33,0.109,0.662,0.109,0.994   c0,0.713,0,1.428,0.109,2.198v0.222c0.109,1.433,0.109,2.867,0.271,4.297v0.438c0,0.827,0,1.601,0.061,2.427v3.803   c0.055,0.44,0.055,0.826,0,1.269c0,0.165,0,0.272,0.055,0.438c0.055,0.553,0.055,1.104,0.055,1.65c0,0.391-0.055,0.772-0.055,1.156   c0.055,0.33,0.055,0.661,0.055,0.993c0.059,0.389,0.059,0.826,0.059,1.268v6.445c-0.059,0.44-0.059,0.883,0,1.377   c0,0.39,0.055,0.771-0.059,1.16c-0.107,0.385-0.107,0.714-0.055,1.155c0.055,0.166,0,0.386,0,0.603c0.055,0.444,0,0.94-0.113,1.381   c-0.053,0.222-0.162,0.438-0.383,0.605l-0.275,0.161c-0.498,0.224-0.988,0.444-1.484,0.498l-1.271,0.164   c-0.164,0.058-0.328,0.058-0.496,0c-0.162,0-0.27-0.105-0.328-0.218c-0.166-0.276-0.223-0.551-0.223-0.825   c0-0.112-0.055-0.225-0.055-0.332c0-0.385-0.107-0.771-0.221-1.103l-0.66-1.657c-0.275-0.601-0.496-1.205-0.66-1.813   c-0.059-0.33-0.221-0.659-0.387-0.991c-0.387-0.604-0.66-1.21-0.938-1.872l-0.162-0.386l-2.152-4.572   c-0.217-0.441-0.438-0.826-0.604-1.27c-0.332-0.715-0.715-1.373-0.992-2.097l-0.33-0.659c-0.166-0.166-0.275-0.328-0.332-0.549   c-0.273-0.44-0.494-0.826-0.715-1.32c-0.277-0.608-0.662-1.215-0.992-1.818l-1.154-1.93c-0.223-0.495-0.553-0.936-0.826-1.433   c-0.168-0.223-0.275-0.439-0.441-0.604c-0.166-0.279-0.33-0.442-0.605-0.554c-0.057,0-0.111,0-0.111,0.057l-0.271,0.439   c-0.059,0.164-0.111,0.329-0.059,0.496c0,0.273,0.059,0.494,0.111,0.717c0.109,0.274,0.109,0.496,0.109,0.771v0.603   c-0.109,0.498-0.055,0.992-0.055,1.489c0.055,0.39,0.055,0.72,0,1.047c0,0.33-0.055,0.664-0.055,0.991v1.874   c-0.057,0.382-0.057,0.771-0.057,1.154c0.057,0.881,0,1.766-0.059,2.646c-0.055,0.387-0.107,0.772,0,1.156   c0.059,0.165,0,0.33,0,0.551c0,7.108-0.605,14.051-4.131,20.993c-0.387,0.662-0.883,1.267-1.377,1.87l-0.66,0.773l-0.443,0.496   c-0.713,0.711-1.539,1.32-2.367,1.981c-0.439,0.33-0.99,0.66-1.484,0.938l-1.984,0.987c-0.605,0.275-1.156,0.554-1.816,0.605   c-0.055,0-0.109,0.058-0.221,0.058c-0.166,0-0.389,0.105-0.551,0.221c-0.168,0.109-0.33,0.164-0.496,0.219   c-0.605,0.166-1.213,0.33-1.82,0.441l-1.482,0.275c-0.443,0.107-0.938,0.167-1.434,0.218c-0.938,0.112-1.93,0.168-2.867,0.168   h-0.326V144.59L169.292,144.59z"/>
</g>
</svg>