<svg xmlns="http://www.w3.org/2000/svg" xmlns:xlink="http://www.w3.org/1999/xlink" version="1.1" id="Calque_1" x="0px" y="0px" width="255.118px" height="170.078px" viewBox="0 0 255.118 170.078" enable-background="new 0 0 255.118 170.078" xml:space="preserve">
<g>
	<path fill="#141412" d="M92.373,52.561l-0.116,0.258c-0.559,0.316-1.361,0.156-1.971,0.139c-0.825-0.023-1.648-0.036-2.473-0.047   c-0.733-0.01-1.462-0.028-2.195-0.009c-0.662,0.018-1.658,0.287-2.25-0.083c-0.335-0.834-0.271-2.467,0-3.315   c0.566-0.287,1.464-0.044,2.085-0.08c0.751-0.042,1.499-0.06,2.251-0.06c0.835,0,1.667,0.021,2.502,0.044   c0.639,0.018,1.463-0.252,2.05,0.096c0.203,0.453,0.136,0.997,0.087,1.476C92.292,51.492,92.391,52.038,92.373,52.561z"/>
	<path fill="#141412" d="M109.936,42.498c-0.978,0.056-1.942-0.036-2.918-0.008c-0.787,0.022-2.275-0.334-2.952,0.08   c-0.296,0.455-0.151,1.228-0.122,1.74c0.031,0.525-0.154,1.333,0.145,1.785c0.496,0.197,1.197,0.289,1.707,0.116l0.163,0.07   c0.083,1.539-0.155,3.062-0.114,4.602c0.022,0.836,0.061,1.667,0.126,2.501c0.046,0.593,0.136,1.635-0.221,2.143   c-0.475,0.063-1.139-0.216-1.545,0.116c-0.182,0.602-0.108,1.163-0.116,1.774c-0.008,0.604-0.159,1.216,0.093,1.798   c0.433,0.318,1.217,0.159,1.723,0.12c0.677-0.053,1.359-0.001,2.038,0.017c1.219,0.033,2.45-0.167,3.677-0.137   c1.261,0.031,2.519,0.092,3.782,0.092c1.163,0,2.56,0.216,3.68-0.116c0.464-0.72,0.036-2.403,0.046-3.246   c0.012-0.988,0.307-2.359-0.071-3.291c-0.479-0.348-1.382-0.172-1.94-0.143c-0.627,0.033-1.467-0.213-2.036,0.143   c-0.277,0.657,0.139,1.977-0.351,2.475c-1.28,0.228-2.618,0.287-3.905,0.117l-0.14-0.188c0.278-2.872-0.135-5.812,0.022-8.684   l0.118-0.094c0.548,0.06,1.242,0.085,1.755-0.14c0.307-0.531,0.052-1.204,0.069-1.774c0.016-0.554,0.351-1.322-0.024-1.823   C111.985,42.093,110.645,42.437,109.936,42.498z"/>
	<path fill="#141412" d="M121.559,42.429l-0.163,0.046c-0.452,0.628-0.298,2.008-0.212,2.729c0.035,0.294,0.002,0.75,0.259,0.938   c0.322,0.235,0.954-0.036,1.332,0.093c0.649,0.22,0.305,2.059,0.281,2.59c-0.049,1.1-0.052,2.194-0.027,3.295   c0.024,1.018,0.154,2.004,0.015,3.023c-0.142,1.044-1.348-0.066-1.788,0.641c-0.176,0.282-0.112,0.95-0.12,1.265   c-0.014,0.551-0.118,1.168-0.034,1.711c0.136,0.873,1.654,0.621,2.347,0.605c3.871-0.084,7.732,0.071,11.605,0.082   c1.188,0.003,1.375-0.305,1.297-1.457c-0.062-0.913-0.264-1.985-0.073-2.889c0.201-0.957,0.175-1.667-0.98-1.566   c-0.776,0.068-1.809-0.083-2.538,0.191c-0.241,0.516,0.094,1.2-0.231,1.636c-0.604-0.114-1.272-0.07-1.89-0.07   c-0.782,0-1.896,0.24-2.648,0.059c-0.27-0.065-0.311-1.692-0.257-1.952c0.16-0.768,1.543-0.688,2.198-0.676   c0.701,0.013,1.859,0.508,1.964-0.526c0.04-0.399,0.003-0.803-0.019-1.202c-0.021-0.394,0.141-0.83,0.08-1.212   c-0.142-0.877-0.951-0.762-1.728-0.723c-0.697,0.035-1.665,0.206-2.31-0.12c-0.219-0.492-0.401-2.08,0.048-2.451   c0.746-0.104,1.497,0.017,2.245,0c0.646-0.014,1.551-0.337,2.15-0.045c0.151,0.89-0.421,1.629,0.797,1.75   c0.555,0.055,2.256,0.34,2.664-0.068c0.508-0.508,0.244-2.254,0.221-2.899c-0.016-0.45,0.224-2.564-0.338-2.753   c-0.445-0.15-0.938-0.011-1.389,0.031c-0.558,0.052-1.113,0.035-1.672,0.05c-1.053,0.029-2.106-0.04-3.158-0.058   c-2.06-0.034-4.122,0.176-6.176,0.072C122.707,42.54,122.168,42.375,121.559,42.429z"/>
	<path fill="#141412" d="M145.062,42.125c-1.854,0.069-3.938,0.75-5.353,1.984c-1.527,1.333-1.612,3.557-1.022,5.327   c0.652,1.954,2.64,2.69,4.484,3.069c1.161,0.238,5.308-0.103,4.854,1.951c-0.332,1.502-2.822,1.08-3.899,1.007   c-0.408-0.028-1.422-0.078-1.635-0.497c-0.256-0.504,0.171-1.199-0.21-1.753c-0.821-0.248-1.921,0.019-2.792-0.038   c-1.27-0.083-1.205,0.833-1.165,1.824c0.037,0.914-0.247,2.187,0.544,2.769c0.865,0.636,1.631,1.07,2.676,1.342   c1.849,0.481,3.878,0.83,5.801,0.47c1.832-0.342,4.257-1.132,5.012-3.024c0.792-1.983,0.832-3.964-0.721-5.629   c-1.387-1.487-3.645-1.858-5.575-2.027c-0.923-0.081-2.208,0.075-2.786-0.81c-0.686-1.05,0.504-1.802,1.424-1.962   c0.629-0.109,2.234-0.214,2.773,0.177c0.537,0.388-0.171,1.668,0.689,1.784c0.641,0.086,1.274-0.011,1.919-0.011   c0.307,0,1.45,0.163,1.695-0.07c0.265-0.253,0.188-1.422,0.188-1.771c0-0.596,0.072-1.425-0.117-1.988   c-0.131-0.386-0.998-0.801-1.334-0.991c-0.546-0.307-1.124-0.485-1.73-0.644C147.574,42.3,146.307,42.159,145.062,42.125z"/>
	<path fill="#141412" d="M173.057,52.561l-0.116,0.258c-0.558,0.316-1.359,0.156-1.969,0.139c-0.826-0.023-1.649-0.036-2.476-0.047   c-0.732-0.01-1.461-0.028-2.194-0.009c-0.661,0.018-1.657,0.287-2.249-0.083c-0.335-0.839-0.269-2.461,0-3.315   c0.566-0.287,1.463-0.044,2.085-0.08c0.751-0.042,1.498-0.06,2.25-0.06c0.836,0,1.669,0.021,2.505,0.044   c0.638,0.018,1.462-0.253,2.048,0.096c0.202,0.454,0.138,0.996,0.088,1.476C172.976,51.492,173.077,52.038,173.057,52.561z"/>
	<path fill="#141412" d="M27.795,68.236c-2.167,0.227-4.326,0.677-6.289,1.654c-1.024,0.51-1.852,1.233-2.685,2.007   c-0.753,0.698-1.618,1.189-2.207,2.05c-1.119,1.635-1.94,3.972-2.229,5.934c-0.291,1.984-0.118,4.264,0.408,6.195   c1.122,4.124,4.026,7.66,8.159,8.987c2.111,0.679,4.194,1.203,6.436,1.085c2.117-0.111,4.407-0.568,6.362-1.38   c0.75-0.312,1.442-0.791,2.125-1.23c0.665-0.428,1.712-1.038,2.067-1.757c-0.138-0.929-1.293-1.688-1.896-2.329   c-0.648-0.69-1.242-1.597-2.08-2.083c-0.764-0.443-1.576,0.626-2.263,0.986c-0.927,0.486-1.864,0.864-2.899,1.053   c-2.163,0.394-4.112-0.232-6.042-1.198c-1.923-0.962-2.552-3.246-2.944-5.21c-0.367-1.834,0.45-4.262,1.631-5.68   c1.349-1.618,3.167-2.447,5.254-2.447c0.958,0,2.309-0.257,3.142,0.371c0.789,0.595,0.277,1.947,0.191,2.766   c-0.132,1.255,0.422,1.544,1.555,1.646c1.086,0.098,2.196,0.013,3.287,0.056c0.696,0.027,1.764,0.136,1.988-0.687   c0.235-0.863-0.086-1.752-0.118-2.609c-0.034-0.933,0.002-1.833,0.052-2.763c0.027-0.509,0.01-1.007-0.008-1.517   c-0.011-0.303-0.557-0.644-0.762-0.823C35.16,68.796,31.51,68.144,27.795,68.236z"/>
	<path fill="#141412" d="M63.38,80.955c-0.347-1.947-1.125-4.096-2.941-5.195c-0.962-0.583-1.785-1.033-2.929-1.104   c-1.06-0.066-2.079-0.104-3.115,0.167c-2.091,0.549-3.897,1.724-4.714,3.817c-0.797,2.042-0.926,4.04-0.319,6.16   c0.995,3.478,5.287,5.621,8.728,4.769c1.614-0.399,3.503-1.526,4.261-3.118C63.235,84.59,63.435,83.004,63.38,80.955z    M71.069,83.587c-0.201,1.036-0.302,2.073-0.465,3.114c-0.162,1.038-0.708,1.928-1.24,2.822c-1.172,1.975-2.562,3.379-4.474,4.649   c-1.692,1.125-3.96,1.57-5.913,2.026c-1.929,0.45-4.385,0.118-6.289-0.293c-2.094-0.453-4.185-1.349-6.025-2.427   c-0.825-0.483-1.407-1.395-2.072-2.06c-0.821-0.82-1.451-1.558-1.896-2.635c-0.741-1.793-1.261-3.834-1.321-5.778   c-0.068-2.201,0.297-4.097,0.992-6.174c0.695-2.081,1.741-3.943,3.579-5.21c1.771-1.221,3.532-2.36,5.67-2.81   c4.021-0.846,8.621-1.029,12.393,0.91c1.235,0.635,2.317,1.386,3.284,2.395c0.985,1.029,1.629,2.214,2.353,3.429   C71.066,77.937,71.351,80.862,71.069,83.587z"/>
	<path fill="#141412" d="M93.282,82.253c0.237,0.256,0.528,0.232,0.786,0.048c0.307-0.218,0.12-0.736,0.076-1.031   c-0.102-0.675-0.28-1.341-0.314-2.027c-0.07-1.378-0.105-2.871,0.12-4.221c-0.889,0.024-1.801,0.137-2.674-0.037   c-0.261-0.322-0.063-1.04-0.051-1.434c0.016-0.531,0.049-1.06,0.081-1.591c0.055-0.915-0.198-2.051,0.231-2.907   c0.907-0.488,2.317-0.275,3.302-0.23c1.051,0.049,2.11-0.078,3.162-0.067c1.024,0.011,2.049,0.137,3.075,0.11   c1.037-0.026,2.406-0.214,3.388,0.187c0.438,0.775,0.161,1.937,0.148,2.78c-0.013,0.873,0.182,1.918-0.185,2.745   c-0.893,0.5-2,0.168-2.935,0.371c-0.188,0.711-0.023,1.615,0.069,2.34c0.107,0.838-0.009,1.653-0.054,2.495   c-0.092,1.756,0.189,3.487,0.097,5.248c-0.093,1.758-0.113,3.517-0.022,5.275c0.038,0.738,0.168,1.48,0.1,2.217   c-0.082,0.884,0.001,1.98-0.336,2.815c-1.868,0.671-4.025,0.323-5.945,0.15c-0.613-0.056-0.63-0.131-1.042-0.649   c-0.319-0.401-0.63-0.808-0.94-1.215c-0.622-0.817-1.216-1.657-1.824-2.485c-1.146-1.559-2.475-2.997-3.56-4.599   c-0.576-0.851-1.111-1.718-1.794-2.486c-0.612-0.688-1.299-1.327-1.61-2.211l-0.186-0.112c-0.205,0.002-0.402,0.088-0.558,0.223   c0.007,1.25,0.07,2.501,0.146,3.749c0.073,1.221-0.148,2.417-0.11,3.631c0.673,0.606,2.166-0.226,2.751,0.483   c-0.012,0.918-0.007,1.863,0.035,2.78c0.044,0.964,0.301,1.96-0.148,2.853c-1.041,0.393-2.333,0.152-3.414,0.05   c-1.044-0.099-2.149,0.112-3.198,0.138c-1.064,0.025-2.133-0.046-3.197,0.006c-1.111,0.053-2.368,0.205-3.414-0.227   c-0.536-0.833-0.14-1.903-0.113-2.819c0.027-0.904-0.277-1.966,0.148-2.819c0.806-0.464,1.606,0.105,2.453-0.074   c0.841-0.179,0.757-1.368,0.703-2.034c-0.147-1.81-0.058-3.609-0.108-5.422c-0.048-1.733-0.162-3.509-0.021-5.234   c0.036-0.442,0.11-2.099-0.461-2.197c-0.787-0.135-1.809,0.359-2.49-0.166c-0.285-0.919-0.29-1.869-0.333-2.819   c-0.038-0.83-0.285-2.089,0.224-2.819c1.312-0.469,2.807-0.347,4.179-0.312c1.744,0.044,3.55,0.247,5.291,0.202   c1.024,0.714,1.845,2.127,2.516,3.165c0.849,1.313,1.791,2.43,2.812,3.619c0.939,1.094,1.755,2.119,2.534,3.326   C91.373,80.104,92.256,81.445,93.282,82.253z"/>
	<path fill="#141412" d="M132.097,91.783c-0.429,0.845-1.69,1.514-2.463,2.011c-0.843,0.542-1.712,1.034-2.663,1.362   c-0.955,0.329-1.924,0.435-2.91,0.616c-1.032,0.19-2.04,0.402-3.093,0.376c-2.203-0.057-4.203-0.479-6.275-1.228   c-1.035-0.374-2.019-0.775-2.859-1.499c-0.847-0.729-1.632-1.51-2.395-2.325c-2.758-2.949-3.556-8.164-2.729-11.996   c0.219-1.012,0.574-1.963,0.981-2.912c0.421-0.979,0.783-2.04,1.526-2.836c0.742-0.795,1.719-1.416,2.521-2.159   c0.755-0.699,1.696-1.259,2.642-1.66c3.765-1.596,8.62-1.911,12.44-0.312c1.052,0.44,1.958,0.988,2.873,1.665   c0.939,0.695,1.35,1.11,1.287,2.296c-0.057,1.087-0.115,2.144-0.076,3.236c0.029,0.808,0.512,2.113,0.042,2.867   c-0.487,0.782-2.412,0.408-3.142,0.381c-0.96-0.037-1.961,0.13-2.905-0.14c-0.954-0.272-0.778-1.537-0.6-2.342   c0.279-1.257,0.062-1.888-1.172-2.258c-0.952-0.285-2.211-0.063-3.192-0.019c-0.954,0.043-1.951,0.428-2.731,0.967   c-1.672,1.154-2.719,2.891-3.121,4.864c-0.424,2.08,0.177,4.25,1.242,6.06c0.502,0.854,1.312,1.308,2.194,1.676   c0.98,0.41,2.106,1.007,3.19,1.054c2.164,0.093,4.075-0.477,5.902-1.625c0.369-0.231,0.632-0.598,1.068-0.7   c0.344-0.08,0.888,0.497,1.104,0.712c0.719,0.717,1.346,1.515,2.08,2.214C131.314,90.561,132.005,91.121,132.097,91.783z"/>
	<path fill="#141412" d="M152.823,86.703c0.827-0.384,2.006-0.115,2.895-0.2c0.655-0.063,2.511-0.499,2.771,0.415   c0.289,1.018-0.214,1.904-0.164,2.919c0.054,1.098,0.069,2.206,0.179,3.299c0.073,0.727,0.364,2.259-0.559,2.521   c-0.944,0.267-1.969,0.077-2.93,0.058c-2.175-0.045-4.364,0.106-6.537,0c-2.147-0.105-4.255,0.012-6.406-0.03   c-1.061-0.021-2.12-0.007-3.18-0.04c-0.992-0.031-2.068,0.166-3.052-0.013c-0.312-0.057-1.095-0.057-1.328-0.289   c-0.329-0.326-0.254-1.074-0.224-1.501c0.073-1.021-0.022-2.085,0.14-3.095c0.078-0.485,0.051-0.996,0.566-1.188   c0.51-0.189,0.937,0.212,1.417,0.178c1.236-0.088,1.065-1.29,1.099-2.301c0.057-1.688-0.176-3.368-0.176-5.057   c0-1.915,0.027-3.833,0.154-5.744c0.046-0.681,0.166-1.758-0.719-1.885c-0.684-0.097-2.042,0.334-2.192-0.597   c-0.157-0.979-0.214-1.911-0.214-2.902c0-0.637-0.026-1.917,0.408-2.423c0.975-0.332,2.014,0.057,3,0.146   c0.946,0.086,2.034,0.086,2.988,0.033c2.207-0.12,4.392-0.209,6.605-0.147c1.986,0.055,3.967,0.079,5.952,0.079   c1.1,0,2.171-0.199,3.259-0.221c0.382-0.007,1.025-0.022,1.188,0.389c0.188,0.472,0.226,1.143,0.259,1.65   c0.086,1.302,0.038,2.652,0.038,3.958c0,0.716-0.019,1.367-0.12,2.073c-0.099,0.698-0.125,1.091-0.884,1.217   c-0.599,0.1-1.218-0.014-1.822-0.046c-0.6-0.032-1.227,0.042-1.82-0.053c-0.841-0.134-1.122-0.127-1.316-0.993   c-0.124-0.553,0.226-1.19,0.092-1.781c-0.673-0.37-1.773-0.052-2.492,0.003c-1.065,0.082-2.113,0.034-3.183,0   c-1.213-0.039-1.602,0.064-1.602,1.303c0,0.881-0.149,1.828,0.221,2.663c0.855,0.452,2.023,0.223,2.948,0.223   c0.821,0,2.426-0.35,3.142,0.184c0.696,0.519,0.153,2.064,0.19,2.797c0.043,0.864,0.337,2.168-0.329,2.83   c-0.592,0.587-2.096-0.063-2.811-0.025c-0.875,0.046-2.258-0.068-3.016,0.358c-0.838,0.471-0.273,2.178-0.273,2.958   c0,0.288-0.062,0.889,0.377,0.871c0.573-0.022,1.146-0.047,1.72-0.079c1.769-0.097,3.612-0.098,5.368,0.081   c0.28-0.281,0.235-0.851,0.174-1.221C152.548,87.614,152.594,87.127,152.823,86.703z"/>
	<path fill="#141412" d="M180.643,79.212c0.512-2.024-0.363-4.221-2.624-4.481c-1.001-0.115-2.047,0.207-3.062,0.155   c-0.736-0.038-2.41-0.692-2.41,0.529c0,0.875-0.561,5.84,0.536,5.84c1.044,0,2.138,0.173,3.176,0.038   c0.913-0.119,2.211-0.035,3.021-0.472C180.003,80.431,180.323,79.956,180.643,79.212z M189.522,95.341l-0.186,0.261   c-1.75,0.099-3.498-0.241-5.241-0.145c-0.898,0.05-1.803,0.16-2.7,0.186c-0.724,0.02-2.163,0.219-2.725-0.34   c-0.355-1.214,0.281-2.553,0.055-3.766c-0.096-0.514-0.673-1.098-0.984-1.533c-0.413-0.578-0.849-1.124-1.299-1.675   c-0.272-0.335-0.749-1.185-1.214-1.313c-0.615-0.171-1.244-0.051-1.857-0.188c-0.623-0.14-0.792,0.146-0.792,0.727   c0,0.699-0.143,1.545,0.073,2.223c0.442,0.41,1.727,0.063,2.332,0.236c0.849,0.241,0.604,1.649,0.536,2.313   c-0.078,0.75,0.193,1.908-0.085,2.598c-0.299,0.742-1.589,0.576-2.296,0.615c-0.971,0.054-1.916,0.005-2.885-0.077   c-1.043-0.088-2.084,0.024-3.129,0.082c-1.781,0.098-3.659,0.126-5.435-0.026l-0.149-0.223c0.267-0.915,0.131-2.091,0.185-3.045   c0.04-0.701-0.378-2.351,0.224-2.888c0.795,0.1,2.01,0.385,2.746-0.037c0.506-0.937,0.022-2.35,0.105-3.356   c0.11-1.338,0.162-2.623,0.088-3.963c-0.071-1.313,0.04-2.586,0.109-3.899c0.027-0.53-0.033-1.082-0.076-1.61   c-0.048-0.589,0.027-1.316-0.103-1.884c-0.896-0.198-1.978,0.208-2.931,0.109l-0.227-0.221c0.014-1.116-0.035-2.236-0.035-3.353   c0-0.914-0.241-2.236,0.881-2.49c0.891-0.201,1.994,0.13,2.918,0.13c1.188,0,2.371,0.001,3.559,0.036   c4.296,0.126,8.561-0.401,12.812,0.424c1.991,0.387,3.829,1.763,4.919,3.425c0.52,0.792,1.316,1.756,1.48,2.713   c0.195,1.139,0.281,2.204,0.199,3.358c-0.161,2.264-1.109,4.354-2.958,5.684c-0.522,0.376-2.358,0.919-1.907,1.824   c0.496,0.998,1.363,1.921,2.055,2.79c0.574,0.721,1.188,0.448,2.05,0.436c0.841-0.012,1.734-0.158,1.886,0.815   c0.138,0.885,0.058,1.777,0.03,2.671C189.527,93.726,189.331,94.604,189.522,95.341z"/>
	<path fill="#141412" d="M216.377,69.015c0.348,0.954,0.192,2.239,0.216,3.248c0.025,1.06-0.076,2.139-0.102,3.2   c-0.025,1.061,0.154,2.045,0.039,3.11c-0.111,1.025-1.805,0.646-2.513,0.564c-1.044-0.12-2.045,0.197-3.096,0.094   c-0.893-0.088-0.867-1.552-0.932-2.31c-0.033-0.397,0.027-1.155-0.261-1.49c-0.321-0.374-0.937-0.195-1.365-0.139   c-1.232,0.164-0.857,1.363-0.806,2.319c0.111,2.026,0.035,4.055-0.019,6.083c-0.024,0.917-0.113,1.831-0.114,2.75   c-0.001,0.85,0.358,2.223,0,3.002l0.111,0.26c0.919,0.027,2.007-0.199,2.897-0.037c0.533,0.596,0.16,2.049,0.079,2.746   c-0.112,0.968,0.039,1.992,0.029,2.965c-0.683,0.637-2.411,0.099-3.26,0.122c-1.024,0.028-2.048,0.021-3.072,0.049   c-1.489,0.041-2.979,0.082-4.469,0.123c-0.662,0.018-2.572,0.489-3.015-0.22c0.005-0.943,0.034-1.914,0-2.855   c-0.029-0.804-0.436-2.082,0.149-2.781c0.869-0.307,1.914-0.157,2.821-0.185c0.263-0.354,0.137-1.46,0.148-1.892   c0.02-0.729,0.007-1.449,0.049-2.177c0.072-1.252,0.101-2.487,0.101-3.741c0-1.561,0.044-3.127-0.001-4.687   c-0.016-0.544,0.175-1.615-0.482-1.892c-0.469-0.197-1.459,0.103-1.933,0.222c-0.405,0.539-0.11,1.76-0.141,2.434   c-0.044,0.992-0.295,1.376-1.273,1.479c-0.75,0.079-1.528-0.202-2.285-0.159c-0.65,0.037-2.167,0.297-2.725-0.118   c-0.443-0.33-0.317-1.616-0.292-2.116c0.049-1.001,0.031-1.935-0.041-2.935c-0.061-0.845-0.112-1.674-0.112-2.521   c0-0.756-0.049-1.798,0.295-2.476c0.906-0.399,2.135-0.239,3.091-0.188c0.96,0.052,1.942-0.179,2.896-0.1   c2.023,0.168,4,0.026,6.019,0.081c2.25,0.061,4.502,0.132,6.752,0.132c1.142,0,2.282-0.041,3.423-0.072   c0.873-0.024,1.959-0.343,2.819-0.078C216.148,68.872,216.263,68.919,216.377,69.015z"/>
	<path fill="#141412" d="M228.598,68.31c-1.891,0.211-4.136,0.684-5.784,1.693c-0.85,0.521-2.02,1.092-2.612,1.92   c-0.63,0.882-1.02,1.926-1.398,2.939c-0.782,2.095-0.112,4.194,0.822,6.122c0.943,1.948,3.197,2.863,5.142,3.452   c2.002,0.605,4.052,0.298,6.042,0.81c0.731,0.188,2.384,0.421,2.833,1.095c0.655,0.984,0.317,1.867-0.476,2.662   c-0.663,0.664-1.896,0.518-2.737,0.518c-1.107,0-2.195,0.006-3.295-0.141c-0.791-0.105-2.075-0.18-2.004-1.187   c0.064-0.926,0.261-2.298-0.915-2.418c-1.021-0.104-2.052,0.264-3.095,0.123c-0.935-0.126-2.13-0.315-2.581,0.762   c-0.33,0.788,0.001,2.283,0.028,3.122c0.021,0.666-0.244,2.523,0.351,2.979c0.866,0.663,1.746,1.398,2.746,1.837   c0.945,0.415,1.972,0.626,2.948,0.951c2.004,0.668,3.88,0.481,5.95,0.537c2.046,0.055,4.202-0.249,6.05-1.202   c0.922-0.476,1.92-0.927,2.687-1.637c0.884-0.817,1.326-1.592,1.772-2.707c1.613-4.033-0.064-8.3-4.062-10.104   c-1.957-0.883-4.127-1.223-6.252-1.409c-1.539-0.134-5.095-0.004-4.646-2.521c0.391-2.203,3.69-2.019,5.346-1.855   c0.435,0.043,1.039,0.027,1.449,0.186c0.567,0.22,0.483,0.597,0.483,1.132c0,0.427-0.049,1.043,0.187,1.428   c0.257,0.42,0.735,0.372,1.217,0.438c0.831,0.115,1.817-0.106,2.669-0.106c0.479,0,0.959,0.013,1.438-0.007   c0.513-0.021,0.822,0.101,1.028-0.325c0.369-0.764,0.274-2.062,0.259-2.892c-0.012-0.624,0.182-2.644-0.315-3.042   C236.784,68.988,232.518,68.079,228.598,68.31z"/>
	<g>
		<path fill="#141412" d="M70.729,114.356c-0.081,0.657-0.191,1.287-0.353,1.929c-0.416,0.627-0.818,1.218-1.344,1.76    c-0.968,0.998-2.029,1.564-3.377,1.862c-1.311,0.289-2.507,0.449-3.859,0.251c-1.18-0.174-2.36-0.498-3.428-1.035    c-0.032-0.066-0.048-0.124-0.036-0.198c0.015-0.015,0.021-0.021,0.036-0.035c0.821,0.047,1.696,0.32,2.534,0.437    c1.384,0.035,2.547-0.017,3.873-0.417c2.667-0.806,4.432-2.69,5.211-5.331c-0.016,0-0.023,0-0.039-0.002    c0.033-0.381-0.11-1.237,0.195-1.506c0.118,0.01,0.205,0.092,0.313,0.092C70.736,112.814,70.729,113.656,70.729,114.356     M56.576,112.521c-0.149-0.911,1.938-1.55,2.572-1.736c1.001-0.294,2.393-0.5,3.353,0.046c0,0.928-2.035,0.813-2.729,0.968    c-0.634,0.272-1.271,0.565-1.792,1.028c-0.487,0.433-0.855,0.076-1.363-0.145C56.599,112.617,56.591,112.584,56.576,112.521     M55.562,112.795c1.103,1.195,3.406,1.675,4.949,1.523c0.917-0.201,1.845-0.454,2.397-1.276c0.43-0.641,0.764-1.625,0.327-2.342    c-0.855-1.402-3.331-1.159-4.674-0.657C57.878,110.338,54.772,111.66,55.562,112.795 M69.987,128.562    c-1.739,2.627-3.909,4.835-7.058,5.635c-3.041,0.772-6.032,0.494-8.924-0.696c-0.015-0.097-0.024-0.144-0.039-0.237    c0.062-0.04,0.093-0.061,0.156-0.098c2.681,0.822,5.72,0.746,8.382-0.045c1.34-0.398,2.616-1.34,3.666-2.239    c0.603-0.516,1.217-1.062,1.715-1.681c0.409-0.509,0.789-1.473,1.482-1.531C69.682,127.973,69.86,128.145,69.987,128.562     M53.964,122.799c0.026,0.906,0.109,1.801,0.156,2.704c-0.016-0.001-0.024-0.001-0.039-0.005c-0.021,0.062-0.06,0.108-0.117,0.141    c-0.508-0.062-0.676-1.797-0.78-2.199c-0.239-0.927-0.195-1.854-0.195-2.807c0-0.924,0.185-2.175,0.488-3.051    c0.334-0.965,0.535-0.901,1.346-0.399c0.262,0.778-0.271,1.442-0.467,2.201C54.067,120.505,53.998,121.646,53.964,122.799     M53.729,132.266c-4.133-1.629-7.754-5.59-7.754-10.27c0-2.665,0.32-5.002,1.384-7.457c0.527-1.217,1.182-2.186,1.969-3.243    c0.652-0.876,0.07-1.674-0.272-2.589c-0.347-0.994-0.651-1.949-0.78-2.997c-0.085-0.699,0.098-0.843,0.741-1.02    c0.594,0.014,1.508,0.034,1.755,0.686c0.128,0.937,0.359,2.353,1.208,2.888c0.494,0.063,0.756-0.131,1.168-0.352    c0.687-0.274,1.345-0.595,2.027-0.879c4.323-1.477,10.294-1.679,13.178,2.492c1.042,1.773,1.158,3.781,0.155,5.613    c-0.354,0.494-0.71,0.98-1.091,1.453c-0.5,0.355-1.011,0.691-1.521,1.031c-1.213,0.696-2.493,0.79-3.859,0.933    c-2.445,0.255-5.095-1.007-7.114-2.253c-0.958-0.592-1.612-0.887-2.044,0.367c-0.428,1.242-0.605,2.565-0.681,3.873    c-0.124,2.143,0.191,4.651,1.531,6.409c1.306,1.715,3.321,2.581,5.459,2.527c1.215-0.03,2.404-0.119,3.57-0.494    c1.238-0.398,2.204-1.277,3.139-2.143c0.754-0.867,1.208-1.642,2.223-0.562c0.725,0.771-0.37,1.746-0.912,2.386    c-1.554,1.838-3.465,3.254-5.833,3.841C58.895,133.121,56.169,133.028,53.729,132.266"/>
		<path fill="#141412" d="M78.874,124.376c0.259-0.428,0.493-0.778,0.588-1.275c0.14-0.028,0.209-0.046,0.35-0.073    c0.88,0.758-0.012,2.173-0.546,2.91c-0.387,0.526-0.785,1.039-1.209,1.537c-0.406,0.476-0.617,1.082-0.935,1.617    c-0.174,0.474-0.525,0.797-0.936,0.248c-0.253-0.522,0.239-1.263,0.487-1.719C77.312,126.445,78.139,125.476,78.874,124.376     M74.352,115.939c0.055-0.543,0.107-1.086,0.157-1.629c0.857-0.369,1.336,2.059,0.584,2.393    C74.695,116.571,74.468,116.329,74.352,115.939 M85.191,128.34c-2.177,3.991-6.692,8.797-11.733,6.802    c-0.015-0.032-0.024-0.047-0.039-0.08c0.015-0.046,0.024-0.067,0.039-0.114c0.063-0.021,0.115-0.059,0.156-0.112    c2.279,0.333,4.543-0.637,6.354-1.972c0.979-0.723,1.694-1.726,2.514-2.61c0.614-0.663,1.439-1.643,1.659-2.531    c0.394-0.225,0.803,0.027,1.054,0.347C85.191,128.176,85.191,128.23,85.191,128.34 M73.066,133.951    c-1.546-0.435-3.097-1.24-3.597-2.865c-0.416-1.353-0.268-2.478,0.2-3.79c0.49-1.376,1.437-2.786,2.286-3.973    c0.405-0.566,0.795-1.036,0.795-1.758c-0.252-0.564-0.673-1.347-1.323-1.497c-0.365,0.4-0.47,1.139-0.663,1.644    c-0.257,0.673-0.416,1.341-0.741,1.989c-0.716,1.218-1.262,2.497-2.028,3.698c-0.187,0.068-0.279,0.101-0.466,0.168    c-0.479-0.168-0.808-0.351-1.209-0.659c-0.032-0.188-0.047-0.282-0.077-0.473c1.08-1.963,2.203-3.959,2.922-6.088    c0.37-0.966,0.489-1.656,0.16-2.664c-0.36-1.104-0.369-2.467,0.329-3.438c1.047-1.456,4.111-2.267,4.111,0.256    c0,0.971-0.328,1.499,0.197,2.4c0.757,0.791,1.685,1.448,2.514,2.168c1.495,1.297,2.919,3.102,1.599,5.052    c-1.167,1.723-3.194,3.461-2.825,5.775c1.089,1.801,3.824-0.225,4.814-1.286c0.708-0.76,1.272-1.598,1.807-2.485    c0.543-0.901,1.642-0.036,1.834,0.694c-1.127,1.979-2.418,3.906-4.246,5.31c-0.974,0.66-1.866,1.254-3.004,1.605    C75.312,134.088,74.251,134.077,73.066,133.951"/>
		<path fill="#141412" d="M100.9,122.58c0.466,0.947,0.279,2.254,0.159,3.261c-0.149,0.471-1,1.849-1.559,1.741    c-0.026-0.758,0.46-1.729,0.634-2.477c0.226-0.964,0.261-1.906,0.261-2.896c0.064-0.032,0.094-0.05,0.158-0.084    c0.093,0.025,0.141,0.038,0.235,0.066C100.834,122.318,100.872,122.448,100.9,122.58 M92.363,122.271    c-0.316,0.509-0.736,0.889-1.033,1.444c-0.429,0.801-0.651,1.646-0.954,2.495c-0.214,0.696-0.385,1.432-0.584,2.148    c0,0.249-0.383,1.945-0.781,1.22c-0.422-0.436-0.136-1.552-0.039-2.064c0.224-0.902,0.308-1.848,0.645-2.717    c0.333-0.857,1.506-4.18,2.786-2.729C92.41,122.146,92.389,122.189,92.363,122.271 M93.026,124.822    c0.246-0.914,0.357-1.748,0.192-2.688c-0.104-0.59-0.292-0.909-0.738-1.307c-0.845-0.188-1.238,0.057-1.91,0.571    c-0.998,0.765-1.444,2.27-1.754,3.438c-0.325,1.224-0.781,2.359-0.858,3.635c-0.019,0.705,0.018,1.547,0.701,1.932    c0.809,0.389,1.954,0.16,2.046-0.837c0.075-0.812,0.104-1.773,0.918-2.218c0.367-0.218,0.698-0.322,0.975-0.646    C92.804,126.07,92.947,125.488,93.026,124.822 M105.346,127.449c0,0.572-0.823,1.455-1.171,1.892    c-0.612,0.771-1.322,1.482-2.066,2.128c-0.76,0.591-1.57,1.013-2.495,1.284c-0.927,0.271-2.079,0.244-2.943,0.665    c-0.78,0.38-1.493,0.885-2.259,1.293c-0.9,0.479-1.973,0.707-2.984,0.794c-0.857,0.074-3.98,0.705-4.287-0.483    c0.062-0.062,0.094-0.096,0.156-0.158c0.972-0.078,1.963,0.174,2.924-0.026c1.065-0.222,2.104-0.439,3.078-0.923    c0.498-0.247,1.022-0.41,1.522-0.659c0.323-0.211,0.589-0.449,0.936-0.615c0.777-0.287,1.674-0.24,2.494-0.366    c1.636-0.444,3.045-1.255,4.133-2.562c0.557-0.721,1.163-1.393,1.677-2.146C104.381,126.885,105.095,126.522,105.346,127.449     M95.288,117.358c2.811,0.782,4.459,2.92,4.267,5.863c-0.075,1.141-0.368,2.266-0.615,3.379c-0.159,0.717-1.11,1.888-0.809,2.591    c0.661,0.231,1.505-0.454,1.99-0.844c1.023-0.822,1.323-2.104,2.184-2.998c0.669-0.287,2.021,0.269,1.444,1.092    c-0.422,0.855-0.943,1.579-1.526,2.338c-0.653,0.85-1.549,1.531-2.489,2.037c-1.03,0.554-1.96,0.686-3.079,0.887    c-0.888,0.035-1.456,0.186-2.185,0.699c-1.248,0.624-2.302,1.142-3.684,1.438c-2.47,0.529-5.354,0.418-7.368-1.28    c-1.62-1.366-1.741-3.56-1.528-5.5c0.27-2.448,1.236-4.469,2.751-6.385c1.45-1.833,3.535-2.742,5.737-3.346    C91.926,116.904,93.744,117.021,95.288,117.358"/>
		<path fill="#141412" d="M112.555,118.251c0.151,0.653-0.322,1.437-0.516,2.076c-0.271,0.896-0.617,1.769-0.922,2.654    c-0.252,0.732-0.516,1.463-0.782,2.191c-0.127,0.364-0.253,0.728-0.386,1.09c-0.116,0.314-0.17,1.072-0.392,1.294    c0,0.528-0.875,1.271-1.365,1.216c0.067-0.563,0.183-1.101,0.312-1.653c0.017-0.002,0.025-0.002,0.041-0.002    c0.608-1.664,1.056-3.377,1.632-5.052c0.277-0.807,0.571-1.611,0.866-2.411C111.363,118.782,111.413,117.756,112.555,118.251     M105.85,112.713c0.123-1.911,1.349-3.656,3.275-4.186c1.733-0.476,3.665,0.43,3.665,2.365c0,1.757-1.122,3.43-2.731,4.113    C108.1,115.836,106.139,114.809,105.85,112.713 M115.831,126.936c-0.159,1.147-1.393,2.338-2.046,3.255    c-0.787,1.104-1.785,2.112-2.846,2.954c-1.706,1.354-4.526,2.54-6.649,1.561c-0.038-0.072-0.05-0.148-0.039-0.229    c0.046-0.032,0.071-0.05,0.118-0.085c2.33,0.209,4.458-1.143,6.2-2.51c0.937-0.824,1.985-1.861,2.623-2.938    c0.319-0.538,0.66-1.04,1.023-1.549c0.343-0.481,0.451-1.054,1.071-1.205c0.212,0.144,0.373,0.28,0.546,0.469V126.936z     M103.708,133.533c-0.878-0.141-1.705-0.484-2.242-1.23c-0.629-0.871-0.463-1.903-0.332-2.9c0.141-1.062,0.417-2.142,0.731-3.165    c0.314-1.02,0.515-2.117,0.907-3.104c0.679-1.709,1.039-3.592,1.792-5.254c0.347-0.93,0.91-1.151,1.874-1.323    c0.753-0.134,1.693-0.33,2.454-0.212c0-0.094,0-0.141,0-0.232c0.35-0.232,1.141-0.27,1.558-0.408    c0.63-0.349,1.241-0.731,1.734-1.263c0.46-0.496,0.762-1.051,1.072-1.646c0.131-0.435,0.126-1.392,0.428-1.703    c0.047-0.002,0.072-0.004,0.118-0.007c0.954,0.692,0.538,2.41,0.06,3.262c-0.583,1.039-1.88,2.156-3.099,2.309    c0.062,0.027,0.093,0.041,0.158,0.066c0.093,0.18,0.139,0.271,0.232,0.451c-0.862,2.087-1.617,4.222-2.279,6.378    c-0.35,1.14-0.779,2.243-1.149,3.378c-0.193,0.965-0.553,1.856-0.116,2.771c1.444,0.347,2.434-1.226,3.242-2.22    c0.741-0.911,1.234-2.329,2.294-2.883c0.629,0.167,1.066,0.356,1.248,1.004C112.086,129.319,108.744,134.205,103.708,133.533"/>
		<path fill="#141412" d="M142.34,116.285c0.072-0.344,0.146-0.632,0.352-0.923c0.291-0.412,0.328-0.883,0.581-1.292    c0.099-0.026,0.19-0.008,0.274,0.056c0.204,0.393,0.28,0.624,0.123,1.053c-0.186,0.505-0.213,0.91-0.224,1.445    c-0.019,0.947,0.187,1.769,0.369,2.691c0.224,1.146,1.63,4.464,0.429,5.257c-0.096-0.023-0.143-0.035-0.235-0.06    c-0.13-1.448-0.489-2.834-0.775-4.256C142.828,118.948,142.661,117.613,142.34,116.285 M150.411,124.136    c-0.731,1.247-1.383,2.564-2.492,3.528c-1.19,1.035-2.423,1.702-3.943,2.11c-0.821,0.16-1.331,0.696-1.968,1.234    c-0.639,0.54-1.417,0.91-2.185,1.227c-1.59,0.655-3.182,0.644-4.854,0.46c-0.061-0.063-0.099-0.138-0.115-0.223    c0.031-0.064,0.047-0.1,0.076-0.163c0.692-0.194,1.421-0.153,2.13-0.299c0.821-0.168,1.596-0.401,2.373-0.719    c0.801-0.327,1.487-0.777,2.126-1.361c0.293-0.268,0.539-0.649,0.935-0.726c0.435-0.085,0.86-0.193,1.284-0.327    c1.262-0.396,2.275-1.08,3.28-1.917c0.464-0.503,0.906-1.01,1.319-1.557c0.466-0.615,0.924-1.852,1.721-1.908    C150.385,123.685,150.411,123.791,150.411,124.136 M126.358,117.604c0.066-0.344,0.148-0.633,0.351-0.923    c0.289-0.413,0.326-0.889,0.585-1.292c0.098-0.023,0.188-0.005,0.273,0.055c0.271,0.516,0.234,0.762,0.032,1.309    c-0.232,0.626-0.134,1.422-0.147,2.089c0.247,1.226,0.559,2.438,0.78,3.668c-0.122,0.204-0.351,0.307-0.585,0.321    c-0.063-0.041-0.094-0.062-0.156-0.104C127.145,121.015,126.736,119.311,126.358,117.604 M128.891,126.973    c-0.359,0.277-0.538,0.417-0.897,0.695c-0.214,1.069-0.582,2.2-1.103,3.158c-0.583,1.072-1.061,1.703-2.133,2.314    c-1.915,0.888-3.693,1.104-5.768,0.837c-0.059-0.064-0.098-0.139-0.118-0.223c0.031-0.063,0.047-0.097,0.079-0.161    c0.863-0.243,1.816-0.219,2.707-0.398c1.108-0.224,2.259-0.692,3.181-1.344c0.889-0.676,1.318-1.589,1.764-2.588    c0.191-0.43,0.302-0.869,0.417-1.324c0.171-0.68,0.186-0.867,0.815-1.214c1.683-0.926,2.934-2.026,4.087-3.562    c0.517-0.687,0.925-1.464,1.373-2.197c0.455-0.723,0.895-1.779,1.601-2.273c0.091,0.008,0.144,0.012,0.231,0.021    c0.565,0.731-0.228,1.622-0.625,2.19c-0.379,0.739-0.765,1.411-1.334,2.022C131.808,124.389,130.41,125.677,128.891,126.973     M119.145,120.035c0.094,0.175,0.054,0.45,0.077,0.652c0.016-0.002,0.023-0.002,0.039-0.003c0,0.532-0.264,0.823-0.566,1.25    c-0.323,0.456-0.558,0.978-0.84,1.461c-0.336,0.432-0.674,0.856-0.915,1.351c-0.361,0.74-0.6,0.853-1.384,1.112    c-0.048-0.031-0.1-0.04-0.155-0.026c-0.046-0.043-0.07-0.064-0.116-0.107c0.113-0.84,1.085-1.919,1.519-2.655    c0.59-1.001,1.2-2.003,1.911-2.922v-0.038c0.079-0.052,0.118-0.076,0.195-0.132c0.094,0.011,0.14,0.015,0.234,0.021    L119.145,120.035L119.145,120.035z M134.193,131.359c-1.856-0.116-3.849-1.057-4.604-2.872c-0.729-1.757,1.347-3.058,2.848-3.097    c0.92,0.832,1.595,2.675,3.121,2.391c0.125-0.152,0.187-0.229,0.312-0.377c-0.084-0.8-0.264-1.438,0-2.221    c0.668-0.855,0.91-1.37,0.717-2.451c-0.324-1.807-0.448-3.717-1.065-5.455c-0.108-0.055-0.162-0.08-0.271-0.135    c-1.088,0.293-1.792,2.091-2.402,2.994c-0.826,1.222-1.529,2.524-2.318,3.775c-0.981,1.266-2.249,1.754-3.431,2.729    c-0.413,0.626-0.56,1.291-0.815,1.991c-0.238,0.651-0.642,1.173-1.065,1.714c-1.785,2.282-5.495,2.601-8.137,2.135    c-1.58-0.521-2.868-1.495-3.508-3.054c-0.236-1.687,1.463-2.765,2.963-2.775c0.929,0.844,2.514,3.85,3.744,1.664    c-0.229-0.567-0.343-0.972-0.215-1.579c0.101-0.479,0.323-0.818,0.604-1.214c0.102-0.409,0.115-0.716,0.079-1.135    c-0.348-1.932-0.491-3.965-1.132-5.827c-0.108-0.053-0.163-0.08-0.272-0.134c-1.204,0.313-2.052,2.514-2.769,3.49    c-0.923,1.256-1.417,3.159-2.729,4.062c-0.506-0.085-0.763-0.208-1.171-0.503c-0.046-0.185-0.07-0.273-0.116-0.459    c1.142-1.846,2.128-3.778,3.427-5.52c1.371-1.838,2.708-3.954,4.803-5.033c1.206-0.622,2.267-0.95,3.626-0.905    c0.717,0.213,1.494,0.404,1.715,1.207c0.176,0.64-0.063,1.245-0.311,1.834c-0.586,0.963-0.055,2.338,0.13,3.368    c0.246,1.369,0.709,2.674,0.921,4.052c1.201,0.183,2.503-1.723,3.042-2.624c0.678-1.148,1.325-2.254,2.111-3.329    c0.789-1.077,1.59-2.123,2.461-3.138c0.895-1.043,1.986-1.643,3.189-2.268c1.479-0.497,3.133-0.777,4.289,0.504    c0.386,1.362-0.635,2.355-0.408,3.719c0.253,1.512,0.612,2.962,0.977,4.445c0.36,1.461,0.193,2.948,0.479,4.391    c1.894,0.487,3.53-2.475,4.366-3.814c0.672-0.229,1.369,0.228,1.599,0.85c-0.627,1.308-1.495,2.557-2.52,3.586    c-1.048,1.054-2.224,1.58-3.622,2.02c-0.881,0.277-1.405,0.54-2.088,1.158c-0.594,0.46-1.13,0.817-1.834,1.084    C137.382,131.156,135.833,131.497,134.193,131.359"/>
		<path fill="#141412" d="M167.333,116.701c0.196-0.312,0.348-0.713,0.657-0.926c2.891,0.351-2.301,4.706-2.301,2.528    C166.338,117.865,166.889,117.352,167.333,116.701 M165.693,120.134c-0.171,0.722-0.911,4.973-2.024,4.47    c-0.235-0.947,0.202-2.016,0.508-2.906c0.156-0.62,0.427-2.807,1.477-1.798C165.668,119.994,165.677,120.042,165.693,120.134     M171.384,123.055c-1.304,2.123-2.552,4.042-4.446,5.69c-1.592,1.385-4.294,2.723-6.391,1.764    c-0.016-0.045-0.023-0.068-0.039-0.113c0.18-0.371,0.968-0.334,1.32-0.356c0.737-0.192,1.428-0.392,2.089-0.783    c1.169-0.691,2.251-1.424,3.196-2.408c0.754-0.784,1.445-1.718,2.065-2.611c0.397-0.572,0.749-1.143,1.075-1.758    c0.378-0.484,0.82,0.009,1.129,0.385C171.384,122.938,171.384,122.977,171.384,123.055 M157.779,117.654    c0.099,0.626-0.271,1.388-0.7,1.84c-0.511,0.539-0.856,1.17-1.25,1.795c-0.365,0.767-0.731,1.545-1.054,2.33    c-0.296,0.783-0.038,1.511-1.05,1.75c-0.764-0.69,0.329-3.364,0.62-4.146c0.608-1.638,1.747-2.655,3.082-3.701    C157.565,117.511,157.682,117.555,157.779,117.654 M157.663,128.988c-0.284,1.086-2.309,1.797-3.235,2.207    c-0.813,0.209-3.34,0.749-3.862-0.148c0.016-0.062,0.023-0.098,0.04-0.159c0.418-0.198,1.158-0.086,1.636-0.119    c0.66-0.133,1.232-0.356,1.851-0.621c1.171-0.501,1.969-1.258,2.864-2.128c0.08-0.006,0.119-0.007,0.195-0.013    C157.4,128.24,157.549,128.663,157.663,128.988 M159.922,129.344c-0.973-0.287-1.62-0.594-1.871-1.646    c-0.145-0.61-0.156-1.176-0.156-1.797c-0.047-0.044-0.066-0.064-0.115-0.108c-0.076,0.006-0.117,0.009-0.195,0.014    c-0.737,0.999-1.366,1.951-2.341,2.747c-1.087,0.889-2.296,1.23-3.667,1.413c-2.56,0.179-4.687-1.079-5.029-3.781    c-0.284-5.067,3.093-9.822,7.411-12.13c1.182-0.632,2.246-1.112,3.565-1.363c1.293-0.246,2.57-0.252,3.883-0.173    c1.215,0.073,2.355,0.361,3.484,0.81c0.726,0.288,2.396,0.838,2.318,1.824c-0.378,0.992-0.83,1.897-1.789,2.428    c-0.555,0.09-0.851-0.246-1.356-0.461c-0.646-0.274-1.297-0.516-1.958-0.75c-2.469-0.612-4.825,0-6.618,1.776    c-1.568,1.556-2.21,3.466-2.659,5.579c-0.18,0.971-0.21,1.853,0.701,2.403c1.004,0.313,1.894-1.126,2.337-1.846    c0.599-0.975,1.079-2.041,1.562-3.077c0.479-1.024,0.729-2.202,1.287-3.182c0.709-0.5,1.629-0.485,2.471-0.429    c0.948,0.063,2.312,0.218,3.019,0.915c0.041,0.469-0.254,1.055-0.386,1.501c-0.275,0.744-0.513,1.461-0.685,2.236    c-0.22,0.991-0.693,2.34,0.056,3.21c0.985,0.502,2.371-0.853,2.919-1.584c0.39-0.518,0.762-1.057,1.113-1.602    c0.355-0.554,0.609-1.248,1.072-1.718c0.578-0.043,1.425,0.404,1.516,1.015C167.664,125.16,164.69,129.625,159.922,129.344"/>
		<path fill="#141412" d="M185.886,118.06c0.296-1.048,0.82-2.12,0.774-3.229c0.063-0.047,0.094-0.07,0.154-0.115    c1.435,0.248-0.009,3.913-0.273,4.663c-0.318,0.899-0.579,1.803-0.811,2.729c-0.087,0.428-0.372,2.05-1.167,1.677    C184.724,121.865,185.272,119.879,185.886,118.06 M191.851,122.937c-1.552,2.049-2.804,4.271-5.08,5.638    c-1.717,1.03-4.658,2.249-6.579,1.106v-0.16c0.428-0.265,1.229-0.172,1.741-0.235c0.606-0.076,1.237-0.189,1.787-0.466    c1.245-0.626,2.462-1.121,3.508-2.086c1.041-0.961,1.994-2.02,2.747-3.224c0.248-0.396,0.545-1.342,1.011-1.506    C191.617,121.782,191.991,122.371,191.851,122.937 M176.685,119.328c-0.455,1.395-0.824,2.812-1.283,4.203    c-0.458,1.389-0.672,2.847-1.132,4.244c-0.137,0.713-0.168,1.428-0.7,1.97c-0.436,0.443-1.136,0.512-1.719,0.673    c-0.61,0.17-1.249,0.203-1.88,0.189c-0.562-0.012-1.264-0.199-1.78-0.167c-0.082-0.082-0.114-0.157-0.155-0.263    c0.24-0.48,1.665-0.325,2.18-0.412c0.814-0.082,1.561-0.204,2.301-0.564c0.738-0.631,0.752-1.227,0.939-2.137    c0.232-0.889,0.396-1.818,0.68-2.689c0.512-1.573,0.886-3.187,1.403-4.757c0.4-1.213,0.846-2.853,2.475-2.853    c0.354,0.343,0.036,0.671-0.195,0.973C177.174,118.223,176.986,118.587,176.685,119.328 M180.077,128.512    c-1.288-0.189-2.314-0.721-2.809-2c-0.403-1.047-0.085-2.487,0.158-3.546c0.336-1.239,0.701-2.461,1.09-3.685    c0.285-1.007,1.034-2.42,0.311-3.316c-1.57-0.12-3.097,0.48-3.688,2.024c-0.706,1.848-1.222,3.878-1.688,5.8    c-0.243,0.92-0.385,1.865-0.683,2.771c-0.298,0.905-0.116,1.691-1.098,2.107c-1.667,0.707-3.87,0.647-5.509-0.037    c-0.205-0.848,0.132-1.732,0.402-2.548c0.334-1.007,0.495-2.039,0.767-3.059c0.269-1.009,0.666-1.979,0.992-2.97    c0.327-0.994,0.533-2.027,0.915-3.001c0.389-0.99,0.669-1.992,1.002-2.999c0.334-1.009,0.436-1.736,1.552-2.037    c1.589-0.428,3.611-0.519,5.122,0.139c0.107,0.269,0.212,0.539,0.313,0.81c0.68-0.144,1.311-0.51,1.95-0.785    c0.827-0.264,1.619-0.494,2.481-0.603c1.775-0.225,4.143,0.851,4.143,2.897c0,3.524-2.303,6.595-1.981,10.166    c0.141,0.122,0.211,0.185,0.352,0.31c2.03-0.451,3.559-2.955,4.488-4.67c0.172-0.078,0.258-0.114,0.428-0.188    c0.483,0.156,0.776,0.322,1.17,0.634c0.159,0.887-0.84,2.322-1.425,3.001c-0.759,0.88-1.447,1.782-2.366,2.508    C184.545,127.753,182.562,128.604,180.077,128.512"/>
		<path fill="#141412" d="M200.856,104.699c0.193-0.64,0.529-1.385,1.127-0.562c0.137,0.557-0.197,1.144-0.391,1.651    c-0.494,1.288-0.99,2.576-1.512,3.846c-0.41,0.328-0.567,0.509-1.091,0.14c0-0.806,0.591-1.679,0.815-2.45    C200.109,106.429,200.5,105.574,200.856,104.699 M202.26,114.623c0.26-0.591,0.431-1.163,0.543-1.797    c0.056-0.06,0.121-0.106,0.195-0.141c0.676,0.19,0.646,1.026,0.602,1.617c-0.065,0.883-0.74,1.82-1.614,1.904v0.039    c-0.015-0.018-0.022-0.024-0.04-0.041c-1.098,0.066-2.425-0.1-3.487,0.15c-1.106,0.26-1.201,1.714-1.458,2.641    c-0.312,1.025-0.635,2.102-0.777,3.164c-0.106,0.505-0.38,3.133-0.936,1.483c0-2.409,0.628-4.538,1.244-6.842    c0.17-0.533,0.248-0.898,0.741-1.217c0.595-0.071,1.151-0.106,1.751-0.081C200.172,115.491,201.507,115.627,202.26,114.623     M205.026,123.25c-1.246,2.133-2.751,4.397-4.918,5.696c-1.007,0.603-1.989,0.916-3.162,0.971    c-0.608,0.028-1.215,0.022-1.824,0.022c-0.48-0.051-1.067-0.273-1.519-0.273c-0.045-0.051-0.071-0.071-0.118-0.12    c0.033-0.09,0.053-0.162,0.118-0.23c0.424,0.04,0.823,0.036,1.248,0.036c0.016,0.018,0.024,0.023,0.04,0.039    c2.235-0.14,4.174-0.78,5.821-2.341c0.477-0.451,0.888-0.882,1.254-1.431c0.421-0.631,1.005-1.06,1.383-1.741    c0.284-0.452,0.594-0.881,0.856-1.345C204.737,122.251,205.118,122.677,205.026,123.25 M192.864,128.33    c-1.417-0.508-2.633-0.915-3.354-2.355c-0.682-1.363-0.866-2.582-0.779-4.092c0.071-1.23,0.255-2.436,0.403-3.657    c0.162-1.346,0.765-2.645,0.765-3.997c-0.489-0.321-0.998-0.196-1.479-0.557c-0.293-1.188-0.092-2.326,0.625-3.342    c0.579-0.189,1.137,0.021,1.715-0.135c0.763-0.238,0.899-0.936,1.129-1.613c0.459-1.533,0.88-3.15,1.537-4.612    c0.287-0.639,0.518-1.302,0.794-1.945c0.623-0.499,1.362-0.551,2.153-0.57c1.416-0.035,2.783,0.251,4.043,0.891    c0.094,0.19,0.141,0.287,0.231,0.479c-0.458,1.347-1.061,2.628-1.519,3.97c-0.336,0.986-1.54,2.748-1.168,3.757    c1.124,0.675,2.528-0.066,3.701,0.342c0.776,1.106,0.265,2.946-0.703,3.776c-1.076-0.062-2.114,0.087-3.188,0.042    c-0.935-0.039-1.489-0.005-1.819,0.964c-0.358,1.054-0.604,2.143-0.876,3.221c-0.204,1.126-0.612,2.18-0.676,3.335    c-0.058,1.065-0.006,1.969,0.832,2.701c0.958,0.249,1.854,0.223,2.766-0.217c0.921-0.445,1.673-1.18,2.384-1.905    c0.607-0.688,1.131-1.721,1.832-2.272c0.725,0.038,1.371,0.385,1.634,1.076c-1.352,1.812-2.414,3.922-4.326,5.258    c-0.496,0.347-0.897,0.785-1.464,1.021c-0.562,0.234-1.102,0.395-1.693,0.531C195.266,128.679,193.947,128.604,192.864,128.33"/>
		<path fill="#141412" d="M208.379,116.744c-0.078,0.039-0.115,0.061-0.194,0.101v0.038c-0.722,0.808-1.323,1.723-1.914,2.629    c-0.419,0.643-1.427,1.682-1.521,2.436c0.047,0.051,0.067,0.072,0.116,0.123c0.059-0.004,0.11,0.013,0.155,0.051    c0.635-0.125,0.99-0.099,1.284-0.723c0.219-0.427,0.475-0.81,0.799-1.164c0.433-0.473,0.659-1.072,1.056-1.568    c0.316-0.397,0.565-0.64,0.565-1.157c-0.015-0.002-0.022-0.003-0.038-0.003c0-0.236-0.037-0.482-0.078-0.707    C208.52,116.781,208.473,116.768,208.379,116.744"/>
		<path fill="#141412" d="M218.196,123.885c-0.189-1.846-0.664-3.596-1.002-5.417c-0.217-0.937-0.263-1.773-0.242-2.733    c0.011-0.498,0.773-1.873-0.187-2.033c-0.222,0.31-0.266,0.694-0.466,1.035c-0.21,0.253-0.357,0.474-0.427,0.8    c-0.165,0.777,0.276,1.892,0.427,2.661c0.285,2.048,1.024,4.002,1.203,6.088l-0.033,0.027c0,2.274-0.945,4.088-2.91,5.216    c-0.975,0.559-2.006,0.709-3.1,0.889c-1,0.021-2.062-0.165-3.041-0.056c-0.029,0.061-0.045,0.09-0.078,0.148    c0.019,0.091,0.058,0.173,0.117,0.244c2.335,0.656,4.942,0.955,7.114-0.428c0.479-0.306,0.979-0.513,1.298-1.007    c0.316-0.49,0.589-1.03,0.851-1.551c0.212-0.444,0.325-1.074,0.356-1.562C218.123,125.484,218.373,124.601,218.196,123.885"/>
		<path fill="#141412" d="M210.406,129.654c1.4-0.098,2.986-0.199,4.104-1.148c0.637-0.54,1.246-0.773,1.616-1.581    c0.446-0.989,0.428-2.148,0.363-3.209c-0.095-1.538-0.483-2.958-0.802-4.451c-0.182-0.852-0.356-1.698-0.494-2.559    c-0.156-0.971-0.19-1.476,0.208-2.353c0.736-1.62-0.402-2.803-1.954-3.16c-1.808-0.417-3.674,0.354-5.104,1.416    c-1.261,1.268-2.582,2.584-3.608,4.053c-0.959,1.371-1.783,2.825-2.714,4.215c0.183,0.716,0.603,0.911,1.287,1.13    c1.075-0.637,1.707-2.132,2.361-3.166c0.395-0.624,0.896-1.195,1.346-1.783c0.404-0.604,0.826-1.263,1.363-1.756    c0.173-0.015,0.258-0.021,0.429-0.038c0.11,0.072,0.164,0.107,0.272,0.182c0.551,1.754,0.707,3.604,1.021,5.409    c0.155,0.891,0.26,1.438-0.322,2.168c-0.743,0.825-0.462,1.606-0.35,2.614c-0.125,0.129-0.189,0.191-0.312,0.322    c-1.558,0.036-2.233-1.952-3.117-2.906c-1.061-0.145-1.883,0.066-2.571,0.926c-0.897,1.118-0.12,2.437,0.776,3.32    C206.005,129.076,207.989,129.423,210.406,129.654"/>
	</g>
</g>
</svg>