<svg xmlns="http://www.w3.org/2000/svg" xmlns:xlink="http://www.w3.org/1999/xlink" version="1.1" id="Calque_1" x="0px" y="0px" width="255.118px" height="170.078px" viewBox="0 39.955 255.118 170.078" enable-background="new 0 39.955 255.118 170.078" xml:space="preserve">
<path fill="none" stroke="#141412" stroke-width="0.8964" stroke-miterlimit="10" d="M201.789,131.638  c2.626,3.382,1.868,8.102-1.702,10.484c-3.566,2.372-5.191,7.587-3.623,11.575c1.572,3.98-0.49,8.296-4.577,9.581  c-4.089,1.274-7.123,5.818-6.741,10.085c0.391,4.263-2.807,7.822-7.098,7.899c-4.281,0.079-8.467,3.577-9.303,7.78  c-0.834,4.202-4.9,6.716-9.03,5.582c-4.132-1.136-9.132,1.045-11.123,4.84c-1.986,3.799-6.591,5.066-10.231,2.816  c-3.648-2.259-9.064-1.568-12.04,1.513c-2.972,3.083-7.753,3.003-10.615-0.187c-2.859-3.19-8.254-4.063-11.975-1.938  c-3.723,2.12-8.28,0.693-10.134-3.175c-1.851-3.864-6.772-6.22-10.945-5.228c-4.166,0.988-8.143-1.67-8.823-5.896  c-0.691-4.234-4.752-7.877-9.028-8.104c-4.28-0.234-7.342-3.898-6.811-8.15c0.535-4.251-2.337-8.896-6.379-10.318  c-4.037-1.426-5.945-5.808-4.235-9.734c1.708-3.929,0.267-9.19-3.214-11.7c-3.481-2.504-4.076-7.245-1.324-10.535  c2.746-3.288,2.837-8.744,0.211-12.13c-2.63-3.381-1.867-8.1,1.699-10.478c3.565-2.381,5.192-7.59,3.621-11.581  c-1.569-3.988,0.492-8.3,4.577-9.58c4.089-1.276,7.124-5.814,6.742-10.086c-0.389-4.268,2.806-7.821,7.084-7.901  c4.289-0.075,8.483-3.575,9.317-7.775c0.83-4.208,4.886-6.723,9.031-5.584c4.128,1.139,9.134-1.046,11.124-4.843  c1.982-3.796,6.59-5.063,10.233-2.811c3.646,2.25,9.061,1.57,12.037-1.515c2.974-3.085,7.75-3,10.617,0.187  c2.857,3.19,8.249,4.061,11.971,1.94c3.727-2.125,8.281-0.697,10.133,3.172c1.848,3.865,6.774,6.222,10.947,5.23  c4.168-0.986,8.141,1.667,8.827,5.895c0.688,4.232,4.748,7.882,9.028,8.107c4.276,0.227,7.34,3.894,6.807,8.146  c-0.535,4.255,2.335,8.897,6.378,10.321c4.046,1.423,5.951,5.802,4.238,9.733c-1.707,3.926-0.266,9.193,3.215,11.698  c3.478,2.503,4.075,7.246,1.323,10.535C199.252,122.794,199.156,128.251,201.789,131.638z"/>
<g>
	<g>
		<path fill="#141412" d="M133.261,60.708l1.345,0.167c0,0.04-0.016,0.081-0.016,0.139c0,0.068,0,0.124-0.019,0.153    c-0.11,0.859-0.376,1.469-0.79,1.824c-0.417,0.376-0.986,0.515-1.732,0.419c-0.347-0.042-0.652-0.125-0.903-0.25    c-0.234-0.124-0.439-0.292-0.593-0.499c-0.211-0.295-0.346-0.677-0.399-1.137c-0.048-0.457,0.013-1.252,0.148-2.368    c0.102-0.766,0.208-1.358,0.317-1.801c0.127-0.446,0.266-0.764,0.42-0.972c0.244-0.317,0.525-0.528,0.841-0.635    c0.309-0.129,0.707-0.154,1.155-0.09c0.746,0.101,1.273,0.363,1.577,0.792c0.276,0.444,0.372,1.083,0.276,1.953l-1.326-0.168    l0.017-0.178c0.056-0.4,0.017-0.704-0.08-0.916c-0.102-0.221-0.297-0.36-0.575-0.387c-0.333-0.04-0.566,0.071-0.717,0.318    c-0.169,0.265-0.321,1.012-0.473,2.247c-0.167,1.328-0.22,2.143-0.137,2.435c0.084,0.305,0.288,0.486,0.622,0.528    c0.291,0.04,0.525-0.041,0.676-0.263c0.155-0.195,0.267-0.611,0.353-1.225L133.261,60.708z"/>
	</g>
	<g>
		<g>
			<path fill="#141412" d="M138.263,60.234c0.289-0.736,0.566-1.3,0.819-1.706c0.245-0.415,0.483-0.703,0.72-0.871     c0.329-0.225,0.662-0.348,0.995-0.375c0.33-0.014,0.72,0.072,1.177,0.25c0.458,0.194,0.79,0.414,1.013,0.648     c0.22,0.252,0.389,0.569,0.457,0.974c0.039,0.29,0.027,0.662-0.094,1.131c-0.1,0.46-0.305,1.058-0.613,1.775     c-0.291,0.733-0.569,1.304-0.816,1.715c-0.238,0.406-0.486,0.697-0.721,0.86c-0.333,0.236-0.666,0.351-0.994,0.375     c-0.336,0.027-0.734-0.055-1.177-0.249c-0.47-0.182-0.804-0.4-1.027-0.64c-0.222-0.261-0.358-0.579-0.442-0.968     c-0.056-0.279-0.025-0.664,0.084-1.125C137.747,61.561,137.958,60.968,138.263,60.234z M139.566,60.772     c-0.463,1.139-0.696,1.888-0.679,2.234c0.012,0.344,0.195,0.594,0.568,0.747c0.347,0.14,0.648,0.096,0.899-0.139     c0.247-0.236,0.61-0.931,1.077-2.078c0.471-1.148,0.691-1.902,0.684-2.242c-0.018-0.359-0.196-0.6-0.553-0.737     c-0.347-0.154-0.652-0.112-0.917,0.136C140.394,58.935,140.036,59.625,139.566,60.772z"/>
		</g>
		<g>
			<path fill="#141412" d="M143.955,66.607l2.827-6.914l1.288,0.528l-2.341,5.736l2.328,0.942l-0.483,1.177L143.955,66.607z"/>
		</g>
	</g>
	<g>
		<g>
			<path fill="#141412" d="M150.077,68.812l4.064-6.25l1.16,0.762l-3.365,5.183l2.093,1.371l-0.681,1.068L150.077,68.812z"/>
		</g>
		<g>
			<path fill="#141412" d="M155.443,72.303l4.06-6.252l3.211,2.082l-0.678,1.037l-2.039-1.329l-0.938,1.456l1.896,1.233l-0.65,1     l-1.9-1.25l-1.12,1.735l2.108,1.354l-0.693,1.052L155.443,72.303z"/>
		</g>
	</g>
	<g>
		<path fill="#141412" d="M164.892,75.279l1.149,0.747c-0.029,0.018-0.056,0.059-0.084,0.129c-0.025,0.041-0.056,0.08-0.085,0.109    c-0.468,0.734-0.97,1.167-1.499,1.319c-0.526,0.152-1.104,0.027-1.742-0.39c-0.307-0.194-0.528-0.4-0.691-0.607    c-0.168-0.225-0.278-0.457-0.316-0.721c-0.07-0.361-0.028-0.748,0.122-1.191c0.166-0.427,0.552-1.122,1.166-2.062    c0.416-0.637,0.775-1.138,1.08-1.485c0.289-0.346,0.554-0.584,0.792-0.693c0.346-0.177,0.691-0.249,1.038-0.221    c0.331,0.043,0.69,0.183,1.078,0.43c0.641,0.417,0.986,0.89,1.052,1.415c0.086,0.509-0.109,1.135-0.592,1.869l-1.123-0.735    l0.094-0.152c0.224-0.334,0.332-0.621,0.332-0.872c0-0.235-0.125-0.417-0.345-0.571c-0.279-0.189-0.554-0.189-0.803-0.041    c-0.249,0.169-0.724,0.781-1.385,1.814c-0.735,1.124-1.14,1.843-1.192,2.148c-0.057,0.307,0.055,0.554,0.331,0.733    c0.265,0.169,0.502,0.197,0.721,0.072c0.237-0.124,0.511-0.443,0.845-0.956L164.892,75.279z"/>
	</g>
	<g>
		<g>
			<path fill="#141412" d="M166.844,81.471l4.849-3.905l-0.996-1.249l0.957-0.759l2.866,3.56l-0.957,0.762l-0.998-1.233l-4.86,3.907     L166.844,81.471z"/>
		</g>
		<g>
			<path fill="#141412" d="M170.197,85.645l5.806-4.684l0.872,1.082l-5.817,4.679L170.197,85.645z"/>
		</g>
	</g>
	<g>
		<path fill="#141412" d="M172.886,88.995l5.817-4.681l2.438,3.032l-0.942,0.775l-1.579-1.965l-1.371,1.108l1.481,1.856l-0.93,0.747    l-1.48-1.858l-2.562,2.065L172.886,88.995z"/>
	</g>
	<g>
		<path fill="#141412" d="M178.467,99.47l6.732-3.231l1.07,2.246c0.331,0.664,0.43,1.234,0.305,1.661    c-0.137,0.432-0.507,0.79-1.139,1.082c-0.439,0.224-0.814,0.307-1.146,0.265c-0.317-0.042-0.597-0.206-0.79-0.5    c0.137,0.664-0.222,1.233-1.052,1.646c-0.041,0.03-0.07,0.044-0.088,0.044l-0.885,0.47c-0.25,0.139-0.43,0.266-0.553,0.389    c-0.14,0.138-0.22,0.278-0.275,0.429l-0.725-1.484c0.093-0.079,0.223-0.176,0.357-0.262c0.141-0.112,0.364-0.223,0.64-0.36    l0.692-0.347l0.176-0.082c0.391-0.194,0.625-0.401,0.686-0.635c0.067-0.239-0.018-0.612-0.265-1.126l-0.198-0.414l-2.965,1.414    L178.467,99.47z M182.945,98.804l0.329,0.721c0.18,0.36,0.374,0.579,0.579,0.649c0.223,0.069,0.512,0.016,0.891-0.164    c0.329-0.154,0.528-0.349,0.579-0.568c0.056-0.206,0-0.528-0.196-0.931l-0.306-0.606L182.945,98.804z"/>
	</g>
	<g>
		<g>
			<path fill="#141412" d="M181.764,105.994l7.385-1.065l0.553,3.78l-1.234,0.18l-0.344-2.411l-1.721,0.254l0.33,2.241l-1.176,0.164     l-0.317-2.244l-2.023,0.294l0.347,2.463l-1.248,0.183L181.764,105.994z M189.956,106.021l1.496,0.638l0.177,1.219l-1.591-1.264     L189.956,106.021z"/>
		</g>
		<g>
			<path fill="#141412" d="M183.234,116.165l0.79-0.218c-0.359-0.099-0.641-0.255-0.83-0.47c-0.197-0.227-0.309-0.559-0.377-0.987     c-0.108-0.773,0.098-1.356,0.639-1.76c0.541-0.387,1.591-0.707,3.156-0.927c0.732-0.095,1.317-0.151,1.762-0.151     c0.459,0.024,0.814,0.079,1.077,0.207c0.317,0.151,0.583,0.373,0.762,0.677c0.184,0.292,0.317,0.683,0.376,1.139     c0.11,0.803,0.016,1.412-0.303,1.842c-0.318,0.432-0.861,0.709-1.663,0.815l-0.176,0.027l-0.182-1.288l0.069-0.015     c0.44-0.066,0.764-0.193,0.953-0.385c0.195-0.196,0.279-0.458,0.234-0.792c-0.052-0.389-0.246-0.65-0.579-0.746     c-0.317-0.1-1.146-0.058-2.483,0.135c-1.035,0.154-1.713,0.319-2.048,0.51c-0.331,0.197-0.481,0.459-0.428,0.831     c0.055,0.364,0.206,0.603,0.483,0.725c0.279,0.127,0.721,0.141,1.303,0.038l0.264-0.024l-0.137-0.954l1.176-0.167l0.331,2.272     l-4.034,0.597L183.234,116.165z"/>
		</g>
	</g>
	<g>
		<path fill="#141412" d="M183.786,119.984l7.387-1.066l0.193,1.375l-7.368,1.068L183.786,119.984z"/>
	</g>
	<g>
		<g>
			<path fill="#141412" d="M187.973,124.294c0.789,0.044,1.427,0.131,1.883,0.241c0.471,0.112,0.82,0.246,1.037,0.43     c0.336,0.24,0.557,0.512,0.666,0.816c0.14,0.318,0.18,0.707,0.14,1.202c-0.025,0.485-0.14,0.877-0.289,1.166     c-0.168,0.286-0.43,0.542-0.795,0.732c-0.247,0.141-0.61,0.223-1.096,0.266c-0.468,0.04-1.095,0.04-1.882-0.015     c-0.792-0.059-1.415-0.141-1.872-0.252c-0.471-0.109-0.834-0.248-1.055-0.417c-0.332-0.246-0.556-0.523-0.679-0.833     c-0.127-0.305-0.168-0.703-0.127-1.188c0.027-0.502,0.127-0.888,0.292-1.178c0.167-0.29,0.43-0.527,0.791-0.721     c0.239-0.137,0.607-0.238,1.079-0.277C186.546,124.23,187.178,124.244,187.973,124.294z M187.875,125.712     c-1.217-0.097-1.996-0.071-2.329,0.039c-0.331,0.124-0.501,0.39-0.539,0.775c-0.018,0.389,0.104,0.649,0.411,0.804     c0.305,0.168,1.065,0.292,2.314,0.39c1.231,0.083,2.024,0.057,2.338-0.057c0.334-0.121,0.515-0.372,0.541-0.746     c0.028-0.39-0.107-0.68-0.428-0.832C189.885,125.916,189.122,125.795,187.875,125.712z"/>
		</g>
		<g>
			<path fill="#141412" d="M183.718,131.752l7.443,0.51l-0.097,1.428l-5.353,1.582l5.213,0.318l-0.088,1.313l-7.453-0.509     l0.114-1.429l5.347-1.584l-5.224-0.33L183.718,131.752z"/>
		</g>
	</g>
	<g>
		<path fill="#141412" d="M182.639,138.691l6.984,3.146l-0.392,1.843l-7.647,0.157l0.307-1.471l1.91,0.016l0.316-1.567l-1.758-0.723    L182.639,138.691z M185.188,141.256l-0.249,1.161l3.19,0.044L185.188,141.256z"/>
	</g>
	<g>
		<path fill="#141412" d="M180.668,145.855l6.68,3.343l-0.622,1.248l-5.525-2.775l-1.139,2.247l-1.134-0.571L180.668,145.855z"/>
	</g>
	<g>
		<path fill="#141412" d="M175.075,156.288l6.384,3.865l-1.165,1.927c-0.238,0.388-0.455,0.678-0.664,0.859    c-0.205,0.195-0.429,0.317-0.682,0.373c-0.344,0.101-0.719,0.085-1.104-0.027c-0.391-0.095-0.932-0.371-1.633-0.788    c-0.902-0.557-1.524-0.97-1.855-1.277c-0.334-0.277-0.598-0.582-0.766-0.888c-0.178-0.316-0.236-0.62-0.178-0.939    c0.055-0.332,0.279-0.818,0.664-1.454L175.075,156.288z M175.309,158.017l-0.316,0.525c-0.168,0.28-0.265,0.487-0.291,0.613    c-0.028,0.135-0.017,0.266,0.042,0.376c0.094,0.223,0.274,0.429,0.541,0.652c0.263,0.219,0.706,0.526,1.341,0.915    c0.613,0.374,1.082,0.623,1.402,0.733c0.318,0.126,0.58,0.154,0.812,0.11c0.109-0.026,0.207-0.081,0.305-0.191    c0.094-0.083,0.225-0.246,0.36-0.471l0.304-0.525L175.309,158.017z"/>
	</g>
	<g>
		<path fill="#141412" d="M170.93,162.633l5.834,4.651l-2.401,2.997l-0.964-0.773l1.522-1.898l-1.346-1.098l-1.429,1.79    l-0.925-0.748l1.426-1.773l-1.607-1.276l-1.551,1.952l-0.984-0.79L170.93,162.633z"/>
	</g>
	<g>
		<path fill="#141412" d="M162.742,171.136l5.099,5.446l-1.632,1.538c-0.333,0.307-0.638,0.526-0.89,0.664    c-0.248,0.112-0.5,0.181-0.749,0.168c-0.357-0.017-0.702-0.108-1.049-0.332c-0.351-0.193-0.804-0.606-1.36-1.218    c-0.722-0.761-1.207-1.328-1.455-1.7c-0.239-0.375-0.402-0.734-0.486-1.083c-0.083-0.35-0.055-0.662,0.084-0.956    c0.137-0.288,0.504-0.705,1.039-1.216L162.742,171.136z M162.492,172.855l-0.445,0.43c-0.233,0.219-0.385,0.388-0.438,0.51    c-0.056,0.115-0.086,0.238-0.056,0.375c0.023,0.224,0.136,0.485,0.329,0.761c0.197,0.294,0.542,0.709,1.053,1.249    c0.487,0.529,0.874,0.887,1.139,1.084c0.274,0.208,0.525,0.305,0.762,0.329c0.125,0,0.236-0.024,0.352-0.083    c0.106-0.07,0.275-0.194,0.467-0.391l0.441-0.398L162.492,172.855z"/>
	</g>
	<g>
		<g>
			<path fill="#141412" d="M156.841,175.506l3.963,6.33l-1.191,0.731l-3.95-6.331L156.841,175.506z"/>
		</g>
		<g>
			<path fill="#141412" d="M153.102,177.847l3.946,6.331l-3.31,2.062l-0.637-1.032l2.119-1.328l-0.93-1.499l-2.021,1.266     l-0.625-1.017l2.01-1.26l-1.746-2.782L153.102,177.847z"/>
		</g>
	</g>
	<g>
		<g>
			<path fill="#141412" d="M147.323,180.714l2.713,6.951l-3.627,1.418l-0.446-1.139l2.341-0.927l-0.653-1.635l-2.199,0.873     l-0.446-1.105l2.223-0.871l-1.195-3.048L147.323,180.714z"/>
		</g>
		<g>
			<path fill="#141412" d="M143.927,190.055l-1.29,0.507l-1.827-4.685c-0.206-0.525-0.43-0.873-0.622-1.01     c-0.207-0.138-0.469-0.152-0.803-0.019c-0.332,0.125-0.526,0.309-0.581,0.557c-0.054,0.247,0.025,0.638,0.236,1.177l1.828,4.672     l-1.288,0.502l-1.869-4.793c-0.181-0.471-0.289-0.821-0.316-1.057c-0.029-0.234-0.029-0.461,0.04-0.665     c0.093-0.317,0.263-0.606,0.527-0.843c0.261-0.239,0.595-0.442,1.011-0.607c0.803-0.312,1.438-0.36,1.896-0.142     c0.459,0.222,0.863,0.749,1.192,1.623L143.927,190.055z"/>
		</g>
	</g>
	<g>
		<path fill="#141412" d="M134.536,187.434l-1.362,0.231l-0.083-0.481c-0.078-0.442-0.197-0.745-0.332-0.886    c-0.135-0.137-0.357-0.194-0.637-0.137c-0.277,0.042-0.503,0.168-0.62,0.336c-0.13,0.164-0.154,0.393-0.115,0.675    c0.044,0.22,0.129,0.404,0.265,0.541c0.124,0.139,0.389,0.307,0.791,0.485l0.775,0.391c0.681,0.307,1.123,0.581,1.345,0.83    c0.195,0.239,0.346,0.582,0.411,0.985c0.117,0.622,0.018,1.137-0.305,1.554c-0.286,0.413-0.771,0.663-1.409,0.789    c-0.668,0.11-1.222,0.015-1.662-0.294c-0.417-0.305-0.692-0.813-0.815-1.517c-0.017-0.058-0.017-0.129-0.017-0.156    c-0.017-0.043-0.017-0.071-0.028-0.11l1.303-0.221l0.045,0.209c0.066,0.383,0.178,0.66,0.342,0.814    c0.155,0.152,0.393,0.192,0.685,0.152c0.206-0.055,0.371-0.152,0.485-0.292c0.094-0.152,0.122-0.347,0.082-0.567    c-0.057-0.318-0.391-0.606-1.014-0.886c-0.016,0-0.016,0-0.016,0l-0.841-0.389c-0.597-0.251-1.028-0.529-1.264-0.818    c-0.247-0.275-0.414-0.663-0.499-1.15c-0.123-0.662-0.028-1.216,0.302-1.647c0.311-0.43,0.835-0.707,1.54-0.832    c0.737-0.121,1.318-0.025,1.747,0.291s0.707,0.874,0.844,1.661c0.013,0.083,0.03,0.221,0.056,0.414v0.027L134.536,187.434    L134.536,187.434z"/>
	</g>
	<g>
		<g>
			<path fill="#141412" d="M126.97,186.021l-0.136,7.47l-1.389-0.027l0.141-7.468L126.97,186.021z"/>
		</g>
		<g>
			<path fill="#141412" d="M122.646,189.68c-0.027,0.773-0.081,1.415-0.15,1.883c-0.1,0.469-0.206,0.837-0.375,1.065     c-0.222,0.334-0.486,0.568-0.79,0.707c-0.307,0.138-0.708,0.208-1.191,0.193c-0.485,0-0.887-0.081-1.178-0.235     c-0.307-0.152-0.553-0.398-0.775-0.746c-0.152-0.251-0.251-0.611-0.317-1.083c-0.073-0.468-0.1-1.095-0.073-1.887     c0-0.789,0.056-1.414,0.138-1.882c0.083-0.471,0.208-0.833,0.358-1.083c0.237-0.33,0.504-0.568,0.807-0.704     c0.305-0.139,0.691-0.193,1.187-0.193c0.499,0.013,0.887,0.093,1.178,0.233c0.304,0.168,0.552,0.401,0.762,0.751     c0.149,0.245,0.264,0.596,0.332,1.066C122.618,188.254,122.646,188.889,122.646,189.68z M121.222,189.651     c0.025-1.231-0.043-2.011-0.182-2.331c-0.136-0.317-0.386-0.484-0.774-0.495c-0.387,0-0.651,0.136-0.803,0.458     c-0.135,0.303-0.222,1.077-0.248,2.325c-0.026,1.232,0.025,2.026,0.168,2.343c0.137,0.316,0.389,0.482,0.776,0.482     c0.385,0.015,0.661-0.14,0.803-0.459C121.106,191.672,121.194,190.882,121.222,189.651z"/>
		</g>
	</g>
	<g>
		<g>
			<path fill="#141412" d="M115.055,185.993l-1.812,7.229l-1.4-0.346l-0.613-5.53l-1.219,5.07l-1.273-0.316l1.803-7.246l1.386,0.35     l0.621,5.555l1.231-5.082L115.055,185.993z"/>
		</g>
		<g>
			<path fill="#141412" d="M102.669,182.898l-1.8,7.236l-2.178-0.541c-0.445-0.111-0.791-0.233-1.027-0.375     c-0.248-0.136-0.428-0.318-0.553-0.542c-0.196-0.307-0.291-0.665-0.306-1.065c-0.016-0.402,0.07-0.998,0.279-1.806     c0.247-1.022,0.485-1.73,0.653-2.146c0.177-0.402,0.385-0.735,0.635-0.982c0.249-0.267,0.525-0.421,0.862-0.461     c0.316-0.038,0.856,0.023,1.576,0.208L102.669,182.898z M101.09,183.639l-0.612-0.158c-0.307-0.082-0.527-0.11-0.649-0.094     c-0.143,0.014-0.264,0.058-0.35,0.148c-0.179,0.156-0.332,0.393-0.467,0.713c-0.138,0.316-0.293,0.829-0.471,1.55     c-0.179,0.694-0.278,1.22-0.292,1.549c-0.018,0.351,0.027,0.613,0.139,0.804c0.067,0.114,0.153,0.182,0.263,0.253     c0.113,0.067,0.307,0.138,0.585,0.192l0.58,0.153L101.09,183.639z"/>
		</g>
	</g>
	<g>
		<path fill="#141412" d="M92.209,186.769l-1.208-0.665l2.398-4.404c0.278-0.512,0.401-0.887,0.372-1.138    c-0.023-0.246-0.193-0.458-0.51-0.62c-0.317-0.181-0.569-0.206-0.79-0.084c-0.22,0.112-0.47,0.43-0.75,0.943l-2.407,4.389    l-1.193-0.652l2.453-4.529c0.237-0.445,0.442-0.734,0.591-0.916c0.169-0.182,0.361-0.305,0.554-0.4    c0.308-0.127,0.627-0.177,0.971-0.138c0.359,0.041,0.736,0.169,1.135,0.386c0.748,0.408,1.193,0.865,1.32,1.364    c0.125,0.481-0.026,1.132-0.47,1.948L92.209,186.769z"/>
	</g>
	<g>
		<path fill="#141412" d="M83.883,175.685l-1.054-0.722l0.5-0.719c0.113-0.17,0.167-0.311,0.15-0.432    c-0.014-0.125-0.082-0.229-0.217-0.33c-0.153-0.095-0.279-0.112-0.401-0.07c-0.116,0.056-0.279,0.265-0.503,0.597l-0.192,0.276    l-2.964,4.379l-1.126-0.761l2.927-4.353c0.302-0.414,0.509-0.701,0.632-0.857c0.113-0.138,0.224-0.246,0.334-0.307    c0.292-0.169,0.582-0.248,0.904-0.205c0.303,0.036,0.637,0.179,0.995,0.43c0.485,0.317,0.764,0.679,0.832,1.094    c0.071,0.416-0.056,0.862-0.389,1.343L83.883,175.685z"/>
	</g>
	<g>
		<path fill="#141412" d="M80.491,169.979l-6.474,4.086l-1.318-1.319l4.089-6.481l1.049,1.064l-1.064,1.58l1.12,1.139l1.585-1.08    L80.491,169.979z M76.956,170.683l-0.833-0.833l-1.801,2.633L76.956,170.683z"/>
	</g>
	<g>
		<g>
			<path fill="#141412" d="M75.377,164.946l-1.024,0.724l-5.628,0.789l1.442,2.026l-0.969,0.674l-2.275-3.225l0.928-0.667     l5.612-0.835l-1.55-2.186l1.023-0.733L75.377,164.946z"/>
		</g>
		<g>
			<path fill="#141412" d="M71.555,159.574l-1.028,0.729l-5.625,0.774l1.441,2.037l-0.943,0.682l-2.298-3.242l0.945-0.666     l5.621-0.816l-1.565-2.198l1.01-0.725L71.555,159.574z"/>
		</g>
	</g>
	<g>
		<path fill="#141412" d="M65.733,149.112l-6.676,3.341l-1.718-3.422l1.106-0.554l1.108,2.188l1.538-0.774l-1.012-2.023l1.055-0.542    l1.027,2.021l1.827-0.911l-1.12-2.234l1.12-0.568L65.733,149.112z"/>
	</g>
	<g>
		<path fill="#141412" d="M63.227,143.069l-7.082,2.359l-0.442-1.376l4.323-3.49l-4.933,1.691l-0.417-1.245l7.08-2.372l0.459,1.361    l-4.352,3.521l4.949-1.697L63.227,143.069z"/>
	</g>
	<g>
		<g>
			<path fill="#141412" d="M61.051,130.436l-7.456,0.373l-0.109-2.41c-0.056-0.75,0.085-1.273,0.402-1.604     c0.318-0.349,0.844-0.528,1.594-0.57c0.747-0.043,1.303,0.097,1.676,0.429c0.372,0.32,0.579,0.846,0.608,1.553l0.056,1.011     l3.159-0.168L61.051,130.436z M56.785,129.298l-0.03-0.581c-0.014-0.43-0.111-0.737-0.291-0.9     c-0.179-0.169-0.467-0.234-0.873-0.205c-0.416,0.015-0.692,0.11-0.857,0.28c-0.138,0.167-0.206,0.469-0.193,0.913l0.038,0.607     L56.785,129.298z"/>
		</g>
		<g>
			<path fill="#141412" d="M60.747,124.381l-7.538-1.319l-0.083-1.854l7.36-2.062l0.067,1.493l-1.843,0.458l0.068,1.605l1.899,0.266     L60.747,124.381z M57.657,122.533l-0.07-1.185l-3.091,0.746L57.657,122.533z"/>
		</g>
	</g>
	<g>
		<g>
			<path fill="#141412" d="M61.074,116.024l-3.102-0.605l-4.6,1.105l0.306-1.511l2.967-0.582l-2.547-1.622l0.276-1.465l3.866,2.701     l3.103,0.598L61.074,116.024z"/>
		</g>
		<g>
			<path fill="#141412" d="M59.541,110.07l0.265-1.361l0.468,0.097c0.458,0.083,0.777,0.083,0.955,0     c0.183-0.082,0.31-0.265,0.36-0.541c0.055-0.289,0.025-0.513-0.095-0.695c-0.112-0.18-0.306-0.304-0.613-0.356     c-0.205-0.045-0.414-0.027-0.579,0.053c-0.178,0.071-0.429,0.264-0.749,0.569l-0.61,0.594c-0.54,0.515-0.969,0.836-1.275,0.956     c-0.288,0.098-0.662,0.125-1.065,0.043c-0.611-0.115-1.066-0.389-1.345-0.832c-0.277-0.418-0.345-0.957-0.221-1.593     c0.125-0.681,0.412-1.167,0.858-1.457c0.445-0.292,1-0.36,1.708-0.237c0.065,0.016,0.12,0.027,0.149,0.041     c0.04,0,0.086,0.017,0.113,0.031l-0.248,1.288l-0.198-0.026c-0.412-0.083-0.706-0.074-0.898,0.012     c-0.195,0.111-0.317,0.303-0.376,0.594c-0.04,0.223-0.015,0.404,0.084,0.542c0.113,0.153,0.279,0.247,0.501,0.291     c0.317,0.056,0.704-0.15,1.191-0.636c0,0,0,0,0.018-0.015l0.65-0.653c0.458-0.457,0.859-0.761,1.218-0.898     c0.349-0.121,0.763-0.136,1.25-0.043c0.664,0.128,1.148,0.417,1.439,0.865c0.275,0.457,0.358,1.034,0.218,1.741     c-0.135,0.72-0.442,1.231-0.886,1.522c-0.442,0.295-1.065,0.348-1.855,0.195c-0.083,0-0.207-0.043-0.402-0.081L59.541,110.07z"/>
		</g>
	</g>
	<g>
		<path fill="#141412" d="M61.051,102.64l-1.471-0.509l1.037-2.998l1.456,0.516L61.051,102.64z"/>
	</g>
	<g>
		<path fill="#141412" d="M66.401,98.084l-6.308-3.989l1.207-1.9c0.24-0.374,0.472-0.665,0.664-0.859    c0.219-0.181,0.445-0.305,0.695-0.359c0.346-0.083,0.72-0.071,1.109,0.054c0.386,0.113,0.91,0.39,1.618,0.832    c0.9,0.554,1.512,0.999,1.842,1.29c0.318,0.303,0.565,0.606,0.735,0.927c0.167,0.305,0.223,0.621,0.154,0.94    c-0.056,0.336-0.292,0.807-0.692,1.442L66.401,98.084z M66.204,96.351l0.333-0.522c0.168-0.278,0.263-0.471,0.305-0.598    c0.029-0.136,0-0.265-0.041-0.374c-0.095-0.223-0.263-0.442-0.527-0.666c-0.25-0.235-0.691-0.54-1.315-0.94    c-0.624-0.388-1.083-0.64-1.4-0.762c-0.317-0.125-0.579-0.167-0.818-0.125c-0.11,0.028-0.206,0.081-0.309,0.182    c-0.093,0.078-0.216,0.246-0.357,0.48l-0.332,0.501L66.204,96.351z"/>
	</g>
	<g>
		<path fill="#141412" d="M70.446,91.767l-6.182-4.186l2.147-3.169l1.039,0.703l-1.382,2.015l1.438,0.966l1.276-1.87l0.968,0.652    l-1.274,1.885l1.702,1.15l1.4-2.067l1.054,0.71L70.446,91.767z"/>
	</g>
	<g>
		<path fill="#141412" d="M71.605,84.743l-1.275-0.86l1.762-2.602l1.289,0.857L71.605,84.743z"/>
	</g>
	<g>
		<path fill="#141412" d="M77.813,81.736l-5.665-4.862l0.904-1.053l4.708,4.032l1.631-1.914l0.958,0.831L77.813,81.736z"/>
	</g>
	<g>
		<path fill="#141412" d="M81.886,77.345l-2.882-7.079l1.537-1.07l5.64,5.154l-1.219,0.858l-1.37-1.327l-1.32,0.914l0.776,1.748    L81.886,77.345z M81.821,73.743l0.968-0.668l-2.272-2.231L81.821,73.743z"/>
	</g>
	<g>
		<path fill="#141412" d="M86.404,70.586l-0.888-1.275l2.606-1.804l0.889,1.274L86.404,70.586z"/>
	</g>
	<g>
		<path fill="#141412" d="M93.221,70l-3.437-6.622l1.216-0.635l2.867,5.485l2.229-1.147l0.584,1.119L93.221,70z"/>
	</g>
	<g>
		<path fill="#141412" d="M97.129,63.99c-0.307-0.733-0.515-1.33-0.624-1.805c-0.11-0.47-0.154-0.831-0.095-1.121    c0.085-0.401,0.218-0.721,0.44-0.97c0.222-0.25,0.555-0.469,1-0.651c0.458-0.193,0.857-0.278,1.192-0.265    c0.329,0.014,0.662,0.143,0.991,0.36c0.249,0.167,0.485,0.457,0.735,0.875c0.251,0.403,0.525,0.97,0.833,1.689    c0.307,0.718,0.514,1.32,0.624,1.774c0.108,0.471,0.153,0.855,0.108,1.135c-0.085,0.403-0.218,0.721-0.441,0.969    c-0.22,0.251-0.551,0.472-1.014,0.664c-0.458,0.182-0.843,0.276-1.176,0.268c-0.333-0.029-0.662-0.154-0.996-0.39    c-0.25-0.154-0.483-0.429-0.749-0.846C97.707,65.277,97.432,64.71,97.129,63.99z M98.443,63.435    c0.47,1.137,0.843,1.814,1.096,2.048c0.25,0.234,0.554,0.293,0.915,0.138c0.357-0.151,0.538-0.388,0.554-0.734    c0-0.347-0.239-1.096-0.725-2.23c-0.467-1.149-0.835-1.844-1.093-2.078c-0.262-0.237-0.554-0.28-0.915-0.143    c-0.351,0.153-0.541,0.404-0.541,0.752C97.723,61.536,97.957,62.285,98.443,63.435z"/>
	</g>
	<g>
		<path fill="#141412" d="M105.854,64.668l-1.51-7.299l1.358-0.293l1.513,7.312L105.854,64.668z"/>
	</g>
	<g>
		<path fill="#141412" d="M109.971,63.85l-1.513-7.312l2.443-0.502c0.73-0.154,1.299-0.111,1.687,0.121    c0.393,0.238,0.641,0.696,0.78,1.373c0.108,0.473,0.094,0.857-0.027,1.176c-0.112,0.306-0.346,0.528-0.664,0.638    c0.678,0.042,1.136,0.513,1.358,1.425c0,0.044,0,0.071,0,0.1l0.249,0.956c0.07,0.276,0.139,0.484,0.236,0.64    c0.094,0.15,0.21,0.276,0.361,0.369l-1.622,0.334c-0.069-0.111-0.127-0.25-0.184-0.414c-0.054-0.169-0.108-0.393-0.175-0.696    l-0.179-0.762l-0.044-0.179c-0.087-0.429-0.236-0.706-0.442-0.834c-0.206-0.108-0.599-0.121-1.139,0l-0.468,0.103l0.664,3.185    L109.971,63.85z M110.415,59.36l0.79-0.152c0.388-0.082,0.638-0.209,0.761-0.414c0.126-0.178,0.126-0.483,0.058-0.889    c-0.073-0.373-0.225-0.607-0.405-0.706c-0.205-0.124-0.526-0.124-0.968-0.042l-0.667,0.14L110.415,59.36z"/>
	</g>
	<g>
		<path fill="#141412" d="M117.344,62.684l-0.932-7.409l3.798-0.47l0.167,1.232l-2.426,0.305l0.207,1.717l2.26-0.29l0.151,1.178    l-2.255,0.275l0.263,2.038l2.463-0.305l0.154,1.248L117.344,62.684z"/>
	</g>
	<g>
		<path fill="#141412" d="M133.261,60.708l1.345,0.167c0,0.04-0.016,0.081-0.016,0.139c0,0.068,0,0.124-0.019,0.153    c-0.11,0.859-0.376,1.469-0.79,1.824c-0.417,0.376-0.986,0.515-1.732,0.419c-0.347-0.042-0.652-0.125-0.903-0.25    c-0.234-0.124-0.439-0.292-0.593-0.499c-0.211-0.295-0.346-0.677-0.399-1.137c-0.048-0.457,0.013-1.252,0.148-2.368    c0.102-0.766,0.208-1.358,0.317-1.801c0.127-0.446,0.266-0.764,0.42-0.972c0.244-0.317,0.525-0.528,0.841-0.635    c0.309-0.129,0.707-0.154,1.155-0.09c0.746,0.101,1.273,0.363,1.577,0.792c0.276,0.444,0.372,1.083,0.276,1.953l-1.326-0.168    l0.017-0.178c0.056-0.4,0.017-0.704-0.08-0.916c-0.102-0.221-0.297-0.36-0.575-0.387c-0.333-0.04-0.566,0.071-0.717,0.318    c-0.169,0.265-0.321,1.012-0.473,2.247c-0.167,1.328-0.22,2.143-0.137,2.435c0.084,0.305,0.288,0.486,0.622,0.528    c0.291,0.04,0.525-0.041,0.676-0.263c0.155-0.195,0.267-0.611,0.353-1.225L133.261,60.708z"/>
	</g>
	<g>
		<g>
			<path fill="#141412" d="M138.263,60.234c0.289-0.736,0.566-1.3,0.819-1.706c0.245-0.415,0.483-0.703,0.72-0.871     c0.329-0.225,0.662-0.348,0.995-0.375c0.33-0.014,0.72,0.072,1.177,0.25c0.458,0.194,0.79,0.414,1.013,0.648     c0.22,0.252,0.389,0.569,0.457,0.974c0.039,0.29,0.027,0.662-0.094,1.131c-0.1,0.46-0.305,1.058-0.613,1.775     c-0.291,0.733-0.569,1.304-0.816,1.715c-0.238,0.406-0.486,0.697-0.721,0.86c-0.333,0.236-0.666,0.351-0.994,0.375     c-0.336,0.027-0.734-0.055-1.177-0.249c-0.47-0.182-0.804-0.4-1.027-0.64c-0.222-0.261-0.358-0.579-0.442-0.968     c-0.056-0.279-0.025-0.664,0.084-1.125C137.747,61.561,137.958,60.968,138.263,60.234z M139.566,60.772     c-0.463,1.139-0.696,1.888-0.679,2.234c0.012,0.344,0.195,0.594,0.568,0.747c0.347,0.14,0.648,0.096,0.899-0.139     c0.247-0.236,0.61-0.931,1.077-2.078c0.471-1.148,0.691-1.902,0.684-2.242c-0.018-0.359-0.196-0.6-0.553-0.737     c-0.347-0.154-0.652-0.112-0.917,0.136C140.394,58.935,140.036,59.625,139.566,60.772z"/>
		</g>
		<g>
			<path fill="#141412" d="M143.955,66.607l2.827-6.914l1.288,0.528l-2.341,5.736l2.328,0.942l-0.483,1.177L143.955,66.607z"/>
		</g>
	</g>
	<g>
		<g>
			<path fill="#141412" d="M150.077,68.812l4.064-6.25l1.16,0.762l-3.365,5.183l2.093,1.371l-0.681,1.068L150.077,68.812z"/>
		</g>
		<g>
			<path fill="#141412" d="M155.443,72.303l4.06-6.252l3.211,2.082l-0.678,1.037l-2.039-1.329l-0.938,1.456l1.896,1.233l-0.65,1     l-1.9-1.25l-1.12,1.735l2.108,1.354l-0.693,1.052L155.443,72.303z"/>
		</g>
	</g>
	<g>
		<path fill="#141412" d="M164.892,75.279l1.149,0.747c-0.029,0.018-0.056,0.059-0.084,0.129c-0.025,0.041-0.056,0.08-0.085,0.109    c-0.468,0.734-0.97,1.167-1.499,1.319c-0.526,0.152-1.104,0.027-1.742-0.39c-0.307-0.194-0.528-0.4-0.691-0.607    c-0.168-0.225-0.278-0.457-0.316-0.721c-0.07-0.361-0.028-0.748,0.122-1.191c0.166-0.427,0.552-1.122,1.166-2.062    c0.416-0.637,0.775-1.138,1.08-1.485c0.289-0.346,0.554-0.584,0.792-0.693c0.346-0.177,0.691-0.249,1.038-0.221    c0.331,0.043,0.69,0.183,1.078,0.43c0.641,0.417,0.986,0.89,1.052,1.415c0.086,0.509-0.109,1.135-0.592,1.869l-1.123-0.735    l0.094-0.152c0.224-0.334,0.332-0.621,0.332-0.872c0-0.235-0.125-0.417-0.345-0.571c-0.279-0.189-0.554-0.189-0.803-0.041    c-0.249,0.169-0.724,0.781-1.385,1.814c-0.735,1.124-1.14,1.843-1.192,2.148c-0.057,0.307,0.055,0.554,0.331,0.733    c0.265,0.169,0.502,0.197,0.721,0.072c0.237-0.124,0.511-0.443,0.845-0.956L164.892,75.279z"/>
	</g>
	<g>
		<g>
			<path fill="#141412" d="M166.844,81.471l4.849-3.905l-0.996-1.249l0.957-0.759l2.866,3.56l-0.957,0.762l-0.998-1.233l-4.86,3.907     L166.844,81.471z"/>
		</g>
		<g>
			<path fill="#141412" d="M170.197,85.645l5.806-4.684l0.872,1.082l-5.817,4.679L170.197,85.645z"/>
		</g>
	</g>
	<g>
		<path fill="#141412" d="M172.886,88.995l5.817-4.681l2.438,3.032l-0.942,0.775l-1.579-1.965l-1.371,1.108l1.481,1.856l-0.93,0.747    l-1.48-1.858l-2.562,2.065L172.886,88.995z"/>
	</g>
	<g>
		<path fill="#141412" d="M178.467,99.47l6.732-3.231l1.07,2.246c0.331,0.664,0.43,1.234,0.305,1.661    c-0.137,0.432-0.507,0.79-1.139,1.082c-0.439,0.224-0.814,0.307-1.146,0.265c-0.317-0.042-0.597-0.206-0.79-0.5    c0.137,0.664-0.222,1.233-1.052,1.646c-0.041,0.03-0.07,0.044-0.088,0.044l-0.885,0.47c-0.25,0.139-0.43,0.266-0.553,0.389    c-0.14,0.138-0.22,0.278-0.275,0.429l-0.725-1.484c0.093-0.079,0.223-0.176,0.357-0.262c0.141-0.112,0.364-0.223,0.64-0.36    l0.692-0.347l0.176-0.082c0.391-0.194,0.625-0.401,0.686-0.635c0.067-0.239-0.018-0.612-0.265-1.126l-0.198-0.414l-2.965,1.414    L178.467,99.47z M182.945,98.804l0.329,0.721c0.18,0.36,0.374,0.579,0.579,0.649c0.223,0.069,0.512,0.016,0.891-0.164    c0.329-0.154,0.528-0.349,0.579-0.568c0.056-0.206,0-0.528-0.196-0.931l-0.306-0.606L182.945,98.804z"/>
	</g>
	<g>
		<g>
			<path fill="#141412" d="M181.764,105.994l7.385-1.065l0.553,3.78l-1.234,0.18l-0.344-2.411l-1.721,0.254l0.33,2.241l-1.176,0.164     l-0.317-2.244l-2.023,0.294l0.347,2.463l-1.248,0.183L181.764,105.994z M189.956,106.021l1.496,0.638l0.177,1.219l-1.591-1.264     L189.956,106.021z"/>
		</g>
		<g>
			<path fill="#141412" d="M183.234,116.165l0.79-0.218c-0.359-0.099-0.641-0.255-0.83-0.47c-0.197-0.227-0.309-0.559-0.377-0.987     c-0.108-0.773,0.098-1.356,0.639-1.76c0.541-0.387,1.591-0.707,3.156-0.927c0.732-0.095,1.317-0.151,1.762-0.151     c0.459,0.024,0.814,0.079,1.077,0.207c0.317,0.151,0.583,0.373,0.762,0.677c0.184,0.292,0.317,0.683,0.376,1.139     c0.11,0.803,0.016,1.412-0.303,1.842c-0.318,0.432-0.861,0.709-1.663,0.815l-0.176,0.027l-0.182-1.288l0.069-0.015     c0.44-0.066,0.764-0.193,0.953-0.385c0.195-0.196,0.279-0.458,0.234-0.792c-0.052-0.389-0.246-0.65-0.579-0.746     c-0.317-0.1-1.146-0.058-2.483,0.135c-1.035,0.154-1.713,0.319-2.048,0.51c-0.331,0.197-0.481,0.459-0.428,0.831     c0.055,0.364,0.206,0.603,0.483,0.725c0.279,0.127,0.721,0.141,1.303,0.038l0.264-0.024l-0.137-0.954l1.176-0.167l0.331,2.272     l-4.034,0.597L183.234,116.165z"/>
		</g>
	</g>
	<g>
		<path fill="#141412" d="M183.786,119.984l7.387-1.066l0.193,1.375l-7.368,1.068L183.786,119.984z"/>
	</g>
	<g>
		<g>
			<path fill="#141412" d="M187.973,124.294c0.789,0.044,1.427,0.131,1.883,0.241c0.471,0.112,0.82,0.246,1.037,0.43     c0.336,0.24,0.557,0.512,0.666,0.816c0.14,0.318,0.18,0.707,0.14,1.202c-0.025,0.485-0.14,0.877-0.289,1.166     c-0.168,0.286-0.43,0.542-0.795,0.732c-0.247,0.141-0.61,0.223-1.096,0.266c-0.468,0.04-1.095,0.04-1.882-0.015     c-0.792-0.059-1.415-0.141-1.872-0.252c-0.471-0.109-0.834-0.248-1.055-0.417c-0.332-0.246-0.556-0.523-0.679-0.833     c-0.127-0.305-0.168-0.703-0.127-1.188c0.027-0.502,0.127-0.888,0.292-1.178c0.167-0.29,0.43-0.527,0.791-0.721     c0.239-0.137,0.607-0.238,1.079-0.277C186.546,124.23,187.178,124.244,187.973,124.294z M187.875,125.712     c-1.217-0.097-1.996-0.071-2.329,0.039c-0.331,0.124-0.501,0.39-0.539,0.775c-0.018,0.389,0.104,0.649,0.411,0.804     c0.305,0.168,1.065,0.292,2.314,0.39c1.231,0.083,2.024,0.057,2.338-0.057c0.334-0.121,0.515-0.372,0.541-0.746     c0.028-0.39-0.107-0.68-0.428-0.832C189.885,125.916,189.122,125.795,187.875,125.712z"/>
		</g>
		<g>
			<path fill="#141412" d="M183.718,131.752l7.443,0.51l-0.097,1.428l-5.353,1.582l5.213,0.318l-0.088,1.313l-7.453-0.509     l0.114-1.429l5.347-1.584l-5.224-0.33L183.718,131.752z"/>
		</g>
	</g>
	<g>
		<path fill="#141412" d="M182.639,138.691l6.984,3.146l-0.392,1.843l-7.647,0.157l0.307-1.471l1.91,0.016l0.316-1.567l-1.758-0.723    L182.639,138.691z M185.188,141.256l-0.249,1.161l3.19,0.044L185.188,141.256z"/>
	</g>
	<g>
		<path fill="#141412" d="M180.668,145.855l6.68,3.343l-0.622,1.248l-5.525-2.775l-1.139,2.247l-1.134-0.571L180.668,145.855z"/>
	</g>
	<g>
		<path fill="#141412" d="M175.075,156.288l6.384,3.865l-1.165,1.927c-0.238,0.388-0.455,0.678-0.664,0.859    c-0.205,0.195-0.429,0.317-0.682,0.373c-0.344,0.101-0.719,0.085-1.104-0.027c-0.391-0.095-0.932-0.371-1.633-0.788    c-0.902-0.557-1.524-0.97-1.855-1.277c-0.334-0.277-0.598-0.582-0.766-0.888c-0.178-0.316-0.236-0.62-0.178-0.939    c0.055-0.332,0.279-0.818,0.664-1.454L175.075,156.288z M175.309,158.017l-0.316,0.525c-0.168,0.28-0.265,0.487-0.291,0.613    c-0.028,0.135-0.017,0.266,0.042,0.376c0.094,0.223,0.274,0.429,0.541,0.652c0.263,0.219,0.706,0.526,1.341,0.915    c0.613,0.374,1.082,0.623,1.402,0.733c0.318,0.126,0.58,0.154,0.812,0.11c0.109-0.026,0.207-0.081,0.305-0.191    c0.094-0.083,0.225-0.246,0.36-0.471l0.304-0.525L175.309,158.017z"/>
	</g>
	<g>
		<path fill="#141412" d="M170.93,162.633l5.834,4.651l-2.401,2.997l-0.964-0.773l1.522-1.898l-1.346-1.098l-1.429,1.79    l-0.925-0.748l1.426-1.773l-1.607-1.276l-1.551,1.952l-0.984-0.79L170.93,162.633z"/>
	</g>
	<g>
		<path fill="#141412" d="M162.742,171.136l5.099,5.446l-1.632,1.538c-0.333,0.307-0.638,0.526-0.89,0.664    c-0.248,0.112-0.5,0.181-0.749,0.168c-0.357-0.017-0.702-0.108-1.049-0.332c-0.351-0.193-0.804-0.606-1.36-1.218    c-0.722-0.761-1.207-1.328-1.455-1.7c-0.239-0.375-0.402-0.734-0.486-1.083c-0.083-0.35-0.055-0.662,0.084-0.956    c0.137-0.288,0.504-0.705,1.039-1.216L162.742,171.136z M162.492,172.855l-0.445,0.43c-0.233,0.219-0.385,0.388-0.438,0.51    c-0.056,0.115-0.086,0.238-0.056,0.375c0.023,0.224,0.136,0.485,0.329,0.761c0.197,0.294,0.542,0.709,1.053,1.249    c0.487,0.529,0.874,0.887,1.139,1.084c0.274,0.208,0.525,0.305,0.762,0.329c0.125,0,0.236-0.024,0.352-0.083    c0.106-0.07,0.275-0.194,0.467-0.391l0.441-0.398L162.492,172.855z"/>
	</g>
	<g>
		<g>
			<path fill="#141412" d="M156.841,175.506l3.963,6.33l-1.191,0.731l-3.95-6.331L156.841,175.506z"/>
		</g>
		<g>
			<path fill="#141412" d="M153.102,177.847l3.946,6.331l-3.31,2.062l-0.637-1.032l2.119-1.328l-0.93-1.499l-2.021,1.266     l-0.625-1.017l2.01-1.26l-1.746-2.782L153.102,177.847z"/>
		</g>
	</g>
	<g>
		<g>
			<path fill="#141412" d="M147.323,180.714l2.713,6.951l-3.627,1.418l-0.446-1.139l2.341-0.927l-0.653-1.635l-2.199,0.873     l-0.446-1.105l2.223-0.871l-1.195-3.048L147.323,180.714z"/>
		</g>
		<g>
			<path fill="#141412" d="M143.927,190.055l-1.29,0.507l-1.827-4.685c-0.206-0.525-0.43-0.873-0.622-1.01     c-0.207-0.138-0.469-0.152-0.803-0.019c-0.332,0.125-0.526,0.309-0.581,0.557c-0.054,0.247,0.025,0.638,0.236,1.177l1.828,4.672     l-1.288,0.502l-1.869-4.793c-0.181-0.471-0.289-0.821-0.316-1.057c-0.029-0.234-0.029-0.461,0.04-0.665     c0.093-0.317,0.263-0.606,0.527-0.843c0.261-0.239,0.595-0.442,1.011-0.607c0.803-0.312,1.438-0.36,1.896-0.142     c0.459,0.222,0.863,0.749,1.192,1.623L143.927,190.055z"/>
		</g>
	</g>
	<g>
		<path fill="#141412" d="M134.536,187.434l-1.362,0.231l-0.083-0.481c-0.078-0.442-0.197-0.745-0.332-0.886    c-0.135-0.137-0.357-0.194-0.637-0.137c-0.277,0.042-0.503,0.168-0.62,0.336c-0.13,0.164-0.154,0.393-0.115,0.675    c0.044,0.22,0.129,0.404,0.265,0.541c0.124,0.139,0.389,0.307,0.791,0.485l0.775,0.391c0.681,0.307,1.123,0.581,1.345,0.83    c0.195,0.239,0.346,0.582,0.411,0.985c0.117,0.622,0.018,1.137-0.305,1.554c-0.286,0.413-0.771,0.663-1.409,0.789    c-0.668,0.11-1.222,0.015-1.662-0.294c-0.417-0.305-0.692-0.813-0.815-1.517c-0.017-0.058-0.017-0.129-0.017-0.156    c-0.017-0.043-0.017-0.071-0.028-0.11l1.303-0.221l0.045,0.209c0.066,0.383,0.178,0.66,0.342,0.814    c0.155,0.152,0.393,0.192,0.685,0.152c0.206-0.055,0.371-0.152,0.485-0.292c0.094-0.152,0.122-0.347,0.082-0.567    c-0.057-0.318-0.391-0.606-1.014-0.886c-0.016,0-0.016,0-0.016,0l-0.841-0.389c-0.597-0.251-1.028-0.529-1.264-0.818    c-0.247-0.275-0.414-0.663-0.499-1.15c-0.123-0.662-0.028-1.216,0.302-1.647c0.311-0.43,0.835-0.707,1.54-0.832    c0.737-0.121,1.318-0.025,1.747,0.291s0.707,0.874,0.844,1.661c0.013,0.083,0.03,0.221,0.056,0.414v0.027L134.536,187.434    L134.536,187.434z"/>
	</g>
	<g>
		<g>
			<path fill="#141412" d="M126.97,186.021l-0.136,7.47l-1.389-0.027l0.141-7.468L126.97,186.021z"/>
		</g>
		<g>
			<path fill="#141412" d="M122.646,189.68c-0.027,0.773-0.081,1.415-0.15,1.883c-0.1,0.469-0.206,0.837-0.375,1.065     c-0.222,0.334-0.486,0.568-0.79,0.707c-0.307,0.138-0.708,0.208-1.191,0.193c-0.485,0-0.887-0.081-1.178-0.235     c-0.307-0.152-0.553-0.398-0.775-0.746c-0.152-0.251-0.251-0.611-0.317-1.083c-0.073-0.468-0.1-1.095-0.073-1.887     c0-0.789,0.056-1.414,0.138-1.882c0.083-0.471,0.208-0.833,0.358-1.083c0.237-0.33,0.504-0.568,0.807-0.704     c0.305-0.139,0.691-0.193,1.187-0.193c0.499,0.013,0.887,0.093,1.178,0.233c0.304,0.168,0.552,0.401,0.762,0.751     c0.149,0.245,0.264,0.596,0.332,1.066C122.618,188.254,122.646,188.889,122.646,189.68z M121.222,189.651     c0.025-1.231-0.043-2.011-0.182-2.331c-0.136-0.317-0.386-0.484-0.774-0.495c-0.387,0-0.651,0.136-0.803,0.458     c-0.135,0.303-0.222,1.077-0.248,2.325c-0.026,1.232,0.025,2.026,0.168,2.343c0.137,0.316,0.389,0.482,0.776,0.482     c0.385,0.015,0.661-0.14,0.803-0.459C121.106,191.672,121.194,190.882,121.222,189.651z"/>
		</g>
	</g>
	<g>
		<g>
			<path fill="#141412" d="M115.055,185.993l-1.812,7.229l-1.4-0.346l-0.613-5.53l-1.219,5.07l-1.273-0.316l1.803-7.246l1.386,0.35     l0.621,5.555l1.231-5.082L115.055,185.993z"/>
		</g>
		<g>
			<path fill="#141412" d="M102.669,182.898l-1.8,7.236l-2.178-0.541c-0.445-0.111-0.791-0.233-1.027-0.375     c-0.248-0.136-0.428-0.318-0.553-0.542c-0.196-0.307-0.291-0.665-0.306-1.065c-0.016-0.402,0.07-0.998,0.279-1.806     c0.247-1.022,0.485-1.73,0.653-2.146c0.177-0.402,0.385-0.735,0.635-0.982c0.249-0.267,0.525-0.421,0.862-0.461     c0.316-0.038,0.856,0.023,1.576,0.208L102.669,182.898z M101.09,183.639l-0.612-0.158c-0.307-0.082-0.527-0.11-0.649-0.094     c-0.143,0.014-0.264,0.058-0.35,0.148c-0.179,0.156-0.332,0.393-0.467,0.713c-0.138,0.316-0.293,0.829-0.471,1.55     c-0.179,0.694-0.278,1.22-0.292,1.549c-0.018,0.351,0.027,0.613,0.139,0.804c0.067,0.114,0.153,0.182,0.263,0.253     c0.113,0.067,0.307,0.138,0.585,0.192l0.58,0.153L101.09,183.639z"/>
		</g>
	</g>
	<g>
		<path fill="#141412" d="M92.209,186.769l-1.208-0.665l2.398-4.404c0.278-0.512,0.401-0.887,0.372-1.138    c-0.023-0.246-0.193-0.458-0.51-0.62c-0.317-0.181-0.569-0.206-0.79-0.084c-0.22,0.112-0.47,0.43-0.75,0.943l-2.407,4.389    l-1.193-0.652l2.453-4.529c0.237-0.445,0.442-0.734,0.591-0.916c0.169-0.182,0.361-0.305,0.554-0.4    c0.308-0.127,0.627-0.177,0.971-0.138c0.359,0.041,0.736,0.169,1.135,0.386c0.748,0.408,1.193,0.865,1.32,1.364    c0.125,0.481-0.026,1.132-0.47,1.948L92.209,186.769z"/>
	</g>
	<g>
		<path fill="#141412" d="M83.883,175.685l-1.054-0.722l0.5-0.719c0.113-0.17,0.167-0.311,0.15-0.432    c-0.014-0.125-0.082-0.229-0.217-0.33c-0.153-0.095-0.279-0.112-0.401-0.07c-0.116,0.056-0.279,0.265-0.503,0.597l-0.192,0.276    l-2.964,4.379l-1.126-0.761l2.927-4.353c0.302-0.414,0.509-0.701,0.632-0.857c0.113-0.138,0.224-0.246,0.334-0.307    c0.292-0.169,0.582-0.248,0.904-0.205c0.303,0.036,0.637,0.179,0.995,0.43c0.485,0.317,0.764,0.679,0.832,1.094    c0.071,0.416-0.056,0.862-0.389,1.343L83.883,175.685z"/>
	</g>
	<g>
		<path fill="#141412" d="M80.491,169.979l-6.474,4.086l-1.318-1.319l4.089-6.481l1.049,1.064l-1.064,1.58l1.12,1.139l1.585-1.08    L80.491,169.979z M76.956,170.683l-0.833-0.833l-1.801,2.633L76.956,170.683z"/>
	</g>
	<g>
		<g>
			<path fill="#141412" d="M75.377,164.946l-1.024,0.724l-5.628,0.789l1.442,2.026l-0.969,0.674l-2.275-3.225l0.928-0.667     l5.612-0.835l-1.55-2.186l1.023-0.733L75.377,164.946z"/>
		</g>
		<g>
			<path fill="#141412" d="M71.555,159.574l-1.028,0.729l-5.625,0.774l1.441,2.037l-0.943,0.682l-2.298-3.242l0.945-0.666     l5.621-0.816l-1.565-2.198l1.01-0.725L71.555,159.574z"/>
		</g>
	</g>
	<g>
		<path fill="#141412" d="M65.733,149.112l-6.676,3.341l-1.718-3.422l1.106-0.554l1.108,2.188l1.538-0.774l-1.012-2.023l1.055-0.542    l1.027,2.021l1.827-0.911l-1.12-2.234l1.12-0.568L65.733,149.112z"/>
	</g>
	<g>
		<path fill="#141412" d="M63.227,143.069l-7.082,2.359l-0.442-1.376l4.323-3.49l-4.933,1.691l-0.417-1.245l7.08-2.372l0.459,1.361    l-4.352,3.521l4.949-1.697L63.227,143.069z"/>
	</g>
	<g>
		<g>
			<path fill="#141412" d="M61.051,130.436l-7.456,0.373l-0.109-2.41c-0.056-0.75,0.085-1.273,0.402-1.604     c0.318-0.349,0.844-0.528,1.594-0.57c0.747-0.043,1.303,0.097,1.676,0.429c0.372,0.32,0.579,0.846,0.608,1.553l0.056,1.011     l3.159-0.168L61.051,130.436z M56.785,129.298l-0.03-0.581c-0.014-0.43-0.111-0.737-0.291-0.9     c-0.179-0.169-0.467-0.234-0.873-0.205c-0.416,0.015-0.692,0.11-0.857,0.28c-0.138,0.167-0.206,0.469-0.193,0.913l0.038,0.607     L56.785,129.298z"/>
		</g>
		<g>
			<path fill="#141412" d="M60.747,124.381l-7.538-1.319l-0.083-1.854l7.36-2.062l0.067,1.493l-1.843,0.458l0.068,1.605l1.899,0.266     L60.747,124.381z M57.657,122.533l-0.07-1.185l-3.091,0.746L57.657,122.533z"/>
		</g>
	</g>
	<g>
		<g>
			<path fill="#141412" d="M61.074,116.024l-3.102-0.605l-4.6,1.105l0.306-1.511l2.967-0.582l-2.547-1.622l0.276-1.465l3.866,2.701     l3.103,0.598L61.074,116.024z"/>
		</g>
		<g>
			<path fill="#141412" d="M59.541,110.07l0.265-1.361l0.468,0.097c0.458,0.083,0.777,0.083,0.955,0     c0.183-0.082,0.31-0.265,0.36-0.541c0.055-0.289,0.025-0.513-0.095-0.695c-0.112-0.18-0.306-0.304-0.613-0.356     c-0.205-0.045-0.414-0.027-0.579,0.053c-0.178,0.071-0.429,0.264-0.749,0.569l-0.61,0.594c-0.54,0.515-0.969,0.836-1.275,0.956     c-0.288,0.098-0.662,0.125-1.065,0.043c-0.611-0.115-1.066-0.389-1.345-0.832c-0.277-0.418-0.345-0.957-0.221-1.593     c0.125-0.681,0.412-1.167,0.858-1.457c0.445-0.292,1-0.36,1.708-0.237c0.065,0.016,0.12,0.027,0.149,0.041     c0.04,0,0.086,0.017,0.113,0.031l-0.248,1.288l-0.198-0.026c-0.412-0.083-0.706-0.074-0.898,0.012     c-0.195,0.111-0.317,0.303-0.376,0.594c-0.04,0.223-0.015,0.404,0.084,0.542c0.113,0.153,0.279,0.247,0.501,0.291     c0.317,0.056,0.704-0.15,1.191-0.636c0,0,0,0,0.018-0.015l0.65-0.653c0.458-0.457,0.859-0.761,1.218-0.898     c0.349-0.121,0.763-0.136,1.25-0.043c0.664,0.128,1.148,0.417,1.439,0.865c0.275,0.457,0.358,1.034,0.218,1.741     c-0.135,0.72-0.442,1.231-0.886,1.522c-0.442,0.295-1.065,0.348-1.855,0.195c-0.083,0-0.207-0.043-0.402-0.081L59.541,110.07z"/>
		</g>
	</g>
	<g>
		<path fill="#141412" d="M61.051,102.64l-1.471-0.509l1.037-2.998l1.456,0.516L61.051,102.64z"/>
	</g>
	<g>
		<path fill="#141412" d="M66.401,98.084l-6.308-3.989l1.207-1.9c0.24-0.374,0.472-0.665,0.664-0.859    c0.219-0.181,0.445-0.305,0.695-0.359c0.346-0.083,0.72-0.071,1.109,0.054c0.386,0.113,0.91,0.39,1.618,0.832    c0.9,0.554,1.512,0.999,1.842,1.29c0.318,0.303,0.565,0.606,0.735,0.927c0.167,0.305,0.223,0.621,0.154,0.94    c-0.056,0.336-0.292,0.807-0.692,1.442L66.401,98.084z M66.204,96.351l0.333-0.522c0.168-0.278,0.263-0.471,0.305-0.598    c0.029-0.136,0-0.265-0.041-0.374c-0.095-0.223-0.263-0.442-0.527-0.666c-0.25-0.235-0.691-0.54-1.315-0.94    c-0.624-0.388-1.083-0.64-1.4-0.762c-0.317-0.125-0.579-0.167-0.818-0.125c-0.11,0.028-0.206,0.081-0.309,0.182    c-0.093,0.078-0.216,0.246-0.357,0.48l-0.332,0.501L66.204,96.351z"/>
	</g>
	<g>
		<path fill="#141412" d="M70.446,91.767l-6.182-4.186l2.147-3.169l1.039,0.703l-1.382,2.015l1.438,0.966l1.276-1.87l0.968,0.652    l-1.274,1.885l1.702,1.15l1.4-2.067l1.054,0.71L70.446,91.767z"/>
	</g>
	<g>
		<path fill="#141412" d="M71.605,84.743l-1.275-0.86l1.762-2.602l1.289,0.857L71.605,84.743z"/>
	</g>
	<g>
		<path fill="#141412" d="M77.813,81.736l-5.665-4.862l0.904-1.053l4.708,4.032l1.631-1.914l0.958,0.831L77.813,81.736z"/>
	</g>
	<g>
		<path fill="#141412" d="M81.886,77.345l-2.882-7.079l1.537-1.07l5.64,5.154l-1.219,0.858l-1.37-1.327l-1.32,0.914l0.776,1.748    L81.886,77.345z M81.821,73.743l0.968-0.668l-2.272-2.231L81.821,73.743z"/>
	</g>
	<g>
		<path fill="#141412" d="M86.404,70.586l-0.888-1.275l2.606-1.804l0.889,1.274L86.404,70.586z"/>
	</g>
	<g>
		<path fill="#141412" d="M93.221,70l-3.437-6.622l1.216-0.635l2.867,5.485l2.229-1.147l0.584,1.119L93.221,70z"/>
	</g>
	<g>
		<path fill="#141412" d="M97.129,63.99c-0.307-0.733-0.515-1.33-0.624-1.805c-0.11-0.47-0.154-0.831-0.095-1.121    c0.085-0.401,0.218-0.721,0.44-0.97c0.222-0.25,0.555-0.469,1-0.651c0.458-0.193,0.857-0.278,1.192-0.265    c0.329,0.014,0.662,0.143,0.991,0.36c0.249,0.167,0.485,0.457,0.735,0.875c0.251,0.403,0.525,0.97,0.833,1.689    c0.307,0.718,0.514,1.32,0.624,1.774c0.108,0.471,0.153,0.855,0.108,1.135c-0.085,0.403-0.218,0.721-0.441,0.969    c-0.22,0.251-0.551,0.472-1.014,0.664c-0.458,0.182-0.843,0.276-1.176,0.268c-0.333-0.029-0.662-0.154-0.996-0.39    c-0.25-0.154-0.483-0.429-0.749-0.846C97.707,65.277,97.432,64.71,97.129,63.99z M98.443,63.435    c0.47,1.137,0.843,1.814,1.096,2.048c0.25,0.234,0.554,0.293,0.915,0.138c0.357-0.151,0.538-0.388,0.554-0.734    c0-0.347-0.239-1.096-0.725-2.23c-0.467-1.149-0.835-1.844-1.093-2.078c-0.262-0.237-0.554-0.28-0.915-0.143    c-0.351,0.153-0.541,0.404-0.541,0.752C97.723,61.536,97.957,62.285,98.443,63.435z"/>
	</g>
	<g>
		<path fill="#141412" d="M105.854,64.668l-1.51-7.299l1.358-0.293l1.513,7.312L105.854,64.668z"/>
	</g>
	<g>
		<path fill="#141412" d="M109.971,63.85l-1.513-7.312l2.443-0.502c0.73-0.154,1.299-0.111,1.687,0.121    c0.393,0.238,0.641,0.696,0.78,1.373c0.108,0.473,0.094,0.857-0.027,1.176c-0.112,0.306-0.346,0.528-0.664,0.638    c0.678,0.042,1.136,0.513,1.358,1.425c0,0.044,0,0.071,0,0.1l0.249,0.956c0.07,0.276,0.139,0.484,0.236,0.64    c0.094,0.15,0.21,0.276,0.361,0.369l-1.622,0.334c-0.069-0.111-0.127-0.25-0.184-0.414c-0.054-0.169-0.108-0.393-0.175-0.696    l-0.179-0.762l-0.044-0.179c-0.087-0.429-0.236-0.706-0.442-0.834c-0.206-0.108-0.599-0.121-1.139,0l-0.468,0.103l0.664,3.185    L109.971,63.85z M110.415,59.36l0.79-0.152c0.388-0.082,0.638-0.209,0.761-0.414c0.126-0.178,0.126-0.483,0.058-0.889    c-0.073-0.373-0.225-0.607-0.405-0.706c-0.205-0.124-0.526-0.124-0.968-0.042l-0.667,0.14L110.415,59.36z"/>
	</g>
	<g>
		<path fill="#141412" d="M117.344,62.684l-0.932-7.409l3.798-0.47l0.167,1.232l-2.426,0.305l0.207,1.717l2.26-0.29l0.151,1.178    l-2.255,0.275l0.263,2.038l2.463-0.305l0.154,1.248L117.344,62.684z"/>
	</g>
</g>
<g>
	<g>
		<path fill="#141412" d="M80.854,142.666c0.152,0.646,0.168,1.279,0.063,1.902c-0.114,0.627-0.329,1.203-0.652,1.72    c-0.324,0.525-0.747,0.972-1.251,1.352c-0.508,0.38-1.092,0.646-1.737,0.797c-0.643,0.15-1.282,0.168-1.902,0.058    c-0.626-0.113-1.201-0.324-1.721-0.651c-0.515-0.32-0.974-0.739-1.353-1.252c-0.381-0.507-0.64-1.084-0.792-1.731l-0.282-1.201    l2.912,0.27l0.071,0.298c0.131,0.555,0.43,0.978,0.899,1.27c0.467,0.29,0.977,0.363,1.529,0.234    c0.539-0.128,0.955-0.418,1.256-0.892c0.301-0.469,0.387-0.983,0.254-1.54l-4.644-19.753l2.703-0.636L80.854,142.666z"/>
	</g>
	<g>
		<path fill="#141412" d="M92.364,144.433l-1.804,0.424l-0.85-0.923c-0.127,0.451-0.391,0.846-0.775,1.186    c-0.393,0.336-0.979,0.6-1.755,0.779c-0.507,0.121-1.033,0.141-1.574,0.054c-0.537-0.087-1.042-0.265-1.516-0.541    c-0.475-0.278-0.894-0.656-1.271-1.145c-0.374-0.485-0.645-1.076-0.803-1.765c-0.231-0.977-0.312-1.866-0.243-2.671    c0.072-0.806,0.227-1.534,0.467-2.207c0.243-0.663,0.552-1.276,0.94-1.838c0.389-0.562,0.784-1.084,1.2-1.571    c0.412-0.479,0.803-0.939,1.17-1.364c0.371-0.429,0.683-0.858,0.933-1.29l-0.218-0.931c-0.126-0.54-0.366-0.969-0.728-1.295    c-0.354-0.326-0.801-0.429-1.334-0.303c-1.001,0.234-1.548,0.835-1.624,1.794l-2.673-1.031c0.073-0.319,0.198-0.659,0.375-1.021    c0.187-0.355,0.441-0.7,0.752-1.02c0.313-0.321,0.679-0.609,1.1-0.858c0.424-0.251,0.905-0.44,1.438-0.567    c0.619-0.144,1.229-0.157,1.817-0.037c0.59,0.118,1.131,0.342,1.61,0.679c0.474,0.33,0.885,0.759,1.229,1.278    c0.343,0.513,0.593,1.101,0.746,1.745L92.364,144.433z M88.551,140.365l-1.252-5.342c-0.279,0.299-0.612,0.676-0.989,1.113    c-0.376,0.44-0.717,0.932-1.027,1.475c-0.304,0.541-0.538,1.145-0.684,1.815c-0.147,0.665-0.131,1.381,0.05,2.134    c0.131,0.561,0.427,0.983,0.893,1.274c0.467,0.282,0.98,0.364,1.538,0.234c0.533-0.125,0.944-0.465,1.234-1.027    C88.604,141.477,88.683,140.926,88.551,140.365z"/>
	</g>
	<g>
		<path fill="#141412" d="M102.375,142.081l-8.68,2.039l-0.493-2.098l2.452-15.056l-5.679,1.333l-0.679-2.9l8.683-2.037l0.491,2.095    l-2.452,15.055l5.679-1.335L102.375,142.081z"/>
	</g>
	<g>
		<path fill="#141412" d="M112.42,139.721l-8.684,2.04l-0.493-2.098l2.453-15.054l-5.679,1.332l-0.681-2.9l8.681-2.039l0.492,2.096    l-2.446,15.054l5.672-1.332L112.42,139.721z"/>
	</g>
	<g>
		<path fill="#141412" d="M122.633,114.855l-2.772,0.647l5.003,21.292l-2.702,0.634l-5.001-21.29l-2.738,0.645l-0.634-2.702    l8.209-1.929L122.633,114.855z"/>
	</g>
	<g>
		<path fill="#141412" d="M135.618,129.8c0.152,0.645,0.168,1.276,0.074,1.898c-0.095,0.621-0.311,1.198-0.619,1.714    c-0.311,0.521-0.719,0.963-1.213,1.34c-0.504,0.378-1.073,0.641-1.719,0.791c-0.646,0.155-1.275,0.171-1.886,0.056    c-0.616-0.112-1.176-0.327-1.692-0.654c-0.504-0.323-0.946-0.747-1.312-1.259c-0.369-0.514-0.629-1.089-0.781-1.736l-2.398-10.21    c-0.152-0.644-0.17-1.284-0.063-1.903c0.112-0.626,0.333-1.206,0.654-1.722c0.32-0.523,0.739-0.975,1.251-1.349    c0.505-0.377,1.088-0.646,1.734-0.797c0.641-0.15,1.277-0.179,1.903-0.076c0.616,0.102,1.192,0.317,1.719,0.653    c0.522,0.332,0.983,0.781,1.373,1.349c0.385,0.562,0.678,1.248,0.865,2.05c0.278,1.179,0.395,2.199,0.373,3.059    c-0.033,0.868-0.206,1.676-0.522,2.432c-0.369,0.837-0.913,1.643-1.637,2.411c-0.72,0.765-1.643,1.625-2.763,2.563l0.214,0.9    c0.13,0.557,0.413,0.984,0.849,1.282c0.43,0.298,0.928,0.375,1.478,0.246c0.54-0.128,0.937-0.413,1.207-0.878    c0.265-0.463,0.334-0.971,0.204-1.526l-0.071-0.3l2.495-1.539L135.618,129.8z M130.84,120.712    c-0.221-0.938-0.568-1.544-1.045-1.82c-0.472-0.274-0.981-0.35-1.514-0.223c-0.557,0.13-0.978,0.434-1.261,0.912    c-0.292,0.479-0.374,0.986-0.245,1.524l1.461,6.204c0.665-0.557,1.191-1.082,1.587-1.566c0.39-0.499,0.69-0.98,0.907-1.446    c0.238-0.577,0.363-1.145,0.355-1.704C131.083,122.027,131,121.398,130.84,120.712z"/>
	</g>
	<g>
		<path fill="#141412" d="M153.231,130.132l-2.708,0.636l-3.341-14.217c-0.126-0.532-0.393-0.955-0.812-1.268    c-0.409-0.314-0.884-0.408-1.419-0.283c-0.554,0.131-0.943,0.427-1.164,0.891c-0.215,0.462-0.269,0.959-0.141,1.492l3.339,14.215    l-2.705,0.636l-3.342-14.214c-0.126-0.533-0.393-0.956-0.804-1.27c-0.416-0.315-0.892-0.407-1.426-0.28    c-0.552,0.131-0.941,0.425-1.162,0.89c-0.223,0.462-0.268,0.959-0.142,1.493l3.341,14.215l-2.702,0.636l-4.397-18.72l1.799-0.422    l0.805,0.725c0.162-0.41,0.375-0.74,0.65-0.981c0.273-0.237,0.661-0.42,1.176-0.542c0.689-0.162,1.316-0.15,1.875,0.035    c0.564,0.188,1.133,0.513,1.712,0.991c0.152-0.652,0.433-1.176,0.842-1.59c0.405-0.416,1.014-0.717,1.812-0.902    c0.648-0.15,1.269-0.168,1.869-0.05c0.605,0.117,1.155,0.338,1.658,0.664c0.499,0.331,0.926,0.754,1.288,1.267    c0.354,0.518,0.606,1.096,0.759,1.739L153.231,130.132z"/>
	</g>
	<g>
		<path fill="#141412" d="M162.978,123.37c0.156,0.644,0.169,1.277,0.058,1.904c-0.113,0.625-0.327,1.202-0.649,1.721    c-0.326,0.524-0.74,0.97-1.252,1.349c-0.508,0.379-1.086,0.646-1.733,0.794c-1.025,0.242-1.763,0.054-2.213-0.57l1.373,5.841    l-2.707,0.638l-5.631-23.96l1.807-0.425l0.804,0.726c0.112-0.329,0.383-0.652,0.808-0.964c0.431-0.311,0.841-0.516,1.217-0.604    c0.646-0.151,1.279-0.172,1.903-0.061c0.628,0.113,1.196,0.331,1.721,0.651c0.521,0.326,0.968,0.746,1.349,1.251    c0.381,0.509,0.649,1.085,0.8,1.734L162.978,123.37z M160.275,124.005l-2.345-9.977c-0.124-0.534-0.428-0.951-0.906-1.247    c-0.482-0.297-0.989-0.386-1.52-0.259c-0.554,0.13-0.98,0.433-1.267,0.912c-0.286,0.48-0.364,0.984-0.242,1.517l2.345,9.977    c0.131,0.557,0.425,0.98,0.892,1.273c0.468,0.289,0.985,0.361,1.537,0.232c0.534-0.127,0.952-0.418,1.251-0.889    C160.321,125.075,160.405,124.561,160.275,124.005z"/>
	</g>
	<g>
		<path fill="#141412" d="M173.289,120.947c0.152,0.645,0.169,1.276,0.058,1.905c-0.114,0.624-0.322,1.2-0.65,1.718    c-0.324,0.525-0.74,0.972-1.248,1.349c-0.514,0.38-1.092,0.645-1.738,0.793c-0.646,0.152-1.277,0.173-1.898,0.061    c-0.627-0.113-1.201-0.323-1.721-0.65c-0.522-0.32-0.975-0.741-1.354-1.25c-0.38-0.513-0.645-1.087-0.796-1.733l-2.397-10.208    c-0.153-0.647-0.172-1.285-0.06-1.905c0.113-0.628,0.328-1.201,0.654-1.721c0.32-0.524,0.736-0.975,1.251-1.349    c0.504-0.379,1.081-0.644,1.728-0.795c0.647-0.152,1.277-0.172,1.912-0.06c0.616,0.108,1.188,0.326,1.714,0.649    c0.522,0.323,0.968,0.743,1.349,1.252c0.378,0.505,0.646,1.087,0.797,1.734L173.289,120.947z M170.583,121.583l-2.396-10.21    c-0.127-0.538-0.43-0.952-0.911-1.251c-0.481-0.298-0.99-0.384-1.519-0.259c-0.554,0.13-0.98,0.435-1.27,0.915    c-0.279,0.478-0.36,0.984-0.237,1.519l2.399,10.21c0.131,0.557,0.429,0.978,0.892,1.271c0.469,0.291,0.984,0.361,1.536,0.234    c0.533-0.125,0.952-0.418,1.252-0.889C170.627,122.652,170.717,122.14,170.583,121.583z"/>
	</g>
</g>
</svg>