<svg xmlns="http://www.w3.org/2000/svg" xmlns:xlink="http://www.w3.org/1999/xlink" version="1.1" id="Calque_1" x="0px" y="0px" width="255.118px" height="170.078px" viewBox="0 39.961 255.118 170.078" enable-background="new 0 39.961 255.118 170.078" xml:space="preserve">
<path fill="none" stroke="#141412" stroke-width="1.1706" stroke-miterlimit="10" d="M206.427,131.087  c2.641,3.399,1.879,8.146-1.709,10.542c-3.588,2.388-5.224,7.631-3.646,11.643c1.58,4.001-0.494,8.341-4.603,9.633  c-4.113,1.283-7.162,5.852-6.779,10.145c0.392,4.289-2.821,7.865-7.133,7.943c-4.308,0.079-8.517,3.599-9.358,7.826  c-0.838,4.227-4.924,6.751-9.078,5.609c-4.158-1.139-9.185,1.053-11.188,4.871c-1.996,3.818-6.629,5.093-10.291,2.828  c-3.666-2.271-9.11-1.575-12.104,1.521c-2.991,3.099-7.798,3.021-10.676-0.188c-2.876-3.21-8.302-4.087-12.044-1.951  c-3.739,2.134-8.324,0.694-10.191-3.192c-1.859-3.888-6.809-6.254-11.004-5.259c-4.191,0.994-8.188-1.678-8.872-5.929  c-0.695-4.257-4.778-7.92-9.079-8.148c-4.305-0.234-7.387-3.918-6.848-8.195c0.538-4.273-2.351-8.948-6.416-10.374  c-4.061-1.436-5.979-5.842-4.259-9.79c1.718-3.951,0.268-9.24-3.233-11.767c-3.502-2.52-4.1-7.285-1.331-10.594  c2.76-3.307,2.855-8.793,0.213-12.198c-2.646-3.4-1.877-8.146,1.708-10.537c3.585-2.395,5.222-7.634,3.642-11.648  c-1.579-4.009,0.492-8.345,4.601-9.632c4.113-1.284,7.161-5.849,6.78-10.143c-0.39-4.292,2.822-7.865,7.128-7.944  c4.312-0.077,8.526-3.595,9.368-7.821c0.836-4.23,4.917-6.759,9.082-5.615c4.15,1.146,9.185-1.05,11.183-4.869  c1.997-3.817,6.628-5.092,10.293-2.826c3.665,2.262,9.109,1.578,12.105-1.524c2.989-3.102,7.794-3.019,10.676,0.188  c2.873,3.208,8.295,4.085,12.038,1.951c3.747-2.136,8.327-0.7,10.189,3.189c1.858,3.888,6.813,6.257,11.008,5.262  c4.193-0.993,8.188,1.676,8.878,5.929c0.693,4.255,4.777,7.927,9.077,8.151c4.3,0.23,7.382,3.917,6.846,8.192  c-0.537,4.278,2.349,8.946,6.412,10.377c4.071,1.433,5.987,5.834,4.263,9.786c-1.715,3.95-0.266,9.246,3.232,11.765  c3.498,2.517,4.099,7.289,1.332,10.594C203.875,122.194,203.78,127.685,206.427,131.087z"/>
<g>
	<path fill="#141412" d="M83.046,110.993h3.697v18.353h-3.697V110.993z"/>
</g>
<g>
	<rect x="83.086" y="103.587" fill="#141412" width="3.694" height="3.688"/>
</g>
<g>
	<path fill="#141412" d="M123.996,110.993h3.695v18.472h-3.695V110.993z"/>
</g>
<g>
	<rect x="124.032" y="103.587" fill="#141412" width="3.697" height="3.688"/>
</g>
<g>
	<path fill="#141412" d="M64.214,129.367H60.96l-4.782-18.351h3.916l2.46,11.728h0.073l2.46-11.728h3.908L64.214,129.367z"/>
</g>
<g>
	<path fill="#141412" d="M69.594,117.17c0-1.483,0.178-2.79,0.685-3.732c0.873-1.589,2.572-2.643,4.82-2.643   c2.246,0,3.945,1.052,4.816,2.643c0.507,0.941,0.689,2.246,0.689,3.732v6.039c0,1.485-0.183,2.789-0.689,3.736   c-0.872,1.589-2.571,2.644-4.816,2.644c-2.247,0-3.947-1.053-4.82-2.644c-0.507-0.943-0.685-2.249-0.685-3.736V117.17   L69.594,117.17z M73.29,123.79c0,1.375,0.687,2.105,1.812,2.105c1.122,0,1.806-0.729,1.806-2.105v-7.204   c0-1.374-0.684-2.098-1.806-2.098c-1.125,0-1.812,0.722-1.812,2.098V123.79L73.29,123.79z"/>
</g>
<g>
	<path fill="#141412" d="M131.03,110.999h3.698v1.779h0.072c0.763-1.157,1.776-1.991,3.477-1.991c1.845,0,3.8,1.193,3.8,4.488   v14.082h-3.694v-12.71c0-1.333-0.649-2.172-1.81-2.172c-1.373,0-1.848,0.904-1.848,2.537v12.345h-3.693V111L131.03,110.999   L131.03,110.999L131.03,110.999z"/>
</g>
<g>
	<path fill="#141412" d="M152.1,127.473h-0.071c-0.977,1.333-1.776,2.097-3.547,2.097c-1.707,0-3.985-0.827-3.985-4.884   c0-4.198,1.195-6.226,5.834-6.226c0.506,0,1.007,0.067,1.77,0.104v-1.918c0-1.228-0.463-2.169-1.846-2.169   c-0.94,0-1.883,0.654-2.099,1.846h-3.587c0.109-1.628,0.692-3.003,1.665-3.98c0.985-0.983,2.354-1.559,4.021-1.559   c3.075,0,5.541,1.955,5.541,5.795v12.78h-3.698L152.1,127.473L152.1,127.473z M152.1,121.463c-0.396-0.074-0.684-0.111-1.015-0.111   c-1.597,0-2.892,0.654-2.892,2.609c0,1.408,0.723,2.354,1.918,2.354c1.226,0,1.991-0.869,1.991-2.354L152.1,121.463L152.1,121.463z   "/>
</g>
<g>
	<path fill="#141412" d="M162.201,131.492c0.029,0.87,0.688,1.81,1.952,1.81c1.197,0,1.706-0.838,1.706-1.99v-3.625h-0.078   c-0.794,1.197-1.951,1.883-3.437,1.883c-1.484,0-2.572-0.543-3.224-1.732c-0.431-0.802-0.614-1.926-0.614-3.952V116.9   c0-2.641,0.104-3.693,0.576-4.454c0.616-0.976,1.52-1.664,3.292-1.664c1.815,0,2.535,0.833,3.479,1.882v-1.67h3.692v20.6   c0,2.498-1.632,5.393-5.54,5.393c-2.246,0-5.039-1.306-5.503-5.5h3.694v0.004h0.001L162.201,131.492L162.201,131.492z    M162.201,123.707c0,1.16,0.397,2.167,1.813,2.167c1.042,0,1.845-0.827,1.845-1.988v-7.126c0-1.342-0.724-2.284-1.845-2.284   c-1.265,0-1.813,1.018-1.813,2.497V123.707z"/>
</g>
<g>
	<path fill="#141412" d="M175.951,121.572v2.494c0,1.163,0.695,1.81,1.816,1.81c1.414,0,1.738-1.048,1.808-1.842h3.691   c0,1.52-0.545,2.933-1.48,3.906c-0.978,1.015-2.317,1.629-4.019,1.629c-2.246,0-3.947-1.049-4.813-2.646   c-0.508-0.935-0.691-2.239-0.691-3.726v-6.044c0-1.481,0.178-2.789,0.691-3.729c0.866-1.589,2.567-2.646,4.813-2.646   c3.4,0,5.499,2.5,5.499,5.72v5.07L175.951,121.572L175.951,121.572z M175.951,118.679h3.624v-2.102c0-1.38-0.69-2.106-1.808-2.106   c-1.121,0-1.816,0.724-1.816,2.106V118.679L175.951,118.679z"/>
</g>
<g>
	<path fill="#141412" d="M193.391,116.141c-0.037-1.227-0.903-1.882-1.881-1.882c-1.153,0-1.81,0.904-1.81,1.847   c0,0.684,0.182,1.339,1.558,1.882l2.164,0.872c2.752,1.047,3.619,2.999,3.619,5.175c0,3.042-2.313,5.538-5.502,5.538   c-2.896,0-5.352-1.914-5.497-5.538h3.474c0.141,1.015,0.617,2.059,1.989,2.059c1.044,0,2.06-0.763,2.06-1.988   c0-1.015-0.438-1.699-1.845-2.247l-1.771-0.647c-2.313-0.872-3.731-2.61-3.731-5.071c0-3.116,2.46-5.355,5.427-5.355   c3.005,0,5.173,2.318,5.212,5.355L193.391,116.141L193.391,116.141z"/>
</g>
<g>
	<g>
		<path fill="#141412" d="M118.225,126.189c-2.065-1.846-4.658-2.707-7.308-2.428c-2.677,0.281-5.09,1.69-6.811,3.967l0.007,0.005    c0.006-0.013,0.017-0.018,0.02-0.02l3.11,2.807c2.115-2.782,5.879-3.178,8.435-0.899c-0.007-0.012-0.012-0.016-0.019-0.021    L118.225,126.189z"/>
	</g>
	<g>
		<path fill="#141412" d="M118.282,126.232c-0.007-0.018-0.028-0.021-0.038-0.031c0.01,0.016,0.026,0.024,0.038,0.038V126.232z"/>
	</g>
	<g>
		<path fill="#141412" d="M95.678,128.634L95.678,128.634c-2.568-2.32-2.933-6.499-0.814-9.313c1.025-1.36,2.419-2.37,4.022-2.538    c1.299-0.135,2.623-0.091,3.73,0.635v-4.396c-1.296-0.459-2.665-0.631-4.06-0.483c-2.684,0.281-5.093,1.69-6.812,3.964    c-3.521,4.683-2.923,11.627,1.332,15.516l2.566-3.413C95.651,128.618,95.66,128.622,95.678,128.634z"/>
	</g>
	<g>
		<path fill="#141412" d="M104.11,127.733c-2.112,2.779-5.878,3.179-8.435,0.9l-2.57,3.415c-0.013-0.009-0.019-0.022-0.033-0.03    l-0.004,0.008c4.289,3.87,10.648,3.203,14.179-1.496l-0.01-0.006c0,0.009-0.01,0.019-0.019,0.023L104.11,127.733z"/>
	</g>
	<g>
		<path fill="#141412" d="M104.11,127.733l3.106,2.812c0.012-0.005,0.019-0.018,0.019-0.024l-3.111-2.807    C104.125,127.718,104.115,127.721,104.11,127.733z"/>
	</g>
	<g>
		<path fill="#141412" d="M95.678,128.634c-0.016-0.013-0.026-0.019-0.039-0.029l-2.565,3.413c0.015,0.01,0.021,0.024,0.031,0.033    L95.678,128.634z"/>
	</g>
	<g>
		<path fill="#141412" d="M118.225,126.188v0.002c0.005,0,0.013,0.013,0.019,0.013C118.234,126.201,118.234,126.189,118.225,126.188    z"/>
	</g>
	<g>
		<path fill="#141412" d="M121.842,133.645c-0.257-2.904-1.522-5.527-3.558-7.404l-2.573,3.412c-0.007-0.011-0.021-0.02-0.036-0.026    c1.23,1.118,2.002,2.695,2.154,4.447c0.151,1.761-0.323,3.484-1.354,4.847c-2.04,2.712-5.487,3.36-8.214,1.664v4.45    c3.924,1.62,8.522,0.442,11.332-3.294C121.301,139.455,122.101,136.583,121.842,133.645z"/>
	</g>
	<g>
		<path fill="#141412" d="M118.282,126.236c-0.015-0.011-0.028-0.024-0.038-0.035c-0.01,0-0.018-0.012-0.019-0.012l-2.571,3.413    c0.011,0.006,0.016,0.01,0.019,0.019c0.016,0.016,0.027,0.021,0.036,0.027L118.282,126.236z"/>
	</g>
	<g>
		<path fill="#141412" d="M108.26,145.028"/>
	</g>
	<g>
		<path fill="#141412" d="M108.26,140.037"/>
	</g>
</g>
<g>
	<g>
		<path fill="#141412" d="M63.312,141.123v3.839h-0.678v-3.839h-1.223v-0.604h3.119v0.604H63.312z"/>
	</g>
	<g>
		<path fill="#141412" d="M66.94,144.96v-1.94c0-0.475-0.278-0.692-0.633-0.692c-0.357,0-0.643,0.219-0.643,0.692v1.94h-0.638    v-4.442h0.638v1.597c0.219-0.235,0.505-0.354,0.817-0.354c0.705,0,1.097,0.475,1.097,1.162v2.037L66.94,144.96L66.94,144.96z"/>
	</g>
	<g>
		<path fill="#141412" d="M68.827,143.565c0,0.544,0.286,0.886,0.807,0.886c0.353,0,0.545-0.1,0.771-0.324l0.401,0.38    c-0.324,0.325-0.626,0.492-1.185,0.492c-0.791,0-1.424-0.42-1.424-1.619c0-1.031,0.536-1.617,1.343-1.617    c0.849,0,1.341,0.619,1.341,1.521v0.281H68.827z M70.164,142.688c-0.104-0.239-0.327-0.4-0.626-0.4s-0.528,0.165-0.628,0.4    c-0.06,0.146-0.077,0.241-0.081,0.433h1.424C70.243,142.93,70.223,142.838,70.164,142.688z M69.715,141.222h-0.48l0.466-1.014    h0.704L69.715,141.222z"/>
	</g>
	<g>
		<path fill="#141412" d="M73.226,144.96v-0.283c-0.234,0.235-0.448,0.319-0.844,0.319c-0.392,0-0.657-0.088-0.845-0.283    c-0.162-0.172-0.245-0.41-0.245-0.679c0-0.528,0.367-0.912,1.092-0.912h0.838v-0.229c0-0.397-0.204-0.59-0.696-0.59    c-0.35,0-0.517,0.079-0.692,0.305l-0.418-0.393c0.294-0.354,0.611-0.456,1.133-0.456c0.866,0,1.304,0.365,1.304,1.086v2.111    L73.226,144.96L73.226,144.96z M73.164,141.222l-0.544-0.604l-0.544,0.604h-0.533l0.808-1.001h0.534l0.808,1.001H73.164z     M73.216,143.565H72.47c-0.373,0-0.565,0.169-0.565,0.455c0,0.29,0.181,0.451,0.582,0.451c0.243,0,0.426-0.02,0.594-0.18    c0.094-0.094,0.136-0.243,0.136-0.469V143.565L73.216,143.565z"/>
	</g>
	<g>
		<path fill="#141412" d="M75.574,144.96c-0.591,0-0.867-0.421-0.867-0.876v-1.744h-0.359v-0.489h0.359v-0.958h0.639v0.958h0.608    v0.489h-0.608v1.709c0,0.236,0.114,0.367,0.348,0.367h0.26v0.542L75.574,144.96L75.574,144.96z"/>
	</g>
	<g>
		<path fill="#141412" d="M78.31,142.541c-0.142-0.143-0.258-0.212-0.476-0.212c-0.346,0-0.633,0.271-0.633,0.712v1.919h-0.634    v-3.161h0.623v0.345c0.162-0.23,0.483-0.381,0.843-0.381c0.308,0,0.541,0.081,0.756,0.297L78.31,142.541z"/>
	</g>
	<g>
		<path fill="#141412" d="M79.378,143.565c0,0.544,0.285,0.886,0.805,0.886c0.354,0,0.544-0.1,0.77-0.324l0.404,0.38    c-0.324,0.325-0.627,0.492-1.187,0.492c-0.788,0-1.421-0.42-1.421-1.619c0-1.031,0.533-1.617,1.342-1.617    c0.846,0,1.342,0.619,1.342,1.521v0.281H79.378z M80.715,142.688c-0.105-0.239-0.328-0.4-0.628-0.4    c-0.292,0-0.528,0.165-0.628,0.4c-0.059,0.146-0.075,0.241-0.078,0.433h1.421C80.791,142.93,80.773,142.838,80.715,142.688z"/>
	</g>
	<g>
		<path fill="#141412" d="M86.318,144.96l-0.36-0.437c-0.195,0.169-0.559,0.473-1.227,0.473c-0.929,0-1.44-0.512-1.44-1.321    c0-0.62,0.443-0.965,0.882-1.256c-0.202-0.23-0.463-0.54-0.463-0.955c0-0.563,0.427-0.985,1.085-0.985    c0.634,0,1.052,0.423,1.052,0.989c0,0.35-0.188,0.596-0.469,0.786c0,0-0.22,0.148-0.322,0.228l0.936,1.118    c0.161-0.235,0.229-0.494,0.239-0.895h0.612c-0.02,0.562-0.139,1.018-0.447,1.367l0.746,0.882L86.318,144.96L86.318,144.96z     M84.518,142.817c-0.322,0.229-0.593,0.435-0.593,0.847c0,0.443,0.344,0.752,0.807,0.752c0.293,0,0.549-0.079,0.845-0.344    L84.518,142.817z M84.793,141.035c-0.277,0-0.435,0.187-0.435,0.434c0,0.182,0.119,0.352,0.348,0.616    c0.067-0.045,0.206-0.138,0.206-0.138c0.18-0.123,0.324-0.259,0.324-0.465C85.237,141.229,85.056,141.035,84.793,141.035z"/>
	</g>
	<g>
		<path fill="#141412" d="M91.811,144.543c-0.281,0.287-0.683,0.419-1.146,0.419h-1.56v-4.44h1.56c0.461,0,0.865,0.136,1.146,0.412    c0.479,0.484,0.446,1.133,0.446,1.777C92.257,143.353,92.29,144.067,91.811,144.543z M91.35,141.424    c-0.19-0.205-0.437-0.301-0.76-0.301h-0.813v3.238h0.813c0.32,0,0.568-0.096,0.76-0.305c0.226-0.255,0.237-0.732,0.237-1.346    C91.588,142.099,91.578,141.68,91.35,141.424z"/>
	</g>
	<g>
		<path fill="#141412" d="M94.689,144.96v-0.283c-0.233,0.235-0.453,0.319-0.846,0.319c-0.392,0-0.654-0.088-0.846-0.283    c-0.166-0.172-0.247-0.41-0.247-0.679c0-0.528,0.365-0.912,1.09-0.912h0.838v-0.229c0-0.397-0.2-0.59-0.695-0.59    c-0.345,0-0.517,0.079-0.688,0.305l-0.424-0.393c0.301-0.354,0.615-0.456,1.138-0.456c0.87,0,1.305,0.365,1.305,1.086v2.111    L94.689,144.96L94.689,144.96z M94.677,143.565h-0.739c-0.376,0-0.565,0.169-0.565,0.455c0,0.29,0.178,0.451,0.581,0.451    c0.239,0,0.418-0.02,0.59-0.18c0.094-0.094,0.135-0.243,0.135-0.469L94.677,143.565L94.677,143.565z"/>
	</g>
	<g>
		<path fill="#141412" d="M98.024,144.96v-1.93c0-0.489-0.281-0.703-0.637-0.703c-0.356,0-0.658,0.219-0.658,0.703v1.93h-0.638    v-3.162h0.629v0.316c0.218-0.236,0.523-0.354,0.844-0.354c0.322,0,0.589,0.104,0.774,0.286c0.244,0.239,0.32,0.542,0.32,0.894    v2.019L98.024,144.96L98.024,144.96z"/>
	</g>
	<g>
		<path fill="#141412" d="M100.459,144.996c-0.511,0-0.953-0.084-1.33-0.456l0.42-0.413c0.258,0.26,0.602,0.331,0.91,0.331    c0.394,0,0.695-0.137,0.695-0.44c0-0.205-0.119-0.348-0.424-0.371l-0.506-0.04c-0.594-0.054-0.937-0.319-0.937-0.879    c0-0.615,0.533-0.968,1.189-0.968c0.479,0,0.883,0.102,1.179,0.355l-0.399,0.408c-0.203-0.171-0.48-0.236-0.78-0.236    c-0.382,0-0.578,0.174-0.578,0.404c0,0.189,0.105,0.336,0.438,0.358l0.501,0.052c0.595,0.047,0.941,0.326,0.941,0.894    C101.779,144.656,101.216,144.996,100.459,144.996z"/>
	</g>
	<g>
		<path fill="#141412" d="M102.82,143.565c0,0.544,0.286,0.886,0.809,0.886c0.352,0,0.544-0.1,0.767-0.324l0.405,0.38    c-0.326,0.325-0.628,0.492-1.186,0.492c-0.795,0-1.424-0.42-1.424-1.619c0-1.031,0.537-1.617,1.343-1.617    c0.845,0,1.341,0.619,1.341,1.521v0.281H102.82z M104.158,142.688c-0.1-0.239-0.324-0.4-0.623-0.4s-0.534,0.165-0.627,0.4    c-0.064,0.146-0.077,0.241-0.085,0.433h1.428C104.238,142.93,104.221,142.838,104.158,142.688z"/>
	</g>
</g>
<g>
	<g>
		<path fill="#141412" d="M122.41,143.513c0,0.534,0.281,0.872,0.796,0.872c0.352,0,0.535-0.094,0.757-0.318l0.399,0.37    c-0.319,0.321-0.623,0.49-1.173,0.49c-0.78,0-1.408-0.41-1.408-1.6c0-1.005,0.523-1.592,1.324-1.592    c0.841,0,1.327,0.614,1.327,1.498v0.28L122.41,143.513L122.41,143.513z M123.73,142.648c-0.1-0.23-0.325-0.395-0.621-0.395    c-0.291,0-0.523,0.164-0.619,0.395c-0.062,0.139-0.077,0.239-0.081,0.428h1.407C123.804,142.888,123.79,142.789,123.73,142.648z"/>
	</g>
	<g>
		<path fill="#141412" d="M126.974,144.889v-1.895c0-0.487-0.277-0.696-0.625-0.696c-0.349,0-0.643,0.209-0.643,0.696v1.895h-0.626    v-3.117h0.613v0.314c0.221-0.241,0.514-0.354,0.83-0.354c0.325,0,0.592,0.105,0.772,0.287c0.24,0.227,0.313,0.522,0.313,0.877    v1.996L126.974,144.889L126.974,144.889z"/>
	</g>
	<g>
		<path fill="#141412" d="M131.404,143.165h-0.999v1.724h-0.666v-4.384h1.669c0.856,0,1.399,0.573,1.399,1.334    C132.803,142.6,132.26,143.165,131.404,143.165z M131.366,141.104h-0.96v1.457h0.96c0.463,0,0.772-0.26,0.772-0.723    C132.143,141.376,131.827,141.104,131.366,141.104z"/>
	</g>
	<g>
		<path fill="#141412" d="M134.966,144.889v-0.279c-0.231,0.229-0.442,0.317-0.828,0.317c-0.394,0-0.651-0.089-0.838-0.28    c-0.165-0.173-0.245-0.409-0.245-0.67c0-0.529,0.358-0.899,1.074-0.899h0.828v-0.223c0-0.395-0.197-0.586-0.683-0.586    c-0.347,0-0.507,0.08-0.689,0.306l-0.407-0.395c0.294-0.348,0.605-0.447,1.12-0.447c0.856,0,1.29,0.359,1.29,1.071v2.084    L134.966,144.889L134.966,144.889z M134.953,143.513h-0.731c-0.371,0-0.561,0.163-0.561,0.447c0,0.282,0.182,0.445,0.569,0.445    c0.245,0,0.421-0.021,0.583-0.18c0.09-0.095,0.136-0.242,0.136-0.464v-0.249H134.953z"/>
	</g>
	<g>
		<path fill="#141412" d="M137.334,145.512c-0.062,0.17-0.134,0.292-0.23,0.387c-0.172,0.175-0.398,0.229-0.639,0.229h-0.254v-0.564    h0.162c0.269,0,0.356-0.08,0.449-0.335l0.176-0.486l-1.091-2.97h0.666l0.741,2.195l0.724-2.195h0.673L137.334,145.512z"/>
	</g>
	<g>
		<path fill="#141412" d="M140.052,144.925c-0.507,0-0.937-0.085-1.307-0.454l0.408-0.407c0.255,0.255,0.593,0.323,0.896,0.323    c0.391,0,0.689-0.131,0.689-0.427c0-0.21-0.123-0.347-0.422-0.374l-0.502-0.041c-0.581-0.05-0.92-0.314-0.92-0.863    c0-0.61,0.522-0.952,1.176-0.952c0.469,0,0.873,0.096,1.153,0.353l-0.394,0.399c-0.2-0.168-0.474-0.229-0.771-0.229    c-0.375,0-0.564,0.162-0.564,0.399c0,0.179,0.098,0.323,0.432,0.356l0.494,0.04c0.582,0.05,0.927,0.325,0.927,0.882    C141.351,144.59,140.801,144.925,140.052,144.925z"/>
	</g>
	<g>
		<path fill="#141412" d="M145,144.889v-0.334c-0.228,0.285-0.486,0.37-0.818,0.37c-0.317,0-0.59-0.104-0.771-0.277    c-0.317-0.312-0.347-0.847-0.347-1.321c0-0.477,0.029-1.004,0.347-1.319c0.177-0.17,0.441-0.277,0.758-0.277    c0.334,0,0.588,0.077,0.82,0.353v-1.578h0.627v4.383L145,144.889L145,144.889z M144.342,142.292c-0.562,0-0.651,0.478-0.651,1.034    c0,0.555,0.087,1.042,0.651,1.042c0.568,0,0.647-0.487,0.647-1.042C144.99,142.771,144.913,142.292,144.342,142.292z"/>
	</g>
	<g>
		<path fill="#141412" d="M146.886,143.513c0,0.534,0.282,0.872,0.792,0.872c0.356,0,0.541-0.094,0.761-0.318l0.398,0.37    c-0.319,0.321-0.62,0.49-1.173,0.49c-0.778,0-1.401-0.41-1.401-1.6c0-1.005,0.522-1.592,1.322-1.592    c0.837,0,1.322,0.614,1.322,1.498v0.28L146.886,143.513L146.886,143.513z M148.203,142.648c-0.097-0.23-0.319-0.395-0.614-0.395    c-0.296,0-0.521,0.164-0.623,0.395c-0.061,0.139-0.07,0.239-0.079,0.428h1.404C148.282,142.888,148.264,142.789,148.203,142.648z"/>
	</g>
	<g>
		<path fill="#141412" d="M151.672,144.889c-0.6,0-0.856-0.398-0.856-0.861v-3.522h0.625v3.483c0,0.244,0.086,0.362,0.341,0.362    h0.277v0.538H151.672L151.672,144.889z"/>
	</g>
	<g>
		<path fill="#141412" d="M154.238,144.889v-0.279c-0.227,0.229-0.445,0.317-0.83,0.317c-0.389,0-0.648-0.089-0.838-0.28    c-0.16-0.173-0.244-0.409-0.244-0.67c0-0.529,0.361-0.899,1.075-0.899h0.825v-0.223c0-0.395-0.195-0.586-0.682-0.586    c-0.35,0-0.512,0.08-0.686,0.306l-0.414-0.395c0.295-0.348,0.608-0.447,1.123-0.447c0.858,0,1.289,0.359,1.289,1.071v2.084    L154.238,144.889L154.238,144.889z M154.223,143.513h-0.732c-0.364,0-0.561,0.163-0.561,0.447c0,0.282,0.184,0.445,0.581,0.445    c0.243,0,0.415-0.021,0.582-0.18c0.094-0.095,0.133-0.242,0.133-0.464L154.223,143.513L154.223,143.513z"/>
	</g>
	<g>
		<path fill="#141412" d="M156.991,144.889v-4.384h0.664v3.79h2.112v0.594H156.991z"/>
	</g>
	<g>
		<path fill="#141412" d="M162.343,144.555c-0.207,0.211-0.511,0.37-0.935,0.37s-0.73-0.159-0.93-0.37    c-0.295-0.303-0.37-0.697-0.37-1.225c0-0.525,0.075-0.922,0.37-1.221c0.202-0.211,0.507-0.374,0.93-0.374s0.731,0.163,0.935,0.374    c0.295,0.301,0.367,0.695,0.367,1.221C162.71,143.854,162.641,144.252,162.343,144.555z M161.87,142.471    c-0.117-0.122-0.278-0.177-0.461-0.177c-0.187,0-0.339,0.056-0.459,0.177c-0.188,0.187-0.215,0.518-0.215,0.855    s0.027,0.661,0.215,0.851c0.12,0.121,0.272,0.187,0.459,0.187c0.183,0,0.346-0.067,0.461-0.187    c0.188-0.189,0.215-0.513,0.215-0.851C162.084,142.992,162.061,142.66,161.87,142.471z"/>
	</g>
	<g>
		<path fill="#141412" d="M163.349,141.152v-0.667h0.662v0.667H163.349z M163.369,144.889v-3.117h0.626v3.117H163.369z"/>
	</g>
	<g>
		<path fill="#141412" d="M166.523,142.507c-0.14-0.146-0.253-0.213-0.47-0.213c-0.339,0-0.62,0.268-0.62,0.7v1.896h-0.628v-3.12    h0.621v0.334c0.16-0.219,0.469-0.37,0.828-0.37c0.304,0,0.534,0.08,0.748,0.293L166.523,142.507z"/>
	</g>
	<g>
		<path fill="#141412" d="M167.576,143.513c0,0.534,0.286,0.872,0.795,0.872c0.355,0,0.536-0.094,0.761-0.318l0.396,0.37    c-0.318,0.321-0.62,0.49-1.162,0.49c-0.786,0-1.407-0.41-1.407-1.6c0-1.005,0.514-1.592,1.323-1.592    c0.833,0,1.323,0.614,1.323,1.498v0.28L167.576,143.513L167.576,143.513z M168.897,142.648c-0.098-0.23-0.32-0.395-0.615-0.395    c-0.297,0-0.521,0.164-0.624,0.395c-0.057,0.139-0.075,0.239-0.079,0.428h1.408C168.977,142.888,168.958,142.789,168.897,142.648z    "/>
	</g>
</g>
</svg>