<svg xmlns="http://www.w3.org/2000/svg" xmlns:xlink="http://www.w3.org/1999/xlink" version="1.1" id="Calque_1" x="0px" y="0px" width="255.118px" height="170.078px" viewBox="0 0 255.118 170.078" enable-background="new 0 0 255.118 170.078" xml:space="preserve">
<path fill="#141412" d="M233.541,127.656c-0.004-0.026-0.009-0.053-0.017-0.079L220.37,81.642c-0.306-1.063-0.851-2.068-1.693-3.11  l0.693-0.116c1.085-0.266,2.296-0.97,3.61-2.103l0.236-0.216c1.087-1.036,1.894-2.213,2.343-3.434l0.394-1.312l0.548-1.25  c0.906-2.085,0.248-3.373-0.224-3.954l-33.025-40.719c-0.014-0.017-0.028-0.033-0.044-0.047c-0.518-0.612-1.271-0.995-2.151-1.104  c-0.33-0.067-0.691-0.1-1.046-0.095l-8.854-10.917c-1.503-1.866-5.297-2.086-11.099-0.667c-4.062,0.994-7.62,2.592-10.575,4.748  c-2.827,2.065-4.929,4.497-6.258,7.237l-1.811-2.23c-0.009-0.01-0.018-0.019-0.026-0.028c-1.428-1.721-3.953-2.594-7.508-2.594  c-2.353,0-5.119,0.385-8.224,1.145c-7.303,1.787-15.741,7.673-21.653,15.072l-4.796-5.915c-0.013-0.017-0.028-0.032-0.043-0.047  c-0.875-1.039-2.279-1.401-3.979-0.979l-1.661,0.447c-0.169,0.026-0.418,0.07-0.682,0.13c-0.447,0.057-0.843,0.154-1.08,0.212  c-3.85,0.942-5.604,2.743-7.674,5.951l-0.238,0.371c-0.043,0.062-0.086,0.127-0.086,0.127c-0.446,0.62-0.761,1.079-0.834,1.189  l-0.15,0.208c-0.771,1.079-1.211,1.693-1.575,2.249l-3.699-4.557c-0.014-0.018-0.03-0.035-0.046-0.05  c-0.446-0.525-1.282-1.125-2.767-1.125c-0.517,0-1.085,0.075-1.714,0.228c-0.335,0.083-0.794,0.197-1.37,0.423  c-0.537,0.202-0.768,0.266-0.794,0.275c-0.576,0.064-1.064,0.184-1.391,0.263c-1.151,0.282-5.05,1.594-6.914,6.657  c-0.307,1.017-0.578,1.867-0.815,2.561l-3.632-4.476c-0.009-0.012-0.019-0.024-0.029-0.036l-0.02-0.024l-0.001,0.001  c-0.006-0.006-0.012-0.011-0.018-0.017c-0.446-0.519-1.282-1.109-2.78-1.109c-0.585,0-1.251,0.09-1.98,0.268  c-0.429,0.105-0.632,0.178-1.096,0.35c-0.094,0.037-0.216,0.083-0.377,0.142c-0.612,0.017-1.114,0.141-1.416,0.216  c-1.35,0.33-2.779,1.109-4.067,2.211c-0.602-0.531-1.417-0.799-2.43-0.799c-1.105,0-2.375,0.311-3.739,0.643  c-3.584,0.876-7.507,2.812-11.355,5.601c-2.236-0.094-3.589,0.002-4.729,0.49c-0.782,0.336-1.412,0.827-1.874,1.459L11.805,77.443  c-0.007,0.01-0.014,0.021-0.02,0.031c-1.086,1.531-0.847,3.375-0.73,4.264c0.126,0.972,0.363,1.929,0.746,3.014  c0.539,1.503,0.544,1.543,0.596,1.933l0.182,1.399c0.038,0.294,0.096,0.738,0.22,1.214l0.044,0.531  c0.018,0.438,0.031,0.744,0.035,0.98c0,0.004,0.005,0.113,0.005,0.118c0.024,0.581,0.031,0.724,0.104,1.285l0.385,2.443  c0.245,1.932,0.332,3.234,0.352,3.57c0.007,0.255,0.009,0.471,0.011,0.682c-0.001,0.303,0.001,0.504,0.037,0.789  c0.052,0.399,0.105,0.812,0.277,1.531c0.113,0.526,0.196,1.148,0.292,1.87c0,0.005,0.014,0.106,0.015,0.11l0.1,0.62  c0.296,1.904,0.327,2.104,0.564,3.246c0.001,0.007,0.024,0.094,0.026,0.1c0.014,0.048,0.026,0.09,0.026,0.057  c0.001,0.169-0.003,0.5-0.021,1.025c-0.003,0.75,0.074,1.345,0.149,1.923c0.089,0.684,0.272,1.417,0.397,1.888  c0.059,0.27,0.093,0.459,0.109,0.525l0.033,1.1l0.079,0.776l-0.056,0.228c-0.226,1.044-0.277,2.062-0.152,3.022  c0.522,4.02,3.54,6.86,7.509,7.068l1.041,0.047l0.286-0.034c0.176-0.019,0.356-0.03,0.505-0.036c0.189,0.034,0.438,0.077,0.68,0.115  c0.695,0.141,1.294,0.224,1.834,0.252c2.988,0.164,4.54-1.057,5.272-2.065l10.532-14.471c0.055,0.255,0.078,0.398,0.087,0.465  l0.157,1.21c0.044,0.33,0.11,0.566,0.235,1c0.022,0.087,0.052,0.187,0.117,0.411l0.055,0.187c0.123,0.391,0.237,0.924,0.298,1.391  c0.1,0.771,0.108,0.835,0.009,1.73c-0.195,0.954-0.163,1.475-0.048,2.357c0.025,0.192,0.046,0.325,0.073,0.483  c0.005,0.106,0.014,0.353,0.022,0.684l0.053,1.393c0.119,1.543,0.914,3.07,2.238,4.299c1.577,1.475,3.794,2.422,5.989,2.537  c0.166,0.008,0.359,0.017,0.568,0.017c0.473,0,0.908-0.044,1.289-0.131l0.133-0.026c0.756,0.155,1.553,0.265,2.153,0.297  c1.327,0.074,2.535-0.269,3.5-0.962c1.1,0.688,2.394,1.088,3.775,1.158l2.792,0.087c0.081,0.005,0.257,0.02,0.534,0.064  c0.919,0.146,1.579,0.228,2.076,0.253c2.865,0.156,4.341-1.072,5.063-2.084l3.159-4.341c0.892,0.219,2.005,0.164,3.359-0.168  c0.083-0.02,0.167-0.041,0.265-0.066l1.776,0.151l0.41-0.005c0.002,0.012,0.004,0.023,0.006,0.035  c0.292,1.659,0.732,3.405,1.964,4.929c1.365,1.69,3.255,2.61,5.618,2.735c0.581,0.031,1.147-0.008,1.752-0.053l0.44-0.012  c0.286-0.013,0.637-0.025,0.713-0.027c0.237,0.013,0.643,0.076,1.272,0.199l0.66,0.084c0.063,0.004,0.141,0.013,0.248,0.025  l0.118,0.013c0.253,0.037,0.519,0.066,0.788,0.081c1.964,0.109,3.561-0.546,4.514-1.812c0.016-0.017,0.031-0.034,0.044-0.053  l0.221-0.304c1.2,1.386,2.87,2.261,4.881,2.555l7.513,26.235c0.007,0.024,0.016,0.049,0.026,0.071  c0.521,1.681,2.231,2.721,4.488,2.721c0.355,0,0.716-0.025,1.114-0.078l2.39-0.372l1.126-0.124c1.779-0.237,3.386-1.011,4.383-2.096  c2.393,0.911,4.9,1.253,6.989,0.973l1.519-0.176c0.994-0.133,2.092-0.476,3.013-0.94c0,0,0.005-0.002,0.012-0.006  c0.474,0.019,0.969-0.007,1.533-0.081l1.854-0.272c0.03-0.004,0.079-0.01,0.179-0.014c0.7-0.042,1.13-0.078,1.485-0.125  c2.899-0.388,4.971-1.842,5.741-4.011c0.13-0.014,0.266-0.029,0.404-0.048c0.352-0.047,0.786-0.105,1.365-0.225l0.933-0.201  c0.382,1.074,1.459,2.711,4.467,2.711c0.41,0,0.847-0.03,1.3-0.092c0.462-0.062,0.885-0.152,1.299-0.244l0.249-0.048  c0.186-0.038,0.339-0.068,0.407-0.08c0.157-0.021,0.434-0.029,0.642-0.036l0.567-0.044c0.001,0,0.125-0.01,0.127-0.01l0.222-0.019  c0.132-0.012,0.273-0.024,0.43-0.046c0.864-0.115,1.703-0.356,2.436-0.7c0.816,0.108,1.71,0.089,2.916-0.071l7.603-0.93  c4.289-0.572,8.394-2.232,11.64-4.696c0.803,1.775,2.873,2.652,5.785,2.262c0.207-0.027,0.658-0.088,1.042-0.191l0.663-0.043  c0.428,0,0.809-0.043,1.125-0.084c2.785-0.372,5.01-1.812,5.776-3.676c3.198,1.704,7.875,2.159,13.905,1.358  c5.183-0.692,10.106-2.725,12.528-5.164c0.228-0.209,0.454-0.427,0.694-0.657l0.416-0.396c1.752-1.596,2.922-3.194,3.458-4.71  c0.118-0.257,0.271-0.636,0.55-1.365c0.265-0.708,0.411-1.278,0.471-1.847l0.018-0.136c0.197-0.517,0.306-0.977,0.341-1.455  C233.846,129.306,233.765,128.472,233.541,127.656z M232.503,131.331c-0.006,0.019-0.029,0.101-0.033,0.119l-0.027,0.188  c-0.003,0.013-0.017,0.099-0.019,0.111c-0.041,0.428-0.168,0.918-0.4,1.538c-0.266,0.694-0.41,1.056-0.539,1.342  c-0.498,1.4-1.577,2.863-3.215,4.354l-0.426,0.405c-0.236,0.229-0.459,0.44-0.696,0.66c-2.292,2.308-6.99,4.228-11.967,4.892  c-6.14,0.817-10.81,0.3-13.8-1.534c-0.139-0.084-0.309-0.098-0.457-0.033c-0.148,0.062-0.258,0.193-0.293,0.352  c-0.391,1.756-2.453,3.176-5.132,3.533c-0.283,0.038-0.623,0.076-1.024,0.077l-0.783,0.058c-0.427,0.105-0.836,0.16-1.038,0.187  c-2.522,0.34-4.381-0.443-4.855-2.03c-0.007-0.023-0.016-0.047-0.026-0.069l-0.04-0.136c-0.047-0.16-0.172-0.286-0.331-0.336  c-0.159-0.047-0.334-0.016-0.464,0.09c-3.185,2.587-7.337,4.333-11.685,4.913l-6.634,0.775l-0.988,0.156  c-1.163,0.155-2.013,0.171-2.775,0.051c-0.103-0.016-0.208,0.001-0.3,0.046c-0.668,0.332-1.451,0.565-2.267,0.675  c-0.14,0.019-0.266,0.029-0.421,0.043l-0.173,0.015c-0.05,0.003-0.104,0.006-0.129,0.011l-0.543,0.042  c-0.215,0.007-0.536,0.019-0.738,0.045c-0.094,0.017-0.259,0.049-0.451,0.088l-0.258,0.05c-0.4,0.089-0.796,0.175-1.229,0.233  c-0.408,0.055-0.801,0.082-1.166,0.082c-2.38,0-3.251-1.171-3.559-2.144l-0.079-0.271c-0.067-0.231-0.295-0.382-0.532-0.356  l-1.435,0.281c-0.546,0.112-0.959,0.169-1.292,0.213c-0.244,0.032-0.479,0.056-0.692,0.074c-0.206,0.019-0.38,0.162-0.437,0.36  c-0.565,1.979-2.347,3.267-5.016,3.624c-0.338,0.044-0.746,0.078-1.401,0.117c-0.135,0.005-0.214,0.015-0.28,0.023l-1.844,0.271  c-0.55,0.073-1.03,0.093-1.477,0.066c-0.081,0.009-0.302,0.079-0.382,0.119c-0.824,0.416-1.807,0.723-2.686,0.84l-1.519,0.177  c-2.056,0.272-4.49-0.096-6.827-1.04c-0.207-0.083-0.443-0.021-0.582,0.156c-0.808,1.033-2.292,1.783-3.96,2.006l-1.137,0.126  l-2.401,0.373c-2.353,0.316-4.092-0.507-4.519-2.001c-0.007-0.022-0.015-0.045-0.025-0.066l-7.583-26.483  c-0.056-0.194-0.224-0.337-0.425-0.359c-2.155-0.241-3.816-1.157-4.937-2.723c-0.094-0.131-0.244-0.208-0.405-0.209  c-0.001,0-0.001,0-0.002,0c-0.16,0-0.311,0.076-0.404,0.206l-0.571,0.785c-0.014,0.016-0.028,0.032-0.041,0.05  c-0.754,1.035-2.036,1.539-3.693,1.458c-0.238-0.013-0.472-0.04-0.716-0.075l-0.154-0.017c-0.105-0.013-0.206-0.023-0.272-0.026  l-0.53-0.068c-0.69-0.134-1.127-0.201-1.446-0.217c-0.111,0.001-0.479,0.014-0.77,0.026l-0.455,0.013  c-0.591,0.043-1.12,0.077-1.651,0.054c-2.065-0.109-3.711-0.905-4.891-2.366c-1.089-1.347-1.489-2.946-1.756-4.464  c-0.033-0.211-0.081-0.39-0.132-0.538c-0.07-0.204-0.259-0.342-0.479-0.338l-0.754,0.012l-1.815-0.157  c-0.06-0.011-0.206,0.021-0.265,0.038c-0.056,0.017-0.146,0.04-0.234,0.062c-1.342,0.324-2.404,0.356-3.148,0.087  c-0.208-0.072-0.443-0.002-0.574,0.177l-3.37,4.631c-0.583,0.816-1.807,1.784-4.201,1.671c-0.461-0.024-1.086-0.102-1.97-0.243  c-0.324-0.051-0.531-0.067-0.643-0.075l-2.799-0.087c-1.315-0.067-2.543-0.477-3.552-1.184c-0.186-0.131-0.436-0.12-0.609,0.026  c-0.813,0.687-1.92,1.012-3.104,0.962c-0.576-0.031-1.361-0.143-2.099-0.298c-0.063-0.013-0.127-0.014-0.19-0.003  c-0.078,0.014-0.164,0.03-0.266,0.053c-0.462,0.104-1.015,0.116-1.645,0.089c-1.909-0.101-3.89-0.948-5.302-2.268  c-1.141-1.059-1.824-2.353-1.922-3.624l-0.052-1.366c-0.008-0.334-0.018-0.588-0.022-0.698c-0.001-0.019-0.015-0.116-0.018-0.135  c-0.02-0.126-0.04-0.252-0.063-0.433c-0.104-0.805-0.13-1.214,0.043-2.072c0.115-1.025,0.107-1.154-0.004-2.016  c-0.068-0.521-0.196-1.119-0.333-1.555l-0.181-0.627c-0.105-0.363-0.157-0.55-0.191-0.809l-0.158-1.214  c-0.027-0.188-0.109-0.649-0.362-1.625c-0.048-0.187-0.201-0.329-0.391-0.365c-0.192-0.036-0.384,0.041-0.498,0.197l-11.169,15.348  c-0.873,1.196-2.363,1.756-4.41,1.653c-0.49-0.026-1.042-0.103-1.709-0.238c-0.256-0.04-0.498-0.083-0.683-0.115  c-0.029-0.005-0.122-0.01-0.151-0.01c-0.206,0-0.422,0.014-0.641,0.037l-0.208,0.032l-0.955-0.05  c-3.472-0.183-6.112-2.674-6.57-6.199c-0.11-0.848-0.064-1.75,0.135-2.669l0.073-0.298c0.013-0.056,0.018-0.113,0.012-0.169  l-0.084-0.826l-0.038-1.134c-0.025-0.146-0.062-0.351-0.131-0.661c-0.123-0.465-0.295-1.155-0.377-1.784  c-0.07-0.543-0.144-1.104-0.141-1.773c0.019-0.542,0.022-0.89,0.015-1.138c-0.011-0.064-0.028-0.139-0.072-0.289  c-0.226-1.094-0.256-1.29-0.55-3.176l-0.111-0.705c-0.094-0.712-0.183-1.385-0.308-1.961c-0.162-0.679-0.21-1.048-0.26-1.438  c-0.03-0.237-0.03-0.405-0.03-0.717c-0.001-0.167-0.003-0.389-0.011-0.668c-0.021-0.361-0.111-1.691-0.361-3.669l-0.386-2.445  c-0.067-0.511-0.072-0.644-0.099-1.278c-0.004-0.241-0.017-0.556-0.036-1.004l-0.062-0.671c-0.121-0.482-0.172-0.875-0.21-1.162  l-0.183-1.408c-0.064-0.484-0.086-0.574-0.644-2.13c-0.358-1.015-0.58-1.907-0.697-2.807c-0.1-0.77-0.309-2.37,0.577-3.587  c0.01-0.014,0.02-0.028,0.028-0.043l20.31-27.903c0.354-0.485,0.846-0.865,1.459-1.129c0.741-0.317,1.577-0.446,2.888-0.446  c0.478,0,1.009,0.018,1.58,0.042c0.112,0.006,0.225-0.029,0.316-0.096c3.789-2.769,7.643-4.684,11.162-5.544  c1.286-0.314,2.5-0.61,3.484-0.61c0.913,0,1.589,0.27,2.008,0.803c0.086,0.11,0.214,0.178,0.354,0.189  c0.135,0.009,0.276-0.037,0.379-0.131c1.239-1.145,2.695-1.984,3.996-2.302c0.288-0.071,0.723-0.179,1.285-0.189  c0.053-0.001,0.106-0.012,0.156-0.03c0.209-0.076,0.361-0.133,0.466-0.174c0.412-0.152,0.594-0.219,0.98-0.313  c1.851-0.452,3.13-0.259,3.794,0.557c0.018,0.021,0.037,0.042,0.058,0.06l4.144,5.11c0.108,0.134,0.28,0.198,0.45,0.181  c0.172-0.021,0.32-0.13,0.392-0.287l0.099-0.218c0.306-0.839,0.652-1.903,1.05-3.225c1.684-4.572,5.175-5.751,6.207-6.004  c0.298-0.073,0.749-0.183,1.32-0.25c0.141-0.033,0.425-0.116,0.982-0.325c0.521-0.204,0.944-0.309,1.272-0.391  c0.528-0.128,1.017-0.194,1.454-0.194c1.139,0,1.734,0.438,2.033,0.805c0.014,0.018,0.029,0.034,0.045,0.049l-0.001,0.001  l4.097,5.047c0.102,0.126,0.263,0.193,0.422,0.184c0.162-0.011,0.309-0.1,0.394-0.239c0.448-0.736,0.876-1.335,1.91-2.781  l0.16-0.223c0.082-0.123,0.391-0.573,0.852-1.217l0.325-0.497c1.967-3.05,3.527-4.654,7.072-5.521  c0.213-0.053,0.567-0.141,1.011-0.199c0.282-0.062,0.509-0.102,0.717-0.137l1.706-0.456c1.313-0.326,2.365-0.086,2.993,0.689  c0.01,0.013,0.021,0.024,0.032,0.036l5.162,6.364c0.096,0.118,0.212,0.167,0.394,0.185c0.152-0.001,0.296-0.073,0.39-0.193  c5.796-7.463,14.231-13.432,21.49-15.208c3.025-0.741,5.713-1.117,7.985-1.117c3.271,0,5.549,0.764,6.77,2.271  c0.014,0.016,0.027,0.031,0.042,0.045l2.265,2.792c0.111,0.137,0.287,0.207,0.458,0.18c0.174-0.024,0.322-0.138,0.391-0.299  c1.226-2.878,3.334-5.424,6.268-7.567c2.849-2.079,6.289-3.621,10.224-4.584c5.309-1.299,8.875-1.175,10.082,0.324l9.015,11.114  c0.104,0.128,0.265,0.195,0.429,0.184c0.311-0.025,0.697-0.002,1.074,0.072c0.679,0.085,1.224,0.361,1.576,0.796  c0.013,0.016,0.026,0.03,0.04,0.044L225.5,66.777c0.329,0.405,0.778,1.325,0.083,2.924l-0.567,1.305l-0.404,1.34  c-0.388,1.05-1.108,2.097-2.077,3.02l-0.218,0.199c-1.184,1.019-2.255,1.651-3.158,1.874l-1.534,0.217  c-0.187,0.023-0.344,0.148-0.408,0.324s-0.024,0.373,0.103,0.511c1.095,1.188,1.759,2.277,2.09,3.427l13.133,45.859  c0.003,0.025,0.008,0.052,0.016,0.078c0.209,0.727,0.286,1.474,0.233,2.279C232.763,130.509,232.675,130.88,232.503,131.331z"/>
<path fill="none" d="M232.12,127.879c0.01,0.032,0.022,0.061,0.032,0.092c-4.385-15.312-8.769-30.623-13.153-45.935  c-0.523-1.828-1.937-3.374-4.01-5.177c-2.283-1.953-7.234-2.584-13.6-1.736c-5.01,0.668-9.783,3.166-12.936,6.354  c-0.17-0.592-0.338-1.186-0.51-1.779c-0.23-0.808-1.049-1.415-2.371-1.722c-1.027-0.218-1.656-0.134-1.865-0.106l-0.146,0.019  l-0.142,0.031l-1.008,0.196c-0.088,0.003-0.18,0.008-0.283,0.015c-0.424,0.006-0.771,0.053-1.106,0.097  c-2.354,0.314-4.812,1.712-4.987,4.128l-0.009,0.108l0.009,0.111l0.026,0.235l0.019,0.266l0.008,0.053l0.006,0.054  c0.013,0.071,0.019,0.116,0.021,0.145c0.004,0.051,0.004,0.116,0.018,0.295l0.023,0.196l0.002,0.093  c0.012,0.093,0.004,0.095,0.053,0.458c-1.041-1.24-2.397-2.195-3.957-2.554c-0.248-0.062-0.414-0.097-0.539-0.127  c-0.293-0.066-0.334-0.075-1.057-0.282c-1.728-0.482-4.41-0.768-6.464-0.708l-1.069,0.067c-0.334,0.021-0.625,0.037-0.852,0.049  c-0.427,0.021-0.686,0.033-1.093,0.091l-0.789,0.127l-0.948,0.079l-0.191,0.016l-0.197,0.034l-1.458,0.248  c-0.118,0.012-0.237,0.023-0.353,0.028l-0.166,0.013l-0.168,0.022c-0.283,0.037-0.656,0.08-0.972,0.114  c-0.298,0.033-0.56,0.059-0.704,0.08c-1.107,0.146-4.753,0.882-4.986,4.097c-0.017,0.231,0.021,0.438,0.071,0.747  c0.015,0.099,0.032,0.209,0.05,0.351c0.047,0.255,0.049,0.58,0.02,0.992l-0.166,1.709c-0.04,0.539-0.061,0.806-0.004,1.533  c0.011,0.075,0.008,0.104,0.009,0.162l-0.138,0.788l-0.021,0.144l0.007,0.141l0.035,0.988l-0.064,0.443l-0.012,0.084l-0.002,0.088  l-0.014,0.647l-0.048,0.231c-0.118-0.19-0.271-0.399-0.47-0.668c-0.131-0.186-0.176-0.256-0.221-0.379  c-0.043-0.146-0.084-0.289-0.125-0.436c-0.086-0.303-0.207-0.598-0.363-0.885c-0.053-0.111-0.099-0.207-0.137-0.289  c-0.019-0.037-0.031-0.067-0.048-0.092c-0.224-0.772-0.28-0.938-0.54-1.34l-0.083-0.123c-0.063-0.109-0.106-0.182-0.139-0.242  l-0.211-0.737c-0.151-0.527-0.357-0.992-0.644-1.437c-0.283-0.442-0.496-0.772-0.672-1.035c-0.574-0.885-0.574-0.885-0.771-1.367  c-0.955-2.467-3.545-2.325-4.408-2.211l-1.271,0.196c-0.135,0.009-0.309,0.021-0.52,0.046c-0.355,0.016-0.66,0.056-0.846,0.08  c-3.256,0.435-4.465,1.668-5.361,3.525l-0.133,0.267c-0.189,0.325-0.325,0.57-0.383,0.672l-0.041,0.074  c-0.613,1.036-0.783,1.322-1.037,1.976l-0.045,0.11c-0.026,0.075-0.047,0.125-0.064,0.168c-0.031,0.051-0.068,0.109-0.129,0.201  l-0.062,0.094c-0.217,0.34-0.399,0.715-0.615,1.172c-0.402,0.869-0.622,1.312-0.86,1.72c-0.155,0.248-0.286,0.448-0.397,0.623  c-0.267-0.935-0.535-1.866-0.801-2.8c-0.359-1.25-1.375-2.398-2.963-3.312c-2.426-1.392-5.792-1.968-8.995-1.541l-0.189,0.028  l-2.504,0.438l-1.381,0.135c-0.164,0.02-0.472,0.064-0.865,0.141l-0.239,0.031c-0.108,0.011-0.487,0.043-0.967,0.062  c-0.404,0.018-0.955,0.057-1.357,0.109c-2.632,0.352-5.525,1.763-5.736,4.667c-0.024,0.325,0.047,0.778,0.211,1.351  c0.004,0.016,0.007,0.027,0.011,0.041c0.059,0.229,0.084,0.539,0.084,0.684l-0.137,0.856l-0.028,0.157l0.016,0.158l0.044,0.648  l-0.07,0.305l-0.056,0.246l0.027,0.232c-0.001,0.016,0.023,0.199,0.037,0.457l0.02,0.171c-0.004,0.056-0.008,0.112-0.013,0.175  c-0.037,0.5-0.092,0.821-0.134,1.03l-0.055,0.162c-0.152,0.474-0.207,0.631-0.22,0.962l-0.006,0.08  c-0.065,0.891-0.073,1.073-0.009,1.747c-0.033,0.171-0.074,0.44-0.138,0.868l-0.041,0.564c-0.018,0.25-0.02,0.491-0.022,0.687  c0.002,0.116,0,0.218-0.005,0.295l-0.015,0.196l0.021,0.084l-0.142,0.619l-0.024,0.107l-0.008,0.102  c-0.01,0.144,0.004,0.242,0.025,0.405c0.006,0.075,0.02,0.175,0.027,0.29l0.037,0.239c-0.023,0.104-0.077,0.317-0.217,0.76  c-0.186,0.636-0.275,1.062-0.299,1.382c-0.02,0.271,0.006,0.529,0.074,0.767c4.384,15.312,8.769,30.62,13.153,45.934  c-0.005-0.019-0.006-0.039-0.01-0.06c0.332,1.305,1.899,2.043,4.048,1.756l2.452-0.38l1.094-0.121  c1.676-0.224,3.409-1.052,4.058-2.443c2.488,1.138,5.065,1.62,7.324,1.319l0.668-0.088l0.838-0.088  c0.826-0.109,1.756-0.394,2.547-0.791c0.119-0.063,0.234-0.127,0.349-0.193c0.479,0.053,1.013,0.045,1.646-0.04l1.849-0.271  c0.054-0.008,0.151-0.021,0.308-0.028c0.639-0.037,1.055-0.071,1.381-0.115c1.646-0.22,4.4-1.026,4.795-3.95  c0.389-0.012,0.857-0.041,1.31-0.102c0.336-0.046,0.754-0.102,1.3-0.214c0.617-0.128,0.956-0.202,1.24-0.261l1.008-0.11l0.007-0.001  l0.261,0.908c0,0.002,0,0.004,0.002,0.007l0.006,0.015c-0.002-0.003-0.002-0.007-0.002-0.008c0.537,1.896,2.554,2.082,4.287,1.85  c0.408-0.054,0.791-0.137,1.215-0.229l0.236-0.046c0.207-0.044,0.375-0.075,0.502-0.097c0.194-0.026,0.535-0.039,0.777-0.047  l0.225-0.004l0.234-0.031c0.081-0.012,0.157-0.015,0.229-0.02c0.156-0.016,0.328-0.025,0.523-0.052  c0.911-0.121,1.729-0.395,2.396-0.774c0.692,0.154,1.606,0.184,2.924,0.008l1.037-0.164l6.599-0.771  c4.959-0.662,9.505-2.868,12.554-5.767l0.449,1.57c-0.008-0.021-0.009-0.049-0.014-0.072c0.367,1.449,1.996,2.157,4.421,1.834  c0.213-0.027,0.596-0.08,1.051-0.19l0.082-0.015c0.146-0.008,0.405-0.024,0.729-0.043c0.354,0.004,0.689-0.033,0.982-0.073  c2.672-0.355,4.699-1.847,4.821-3.544c0.019-0.237-0.001-0.493-0.079-0.903c-0.094-0.372-0.1-0.392-0.107-0.549  c2.686,2.729,7.752,3.651,15.049,2.679c4.908-0.652,9.498-2.533,11.748-4.797c0.221-0.202,0.438-0.413,0.674-0.641  c0.142-0.135,0.287-0.271,0.441-0.418c1.596-1.453,2.637-2.868,3.105-4.215c0.109-0.233,0.26-0.607,0.525-1.306  c0.219-0.585,0.346-1.062,0.381-1.458c0.019-0.113,0.041-0.297,0.07-0.408l0.028-0.096c0.159-0.412,0.235-0.743,0.262-1.076  C232.417,129.301,232.329,128.57,232.12,127.879z"/>
<path fill="#141412" d="M225.604,124.3c2.928,2.541,3.895,4.114,3.741,6.202c-0.013,0.198-0.071,0.4-0.171,0.667  c-0.109,0.321-0.104,0.233-0.186,0.858c-0.021,0.285-0.135,0.662-0.287,1.072c-0.26,0.678-0.457,1.176-0.507,1.241  c-0.325,1.019-1.155,2.164-2.483,3.375c-0.451,0.423-0.805,0.774-1.162,1.103c-1.613,1.668-5.377,3.146-9.279,3.666  c-10.227,1.361-14.891-1.336-14.385-8.301c0.359-4.959,6.717-10.191,13.514-11.099C219.758,122.371,223.883,122.826,225.604,124.3z   M214.284,139.49c4.993-0.667,8.838-3.856,9.104-7.551c0.022-0.311,0.004-0.646-0.052-1.002c-0.096-0.461-0.109-0.791-0.147-0.846  c0.006-0.668,0.006-0.668-0.219-1.004c-0.11-0.181-0.218-0.389-0.334-0.568c-0.751-1.658-4.154-2.822-7.085-2.432  c-5.493,0.732-8.205,3.133-9.229,8.127C206.704,138.688,208.958,140.2,214.284,139.49"/>
<path fill="#141412" d="M196.717,125.834c0.037-0.005,0.367,0.034,0.531,0.066c0.612,0.143,0.928,0.406,0.901,0.774  c-0.019,0.253-0.075,0.455-0.14,0.718c-0.055,0.23-0.059,0.258-0.12,0.547l-0.009,0.113l-0.057,0.172l-0.011,0.168l-0.058,0.18  l0.035,0.691l-0.084,0.568l-0.035,0.507l-0.084,0.541l0.065,0.886c-0.003,0.06-0.014,0.196-0.071,0.43  c-0.059,0.203-0.067,0.314-0.084,0.543c-0.047,0.646-0.025,0.949,0.021,1.447c-0.005,0.058-0.06,0.289-0.173,0.666  c-0.055,0.147-0.062,0.26-0.068,0.345v0.586l-0.146,0.858c-0.01,0.137-0.037-0.024,0.146,0.873  c-0.001,0.006-0.008,0.112-0.055,0.229c-0.054,0.146-0.062,0.259-0.075,0.43l-0.031,0.448c-0.056,0.179-0.064,0.311-0.066,0.316  l0.031,0.166c0.09,0.461,0.058,0.323,0.045,0.496l0.035,0.106c-0.012,0.168-0.004,0.055,0.021,0.304l-0.016,0.198l0.023,0.19  c-0.007,0.086-0.018,0.224-0.111,0.433c-0.061,0.229-0.074,0.403-0.08,0.487c0.065,0.83,0.051,0.496,0.049,1.052  c0.021,0.278,0.021,0.306,0.15,0.819c0.029,0.162,0.055,0.357,0.043,0.496c-0.039,0.565-0.65,0.979-1.654,1.113  c-0.127,0.018-0.338,0.045-0.461,0.035c-0.668,0.031-1.104,0.062-1.127,0.064c-0.125,0.017-0.377,0.05-0.67,0.117  c-0.213,0.059-0.425,0.086-0.588,0.106c-1.219,0.162-1.691-0.192-1.625-1.097c0.018-0.254,0.078-0.512,0.137-0.772  c0.162-0.466,0.27-0.847,0.276-0.93c0.005-0.054,0.009-0.112-0.028-0.222c-0.037-0.58-0.047-1.026-0.041-1.136  c0.004-0.03,0.01-0.144,0.062-0.262c0.078-0.458,0.1-0.769,0.111-0.937c0.039-0.537,0.015-0.199,0.262-1.375l0.016-0.225  l-0.021-0.251c0.026-0.339,0.005-0.054,0.021-0.841c0.006-0.083-0.009-0.473-0.051-1.026c-0.031-0.134-0.025-0.217-0.023-0.245  l0.25-1.15l0.035-0.508l0.094-0.682c0.01-0.143,0.027-0.367,0.008-0.701c-0.021-0.275-0.008-0.474-0.006-0.526  c-0.034-0.609-0.051-0.999-0.038-1.171c0.005-0.053,0.06-0.23,0.12-0.459c0.058-0.289,0.115-0.492,0.121-0.549l-0.026-0.25  c-0.077-0.629-0.052-0.412-0.073-0.688l-0.027-0.219c-0.017-0.307,0.011-0.139-0.045-0.498l-0.022-0.273l-0.019-0.247  c0.071-0.987,0.692-1.547,1.821-1.696c0.294-0.039,0.462-0.062,0.673-0.06c0.371-0.024,0.623-0.028,0.664-0.036L196.717,125.834z"/>
<path fill="#141412" d="M183.848,129.727c2.572,0.578,4.968,4.225,4.744,7.297c-0.354,4.879-6.303,9.608-13.262,10.537l-6.619,0.771  l-1.131,0.18c-1.846,0.246-2.156-0.05-2.035-1.741c0.022-0.311,0.039-0.531,0.154-0.938c0.057-0.231,0.067-0.403,0.068-0.429  l-0.068-1.332l0.03-0.451c0.088-0.598,0.166-1.082,0.231-1.398c0.061-0.313,0.117-0.518,0.123-0.576l-0.018-0.89l0.123-0.573  l0.014-0.785l0.084-0.568l-0.043-1.111l0.144-0.857c0.01-0.144,0.019-0.25-0.003-0.471c-0.045-0.582-0.029-0.777,0.007-1.291  l0.165-1.692c0.04-0.536,0.027-0.956-0.027-1.31c-0.058-0.384-0.117-0.683-0.109-0.797c0.078-1.072,0.565-1.5,1.82-1.665  c0.293-0.04,1.133-0.122,1.676-0.194c0.377-0.024,0.67-0.063,0.752-0.075l1.557-0.261l1.13-0.097l0.968-0.155  c0.163-0.021,0.707-0.041,1.502-0.093c0.036,0.023,0.414,0.005,0.911-0.032c1.628-0.08,3.976,0.166,5.397,0.562  C183.193,129.591,182.952,129.514,183.848,129.727z M174.69,144.407c3.896-0.521,8.18-4.052,8.391-6.957  c0.098-1.354-0.682-3.2-1.735-4.095c-1.099-0.942-2.476-1.349-4.64-1.338c-0.291,0.01-0.498-0.016-0.658-0.023  c-0.452-0.053-0.785-0.061-0.873-0.051l-1.006,0.164l-1.127,0.062c-0.588,0.079-1.246,0.561-1.227,0.891  c0.092,1.021,0.143,2.049,0.087,2.782c-0.006,0.083-0.067,0.345-0.174,0.691c-0.06,0.262-0.073,0.428-0.076,0.458l0.095,0.992  l-0.187,1.478l-0.022,0.312c0.017,0.305,0,0.502,0,0.528l-0.203,1.089l0.058,0.914c-0.002,0.026-0.015,0.168-0.063,0.369  c-0.061,0.232-0.123,0.493-0.14,0.746c-0.065,0.9,0.249,1.141,1.414,1.096c0.377-0.022,0.669-0.033,0.834-0.025  C174.018,144.468,174.434,144.439,174.69,144.407"/>
<path fill="#141412" d="M162.528,147.17c-0.035,0.512-0.096,1.309,0.236,2.012c-0.112,0.03-0.242,0.059-0.387,0.076  c-0.168,0.023-0.459,0.032-0.754,0.071c-0.543,0.019-0.916,0.039-1.252,0.083c-0.213,0.029-0.588,0.107-1.053,0.197  c-0.339,0.072-0.633,0.141-0.883,0.174c-1.217,0.16-1.568-0.182-1.559-1.441c0.029-0.975-0.736-1.689-1.627-1.57l-0.086,0.015  l-1.184,0.213l-1.126,0.124c-0.256,0.033-0.088,0.012-1.562,0.32c-0.377,0.074-0.674,0.115-0.969,0.152  c-0.293,0.041-0.709,0.071-1.166,0.073c-0.334,0.017-0.625,0.03-0.75,0.047c-1.385,0.185-2.404,1.046-2.518,2.093  c-0.09,1.24-0.499,1.685-1.67,1.842c-0.252,0.033-0.674,0.062-1.047,0.084c-0.332,0.017-0.582,0.05-0.67,0.061l-1.885,0.281  c-0.799,0.105-1.283-0.106-1.248-0.59c0.019-0.252,0.262-0.702,0.715-1.267c0.551-0.688,0.453-0.534,0.805-1.364  c0.051-0.092,0.191-0.332,0.422-0.643c0.65-0.951,0.697-1.015,1.51-3.104c0.102-0.209,0.102-0.209,0.903-1.543  c0.376-0.582,0.185-0.25,0.526-0.965c0.445-0.955,0.203-0.502,1.422-2.424c0.283-0.486,0.527-0.967,0.967-1.918  c0.197-0.416,0.344-0.715,0.486-0.928c0.328-0.521,0.279-0.43,0.481-0.932c0.206-0.53,0.298-0.681,0.959-1.803  c0.007-0.014,0.144-0.271,0.382-0.664c0.1-0.185,0.19-0.334,0.193-0.393c0.634-1.312,0.898-1.486,2.363-1.682  c0.168-0.022,0.382-0.051,0.586-0.051c0.379-0.051,0.628-0.058,0.668-0.062l1.471-0.224c0.629-0.084,1.223,0.342,1.539,1.162  c0.314,0.768,0.208,0.532,1.551,2.611c0.262,0.413,0.439,0.834,0.567,1.378c0.094,0.437,0.122,0.543,0.42,1.031  c0.26,0.413,0.231,0.276,0.495,1.192c-0.004,0.029,0.111,0.233,0.25,0.552c0.146,0.259,0.252,0.526,0.318,0.797  c0.166,0.592,0.199,0.642,0.5,1.078c0.568,0.76,0.608,0.812,0.789,1.733c0.041,0.024,0.074,0.161,0.188,0.312  c0.177,0.367,0.111,0.152,0.406,1.204c0.072,0.185,0.07,0.214,0.558,0.93c0.041,0.021,0.146,0.261,0.289,0.604  c0.155,0.326,0.183,0.371,0.455,0.688C162.545,146.927,162.538,147.049,162.528,147.17z M153.885,143.83  c0.324-0.044,0.732-0.389,0.75-0.633c0.005-0.082-0.029-0.19-0.102-0.293c-0.346-0.455-0.346-0.455-0.476-0.941  c-0.095-0.436-0.021-0.221-0.483-1.359c-0.064-0.215-0.168-0.508-0.271-0.83c-0.093-0.463-0.232-0.805-0.304-0.967  c-0.336-0.539-0.336-0.539-0.358-0.73l-0.034-0.133c-0.029-0.196,0.008-0.113-0.062-0.245l-0.035-0.107  c-0.033-0.133,0,0-0.137-0.428l-0.117-0.069l-0.049,0.094c-0.103,0.209-0.095,0.095-0.104,0.264  c-0.077,0.542-0.224,0.839-0.847,1.956c-0.383,0.667-0.479,0.874-0.729,1.407c-0.384,0.779-0.57,1.082-0.855,1.512  c-0.28,0.456-0.325,0.49-0.475,0.844c-0.092,0.153-0.004,0.028-0.193,0.361l-0.1,0.267l-0.146,0.241  c-0.016,0.225,0.638,0.416,1.186,0.343l1.131-0.175c0.125-0.018,0.295-0.039,0.584-0.055l0.506-0.066  c0.207-0.025,0.461-0.061,0.668-0.113c0.258-0.063,0.428-0.086,0.471-0.093l0.539-0.043L153.885,143.83"/>
<path fill="#141412" d="M138.815,139.725l0.08,1.188c-0.005,0.061-0.057,0.263-0.207,0.561c-0.098,0.236-0.2,0.475-0.298,0.684  c-0.784,2.226-3.411,4.64-5.877,5.447c-0.675,0.201-0.896,0.338-0.909,0.539c-0.014,0.168-0.053,0.115,0.633,0.473  c2.241,1.096,2.203,1.102,4.254,0.857c0.45-0.051,0.824-0.039,1.106,0.026l-0.084,0.104c-0.716,0.881-1.104,1.655-1.15,2.285  c-0.03,0.408,0.066,0.777,0.267,1.094c-0.178,0.054-0.354,0.092-0.482,0.108l-0.751,0.07l-0.756,0.103  c-2.351,0.312-5.634-0.812-8.428-2.896c-0.314-0.267-0.765-0.347-1.227-0.285c-0.585,0.078-0.823,0.444-0.881,1.263  c-0.014,0.197-0.018,0.229,0.183,0.951c0.099,0.354,0.146,0.82,0.127,1.071c-0.045,0.62-0.357,0.916-1.155,1.022l-1.083,0.113  l-2.566,0.401c-0.755,0.1-1.188-0.235-1.143-0.854c0.019-0.256,0.136-0.692,0.244-1.065c0.167-0.524,0.276-0.932,0.292-1.129  c0.01-0.141,0.018-0.254-0.051-0.412c-0.024-0.25-0.053-0.44-0.052-0.471l0.184-0.834c0.002-0.023,0.01-0.139-0.018-0.274  c0.017-0.228,0.002-0.614,0.028-0.979l0.041-0.565c0.081-0.513,0.144-0.892,0.147-0.912c-0.07-0.746-0.066-0.802,0-1.703  c0.022-0.31-0.036-0.104,0.234-0.929c0.064-0.284,0.13-0.686,0.176-1.305c0.016-0.228,0.03-0.424,0-0.533  c-0.021-0.303-0.047-0.508-0.048-0.52l0.125-0.52l-0.062-0.859l0.148-0.941c0.019-0.252-0.024-0.776-0.126-1.153  c-0.133-0.456-0.188-0.813-0.177-0.955c0.096-1.325,0.893-2.019,2.57-2.24c0.213-0.028,0.629-0.055,0.962-0.071  c0.626-0.029,1.167-0.072,1.335-0.094l0.418-0.057c0.383-0.08,0.675-0.119,0.713-0.124l1.381-0.13l2.694-0.469  c4.695-0.627,9.463,1.754,9.215,4.576L138.815,139.725z M131.694,144.077c1.512-1.427,1.977-2.104,1.956-2.968  c-0.008-1.59-1.911-2.842-4.153-2.825c-0.213,0.026-0.457,0.006-0.705,0.011c-0.207-0.025-0.375-0.034-0.455-0.021l-0.593,0.106  l-0.625,0.084c-1.135,0.151-1.891,0.866-2.003,1.828c-0.007,0.087-0.036,0.481-0.114,0.966l-0.023,0.311l0.007,1.617  c-0.005,0.06-0.015,0.198-0.066,0.4c-0.136,0.689-0.208,1.145-0.212,1.203c0.035,1.752,0.16,1.82,2.211,1.549  c0.754-0.102,0.968-0.159,2.25-0.72c0.172-0.081,0.431-0.17,0.811-0.278c0.854-0.281,0.854-0.281,1.531-1.04L131.694,144.077"/>
<path fill="none" d="M187.758,97.588c-0.07-0.477-0.215-0.984-0.438-1.554c-0.097-0.345-0.191-0.634-0.283-0.896  c-0.998-3.938-3.393-5.953-7.328-6.158c-0.65-0.033-1.285-0.013-1.931,0.082c-0.29,0.045-0.519,0.08-0.7,0.11  c-0.197,0.034-0.317,0.058-0.5,0.063c-1.219-0.063-3.557-2.301-5.125-5.603c3.627-4.986,7.258-9.971,10.887-14.957  c0.711-0.976,1.037-2.329,0.83-3.91c-0.724-3.319-1.153-5.324-2.701-6.876c-1.822-1.822-4.12-1.941-6.777-2.08  c-5.499-0.286-10.645,1.881-14.117,5.951c-0.281,0.331-0.551,0.673-0.806,1.025c-1.356,1.863-2.713,3.726-4.069,5.589l-0.012-0.173  l-0.133-1.02l-0.088-1.141l-0.02-0.178l-0.037-0.179l-0.252-1.213l0.014-0.221l-0.029-0.228l-0.018-0.133l0.002-0.133l0.015-0.226  l-0.03-0.233l-0.015-0.109l-0.005-0.266c-0.01-0.242-0.014-0.355-0.014-0.709v-0.236c-0.004-0.468-0.01-0.955-0.09-1.574  c-0.234-1.808-1.537-3.455-3.638-4.559c-0.88-0.435-1.625-0.675-2.203-0.705l-0.137-0.007l-0.134,0.008l-1.699,0.064  c-0.17-0.034-0.393-0.07-0.652-0.113c-0.543-0.117-0.97-0.139-1.46-0.165c-1.553-0.08-3.096,0.362-4.002,1.607  c-0.122,0.169-0.245,0.338-0.369,0.507c-0.975-1.388-2.497-2.472-4.679-2.585c-0.307-0.016-0.844-0.044-1.525,0.083  c-0.365,0.015-0.803,0.037-0.996,0.026c-0.213-0.011-0.562-0.064-0.963-0.124l-0.423-0.061c-0.269-0.034-0.521-0.066-0.743-0.093  c-0.578-0.074-0.926-0.122-1.218-0.137c-0.427-0.022-0.892-0.012-1.481,0.001c-0.207,0.004-0.433,0.012-0.856,0.024  c-1.108,0.08-1.736,0.062-1.955,0.051c-0.376-0.02-0.812-0.071-1.359-0.14c-0.195-0.025-0.4-0.05-0.621-0.077  c-0.252-0.028-0.505-0.061-0.731-0.092c-0.574-0.074-0.922-0.122-1.214-0.137c-0.553-0.029-1.347-0.012-2.739,0.069  c-0.236,0.017-0.398,0.009-0.669-0.005c-0.098-0.005-0.527-0.072-0.843-0.118l-0.195-0.025c-1.342-0.32-2.449-0.398-2.772-0.415  c-2.613-0.136-4.162,0.578-4.952,1.663l-4.296,5.901c-1.104-1.885-1.134-1.952-1.658-3.119c-1.948-4.514-4.773-5.144-5.981-5.202  l-2.037-0.052c-0.19-0.029-0.496-0.07-0.878-0.1c-0.477-0.088-0.889-0.11-1.155-0.124c-2.356-0.123-3.666,0.364-4.466,1.464  c-3.529,4.849-7.058,9.697-10.587,14.545c-0.036-0.331-0.107-1.285-0.152-2.509c0.005-0.565-0.043-0.932-0.086-1.219l-0.45-2.542  c-0.015-0.114-0.031-0.282-0.007-0.493l0.016-0.157l-0.005-0.162c-0.01-0.557-0.004-0.866,0.01-1.038l0.018-0.186  c0.214-2.016,0.266-2.496,0.12-3.615c-0.485-3.734-3.139-5.196-5.459-5.317c-0.182-0.01-0.368-0.009-0.611-0.002l-1.632,0.067  l-2.116-0.268c-0.2-0.025-0.373-0.039-0.545-0.048c-2.13-0.111-3.977,0.721-5.086,2.246c-2.17,2.981-4.34,5.963-6.51,8.944  c-0.123-0.176-0.265-0.378-0.433-0.614l-0.089-0.128l-0.104-0.123l-0.53-0.614l-0.269-0.275c-0.511-0.626-0.729-0.908-1.28-1.646  c-0.679-1-0.96-1.29-1.833-2.073c-0.755-0.713-0.869-0.833-1.779-2.336c-2.389-4.085-4.421-4.899-8.919-5.133  c-2.727-0.142-4.203-0.19-5.38,0.314c-0.588,0.254-1,0.599-1.284,0.989c-6.78,9.315-13.56,18.629-20.34,27.945  c0.008-0.012,0.019-0.022,0.027-0.033c-0.811,1.08-0.626,2.519-0.523,3.315c0.114,0.877,0.33,1.738,0.674,2.717  c0.593,1.654,0.6,1.708,0.667,2.229l0.181,1.394c0.04,0.301,0.09,0.691,0.214,1.17l0.046,0.357c0.027,0.646,0.044,1.061,0.05,1.34  c0.027,0.646,0.028,0.735,0.095,1.245l0.079,0.57l0.309,1.899c0.248,1.946,0.34,3.295,0.364,3.715  c0.008,0.301,0.009,0.552,0.011,0.724c-0.001,0.271,0,0.403,0.025,0.597c0.052,0.396,0.097,0.743,0.257,1.416  c0.131,0.605,0.222,1.305,0.318,2.049l0.044,0.264c0.349,2.24,0.366,2.375,0.603,3.523c0.055,0.18,0.073,0.278,0.085,0.379  c0.004,0.147,0,0.521-0.02,1.12c-0.002,0.653,0.068,1.198,0.137,1.733c0.073,0.56,0.22,1.178,0.375,1.766  c0.076,0.344,0.116,0.573,0.141,0.727l0.032,1.129l0.006,0.201l0.037,0.209l0.065,0.619l-0.071,0.168l-0.043,0.185  c-0.129,0.599-0.263,1.522-0.131,2.537c0.43,3.313,2.909,5.657,6.167,5.825l0.635,0.033l0.24,0.014l0.229-0.027  c0.281-0.027,0.569-0.044,0.834-0.035c0.186,0.034,0.456,0.083,0.784,0.135c0.489,0.1,1.061,0.197,1.624,0.228  c2.07,0.106,3.528-0.531,4.238-1.782c-0.06,0.104-0.125,0.206-0.195,0.303c4.171-5.73,8.343-11.463,12.515-17.193  c-0.006,0.33,0.001,0.604,0.033,0.857c0.039,0.297,0.097,0.658,0.247,1.219c0.31,1.188,0.381,1.652,0.395,1.768l0.157,1.207  c0.032,0.248,0.087,0.429,0.201,0.828c0.032,0.12,0.077,0.27,0.152,0.525c0.148,0.47,0.282,1.096,0.352,1.635  c0.117,0.902,0.124,1.07,0.001,2.16c-0.163,0.778-0.141,1.148-0.04,1.928c0.031,0.236,0.054,0.377,0.082,0.551  c0.002,0.059,0.015,0.35,0.024,0.748l0.05,1.336c0.091,1.178,0.723,2.376,1.789,3.365c1.343,1.255,3.223,2.057,5.031,2.15  c0.391,0.021,0.97,0.051,1.543-0.082c0.187-0.039,0.338-0.065,0.455-0.084c0.741,0.166,1.591,0.295,2.201,0.326  c1.434,0.074,2.601-0.463,3.328-1.408c0.986,0.926,2.343,1.521,3.92,1.604l2.828,0.089c0.104,0.006,0.33,0.022,0.678,0.08  c0.693,0.11,1.405,0.21,1.926,0.237c2.419,0.125,3.526-0.913,4.027-1.803c-0.061,0.108-0.132,0.221-0.212,0.33  c1.244-1.709,2.488-3.418,3.733-5.129c0.162,0.018,0.318,0.03,0.462,0.037c0.496,0.026,1.053,0.055,1.779,0.02  c0.903-0.057,1.401-0.09,1.694-0.107c0.128-0.009,0.21-0.016,0.268-0.016l1.67,0.145l0.157,0.014h0.155l1.184-0.019  c0.167,0.25,0.365,0.664,0.455,1.229c0.258,1.47,0.639,3.004,1.669,4.279c1.099,1.359,2.64,2.104,4.578,2.205  c0.527,0.028,1.034-0.01,1.64-0.052l0.423-0.013c0.319-0.015,0.716-0.025,0.846-0.024c0.313,0.017,0.756,0.084,1.484,0.226  l0.223,0.045l0.225,0.013c0.135,0.007,0.319,0.03,0.499,0.051c0.21,0.03,0.432,0.058,0.656,0.067  c1.545,0.082,2.702-0.401,3.346-1.311c-0.006,0.01-0.01,0.021-0.017,0.03l1.447-1.988c0.819,1.791,2.454,3.585,5.87,3.759  l2.412-0.041l1.74,0.25c0.153,0.021,0.306,0.039,0.452,0.047c1.294,0.066,2.516-0.455,3.275-1.551  c-0.017,0.025-0.031,0.051-0.048,0.075l7.428-10.206c0.002,0.016,0.003,0.03,0.005,0.045c0.053,0.411,0.282,1.54,0.559,2.754  l0.064,0.26c-0.003,0.246-0.026,0.718-0.074,1.619c0.007,0.572,0.019,1.217,0.107,1.9c0.456,3.508,2.786,5.705,6.237,5.884  c0.303,0.017,0.797,0.042,1.344-0.022c0.153-0.008,0.304-0.01,0.424-0.002c0.222,0.031,0.707,0.105,1.336,0.207  c0.439,0.111,0.853,0.146,1.244,0.168c1.92,0.101,3.388-0.545,4.156-1.691c-0.022,0.035-0.045,0.072-0.07,0.107  c1.314-1.805,2.629-3.609,3.943-5.416c0.598,0.647,1.242,1.298,1.943,1.961c4.611,4.295,10.314,6.818,16.074,7.119  c2.73,0.144,4.837-0.512,6.092-1.881c0.113-0.125,0.219-0.258,0.316-0.394c-0.006,0.008-0.012,0.017-0.017,0.024  c6.779-9.315,13.562-18.631,20.341-27.945C187.733,100.309,188.002,99.001,187.758,97.588z"/>
<path fill="none" d="M225.167,67.046c-11.01-13.574-22.017-27.146-33.025-40.72c0.076,0.093,0.135,0.199,0.188,0.309  c-0.246-0.524-0.761-0.866-1.521-0.953c-0.725-0.153-1.229-0.033-1.41,0.011c-3.119-3.845-6.236-7.689-9.354-11.533  c0.056,0.068,0.104,0.14,0.146,0.215c-0.893-1.54-4.363-1.719-9.794-0.391c-3.877,0.948-7.271,2.469-10.073,4.514  c-3.062,2.237-5.258,4.974-6.392,8.052l-0.218,0.695l-0.057,0.136c-1.113-1.371-2.226-2.742-3.337-4.113  c0.009,0.012,0.017,0.028,0.025,0.041c-1.927-2.438-7.079-2.825-14.351-1.046c-7.695,1.882-16.51,8.554-21.96,15.99l-5.938-7.321  c0.028,0.035,0.054,0.074,0.08,0.112c-0.676-0.972-1.922-0.833-2.625-0.659l-1.764,0.472c-0.154,0.023-0.406,0.066-0.728,0.138  c-0.382,0.045-0.733,0.132-0.961,0.188c-3.405,0.833-4.907,2.383-6.809,5.332l-0.223,0.353c-0.045,0.065-0.094,0.133-0.141,0.207  c-0.434,0.603-0.741,1.048-0.841,1.198l-0.116,0.161c-1.345,1.883-1.629,2.28-2.246,3.345l-0.125,0.208  c-0.105,0.18-0.166,0.282-0.228,0.378c-1.657-2.042-3.313-4.084-4.969-6.126c0.011,0.014,0.019,0.029,0.029,0.043  c-0.503-0.669-1.57-0.881-3.084-0.51c-0.321,0.079-0.713,0.175-1.235,0.379c-0.532,0.2-0.894,0.314-1.095,0.353  c-0.502,0.053-0.935,0.159-1.251,0.236c-0.98,0.24-4.287,1.342-5.888,5.684c-0.412,1.364-0.764,2.45-1.08,3.313l-0.441,0.953  l-0.074,0.153l-0.047,0.152l-0.1,0.303c-0.015,0.005-0.036,0.01-0.051,0.015c-1.714-2.114-3.429-4.227-5.143-6.341  c0.023,0.027,0.039,0.061,0.059,0.091c-0.514-0.742-1.669-0.929-3.428-0.499c-0.356,0.087-0.507,0.142-0.924,0.295  c-0.136,0.052-0.33,0.125-0.611,0.227c-0.058,0.003-0.123,0.004-0.197,0.008c-0.474,0.009-0.871,0.106-1.156,0.176  c-1.572,0.384-3.245,1.513-4.504,2.906l-0.652-0.804c-0.839-1.084-2.801-0.604-5.079-0.047c-4.702,1.15-10.114,4.292-14.845,8.624  c-4.638,4.243-8.268,9.312-9.967,13.908c-2.877,7.78-2.906,11.115-0.112,14.271c-0.108-0.122-0.211-0.245-0.311-0.367  c11.009,13.573,22.017,27.146,33.025,40.72c0.1,0.123,0.203,0.246,0.311,0.367c2.258,2.479,6.21,3.174,11.136,1.967  c2.336-0.569,4.455-1.654,6.124-3.14c0.326-0.289,0.627-0.593,0.906-0.901c0.101,0.125,0.202,0.248,0.303,0.373  c0.504,0.621,1.587,0.862,3.597,0.371c0.085-0.021,0.17-0.041,0.256-0.065c0.236-0.058,0.502-0.12,0.858-0.175  c0.647-0.103,1.328-0.27,1.587-0.332c3.027-0.739,5.668-3.068,6.727-5.934c0.141-0.38,0.217-0.707,0.288-1.018l0.079-0.348  c0.058-0.34,0.155-0.89,0.21-1.116l0.284-0.657l0.079-0.191l0.051-0.182l0.181-0.709l0.047-0.105  c1.616,1.991,3.231,3.984,4.847,5.977c0.483,0.596,1.362,0.82,2.528,0.536c0.121-0.029,0.486-0.119,1.931-0.648  c0.188-0.026,0.554-0.073,0.829-0.104l0.339-0.037c0.415-0.025,0.757-0.109,0.971-0.161c1.115-0.272,2.344-0.959,3.468-1.933  c0.5,0.473,1.412,0.603,2.694,0.289l2.443-0.643c0.094-0.021,0.284-0.064,0.557-0.104c0.764-0.113,1.229-0.197,1.599-0.287  c2.068-0.508,3.467-1.668,4.276-2.553c1.098-1.194,1.674-2.5,2.093-3.621c0.139-0.342,0.435-0.902,0.923-1.049  c0.095-0.016,0.278-0.037,0.415-0.058l0.205-0.026c0.654-0.058,1.305-0.162,1.839-0.293c0.419-0.102,0.9-0.22,1.549-0.438  c0.634-0.211,1.043-0.352,1.322-0.445l2.936,3.62c0.494,0.608,1.469,0.741,2.905,0.39c0.442-0.106,0.894-0.262,1.456-0.457  l0.367-0.117c0.289-0.092,0.648-0.209,0.76-0.235c0.268-0.065,0.633-0.123,1.212-0.188l0.178-0.018l0.188-0.045  c0.115-0.028,0.267-0.055,0.416-0.083c0.171-0.028,0.354-0.062,0.551-0.11c2.296-0.562,4.281-2.27,5.052-4.354  c0.239-0.646,0.312-1.28,0.313-1.801l0.109,0.138c2.309,2.845,7.334,3.333,15.061,1.442c5.938-1.453,12.102-4.812,15.734-8.572  c0.381-0.372,0.762-0.752,1.166-1.155c0.078-0.081,0.172-0.173,0.254-0.256l2.146,2.644c0.356,0.438,1.036,0.654,2.081,0.723  c0.59,0.018,3.199,0.057,4.461-0.16c1.719-0.245,1.723-0.246,2.262-0.323c0.276-0.052,0.418-0.083,0.52-0.106  c0.141-0.017,0.586-0.061,0.916-0.088c0.857-0.09,1.712-0.24,2.555-0.445c7.57-1.853,14.568-8.254,17.45-15.955  c0.263,0.325,0.526,0.65,0.792,0.976c0.494,0.61,1.527,0.781,3,0.421c0.312-0.076,0.775-0.189,1.285-0.374  c0.328-0.099,0.627-0.193,0.859-0.265c0.143-0.046,0.258-0.082,0.332-0.104l0.52-0.127c0.291-0.071,0.639-0.156,1.031-0.3  c0.297-0.08,0.553-0.157,0.725-0.214l0.609-0.112l0.08-0.016l0.084-0.021l0.533-0.13l1.713-0.214l0.161-0.021l0.169-0.042  c0.866-0.211,1.875-0.81,3-1.78l0.102-0.091l0.102-0.095c0.924-0.88,1.61-1.871,1.979-2.869l0.031-0.081l0.021-0.079l0.36-1.205  l0.568-1.296C225.649,68.478,225.62,67.604,225.167,67.046z"/>
<g>
	<path fill="#141412" d="M49.62,45.564c4.145-1.014,4.215-0.939,2.88,3.745c-0.493,1.333-1.728,2.535-2.873,2.815   c-0.33,0.08-0.91,0.178-1.403,0.163c-0.925,0.091-1.739,0.154-2.069,0.234c-3.598,0.88-9.112,6.814-10.957,11.803   c-1.993,5.388-0.478,9.735,3.066,8.869c0.437-0.107,0.325-0.08,1.673-0.633c0.292-0.119,0.692-0.261,1.183-0.382   c2.126-0.52,2.633-0.016,2.137,1.994c-0.038,0.101-0.053,0.417-0.164,0.849c-0.021,0.321-0.077,0.603-0.168,0.849   c-0.547,1.754-2.656,3.303-5.438,3.984c-4.252,1.039-7.614,0.47-9.589-1.701c-2.481-2.806-2.458-5.689,0.21-12.902   C31.251,56.754,41.226,47.617,49.62,45.564z"/>
</g>
<g>
	<path fill="#141412" d="M62.743,42.803c1.854-0.453,2.342,0.104,1.685,1.88c-0.055,0.15-0.273,0.607-0.604,1.228   c-0.235,0.506-0.526,1.161-0.746,1.755c-1.388,3.752-1.17,4.239,1.825,3.506c0.384-0.093,0.892-0.262,1.619-0.484   c0.51-0.172,0.893-0.266,1.053-0.305l0.82-0.2c0.524-0.081,0.252-0.015,0.854-0.162l0.491-0.12c0.597-0.146,0.218-0.054,1.07-0.217   c1.801-0.44,3.219-1.328,3.53-2.168l0.404-1.223l0.489-1.06c0.348-0.941,0.732-2.112,1.169-3.567   c0.585-1.583,1.335-2.395,2.535-2.688c0.271-0.066,0.543-0.133,0.851-0.164c0.252-0.014,0.417-0.054,0.529-0.082   c0.161-0.04,0.729-0.226,1.415-0.482c0.295-0.116,0.508-0.169,0.785-0.236c1.36-0.333,1.924,0.158,1.487,1.341   c-0.146,0.396-0.401,0.955-0.787,1.589c-0.218,0.458-0.385,0.766-0.42,0.863c-0.073,0.198-0.199,0.681-0.4,1.358   c-0.038,0.233-0.129,0.48-0.22,0.727c-0.185,0.497-0.438,1.051-0.787,1.721c-0.255,0.558-0.455,0.967-0.491,1.063l-0.514,1.654   c-0.019,0.048-0.146,0.396-0.347,0.805c-0.235,0.506-0.291,0.655-0.546,1.346c-0.073,0.198-0.22,0.727-0.33,1.158   c-0.253,0.826-0.437,1.455-0.51,1.653c-0.164,0.444-0.438,1.051-0.806,1.905c-0.255,0.559-0.509,1.113-0.6,1.36   c-0.165,0.444-0.311,0.84-0.495,1.469c-0.093,0.383-0.202,0.677-0.275,0.875c-0.019,0.053-0.184,0.497-0.475,1.152   c-0.236,0.506-0.62,1.544-1.168,3.026c-0.876,2.371-1.114,3.146-1.135,3.871c-0.001,0.466-0.054,0.876-0.151,1.203   c-0.271,0.437-0.473,0.833-0.603,1.185c-0.655,0.955-1.613,1.739-2.432,1.939c-0.165,0.041-0.325,0.08-0.526,0.084   c-0.731,0.091-1.345,0.149-1.674,0.23c-0.107,0.026-0.218,0.053-0.457,0.159c-0.744,0.271-1.252,0.439-1.413,0.479   c-0.981,0.239-1.437-0.545-0.998-1.733c0.201-0.545,0.201-0.545,1.242-2.416c0.126-0.211,0.2-0.409,0.235-0.506l0.528-1.702   l0.44-0.916l0.257-0.827l0.475-1.285c0.381-1.305,0.731-2.383,1.096-3.368l0.692-1.742c0.877-2.372,0.732-2.516-2.12-2.042   c-0.053,0.013-0.401,0.142-0.855,0.297c-0.764,0.323-1.326,0.504-1.923,0.65c-0.276,0.067-1.185,0.246-2.307,0.472   c-0.366,0.045-0.638,0.112-1.021,0.206c-0.058,0.014-0.116,0.028-0.174,0.042c-2.332,0.571-2.305,0.608-4.088,4.641   c-0.009,0.025-0.183,0.493-0.344,1.073l-0.22,0.593l-0.437,1.184l-0.165,0.444c-0.166,0.449-0.33,1.025-0.407,1.496   c-0.015,0.316-0.072,0.602-0.09,0.65l-0.564,1.262l-0.24,0.911L55.11,70.42c-0.091,0.247-0.185,0.762-0.312,1.513   c-0.093,0.383-0.148,0.665-0.259,0.963c-0.602,1.628-1.728,2.667-3.417,3.081c-0.218,0.053-0.82,0.2-1.346,0.285   c-0.472,0.071-0.855,0.165-1.127,0.231c-0.076,0.019-0.152,0.038-0.228,0.056c-2.167,0.529-2.617-0.007-1.875-2.015   c0.128-0.348,0.309-0.704,0.495-1.065c0.507-0.844,0.836-1.461,0.874-1.562c0.018-0.048,0.054-0.146,0.074-0.33   c0.271-1.011,0.711-2.331,1.078-3.32c0.347-0.937,0.657-1.645,0.984-2.397c0.531-1.029,0.857-1.782,0.931-1.979   c0.091-0.247,0.22-0.594,0.313-1.109c0.292-1.063,0.511-1.789,0.676-2.234c0.219-0.593,0.473-1.147,0.842-2.002   c0.164-0.312,0.237-0.509,0.255-0.558l0.437-1.455l0.402-1.086c0.036-0.098,0.219-0.726,0.441-1.589   c0.039-0.237,0.107-0.421,0.11-0.431l1.624-3.59c0.018-0.048,0.073-0.198,0.111-0.431c0.199-0.812,0.365-1.394,0.401-1.491   c0.109-0.294,0.129-0.479,0.148-0.532c0.146-0.932,0.11-0.835,0.22-1.129c0.457-1.237,1.75-2.453,2.895-2.733   c0.219-0.054,0.378-0.093,0.578-0.093c0.401-0.01,0.655-0.028,0.708-0.041C62.631,42.83,62.471,42.869,62.743,42.803z"/>
</g>
<g>
	<path fill="#141412" d="M106.699,59.375c0.127,0.596,0.125,1.405-0.095,2c-0.311,0.84-0.821,1.277-1.743,1.503   c-0.219,0.053-0.584,0.099-0.967,0.192c-0.673,0.076-1.146,0.148-1.583,0.255c-0.272,0.067-0.78,0.235-1.395,0.429   c-0.455,0.156-0.856,0.298-1.182,0.377c-1.582,0.387-1.817-0.184-1.103-2.379c0.584-1.711,0.043-2.891-1.115-2.607l-0.118,0.033   l-1.562,0.474l-1.451,0.308c-0.33,0.08-0.111,0.027-2.092,0.691c-0.508,0.168-0.892,0.262-1.271,0.354   c-0.383,0.094-0.909,0.179-1.475,0.229c-0.414,0.057-0.778,0.099-0.943,0.139c-1.796,0.439-3.528,2.031-4.258,3.874   c-0.803,2.173-1.549,2.984-3.074,3.357c-0.33,0.081-0.856,0.165-1.328,0.236c-0.419,0.059-0.745,0.139-0.856,0.166l-2.469,0.648   c-1.039,0.254-1.506-0.084-1.197-0.92c0.166-0.448,0.711-1.254,1.583-2.275c1.057-1.247,0.855-0.974,1.75-2.453   c0.107-0.158,0.418-0.594,0.873-1.153c1.33-1.722,1.424-1.833,3.59-5.551c0.239-0.375,0.239-0.375,1.97-2.775   c0.781-1.047,0.365-0.449,1.183-1.729c1.074-1.699,0.527-0.89,3.096-4.35c0.618-0.871,1.186-1.727,2.262-3.43   c0.474-0.745,0.816-1.277,1.109-1.664c0.695-0.934,0.581-0.771,1.111-1.664c0.546-0.942,0.749-1.215,2.188-3.232   c0.017-0.024,0.33-0.485,0.839-1.193c0.216-0.321,0.419-0.599,0.456-0.695c1.513-2.347,1.929-2.673,3.836-3.14   c0.219-0.053,0.491-0.12,0.745-0.138c0.49-0.12,0.802-0.152,0.855-0.165l1.926-0.515c0.82-0.201,1.308,0.488,1.232,1.899   c-0.04,1.313-0.041,0.91,0.445,4.432c0.088,0.695,0.071,1.419-0.079,2.352c-0.128,0.751-0.147,0.936-0.057,1.767   c0.09,0.698,0.128,0.465-0.061,2.039c-0.018,0.048,0.001,0.404,0,0.944c0.037,0.439,0.019,0.892-0.057,1.362   c-0.13,1.02-0.108,1.103,0.014,1.837c0.272,1.282,0.288,1.37-0.007,2.966c0.039,0.038,0.001,0.271,0.057,0.526   c0.017,0.624,0.051,0.256-0.17,2.062c-0.017,0.32-0.035,0.369,0.161,1.581c0.035,0.035,0.036,0.439,0.017,1.028   C106.302,58.167,106.304,58.03,106.699,59.375z M97.482,54.126c0.428-0.105,1.119-0.744,1.275-1.168   c0.055-0.149,0.074-0.334,0.036-0.505c-0.161-0.769-0.161-0.769-0.051-1.604c0.132-0.753,0.093-0.382,0.169-2.333   c0.04-0.37,0.075-0.871,0.13-1.424c0.15-0.801,0.169-1.39,0.167-1.657c-0.106-0.918-0.106-0.918-0.032-1.253l0.038-0.233   c0.069-0.329,0.073-0.198,0.053-0.417l0.02-0.185c0.038-0.233,0,0,0.074-0.738c-0.035-0.036-0.053-0.12-0.111-0.105l-0.107,0.159   c-0.236,0.374-0.163,0.176-0.271,0.47c-0.406,0.956-0.749,1.488-2.134,3.491c-0.838,1.194-1.077,1.564-1.679,2.523   c-0.913,1.391-1.308,1.937-1.893,2.708c-0.601,0.822-0.677,0.885-1.057,1.518c-0.203,0.274-0.018,0.048-0.437,0.644l-0.276,0.471   l-0.307,0.435c-0.146,0.396,0.541,0.676,1.249,0.503l1.494-0.409c0.16-0.039,0.378-0.093,0.744-0.138l0.655-0.16   c0.272-0.066,0.598-0.146,0.887-0.261c0.348-0.129,0.566-0.182,0.62-0.195l0.691-0.125L97.482,54.126"/>
</g>
<g>
	<path fill="#141412" d="M148.223,25.671c2.17,4.187,2.473,6.854,1.121,10.509c-0.129,0.347-0.309,0.704-0.581,1.174   c-0.312,0.573-0.257,0.423-0.712,1.522c-0.184,0.497-0.528,1.166-0.948,1.896c-0.692,1.202-1.222,2.095-1.315,2.21   c-0.965,1.809-2.621,3.874-4.935,6.104c-0.78,0.775-1.417,1.424-2.038,2.027c-2.91,3.049-8.352,5.952-13.42,7.191   c-13.301,3.254-17.504-1.067-12.993-13.27c3.214-8.692,13.933-18.372,22.763-20.531C142.145,22.797,146.939,23.245,148.223,25.671z    M125.859,53.16c6.49-1.588,12.986-7.49,15.38-13.965c0.201-0.541,0.367-1.122,0.492-1.737c0.146-0.8,0.312-1.381,0.295-1.464   c0.385-1.17,0.385-1.17,0.294-1.736c-0.034-0.305-0.052-0.66-0.089-0.967c0.004-2.83-3.516-4.574-7.331-3.641   c-7.141,1.747-11.798,6.163-15.85,14.972C117.017,52.401,118.936,54.853,125.859,53.16"/>
</g>
<g>
	<path fill="#141412" d="M169.567,16.226c5.291-1.294,8.796-0.983,8.157,0.745c-0.147,0.396-0.056,0.286-1.243,1.608   c-0.182,0.224-0.414,0.593-1.02,1.822c-0.639,1.188-1.312,1.805-2.238,2.031c-0.654,0.161-0.602,0.147-1.777-0.42   c-0.889-0.547-2.396-0.626-3.76-0.293c-2.617,0.64-3.947,1.549-4.514,3.081c-0.418,1.135-0.129,1.695,1.25,2.391   c6.584,3.243,8.703,6.229,7.242,10.18c-2.426,6.56-8.027,11.688-14.179,13.193c-0.71,0.174-1.424,0.297-2.141,0.37   c-1.49,0.141-0.927,0.094-1.675,0.233c-0.414,0.053-0.414,0.053-2.194,0.309c-0.744,0.138-2.89,0.17-4.019,0.13   c-1.453-0.093-1.562-0.338-0.939-2.014c0.146-0.396,0.529-1.03,1.004-1.642c0.585-0.772,0.346-0.397,1.094-1.885   c0.565-1.126,1.311-1.937,2.059-2.212l0.127-0.034c0.402-0.098,0.775,0.016,1.6,0.469c1.686,0.937,3.737,1.15,6.028,0.59   c2.563-0.627,4.997-2.795,5.931-5.315c0.639-1.729,0.262-2.984-1.047-3.605c-0.762-0.354-0.562-0.222-0.906-0.498   c-0.146-0.145,0.106-0.027-0.814-0.341c-4.9-1.766-7.057-4.656-5.74-7.674l0.344-0.8l0.258-0.828   C158.116,21.319,162.863,17.866,169.567,16.226z"/>
</g>
<g>
	<path fill="#141412" d="M188.557,27.937c0.053-0.013,0.254-0.018,0.523,0.052c0.725,0.047,1,0.52,0.67,1.273l-0.64,1.46   l-0.403,1.359c-0.184,0.493-0.49,0.928-0.875,1.29c-0.363,0.313-0.834,0.652-0.998,0.692l-1.871,0.233l-0.709,0.173l-0.801,0.152   c-0.055,0.013-0.455,0.156-0.945,0.276c-0.237,0.105-0.512,0.172-0.781,0.239l-0.598,0.146c-0.059,0.014-0.674,0.209-1.4,0.431   c-0.348,0.129-0.727,0.222-0.998,0.289c-1.311,0.32-1.818-0.048-1.417-1.134c0.056-0.149,0.11-0.299,0.237-0.51   c0.125-0.344,0.295-0.656,0.332-0.754c0.037-0.101,0.104-0.43,0.27-0.874c0.037-0.233,0.11-0.432,0.184-0.629   c0.422-1.139,1.387-2.003,2.584-2.296c0.166-0.041,0.385-0.094,0.64-0.111c0.582-0.095,1.763-0.34,2.308-0.473l2.291-0.561   l0.473-0.071l0.543-0.133c0.113-0.027,0.168-0.037,0.227-0.052C187.542,28.37,187.67,28.315,188.557,27.937z"/>
</g>
<g>
	<path fill="#141412" d="M19.986,79.723c3.695,0.192,4.446,0.591,6.072,3.386c1.128,1.864,1.422,2.181,2.437,3.134   c0.715,0.643,0.786,0.705,1.336,1.516c0.613,0.814,0.84,1.127,1.516,1.944l0.365,0.377l0.378,0.443   c1.321,1.873,1.097,1.621,1.607,2.131c0.965,1.133,0.809,0.883,1.788,2.558c0.156,0.249,0.436,0.445,0.628,0.455   c0.381,0.021,0.867-0.619,1.306-1.619c0.794-1.7,1.843-3.392,2.725-4.37c1.111-1.205,2.756-4.127,3.27-6.027   c0.469-1.446,1.803-2.263,3.403-2.18c0.104,0.005,0.204,0.016,0.309,0.025l2.379,0.307l1.889-0.083   c0.115,0.001,0.223,0.001,0.327,0.007c1.355,0.069,1.999,0.836,2.204,2.412c0.11,0.848,0.079,1.086-0.148,3.243   c-0.023,0.3-0.031,0.718-0.02,1.324c-0.054,0.538,0.001,0.959,0.024,1.142l0.463,2.612c0.016,0.118,0.047,0.36,0.04,0.784   c0.056,1.385,0.144,2.536,0.19,2.896c0.047,0.362,0.071,0.547,0.204,1.094l0.071,0.546l0.087,3.614   c0.007,0.061,0.107,0.308,0.208,0.611c0.236,0.858,0.453,1.529,0.484,1.771c0.031,0.242,0.063,0.484,0.056,0.908   c-0.013,0.418-0.044,0.656-0.028,0.78c0.008,0.06,0.205,1.093,0.523,2.552c0.11,0.369,0.125,0.487,0.173,0.851   c0.04,0.307,0.063,0.968,0.088,1.634c0.026,0.719,0.035,1.266,0.011,1.564c-0.015,0.356,0.015,0.589,0.016,0.602l0.531,2.133   c0.008,0.059-0.02,0.362-0.02,0.84c-0.023,0.299,0.008,0.541,0.04,0.784s0.268,1.103,0.523,2.073   c0.22,0.734,0.476,1.713,0.523,2.074c0.173,1.332-0.475,2.203-1.56,2.147c-0.38-0.02-1.092-0.12-1.744-0.274   c-0.201-0.068-0.394-0.077-0.456-0.081c-0.125-0.007-0.565,0.028-1.24,0.177c-0.186,0.05-0.503,0.032-0.758,0.02   c-1.721-0.088-3.465-1.32-3.552-2.473c-0.099-2.712-0.043-1.809-0.169-2.777c-0.079-0.604-0.086-0.664,0.03-1.199   c0.15-1.316,0.165-1.68,0.008-2.889c-0.087-0.668-0.252-1.459-0.468-2.13c-0.118-0.43-0.228-0.795-0.236-0.858l-0.157-1.209   c-0.055-0.426-0.218-1.156-0.468-2.129c-0.118-0.43-0.149-0.672-0.173-0.855c-0.039-0.302,0-0.96,0.035-1.682   c0.07-0.896,0.082-1.801-0.004-2.465c-0.072-0.551-0.134-1.03-0.351-1.705c-0.071-0.545-0.181-0.91-0.197-1.033l-0.22-2.178   c-0.056-0.425-0.29-0.797-0.613-0.813c-0.318-0.017-0.31,0.044-0.828,0.922c-0.162,0.228-0.377,0.521-0.656,0.808   c-0.958,0.914-1.06,1.086-1.375,1.61c-0.333,0.828-0.015,0.364-0.95,1.456c-0.502,0.516-0.448,0.459-0.765,1.407   c-0.647,1.829-1.751,2.612-3.472,2.522c-2.424-0.125-2.556-0.191-4.326-2.57c-0.313-0.498-0.684-0.877-2.408-2.473   c-0.723-0.703-0.574-0.512-2.476-2.957c-0.833-1.066-1.623-1.769-2.003-1.787c-0.192-0.012-0.31,0.041-0.417,0.22   c-0.102,0.171-0.146,0.351-0.13,0.47l0.421,1.77l0.126,0.971l0.243,1.396c0.024,0.185-0.007-0.059,0.127,2.412   c0.087,0.669,0.105,1.329,0.153,1.696c0.055,0.42,0.17,0.79,0.28,1.154c0.196,0.553,0.372,0.963,0.381,0.984   c0.007,0.061,0.008,0.542-0.044,1.139c0.008,0.061,0.056,0.427,0.072,1.027l0.04,0.784l0.15,1.153   c0.054,0.423,0.156,0.728,0.259,1.037c0.047,0.361,0.137,0.596,0.141,0.607c-0.167,2.579-0.144,2.28-0.121,2.459   c1.396,4.889,1.156,4.035,1.21,4.456c0.205,1.574-0.406,2.206-2.131,2.117c-0.381-0.021-0.837-0.106-1.226-0.187   c-0.581-0.09-0.969-0.168-1.037-0.174c-0.125-0.006-0.698-0.035-1.449,0.043l-0.636-0.031c-1.657-0.088-2.68-1.104-2.917-2.924   c-0.071-0.543-0.019-1.143,0.103-1.677c0.192-0.472,0.271-0.827,0.263-0.887l-0.205-1.099l-0.04-1.263   c-0.024-0.183-0.071-0.544-0.212-1.155c-0.125-0.489-0.259-1.037-0.314-1.459c-0.062-0.485-0.118-0.91-0.119-1.394   c0.031-0.717,0.023-1.259,0.007-1.382c-0.024-0.184-0.055-0.428-0.173-0.852c-0.181-0.914-0.189-0.975-0.574-3.459   c-0.095-0.728-0.197-1.517-0.354-2.246c-0.139-0.549-0.17-0.791-0.217-1.153c-0.008-0.06,0.004-0.481-0.012-1.083   c-0.049-0.85-0.175-2.297-0.395-3.994l-0.314-1.941l-0.063-0.484c-0.079-0.604-0.039-0.303-0.129-2.471l-0.087-0.67   c-0.115-0.365-0.154-0.668-0.194-0.975l-0.181-1.393c-0.111-0.847-0.212-1.152-0.805-2.808c-0.303-0.862-0.452-1.529-0.532-2.138   C15.091,79.586,15.331,79.479,19.986,79.723z"/>
</g>
<g>
	<path fill="#141412" d="M96.868,120.734c0.553,0.869,1.081,1.979,1.175,2.707c0.134,1.031-0.259,1.434-1.343,1.377   c-0.256-0.014-0.707-0.101-1.155-0.125c-0.844-0.159-1.425-0.25-1.936-0.276c-0.318-0.017-0.883,0.013-1.58,0.036   c-0.502,0.033-0.938,0.074-1.323,0.054c-1.845-0.097-2.529-0.979-3.013-3.71c-0.337-2.111-1.824-3.951-3.173-4.021l-0.135-0.002   l-1.767,0.031l-1.733-0.154c-0.381-0.021-0.125-0.006-2.324,0.121c-0.565,0.033-1.014,0.011-1.462-0.014   c-0.443-0.021-1.087-0.119-1.806-0.275c-0.519-0.086-0.971-0.174-1.163-0.185c-2.106-0.108-3.365,1.396-3.137,3.63   c0.346,2.665-0.118,3.481-1.905,3.391c-0.38-0.021-1.024-0.113-1.61-0.203c-0.514-0.086-0.899-0.105-1.024-0.111l-2.864-0.091   c-1.209-0.062-2.055-0.712-2.188-1.737c-0.071-0.545,0.128-1.439,0.627-2.496c0.588-1.291,0.502-0.996,0.73-2.668   c0.039-0.181,0.164-0.654,0.408-1.242c0.647-1.83,0.694-1.951,1.157-6.197c0.07-0.42,0.07-0.42,0.808-3.028   c0.362-1.122,0.192-0.472,0.452-1.899c0.321-1.912,0.122-1.018,1.283-4.75c0.254-0.951,0.447-1.899,0.768-3.812   c0.146-0.834,0.26-1.428,0.397-1.844c0.309-1.009,0.271-0.827,0.392-1.845c0.114-1.076,0.199-1.371,0.805-3.568   c0.005-0.028,0.117-0.535,0.333-1.309c0.083-0.354,0.169-0.648,0.153-0.772c0.483-2.621,0.829-2.903,3.06-2.787   c0.256,0.014,0.574,0.03,0.899,0.105c0.573,0.03,0.961,0.109,1.029,0.113l2.223,0.056c0.954,0.051,2.054,1.19,2.872,3.097   c0.802,1.788,0.539,1.233,3.47,6.262c0.574,0.989,1.019,1.978,1.431,3.204c0.318,0.977,0.413,1.223,1.073,2.402   c0.574,0.99,0.467,0.684,1.245,2.771c0.008,0.062,0.264,0.556,0.614,1.298c0.334,0.616,0.6,1.23,0.81,1.848   c0.491,1.349,0.569,1.471,1.214,2.527c1.19,1.867,1.274,1.994,1.921,4.07c0.072,0.066,0.179,0.373,0.413,0.744   c0.428,0.869,0.241,0.377,1.121,2.77c0.186,0.43,0.194,0.491,1.243,2.229c0.07,0.062,0.328,0.616,0.686,1.419   C95.556,118.92,95.469,118.734,96.868,120.734z M81.21,109.872c0.5,0.026,1.001-0.577,0.934-1.097   c-0.024-0.185-0.118-0.431-0.28-0.681c-0.715-1.118-0.715-1.118-1.112-2.222c-0.319-0.98-0.125-0.489-1.293-3.139   c-0.193-0.487-0.467-1.166-0.755-1.903c-0.327-1.04-0.685-1.841-0.857-2.209c-0.738-1.304-0.738-1.304-0.862-1.731l-0.102-0.306   c-0.118-0.426-0.031-0.243-0.196-0.552l-0.094-0.246c-0.107-0.307,0,0-0.381-0.979c-0.076-0.067-0.153-0.189-0.216-0.193   l-0.039,0.181c-0.076,0.414-0.106,0.172-0.059,0.538c0.087,1.146-0.027,1.74-0.565,3.939c-0.337,1.307-0.407,1.726-0.583,2.8   c-0.306,1.548-0.482,2.139-0.753,2.967c-0.268,0.892-0.322,0.946-0.42,1.665c-0.086,0.296,0.007,0.059-0.157,0.709l-0.059,0.544   l-0.13,0.472c0.063,0.484,1.165,1.146,1.993,1.19l1.712,0.024c0.193,0.011,0.448,0.023,0.905,0.111l0.762,0.039   c0.317,0.018,0.703,0.036,1.013-0.011c0.373-0.04,0.628-0.027,0.696-0.024l0.832,0.104L81.21,109.872"/>
</g>
<g>
	<path fill="#141412" d="M93.729,83.987c0.511,0.026,1.41,0.133,2.331,0.362c0.644,0.093,1.225,0.182,1.48,0.195   c0.318,0.017,0.636,0.033,1.077-0.003c1.13-0.064,1.889-0.084,2.332-0.061c0.261,0.014,0.905,0.106,1.742,0.214   c0.899,0.106,1.543,0.198,2.185,0.231c0.573,0.03,1.394,0.015,2.331-0.061c0.884-0.012,1.518-0.039,1.96-0.017   c0.256,0.014,0.905,0.107,1.736,0.21c0.649,0.098,1.168,0.184,1.611,0.206c0.386,0.021,0.951-0.009,1.516-0.043   c0.429-0.096,0.751-0.079,1.006-0.066c1.465,0.076,2.42,1.091,2.726,2.971c0.04,0.302,0.094,0.723,0.28,1.156   c0.133,0.548,0.321,1.039,0.36,1.342c0.173,0.852-0.05,1.562-0.616,2.072c-0.364,0.312-0.947,0.562-1.244,0.547   c-2.28-0.365-1.567-0.27-2.28-0.365c-0.326-0.081-0.254-0.012-1.045-0.236c-0.589-0.152-1.296-0.248-1.869-0.277   c-1.913-0.102-2.647,0.584-2.451,2.101c0.04,0.304,0.157,0.728,0.205,1.093c0.201,0.631,0.316,1.045,0.347,1.194   c0.017,0.173,0.119,1.039,0.25,2.447c0.142,1.091,0.047,0.362,0.213,2.118l0.351,1.701c0.024,0.183,0.071,0.543,0.059,0.967   c0.032,0.725,0.041,1.267,0.063,1.443c0.056,0.428,0.181,0.914,0.39,1.526c0.251,0.978,0.491,1.831,0.531,2.133   c0.031,0.242,0.071,0.546,0.074,1.086c-0.021,1.265,0.012,2.048,0.067,2.474c0.004,0.03,0.079,0.604,0.249,1.396l0.095,0.729   c0.629,4.367,0.441,3.395,0.754,4.373c0.451,1.525,0.755,2.863,0.858,3.656c0.217,1.674-0.385,2.814-1.453,2.758   c-0.047-0.002-0.1-0.01-0.153-0.018l-2.003-0.282l-2.65,0.04c-2.106-0.109-2.867-1.109-3.254-4.081   c-0.07-0.545-0.095-1.204-0.063-1.927c0.051-1.08,0.07-1.925,0.039-2.163l-0.193-0.974c-0.019-1.627,0.012-1.383-0.028-1.69   l-1.067-6.729c-0.134-1.031-0.288-2.728-0.327-4.471c0.004-0.481-0.035-0.785-0.042-0.844l-0.296-1.279   c-0.744-3.291-0.54-2.197-0.673-3.229c-0.134-0.549,0,0-0.322-1.518l-0.206-2.059c-0.22-1.697-1.368-2.717-3.15-2.811   c-0.51-0.025-0.448-0.023-2.003,0.195c-0.428,0.096-0.993,0.131-1.441,0.106c-1.783-0.093-2.922-1.058-3.127-2.634   c-0.031-0.242-0.016-0.602-0.063-0.967c0.007-0.418,0.044-0.656,0.021-0.841l-0.273-1.579C90.5,84.479,91.498,83.871,93.729,83.987   z"/>
</g>
<g>
	<path fill="#141412" d="M128.165,85.84c0.066,0.004,0.598,0.215,0.867,0.348c1.023,0.535,1.614,1.225,1.717,2.012   c0.071,0.545,0.063,0.968,0.072,1.51c0.002,0.482,0.008,0.541,0.024,1.148l0.03,0.235l-0.02,0.363l0.047,0.362l-0.016,0.363   l0.326,1.517l0.091,1.211l0.142,1.089l0.086,1.146l0.446,1.95c0.015,0.119,0.054,0.423,0.056,0.903   c-0.013,0.423,0.02,0.665,0.082,1.152c0.182,1.391,0.336,2.058,0.602,3.158c0.016,0.118,0.018,0.602-0.012,1.383   c-0.022,0.299,0.008,0.541,0.032,0.726l0.228,1.274l0.111,1.812c0.039,0.303-0.07-0.066,0.569,1.953   c0.001,0.013,0.03,0.243,0,0.482c-0.022,0.299,0.009,0.541,0.058,0.902l0.125,0.971c-0.021,0.358,0.018,0.649,0.02,0.666   l0.115,0.364c0.322,1.041,0.219,0.734,0.266,1.097l0.096,0.246c0.047,0.362,0.016,0.123,0.149,0.672l0.054,0.422l0.124,0.429   c0.022,0.181,0.062,0.485-0.013,0.899c0,0.482,0.048,0.845,0.07,1.027c0.43,1.827,0.268,1.096,0.492,2.313   c0.141,0.606,0.149,0.667,0.555,1.834c0.109,0.364,0.229,0.794,0.268,1.096c0.156,1.209-0.641,1.892-2.174,1.812   c-0.188-0.01-0.505-0.026-0.705-0.097c-1.037-0.172-1.708-0.268-1.745-0.272c-0.19-0.01-0.571-0.029-1.012,0.012   c-0.312,0.043-0.63,0.025-0.884,0.013c-1.852-0.096-2.735-1.042-2.987-2.983c-0.071-0.545-0.074-1.086-0.083-1.627   c0.067-0.963,0.09-1.742,0.066-1.926c-0.016-0.119-0.031-0.242-0.125-0.483c-0.296-1.28-0.484-2.255-0.516-2.497   c-0.007-0.059-0.04-0.303-0.008-0.541c-0.059-0.969-0.144-1.631-0.192-1.998c-0.149-1.148-0.055-0.421-0.124-2.895l-0.062-0.484   l-0.138-0.549c-0.094-0.725-0.017-0.119-0.3-1.821c-0.023-0.179-0.196-1.028-0.483-2.249c-0.102-0.307-0.126-0.488-0.134-0.549   l-0.059-2.408l-0.142-1.095l-0.126-1.448c-0.039-0.302-0.102-0.787-0.259-1.52c-0.141-0.607-0.196-1.033-0.212-1.151   c-0.304-1.341-0.477-2.194-0.525-2.558c-0.015-0.119,0-0.481,0.005-0.965c-0.017-0.601-0.009-1.021-0.025-1.142l-0.133-0.549   c-0.374-1.401-0.249-0.917-0.39-1.525l-0.125-0.487c-0.149-0.668-0.04-0.304-0.271-1.098l-0.141-0.607l-0.134-0.549   c-0.274-2.119,0.482-3.103,2.203-3.014c0.448,0.023,0.704,0.036,1.029,0.112c0.581,0.09,0.975,0.174,1.039,0.178L128.165,85.84z"/>
</g>
<g>
	<path fill="#141412" d="M153.708,86.507c4.849,0.253,4.988,0.384,6.262,6.284c0.213,1.635-0.649,2.796-1.989,2.725   c-0.382-0.019-1.088-0.113-1.752-0.33c-1.17-0.244-2.216-0.477-2.597-0.496c-4.205-0.219-7.678,5.735-6.883,11.854   c0.858,6.605,5.705,13.178,9.85,13.395c0.511,0.025,0.38,0.02,1.806-0.207c0.315-0.047,0.75-0.084,1.322-0.055   c2.485,0.131,3.495,1.029,4.144,3.586c0.016,0.124,0.194,0.553,0.327,1.1c0.187,0.434,0.296,0.799,0.337,1.104   c0.407,2.187-1.388,3.476-4.635,3.308c-4.973-0.26-9.809-2.377-13.843-6.14c-5.123-4.837-6.966-8.786-8.116-17.632   C136.584,94.584,143.892,85.996,153.708,86.507z"/>
</g>
</svg>