<svg xmlns="http://www.w3.org/2000/svg" xmlns:xlink="http://www.w3.org/1999/xlink" version="1.1" id="Calque_1" x="0px" y="0px" width="255.118px" height="170.078px" viewBox="0 0 255.118 170.078" enable-background="new 0 0 255.118 170.078" xml:space="preserve">
<path display="none" fill="#FFFFFF" stroke="#FFFFFF" stroke-width="6.5747" stroke-linecap="round" stroke-linejoin="round" d="  M253.32,148.072c5.623-3.104,8.438-4.42,14.062-6.487c1.191-0.577,1.797-0.854,2.991-1.383  c-17.311-8.666-33.996-14.072-53.586-13.709v13.797c0.012,0,0.021,0,0.021,0c-46.881,1.241-91.104,23.722-137.979,24.97v-11.35  c-19.598,0.361-36.278-5.042-53.584-13.708c1.191,1.92,1.796,2.866,2.987,4.735c5.622,8.139,8.438,11.92,14.062,19.021  c-5.687,3.729-8.522,5.356-14.202,8.03c-1.14,0.535-1.708,0.791-2.848,1.281c9.673,5.627,14.51,7.553,24.183,10.181  c0,3.243,0,6.674,0,10.922c0,1.416,0,2.123,0,3.537c68.083,13.176,128.676-33.53,196.76-20.354c0-1.414,0-2.121,0-3.537  c0-4.949,0.002-8.787,0.002-12.514c0,0.48,0,0.949,0,1.592c9.677,2.625,14.515,4.551,24.188,10.178  c-1.146-1.812-1.709-2.711-2.854-4.479C261.846,159.967,259.002,155.846,253.32,148.072z M67.919,165.15  c3.646,0.175,7.28,0.205,10.896,0.104C75.199,165.355,71.568,165.327,67.919,165.15z"/>
<path fill="#141412" d="M246.092,114.682l-26.771-34.461l26.819-34.019c0.124-0.303,0.091-0.646-0.095-0.921  c-0.182-0.271-0.486-0.433-0.813-0.433h-41.315v63.36c0,0.666-0.271,1.312-0.756,1.772l-10.742,6.174h52.813  c0.003,0,0.008,0,0.011,0c0.543,0,0.98-0.438,0.98-0.985C246.222,114.996,246.176,114.827,246.092,114.682z"/>
<path fill="#141412" d="M47.602,36.869c0-0.682,0.287-1.34,0.788-1.803l0.13-0.12l0.156-0.086l10.704-5.937H6.053  c-0.327,0-0.633,0.162-0.815,0.435c-0.183,0.272-0.218,0.617-0.094,0.919l27.082,34.016L5.144,98.877  c-0.124,0.304-0.089,0.646,0.094,0.92c0.183,0.271,0.488,0.435,0.815,0.435h41.549V36.869z"/>
<g>
	<path fill="#141412" d="M109.781,84.592v0.389c0.235,0.017,0.466,0.025,0.691,0.035c0.224,0.008,0.445,0.011,0.667,0.011   c0.35,0,0.681-0.021,0.992-0.055c0.312-0.039,0.582-0.118,0.811-0.231c0.229-0.111,0.409-0.271,0.542-0.473   c0.134-0.201,0.2-0.467,0.2-0.793v-0.127c-0.016-0.312-0.093-0.562-0.234-0.745c-0.142-0.188-0.321-0.33-0.542-0.431   c-0.221-0.1-0.476-0.162-0.765-0.191c-0.289-0.032-0.594-0.048-0.913-0.048c-0.229,0-0.461,0.005-0.696,0.013   c-0.235,0.006-0.469,0.01-0.695,0.01c-0.031,0.178-0.053,0.359-0.063,0.553c-0.011,0.195-0.018,0.395-0.018,0.592   c0,0.25,0.005,0.503,0.012,0.752C109.777,84.103,109.781,84.35,109.781,84.592z"/>
	<path fill="#141412" d="M112.269,88.27c-0.29,0-0.589,0.013-0.896,0.044c-0.31,0.03-0.622,0.046-0.942,0.046   c-0.205,0-0.404-0.013-0.593-0.035c-0.031,0.208-0.053,0.42-0.063,0.645c-0.011,0.229-0.018,0.462-0.018,0.703   c0,0.289,0.005,0.576,0.012,0.869c0.008,0.287,0.012,0.572,0.012,0.854v0.442c0.099-0.014,0.197-0.021,0.297-0.021   c0.099,0,0.201,0,0.308,0c0.328,0,0.65,0.015,0.971,0.039c0.318,0.028,0.623,0.042,0.913,0.042c0.35,0,0.654-0.039,0.912-0.113   c0.167-0.056,0.316-0.14,0.445-0.259c0.13-0.118,0.24-0.253,0.331-0.405c0.092-0.15,0.16-0.316,0.205-0.502   c0.046-0.182,0.069-0.369,0.069-0.558c0-0.524-0.158-0.956-0.474-1.289C113.443,88.435,112.946,88.27,112.269,88.27z"/>
	<path fill="#141412" d="M133.461,86.306c-0.037-0.353-0.109-0.694-0.217-1.027c-0.105-0.337-0.246-0.646-0.423-0.926   c-0.183-0.295-0.421-0.57-0.714-0.826c-0.293-0.257-0.623-0.47-0.99-0.64c-0.371-0.17-0.773-0.295-1.213-0.365   c-0.438-0.071-0.896-0.071-1.374,0.007c-0.305,0.044-0.6,0.132-0.885,0.263c-0.285,0.129-0.55,0.284-0.793,0.467   c-0.244,0.183-0.464,0.387-0.662,0.604c-0.198,0.222-0.362,0.444-0.49,0.675c-0.274,0.479-0.442,1.027-0.503,1.648   c-0.062,0.619-0.062,1.285,0,2.002c0.259,0.671,0.602,1.245,1.027,1.724c0.426,0.479,0.924,0.892,1.495,1.231   c0.182,0,0.354,0.01,0.514,0.021c0.159,0.019,0.312,0.033,0.462,0.054c0.148,0.02,0.297,0.035,0.444,0.053   c0.147,0.016,0.304,0.016,0.463,0c0.44-0.023,0.862-0.117,1.269-0.279c0.401-0.164,0.767-0.376,1.09-0.642   c0.324-0.263,0.604-0.567,0.839-0.916c0.235-0.353,0.411-0.724,0.524-1.119c0.084-0.297,0.137-0.618,0.159-0.965   S133.5,86.656,133.461,86.306z"/>
	<path fill="#141412" d="M83.472,59.027c-0.33-0.97-0.657-1.951-0.982-2.934c-0.021-0.062-0.075-0.084-0.163-0.075   c-0.306,1.016-0.616,2.019-0.932,3.017c-0.315,0.994-0.655,1.969-1.02,2.926h4.065C84.125,60.974,83.802,59.996,83.472,59.027z"/>
	<path fill="#141412" d="M106.286,57.495c0.197-0.227,0.348-0.485,0.451-0.784c0.104-0.293,0.16-0.604,0.17-0.928   c0.01-0.327-0.037-0.638-0.141-0.931c-0.104-0.3-0.264-0.562-0.48-0.794c-0.217-0.23-0.498-0.396-0.842-0.495   c-0.267-0.08-0.533-0.122-0.799-0.126s-0.542,0-0.827,0.017c-0.286,0.013-0.584,0.029-0.895,0.042   c-0.311,0.018-0.644,0.008-0.998-0.021c-0.049,0.344-0.076,0.705-0.082,1.077c-0.004,0.375-0.004,0.761,0,1.153   c0.006,0.396,0.011,0.789,0.017,1.186c0.004,0.394,0.002,0.774-0.008,1.153c0.335-0.043,0.667-0.053,0.998-0.029   c0.329,0.017,0.654,0.037,0.976,0.059c0.319,0.018,0.628,0.029,0.923,0.029c0.296,0,0.577-0.046,0.843-0.135   C105.857,57.881,106.089,57.721,106.286,57.495z"/>
	<path fill="#141412" d="M95.385,86.504c-0.256-0.748-0.508-1.504-0.759-2.265c-0.016-0.046-0.058-0.065-0.126-0.059   c-0.236,0.782-0.476,1.562-0.719,2.329c-0.244,0.769-0.506,1.521-0.787,2.262h3.138C95.888,88.01,95.639,87.256,95.385,86.504z"/>
	<path fill="#141412" d="M200.461,36.887H51.058c-0.542,0-0.982,0.439-0.982,0.982v69.342c0,0.541,0.44,0.981,0.982,0.981h149.401   c0.543,0,0.981-0.44,0.981-0.981V37.869C201.443,37.327,201.004,36.887,200.461,36.887z M75.59,88.1   c0.099,0.387,0.255,0.766,0.468,1.138c0.092,0.159,0.191,0.302,0.302,0.429c0.11,0.125,0.225,0.245,0.343,0.365   c0.118,0.117,0.24,0.236,0.365,0.359c0.125,0.119,0.249,0.263,0.371,0.421c0.372,0.101,0.742,0.2,1.107,0.306   c0.364,0.1,0.756,0.152,1.175,0.152c0.32,0,0.628-0.036,0.925-0.108c0.297-0.073,0.574-0.164,0.833-0.28   c0.114-0.047,0.219-0.101,0.313-0.172c0.096-0.066,0.188-0.131,0.28-0.188c0.091-0.057,0.184-0.108,0.279-0.146   c0.095-0.041,0.196-0.063,0.302-0.063c0.092,0,0.21,0.085,0.354,0.254c0.145,0.165,0.303,0.372,0.473,0.612   c0.172,0.244,0.345,0.505,0.52,0.781c0.175,0.278,0.339,0.527,0.491,0.748c0.022,0.039,0.044,0.081,0.063,0.131   c0.019,0.052,0.039,0.09,0.062,0.119c0.061,0.078,0.138,0.168,0.234,0.271c0.094,0.104,0.142,0.226,0.142,0.372   c0,0.181-0.087,0.354-0.262,0.524c-0.176,0.164-0.387,0.319-0.634,0.459c-0.247,0.144-0.508,0.267-0.782,0.372   c-0.273,0.107-0.51,0.194-0.707,0.263c-0.434,0.151-0.907,0.27-1.421,0.348c-0.514,0.082-1.045,0.12-1.592,0.12   c-0.708,0-1.377-0.074-2.009-0.222s-1.224-0.361-1.774-0.642c-0.552-0.276-1.065-0.612-1.541-1.004   c-0.476-0.394-0.908-0.827-1.296-1.308c-0.318-0.39-0.604-0.787-0.856-1.198c-0.25-0.41-0.465-0.847-0.645-1.298   c-0.179-0.457-0.315-0.939-0.41-1.452c-0.096-0.509-0.143-1.056-0.143-1.642c0-0.785,0.104-1.547,0.313-2.289   c0.21-0.74,0.507-1.438,0.89-2.09c0.385-0.649,0.844-1.246,1.375-1.783c0.533-0.541,1.122-1.006,1.764-1.395   c0.644-0.39,1.336-0.689,2.077-0.9c0.742-0.213,1.509-0.32,2.3-0.32c0.867,0,1.691,0.117,2.471,0.348   c0.78,0.232,1.467,0.521,2.06,0.861c0.085,0.045,0.174,0.107,0.27,0.179c0.095,0.069,0.184,0.146,0.268,0.222   c0.084,0.075,0.152,0.152,0.205,0.229c0.054,0.077,0.08,0.147,0.08,0.217c0,0.075-0.032,0.173-0.097,0.286s-0.143,0.23-0.234,0.354   c-0.09,0.121-0.183,0.241-0.273,0.357c-0.092,0.12-0.164,0.221-0.218,0.305c-0.052,0.075-0.099,0.155-0.137,0.24   c-0.038,0.081-0.076,0.146-0.114,0.191c-0.113,0.16-0.226,0.307-0.336,0.438s-0.219,0.263-0.325,0.384   c-0.106,0.123-0.21,0.241-0.308,0.364c-0.1,0.12-0.195,0.25-0.286,0.39c-0.273-0.062-0.508-0.148-0.701-0.26   c-0.195-0.109-0.393-0.218-0.594-0.322c-0.202-0.107-0.431-0.202-0.685-0.278c-0.255-0.081-0.576-0.12-0.965-0.12   c-0.616,0-1.187,0.12-1.712,0.363c-0.525,0.246-0.978,0.566-1.357,0.971c-0.381,0.402-0.678,0.872-0.892,1.411   c-0.212,0.533-0.319,1.092-0.319,1.67C75.44,87.334,75.49,87.717,75.59,88.1z M84.337,67.023c-0.65-0.008-1.298-0.008-1.943-0.008   s-1.278-0.004-1.899-0.008c-0.62-0.006-1.208,0-1.759,0.008c-0.079,0.051-0.138,0.109-0.178,0.176   c-0.039,0.072-0.071,0.143-0.096,0.223s-0.044,0.164-0.06,0.252c-0.015,0.088-0.037,0.172-0.066,0.252   c-0.078,0.197-0.16,0.406-0.243,0.625c-0.084,0.225-0.179,0.449-0.281,0.676c-0.104,0.229-0.212,0.444-0.325,0.658   c-0.113,0.211-0.239,0.398-0.378,0.566c-0.403,0.021-0.852,0.042-1.345,0.066c-0.492,0.024-0.987,0.043-1.485,0.051   c-0.497,0.014-0.978-0.004-1.44-0.041c-0.463-0.042-0.862-0.118-1.197-0.239c-0.011-0.243,0.017-0.487,0.081-0.722   c0.063-0.239,0.143-0.471,0.237-0.697c0.093-0.227,0.191-0.448,0.295-0.671c0.104-0.224,0.199-0.444,0.288-0.671   c0.887-2.249,1.771-4.521,2.653-6.814c0.882-2.299,1.767-4.595,2.653-6.89c0.177-0.453,0.342-0.91,0.495-1.376   c0.153-0.462,0.312-0.919,0.479-1.364c0.168-0.448,0.354-0.889,0.562-1.325c0.207-0.434,0.452-0.849,0.739-1.242   c0.187,0.021,0.485,0.013,0.895-0.021c0.408-0.034,0.845-0.062,1.308-0.088c0.463-0.025,0.911-0.029,1.345-0.018   c0.434,0.018,0.773,0.088,1.02,0.219c0.139,0.066,0.26,0.176,0.362,0.322c0.104,0.147,0.2,0.319,0.288,0.513   c0.09,0.188,0.172,0.399,0.252,0.62c0.079,0.219,0.157,0.44,0.236,0.656c0.739,1.934,1.488,3.877,2.247,5.84   c0.758,1.959,1.507,3.873,2.246,5.734c0.315,0.799,0.636,1.577,0.961,2.342c0.325,0.765,0.576,1.535,0.753,2.312   c0.119,0.237,0.247,0.485,0.386,0.747c0.137,0.26,0.265,0.531,0.384,0.812c0.118,0.28,0.212,0.569,0.281,0.872   c0.067,0.298,0.099,0.604,0.088,0.906c-0.157,0.101-0.342,0.167-0.554,0.21c-0.212,0.037-0.437,0.059-0.673,0.066   c-0.237,0.004-0.479,0-0.73-0.008c-0.251-0.015-0.495-0.02-0.731-0.02c-0.503,0-0.993,0.005-1.471,0.009   c-0.479,0.004-0.915-0.024-1.309-0.097c-0.167-0.233-0.317-0.49-0.45-0.76c-0.134-0.272-0.256-0.555-0.369-0.854   c-0.114-0.293-0.223-0.596-0.325-0.9c-0.104-0.303-0.21-0.607-0.318-0.916C85.623,67.023,84.987,67.028,84.337,67.023z    M102.449,95.354c-0.164,0.03-0.337,0.048-0.52,0.052c-0.183,0.003-0.371,0.003-0.565-0.008c-0.193-0.005-0.382-0.008-0.564-0.008   c-0.388,0-0.767,0-1.136,0.006c-0.369,0.002-0.706-0.023-1.01-0.075c-0.13-0.185-0.245-0.379-0.349-0.589   c-0.103-0.208-0.197-0.428-0.285-0.654c-0.087-0.229-0.171-0.461-0.25-0.695c-0.081-0.236-0.162-0.475-0.246-0.711   c-0.479,0.012-0.97,0.012-1.473,0.008c-0.502-0.004-1.002-0.008-1.5-0.008c-0.499,0-0.987,0-1.468-0.004   c-0.479-0.006-0.932-0.003-1.357,0.004c-0.061,0.039-0.106,0.084-0.137,0.142c-0.03,0.051-0.056,0.108-0.074,0.169   c-0.02,0.061-0.033,0.125-0.046,0.193c-0.012,0.066-0.028,0.133-0.051,0.192c-0.062,0.152-0.124,0.314-0.188,0.485   c-0.064,0.173-0.138,0.343-0.217,0.519c-0.08,0.175-0.164,0.349-0.251,0.509c-0.088,0.166-0.185,0.312-0.292,0.44   c-0.312,0.013-0.657,0.033-1.038,0.049c-0.381,0.021-0.763,0.032-1.147,0.042c-0.384,0.008-0.755-0.003-1.112-0.035   c-0.357-0.027-0.666-0.091-0.924-0.182c-0.009-0.191,0.013-0.377,0.062-0.561c0.049-0.183,0.109-0.358,0.183-0.534   c0.072-0.175,0.148-0.351,0.229-0.521c0.079-0.17,0.153-0.345,0.222-0.519c0.686-1.733,1.368-3.49,2.049-5.262   c0.681-1.772,1.364-3.545,2.049-5.316c0.137-0.35,0.264-0.705,0.382-1.062c0.118-0.355,0.242-0.709,0.371-1.058   c0.13-0.347,0.273-0.687,0.435-1.021c0.159-0.336,0.349-0.653,0.57-0.959c0.144,0.017,0.375,0.011,0.69-0.017   c0.315-0.028,0.652-0.052,1.01-0.071c0.357-0.017,0.703-0.021,1.039-0.011c0.334,0.011,0.597,0.068,0.787,0.166   c0.106,0.054,0.199,0.138,0.279,0.251c0.08,0.114,0.154,0.245,0.223,0.395c0.069,0.148,0.133,0.309,0.194,0.479   c0.061,0.174,0.121,0.342,0.182,0.51c0.571,1.49,1.149,2.994,1.735,4.506c0.586,1.518,1.164,2.99,1.735,4.431   c0.242,0.614,0.49,1.218,0.741,1.808c0.251,0.592,0.444,1.188,0.582,1.789c0.091,0.182,0.19,0.372,0.297,0.575   c0.106,0.202,0.205,0.409,0.296,0.627c0.092,0.217,0.164,0.442,0.218,0.673c0.053,0.233,0.076,0.469,0.067,0.703   C102.755,95.27,102.612,95.326,102.449,95.354z M101.926,62.938c-0.078,0.558-0.111,1.17-0.097,1.829   c0.015,0.663,0.023,1.325,0.023,1.997c0,0.322,0.008,0.654,0.022,0.99s0.019,0.657,0.015,0.974   c-0.006,0.319-0.027,0.621-0.067,0.909c-0.039,0.291-0.113,0.56-0.222,0.807c-0.168,0.071-0.367,0.117-0.599,0.143   c-0.231,0.021-0.476,0.034-0.731,0.034c-0.257,0-0.515-0.005-0.776-0.013c-0.261-0.009-0.51-0.018-0.746-0.018   c-0.227,0-0.476,0.009-0.746,0.023c-0.271,0.014-0.532,0.02-0.783,0.014c-0.252-0.005-0.483-0.023-0.694-0.06   c-0.212-0.033-0.367-0.104-0.466-0.214c-0.119-0.117-0.195-0.361-0.23-0.729c-0.034-0.369-0.051-0.781-0.051-1.229   c0-0.449,0.007-0.89,0.021-1.322c0.015-0.432,0.019-0.78,0.008-1.036c-0.021-0.746-0.024-1.562-0.015-2.438   c0.009-0.877,0.015-1.779,0.015-2.706c0-0.925-0.008-1.851-0.022-2.778c-0.015-0.927-0.007-1.82,0.022-2.689   c0.02-0.246,0.055-0.489,0.104-0.736c0.05-0.248,0.073-0.486,0.073-0.727c-0.009-0.146-0.036-0.298-0.08-0.457   c-0.044-0.155-0.077-0.332-0.097-0.517c-0.029-0.386-0.042-0.793-0.037-1.221c0.006-0.429,0.017-0.835,0.037-1.218   c0.011-0.188,0.018-0.381,0.021-0.578c0.006-0.197,0.023-0.383,0.053-0.555c0.029-0.172,0.068-0.332,0.117-0.474   c0.05-0.144,0.124-0.265,0.223-0.36c0.602-0.06,1.261-0.093,1.98-0.098c0.719-0.005,1.451,0,2.195,0.008   c0.744,0.01,1.479,0.025,2.202,0.051c0.725,0.025,1.397,0.039,2.018,0.039c0.257,0,0.492-0.005,0.71-0.009   c0.216-0.004,0.429-0.009,0.635-0.009c0.207,0,0.412,0.009,0.614,0.018c0.201,0.008,0.421,0.033,0.657,0.075   c0.591,0.104,1.153,0.289,1.685,0.545c0.532,0.257,1.025,0.575,1.479,0.961c0.453,0.386,0.853,0.818,1.196,1.312   c0.346,0.486,0.632,1.015,0.858,1.586c0.167,0.415,0.306,0.859,0.413,1.339c0.109,0.478,0.157,0.96,0.148,1.442   c0,0.816-0.138,1.604-0.414,2.356c-0.275,0.751-0.653,1.438-1.13,2.062c-0.479,0.621-1.038,1.152-1.679,1.604   c-0.64,0.449-1.33,0.776-2.068,0.98c-0.139,0.052-0.299,0.09-0.48,0.113c-0.183,0.024-0.348,0.047-0.495,0.066   c-0.71,0.046-1.474,0.051-2.291,0.004C103.635,62.987,102.793,62.954,101.926,62.938z M118.911,91.26   c-0.076,0.34-0.183,0.666-0.32,0.978c-0.137,0.315-0.296,0.606-0.479,0.882c-0.183,0.271-0.38,0.522-0.594,0.742   c-0.167,0.175-0.363,0.346-0.588,0.518c-0.224,0.172-0.47,0.33-0.736,0.475c-0.266,0.146-0.547,0.271-0.844,0.377   s-0.602,0.174-0.913,0.207c-0.236,0.027-0.476,0.048-0.719,0.055c-0.244,0.012-0.495,0.016-0.753,0.016   c-0.525,0-1.061-0.016-1.604-0.037c-0.545-0.022-1.095-0.031-1.649-0.031h-2.328c-0.168,0-0.335,0.006-0.503,0.016   c-0.167,0.014-0.334,0.019-0.501,0.019c-0.198,0-0.394-0.015-0.589-0.048c-0.193-0.026-0.378-0.09-0.553-0.181   c-0.061-0.321-0.099-0.655-0.114-1.004c-0.016-0.351-0.022-0.707-0.022-1.073c0-0.35,0.003-0.703,0.011-1.056   c0.007-0.354,0.012-0.714,0.012-1.079v-8.627c0-0.253-0.008-0.555-0.022-0.908c-0.016-0.352-0.022-0.713-0.022-1.078   c0-0.287,0.007-0.561,0.022-0.811c0.015-0.252,0.045-0.469,0.091-0.65c0.046-0.181,0.108-0.322,0.188-0.429   c0.08-0.103,0.181-0.153,0.302-0.153c0.411-0.046,0.841-0.067,1.29-0.067c0.457,0,0.92,0.014,1.393,0.034   c0.472,0.021,0.943,0.033,1.415,0.033c0.319,0,0.628,0,0.925-0.004c0.296-0.008,0.588-0.008,0.879-0.008   c0.517,0,1.006,0.012,1.466,0.033s0.894,0.075,1.302,0.154c0.406,0.082,0.784,0.195,1.136,0.349   c0.35,0.151,0.668,0.358,0.958,0.617c0.084,0.075,0.16,0.167,0.229,0.272c0.068,0.104,0.141,0.199,0.217,0.283   c0.166,0.198,0.333,0.415,0.496,0.651c0.164,0.235,0.312,0.493,0.445,0.776c0.134,0.278,0.239,0.586,0.319,0.916   c0.08,0.33,0.12,0.686,0.12,1.059c0,0.273-0.025,0.525-0.075,0.765c-0.049,0.236-0.117,0.459-0.204,0.673   c-0.088,0.215-0.195,0.428-0.32,0.633c-0.125,0.213-0.261,0.422-0.404,0.636c0.197,0.305,0.398,0.604,0.604,0.907   c0.204,0.302,0.394,0.611,0.564,0.937c0.172,0.324,0.312,0.664,0.423,1.021c0.11,0.359,0.165,0.746,0.165,1.162   C119.025,90.565,118.987,90.916,118.911,91.26z M116.13,70.473c-0.099-0.197-0.168-0.398-0.207-0.612   c-0.039-0.21-0.062-0.428-0.065-0.649c-0.006-0.224-0.003-0.443,0.007-0.672c0.01-0.227,0.015-0.449,0.015-0.668V50.992   c0-0.206-0.005-0.419-0.015-0.633c-0.01-0.218-0.007-0.428,0.008-0.639c0.015-0.205,0.051-0.402,0.11-0.592   c0.06-0.185,0.162-0.353,0.311-0.498c0.71-0.043,1.552-0.067,2.527-0.076c0.976-0.008,2.003-0.018,3.082-0.018   c1.078,0,2.17,0.004,3.273,0.01c1.104,0.004,2.138,0.008,3.104,0.008c0.285,0,0.608-0.012,0.969-0.037   c0.359-0.025,0.715-0.038,1.063-0.038s0.665,0.021,0.944,0.059c0.281,0.042,0.486,0.126,0.613,0.253   c0.118,0.116,0.196,0.28,0.236,0.49c0.039,0.205,0.061,0.428,0.061,0.671c0,0.239-0.012,0.482-0.029,0.722   c-0.02,0.244-0.029,0.459-0.029,0.646c-0.01,0.205-0.01,0.415,0,0.625c0.01,0.214,0.01,0.419,0,0.621   c-0.01,0.205-0.029,0.398-0.061,0.587c-0.028,0.185-0.088,0.361-0.178,0.529c-0.354,0.108-0.729,0.185-1.123,0.222   c-0.396,0.042-0.799,0.062-1.211,0.066c-0.414,0.005-0.84,0-1.271-0.012c-0.435-0.018-0.868-0.025-1.301-0.025h-5.056v3.164   c0.604,0.08,1.241,0.113,1.922,0.104c0.68-0.012,1.374-0.017,2.084-0.017c0.345,0,0.689-0.009,1.035-0.021   c0.345-0.017,0.68-0.017,1.005-0.009c0.325,0.014,0.641,0.034,0.946,0.075c0.305,0.038,0.586,0.108,0.842,0.206   c0.118,0.256,0.176,0.574,0.17,0.951c-0.005,0.383-0.007,0.77-0.007,1.162c0,0.196,0.007,0.396,0.021,0.593   c0.016,0.196,0.019,0.387,0.01,0.565c-0.012,0.187-0.035,0.354-0.074,0.504c-0.039,0.154-0.107,0.28-0.207,0.377   c-0.138,0.14-0.359,0.23-0.665,0.272c-0.306,0.046-0.638,0.062-0.998,0.06c-0.359-0.004-0.727-0.021-1.102-0.052   c-0.374-0.028-0.699-0.046-0.975-0.046h-4.006v3.355c0.817,0.08,1.678,0.108,2.58,0.098c0.9-0.018,1.811-0.021,2.726-0.021   c0.444,0,0.89-0.01,1.339-0.024c0.446-0.015,0.889-0.019,1.321-0.015c0.435,0.007,0.854,0.025,1.256,0.067   c0.404,0.037,0.783,0.113,1.141,0.224c0.061,0.33,0.105,0.729,0.146,1.188c0.041,0.457,0.061,0.923,0.061,1.39   c0,0.471-0.027,0.918-0.081,1.348c-0.054,0.428-0.149,0.775-0.288,1.04c-0.621,0.146-1.26,0.215-1.914,0.191   c-0.654-0.021-1.322-0.028-2.004-0.028h-4.064c-1.379,0-2.748,0.009-4.108,0.028C118.658,70.688,117.361,70.62,116.13,70.473z    M137.981,88.369c-0.189,0.997-0.518,1.902-0.98,2.712c-0.465,0.812-0.998,1.522-1.599,2.138c-0.267,0.271-0.58,0.528-0.94,0.785   c-0.361,0.252-0.754,0.488-1.176,0.699c-0.423,0.213-0.867,0.402-1.336,0.562c-0.468,0.158-0.935,0.277-1.397,0.353   c-0.632,0.103-1.271,0.12-1.923,0.06c-0.65-0.062-1.289-0.188-1.912-0.383c-0.624-0.194-1.221-0.449-1.791-0.771   c-0.57-0.32-1.089-0.688-1.553-1.105c-0.312-0.281-0.626-0.623-0.941-1.021c-0.315-0.396-0.604-0.846-0.867-1.342   c-0.263-0.495-0.485-1.029-0.668-1.609c-0.183-0.576-0.301-1.186-0.354-1.824c-0.038-0.427-0.038-0.867,0-1.324   c0.038-0.491,0.12-0.989,0.245-1.494c0.126-0.5,0.276-0.947,0.451-1.336c0.046-0.104,0.106-0.2,0.183-0.289   c0.075-0.088,0.141-0.182,0.193-0.28c0.069-0.138,0.116-0.267,0.145-0.394c0.026-0.127,0.062-0.225,0.108-0.291   c0.046-0.076,0.104-0.138,0.177-0.184c0.072-0.045,0.139-0.109,0.199-0.193c0.03-0.039,0.052-0.08,0.063-0.133   c0.011-0.049,0.032-0.095,0.062-0.131c0.023-0.031,0.054-0.051,0.092-0.062c0.038-0.01,0.069-0.025,0.092-0.053   c0.114-0.127,0.221-0.267,0.318-0.414c0.1-0.148,0.207-0.285,0.321-0.403c0.289-0.312,0.627-0.603,1.016-0.862   c0.388-0.263,0.802-0.502,1.243-0.713c0.472-0.223,0.951-0.414,1.438-0.576c0.487-0.165,1.016-0.267,1.587-0.305   c0.723-0.053,1.411-0.036,2.064,0.048c0.653,0.081,1.287,0.254,1.896,0.513c0.175,0.076,0.358,0.155,0.548,0.232   c0.189,0.081,0.365,0.172,0.523,0.27c0.222,0.129,0.43,0.258,0.623,0.383c0.195,0.127,0.383,0.26,0.563,0.397   c0.185,0.146,0.357,0.292,0.525,0.453c0.167,0.16,0.335,0.338,0.502,0.535c0.015,0.017,0.046,0.024,0.091,0.028   c0.046,0.002,0.076,0.013,0.092,0.027c0.018,0.023,0.018,0.057,0,0.102c-0.016,0.05-0.016,0.078,0,0.095   c0.106,0.121,0.215,0.239,0.32,0.358c0.104,0.117,0.21,0.239,0.312,0.362c0.104,0.127,0.2,0.263,0.297,0.411   c0.096,0.148,0.185,0.314,0.27,0.497c0.027,0.062,0.037,0.132,0.021,0.214c-0.017,0.077-0.004,0.154,0.033,0.232   c0.021,0.039,0.065,0.066,0.131,0.091c0.064,0.021,0.104,0.059,0.119,0.104c0.131,0.282,0.247,0.612,0.354,0.991   c0.106,0.383,0.188,0.787,0.245,1.223c0.057,0.435,0.086,0.875,0.086,1.324C138.095,87.518,138.057,87.952,137.981,88.369z    M153.252,81.991c-0.039,0.167-0.131,0.302-0.274,0.397c-0.13,0.094-0.295,0.152-0.497,0.184c-0.201,0.03-0.421,0.043-0.661,0.034   c-0.239-0.007-0.491-0.022-0.76-0.052c-0.267-0.026-0.529-0.051-0.791-0.072c-0.265-0.025-0.513-0.035-0.749-0.035   c-0.234,0-0.449,0.023-0.641,0.068c-0.028,0.769-0.049,1.556-0.058,2.361c-0.007,0.807-0.012,1.623-0.012,2.447   c0,0.826,0.002,1.652,0.006,2.48c0.005,0.828,0.006,1.652,0.006,2.467c0,0.266,0.007,0.529,0.019,0.801   c0.012,0.268,0.014,0.523,0.007,0.779c-0.009,0.257-0.03,0.506-0.068,0.75c-0.038,0.24-0.106,0.476-0.206,0.693   c-0.289,0.045-0.621,0.082-0.998,0.113c-0.377,0.029-0.759,0.047-1.146,0.047c-0.39,0-0.767-0.018-1.132-0.053   c-0.363-0.036-0.676-0.095-0.936-0.178c-0.085-0.244-0.142-0.493-0.172-0.752c-0.029-0.26-0.048-0.522-0.051-0.788   c-0.004-0.267,0-0.534,0.012-0.804c0.012-0.271,0.018-0.541,0.018-0.809c0.021-1.482,0.023-3.012,0.007-4.588   c-0.021-1.574-0.021-3.21-0.007-4.907c-0.318-0.065-0.678-0.097-1.072-0.084c-0.396,0.011-0.791,0.022-1.188,0.032   c-0.396,0.013-0.771,0.007-1.131-0.018c-0.357-0.021-0.654-0.105-0.89-0.25c-0.101-0.184-0.146-0.42-0.138-0.709   c0.009-0.287,0.012-0.575,0.012-0.866c0-0.259-0.003-0.517-0.012-0.774c-0.008-0.26,0.004-0.49,0.033-0.701   c0.029-0.207,0.096-0.391,0.193-0.541c0.1-0.152,0.259-0.258,0.479-0.311c0.067-0.018,0.16-0.023,0.272-0.029   c0.114-0.002,0.229,0.006,0.349,0.023c0.118,0.019,0.226,0.049,0.319,0.091c0.095,0.041,0.158,0.098,0.188,0.165l-0.104,0.066   c0.038,0.019,0.075,0.033,0.108,0.049c0.033,0.015,0.062,0.029,0.086,0.047l-0.034-0.096c0.092-0.098,0.205-0.168,0.342-0.215   c0.14-0.048,0.282-0.076,0.437-0.093c0.15-0.014,0.308-0.021,0.468-0.017c0.159,0.003,0.312,0.006,0.456,0.006   c0.738-0.016,1.529-0.02,2.374-0.014c0.845,0.011,1.692,0.014,2.546,0.014c0.418,0,0.837-0.003,1.255-0.014   c0.418-0.006,0.827-0.009,1.226-0.002c0.401,0.002,0.791,0.013,1.166,0.03c0.377,0.021,0.731,0.058,1.066,0.109   c0.122,0.112,0.189,0.251,0.206,0.409c0.015,0.16,0.028,0.34,0.045,0.537c0.015,0.151,0.007,0.308-0.022,0.468   c-0.028,0.161-0.041,0.315-0.033,0.47c0,0.152,0.018,0.322,0.052,0.514c0.032,0.188,0.057,0.381,0.067,0.567   C153.302,81.644,153.29,81.822,153.252,81.991z M153.657,70.557c-0.216,0.062-0.455,0.102-0.717,0.109   c-0.261,0.008-0.531,0.004-0.812-0.019c-0.279-0.019-0.554-0.029-0.818-0.029c-0.273,0-0.559,0.015-0.844,0.029   c-0.285,0.021-0.566,0.038-0.842,0.046c-0.276,0.009-0.535,0.004-0.775-0.013c-0.242-0.021-0.456-0.071-0.645-0.151   c-0.119-0.046-0.227-0.134-0.324-0.256c-0.1-0.125-0.194-0.27-0.289-0.434c-0.094-0.158-0.186-0.332-0.272-0.508   s-0.172-0.344-0.251-0.504c-0.229-0.443-0.468-0.9-0.727-1.371c-0.256-0.475-0.512-0.949-0.768-1.423   c-0.257-0.47-0.503-0.936-0.74-1.389c-0.233-0.453-0.441-0.882-0.619-1.284h-2.201v3.663c0,0.319,0.008,0.629,0.021,0.933   c0.015,0.307,0.021,0.604,0.015,0.895c-0.006,0.294-0.025,0.572-0.064,0.844c-0.04,0.271-0.107,0.521-0.208,0.766   c-0.305,0.045-0.682,0.096-1.131,0.138c-0.447,0.046-0.906,0.071-1.374,0.075s-0.909-0.021-1.322-0.075   c-0.414-0.056-0.744-0.159-0.988-0.318c-0.021,0.121-0.055,0.197-0.099,0.239c-0.044,0.037-0.101,0.055-0.17,0.05   c-0.067-0.004-0.146-0.021-0.229-0.042c-0.084-0.025-0.166-0.05-0.243-0.066c-0.101-0.195-0.165-0.406-0.2-0.621   c-0.034-0.219-0.055-0.437-0.061-0.657c-0.004-0.224-0.002-0.444,0.008-0.673c0.011-0.227,0.017-0.447,0.017-0.668V50.963   c0-0.205-0.008-0.418-0.022-0.633c-0.016-0.219-0.016-0.428,0-0.638c0.017-0.206,0.054-0.399,0.11-0.583   c0.06-0.18,0.163-0.348,0.312-0.495c0.75,0.021,1.574,0.008,2.477-0.028c0.902-0.039,1.826-0.076,2.771-0.105   c0.944-0.029,1.879-0.046,2.802-0.051c0.921-0.004,1.771,0.025,2.549,0.097c0.906,0.08,1.767,0.323,2.579,0.729   c0.812,0.412,1.529,0.937,2.15,1.582c0.621,0.646,1.112,1.394,1.478,2.24c0.364,0.848,0.552,1.75,0.562,2.706   c0.01,0.757-0.084,1.437-0.281,2.031c-0.195,0.595-0.461,1.141-0.797,1.632c-0.336,0.495-0.721,0.944-1.151,1.355   c-0.435,0.406-0.883,0.797-1.347,1.175c0.475,1.053,0.982,2.077,1.529,3.067c0.547,0.987,1.092,2.004,1.633,3.049   c0.09,0.16,0.188,0.318,0.289,0.485c0.104,0.168,0.198,0.341,0.289,0.515c0.088,0.172,0.156,0.353,0.205,0.537   c0.051,0.188,0.064,0.381,0.045,0.578C154.042,70.377,153.874,70.49,153.657,70.557z M160.618,81.592   c-0.019,0.373-0.027,0.668-0.027,0.891c0,0.729-0.008,1.406-0.022,2.032c-0.015,0.622-0.028,1.161-0.046,1.62   c-0.016,0.69-0.021,1.348-0.018,1.961c0.006,0.617,0.009,1.213,0.013,1.787c0.004,0.57,0.008,1.138,0.012,1.688   c0.003,0.555,0.001,1.111-0.007,1.672c0,0.247,0.008,0.457,0.021,0.635c0.017,0.178,0.022,0.35,0.022,0.51   c0,0.158-0.015,0.312-0.046,0.459c-0.03,0.148-0.091,0.31-0.182,0.478c-0.291,0.054-0.619,0.091-0.987,0.12   c-0.369,0.025-0.746,0.04-1.13,0.04c-0.385,0-0.762-0.015-1.131-0.04c-0.368-0.029-0.693-0.066-0.977-0.12   c-0.099-0.077-0.164-0.188-0.193-0.337c-0.03-0.146-0.045-0.312-0.045-0.492c0-0.178,0.011-0.359,0.026-0.541   c0.021-0.182,0.029-0.353,0.029-0.514c0-1.014-0.011-2.053-0.029-3.114c-0.019-1.065-0.038-2.153-0.057-3.267   c-0.021-1.11-0.03-2.251-0.034-3.426c-0.003-1.17,0.013-2.371,0.052-3.604c0.009-0.214,0.015-0.412,0.019-0.602   c0.005-0.185,0.023-0.353,0.062-0.502c0.039-0.147,0.101-0.269,0.185-0.364c0.084-0.097,0.205-0.152,0.363-0.177   c0.115-0.016,0.283-0.027,0.51-0.039c0.224-0.014,0.474-0.019,0.748-0.024c0.271-0.002,0.559-0.002,0.854,0   c0.298,0.008,0.572,0.022,0.827,0.053c0.256,0.032,0.476,0.074,0.661,0.128c0.187,0.053,0.308,0.121,0.359,0.204   c0.092,0.128,0.15,0.358,0.178,0.687c0.025,0.326,0.035,0.684,0.027,1.064C160.651,80.84,160.637,81.219,160.618,81.592z    M161.491,69.411c-0.738-0.415-1.408-0.894-2.011-1.435c-0.403-0.365-0.812-0.807-1.219-1.322c-0.409-0.52-0.783-1.099-1.123-1.736   c-0.341-0.643-0.629-1.339-0.865-2.086c-0.235-0.751-0.39-1.535-0.458-2.365c-0.049-0.551-0.049-1.119,0-1.713   c0.05-0.642,0.155-1.287,0.318-1.938c0.162-0.65,0.354-1.225,0.582-1.729c0.061-0.141,0.14-0.267,0.238-0.379   c0.098-0.113,0.182-0.233,0.25-0.359c0.09-0.176,0.148-0.35,0.186-0.512c0.033-0.16,0.081-0.287,0.14-0.379   c0.062-0.097,0.136-0.176,0.229-0.234s0.18-0.143,0.259-0.251c0.04-0.046,0.067-0.105,0.082-0.167   c0.015-0.067,0.042-0.122,0.08-0.172c0.03-0.039,0.069-0.067,0.118-0.08c0.05-0.018,0.089-0.038,0.119-0.067   c0.146-0.168,0.285-0.348,0.412-0.541c0.129-0.188,0.268-0.364,0.416-0.524c0.373-0.402,0.812-0.775,1.313-1.115   s1.039-0.646,1.61-0.924c0.609-0.285,1.23-0.532,1.86-0.746c0.632-0.211,1.315-0.34,2.056-0.391   c0.937-0.066,1.826-0.05,2.676,0.061c0.848,0.107,1.664,0.332,2.453,0.667c0.228,0.096,0.464,0.196,0.709,0.302   c0.246,0.102,0.475,0.218,0.682,0.35c0.285,0.166,0.555,0.33,0.807,0.494c0.252,0.159,0.494,0.331,0.73,0.516   c0.234,0.182,0.463,0.379,0.681,0.584s0.435,0.44,0.65,0.697c0.019,0.018,0.059,0.029,0.116,0.033   c0.061,0.008,0.1,0.021,0.117,0.038c0.021,0.03,0.021,0.076,0,0.134c-0.02,0.06-0.02,0.098,0,0.118   c0.141,0.16,0.276,0.315,0.416,0.465c0.138,0.155,0.271,0.312,0.404,0.476c0.135,0.162,0.262,0.34,0.385,0.533   c0.123,0.188,0.238,0.402,0.349,0.642c0.038,0.08,0.05,0.168,0.028,0.271c-0.02,0.105-0.004,0.206,0.045,0.303   c0.028,0.052,0.086,0.09,0.17,0.117c0.084,0.029,0.137,0.075,0.154,0.136c0.168,0.364,0.32,0.793,0.459,1.286   c0.137,0.492,0.243,1.021,0.317,1.582c0.073,0.561,0.11,1.135,0.11,1.713c0,0.582-0.049,1.146-0.147,1.688   c-0.246,1.288-0.67,2.459-1.271,3.508c-0.604,1.055-1.293,1.979-2.07,2.773c-0.346,0.344-0.751,0.684-1.219,1.012   c-0.469,0.331-0.978,0.635-1.522,0.91s-1.124,0.518-1.729,0.727c-0.604,0.207-1.209,0.355-1.812,0.459   c-0.815,0.125-1.647,0.148-2.489,0.068c-0.843-0.075-1.668-0.242-2.477-0.494S162.23,69.822,161.491,69.411z M179.221,94.635   c-0.036,0.235-0.115,0.457-0.235,0.664c-0.29,0.104-0.622,0.15-1,0.143c-0.376-0.014-0.754-0.02-1.134-0.02   c-0.191,0-0.387,0.01-0.583,0.021c-0.198,0.019-0.39,0.028-0.577,0.037c-0.184,0.005-0.365,0.005-0.533-0.009   c-0.172-0.01-0.324-0.049-0.453-0.104c-0.082-0.039-0.17-0.122-0.263-0.239c-0.092-0.123-0.185-0.264-0.28-0.426   c-0.094-0.158-0.187-0.32-0.277-0.482c-0.092-0.164-0.176-0.309-0.25-0.426c-0.441-0.718-0.862-1.403-1.264-2.062   c-0.396-0.658-0.814-1.338-1.248-2.038c-0.146-0.229-0.283-0.457-0.412-0.685c-0.129-0.229-0.227-0.502-0.283-0.822   c-0.107-0.028-0.192-0.081-0.26-0.155c-0.063-0.069-0.125-0.146-0.188-0.22c-0.131-0.17-0.247-0.352-0.354-0.549   c-0.107-0.196-0.215-0.397-0.32-0.601c-0.105-0.204-0.215-0.401-0.324-0.597c-0.109-0.189-0.238-0.368-0.382-0.527v7.496   c0,0.197,0.005,0.396,0.017,0.594c0.012,0.196,0.018,0.396,0.012,0.59c-0.004,0.194-0.021,0.385-0.051,0.563   c-0.031,0.183-0.088,0.353-0.172,0.515c-0.273,0.045-0.599,0.082-0.971,0.113c-0.373,0.029-0.754,0.046-1.143,0.046   c-0.39,0-0.763-0.017-1.125-0.046c-0.358-0.031-0.666-0.086-0.916-0.171c-0.045-0.253-0.084-0.542-0.109-0.869   s-0.047-0.667-0.062-1.02c-0.016-0.354-0.021-0.71-0.021-1.065c0-0.361,0.003-0.697,0.009-1.018c0-0.092,0-0.192-0.005-0.299   c-0.003-0.104,0-0.207,0.013-0.31c0.014-0.098,0.035-0.188,0.067-0.271c0.035-0.084,0.094-0.148,0.178-0.194   c-0.084-0.051-0.143-0.129-0.178-0.229c-0.032-0.098-0.056-0.213-0.067-0.346c-0.013-0.134-0.014-0.279-0.008-0.436   c0.01-0.154,0.01-0.32,0-0.496c-0.021-0.569-0.031-1.204-0.027-1.904c0.006-0.699,0.014-1.409,0.022-2.129   c0.013-0.719,0.024-1.419,0.041-2.096c0.015-0.678,0.022-1.276,0.022-1.801c0-0.215-0.013-0.453-0.034-0.722   c-0.024-0.269-0.027-0.521-0.013-0.761c0.016-0.24,0.063-0.444,0.148-0.616c0.083-0.171,0.24-0.269,0.467-0.291   c0.1-0.014,0.258-0.028,0.475-0.045c0.217-0.015,0.464-0.024,0.735-0.033c0.273-0.01,0.562-0.013,0.861-0.019   c0.3-0.004,0.585,0,0.856,0.006c0.27,0.009,0.51,0.021,0.719,0.046c0.207,0.021,0.357,0.06,0.449,0.104   c0.129,0.062,0.219,0.156,0.265,0.277c0.047,0.126,0.104,0.243,0.171,0.352c0.29,0.334,0.544,0.692,0.768,1.078   c0.219,0.383,0.445,0.759,0.685,1.123c0.233,0.373,0.479,0.744,0.729,1.111c0.25,0.369,0.448,0.774,0.595,1.217   c0.266,0.279,0.506,0.586,0.723,0.913c0.218,0.325,0.43,0.66,0.635,0.996c0.205,0.343,0.413,0.681,0.617,1.023   c0.204,0.341,0.425,0.665,0.661,0.968v-6.855c0-0.187-0.005-0.365-0.011-0.55c-0.01-0.184-0.013-0.36-0.006-0.536   c0.002-0.176,0.02-0.348,0.051-0.514c0.029-0.168,0.084-0.326,0.158-0.479c0.123-0.076,0.269-0.129,0.439-0.155   c0.173-0.026,0.354-0.042,0.547-0.045c0.194-0.003,0.396,0,0.605,0.006c0.207,0.008,0.41,0.011,0.607,0.011   c0.199,0,0.398-0.003,0.602-0.011c0.199-0.006,0.395-0.006,0.576,0c0.184,0.008,0.354,0.03,0.51,0.067   c0.154,0.041,0.285,0.104,0.392,0.193c0.078,0.372,0.123,0.752,0.142,1.135c0.013,0.387,0.016,0.771,0.004,1.159   c-0.013,0.39-0.026,0.774-0.047,1.164c-0.02,0.39-0.027,0.765-0.027,1.132v9.256c0,0.22,0.013,0.453,0.042,0.7   c0.024,0.247,0.041,0.493,0.044,0.742C179.268,94.158,179.254,94.402,179.221,94.635z"/>
	<path fill="#141412" d="M166.952,65.199c0.192,0.018,0.395,0.018,0.602,0c0.57-0.029,1.117-0.15,1.641-0.365   c0.521-0.209,0.992-0.484,1.411-0.826c0.419-0.34,0.781-0.737,1.086-1.19c0.308-0.453,0.533-0.937,0.683-1.447   c0.106-0.382,0.178-0.802,0.207-1.251c0.027-0.443,0.02-0.896-0.029-1.351c-0.051-0.453-0.146-0.897-0.281-1.33   c-0.139-0.433-0.32-0.831-0.547-1.195c-0.236-0.387-0.545-0.741-0.924-1.073c-0.381-0.326-0.81-0.604-1.286-0.826   c-0.479-0.224-1.001-0.377-1.567-0.476c-0.566-0.093-1.16-0.088-1.781,0.009c-0.393,0.059-0.772,0.172-1.145,0.338   c-0.37,0.168-0.712,0.371-1.027,0.608c-0.313,0.235-0.601,0.495-0.855,0.781c-0.258,0.284-0.471,0.579-0.637,0.872   c-0.354,0.621-0.57,1.335-0.648,2.136c-0.08,0.806-0.08,1.67,0,2.593c0.334,0.869,0.777,1.611,1.33,2.232   c0.552,0.621,1.195,1.152,1.936,1.599c0.236,0,0.459,0.009,0.665,0.029c0.207,0.021,0.406,0.042,0.601,0.067   C166.568,65.157,166.76,65.178,166.952,65.199z"/>
	<path fill="#141412" d="M146.415,58.058c0.396-0.229,0.684-0.562,0.864-1.003c0.183-0.444,0.252-0.902,0.207-1.377   c-0.044-0.476-0.196-0.914-0.457-1.32c-0.262-0.412-0.629-0.697-1.102-0.865c-0.296-0.101-0.591-0.154-0.88-0.172   c-0.291-0.013-0.59-0.013-0.896,0c-0.305,0.018-0.626,0.029-0.96,0.046c-0.335,0.013-0.7,0-1.095-0.038   c-0.051,0.383-0.078,0.784-0.09,1.204c-0.01,0.42-0.012,0.845-0.008,1.279c0.006,0.433,0.012,0.864,0.018,1.301   c0.004,0.433,0.002,0.856-0.01,1.271c0.396-0.027,0.795-0.031,1.197-0.008c0.403,0.024,0.797,0.037,1.176,0.041   c0.379,0.01,0.74-0.012,1.086-0.059C145.814,58.317,146.129,58.217,146.415,58.058z"/>
</g>
</svg>