<svg xmlns="http://www.w3.org/2000/svg" xmlns:xlink="http://www.w3.org/1999/xlink" version="1.1" id="Calque_1" x="0px" y="0px" width="255.118px" height="170.078px" viewBox="0 0 255.118 170.078" enable-background="new 0 0 255.118 170.078" xml:space="preserve">
<g>
	<path fill="#141412" d="M44.118,32.681c0.552,0.041,1.105,0.052,1.66,0.03c0.551-0.019,1.105-0.019,1.658,0   c0.552,0.022,1.084,0.086,1.595,0.194c0.51,0.104,0.979,0.328,1.403,0.668c0.467-0.128,0.871-0.064,1.212,0.188   c0.34,0.256,0.639,0.533,0.893,0.831c0.127,0.341,0.192,0.723,0.192,1.147c0,0.426,0.04,0.809,0.127,1.148   c0.042,0.467,0.021,0.914-0.063,1.34c-0.086,0.426-0.064,0.873,0.063,1.338c-0.214,0.893-0.214,1.787,0,2.678   c-0.087,0.215-0.182,0.449-0.287,0.703c-0.106,0.256-0.286,0.445-0.542,0.574c-0.383,0.127-0.701,0.127-0.957,0   c-0.256-0.129-0.51-0.289-0.765-0.479c-0.255-0.192-0.521-0.371-0.798-0.542c-0.278-0.169-0.605-0.191-0.989-0.062   c-0.468,0-0.925-0.033-1.371-0.096c-0.447-0.062-0.882-0.012-1.309,0.158c-1.019,0.298-1.764,0.893-2.231,1.786   c-0.468,0.893-0.916,1.745-1.34,2.553c0.085,0.47,0.01,0.838-0.223,1.115c-0.234,0.276-0.309,0.629-0.223,1.053   c-0.086,0.511-0.213,1.021-0.383,1.532s-0.213,1.062-0.127,1.657c-0.214,0.509-0.246,1.03-0.095,1.562   c0.148,0.531,0.179,1.095,0.095,1.689c0.084,0.552,0.094,1.116,0.032,1.69c-0.065,0.574,0.031,1.094,0.288,1.562   c-0.087,0.384-0.065,0.723,0.062,1.021c0.129,0.299,0.256,0.598,0.384,0.894c-0.043,0.893,0.19,1.681,0.702,2.36   c0.51,0.683,1.083,1.299,1.723,1.851c0.381,0.51,0.828,0.84,1.337,0.989c0.513,0.148,1.043,0.266,1.596,0.351   c0.468-0.084,0.903-0.169,1.308-0.254c0.404-0.086,0.796-0.233,1.18-0.446c0.296-0.425,0.679-0.595,1.148-0.512   c0.467,0.087,0.893,0.087,1.276,0c0.383,0.299,0.552,0.639,0.51,1.021c0.042,0.512,0.042,1.031,0,1.562   c-0.044,0.531,0,1.031,0.127,1.5c-0.171,0.511-0.223,1.062-0.159,1.658c0.065,0.597,0.032,1.17-0.095,1.722   c0.21,0.341,0.232,0.662,0.064,0.957c-0.172,0.298-0.318,0.575-0.447,0.829c-0.596,0.597-1.256,1.012-1.978,1.245   c-0.724,0.233-1.466,0.436-2.233,0.604c-1.148,0.13-2.307,0.14-3.476,0.032s-2.244-0.371-3.221-0.797   c-0.978-0.128-1.745-0.51-2.296-1.148c-0.34,0.043-0.585-0.096-0.733-0.416c-0.15-0.318-0.395-0.498-0.734-0.541   c-0.469-0.511-0.946-1.012-1.434-1.5c-0.49-0.488-0.841-1.031-1.053-1.625c-0.085-0.213-0.214-0.394-0.382-0.543   c-0.171-0.148-0.298-0.33-0.383-0.541c-0.085-0.34-0.212-0.648-0.382-0.926c-0.172-0.277-0.352-0.564-0.542-0.861   c-0.192-0.297-0.374-0.596-0.542-0.894c-0.17-0.297-0.277-0.616-0.319-0.957c0-0.384-0.054-0.733-0.16-1.053   s-0.214-0.638-0.319-0.957c-0.106-0.318-0.202-0.638-0.288-0.955c-0.084-0.321-0.084-0.65,0-0.991   c-0.467-0.848-0.679-1.807-0.636-2.869c0.04-1.062,0-2.082-0.127-3.062c-0.043-0.724-0.076-1.425-0.096-2.106   c-0.023-0.68-0.033-1.381-0.033-2.104c0.34-0.596,0.543-1.221,0.606-1.883c0.065-0.659,0.118-1.349,0.159-2.072   c0.043-0.297,0.127-0.563,0.256-0.797c0.127-0.235,0.148-0.521,0.064-0.862c0.212-0.467,0.403-0.914,0.574-1.34   c0.169-0.425,0.297-0.87,0.383-1.339c0.341-0.639,0.584-1.307,0.734-2.008c0.148-0.703,0.541-1.287,1.18-1.756   c0.339-0.765,0.786-1.444,1.339-2.041c0.935-0.806,1.881-1.572,2.839-2.296c0.957-0.722,2.009-1.231,3.157-1.529   c0.341-0.044,0.648-0.14,0.926-0.289C43.47,32.881,43.778,32.765,44.118,32.681z"/>
	<path fill="#141412" d="M78.307,33.125c0.594,0,1.158,0.013,1.69,0.034c0.531,0.02,0.988,0.308,1.37,0.86   c0.426,0.765,0.618,1.648,0.575,2.646c-0.042,1.001-0.084,1.944-0.127,2.839c-0.127,0.213-0.17,0.469-0.127,0.766   c0.042,0.297,0.084,0.553,0.127,0.765c0.085,1.573,0.116,3.169,0.096,4.784c-0.021,1.617-0.011,3.168,0.031,4.658l-0.127,0.381   c0,1.19,0,2.382,0,3.571c0,1.191-0.042,2.341-0.127,3.444c0.042,0.511,0.116,1.021,0.223,1.532   c0.106,0.511,0.075,1.021-0.096,1.532c-0.127,0.297-0.182,0.604-0.16,0.924c0.021,0.318,0.055,0.628,0.099,0.926   c0.04,0.298,0.083,0.604,0.127,0.925c0.041,0.318,0.02,0.625-0.065,0.925c-0.127,0.342-0.16,0.678-0.095,1.021   c0.063,0.341,0.052,0.68-0.032,1.021c0.17,0.596,0.254,1.211,0.254,1.85c0,0.638-0.042,1.255-0.127,1.851   c0.171,0.467,0.159,0.915-0.031,1.339c-0.191,0.426-0.181,0.852,0.031,1.275c0.043,0.467,0.021,0.893-0.062,1.275   c-0.087,0.381-0.321,0.68-0.703,0.893c-0.086,0.043-0.182,0.119-0.287,0.224c-0.107,0.107-0.223,0.201-0.352,0.286   c-0.468,0-0.935,0.021-1.402,0.062c-0.468,0.043-0.916-0.041-1.34-0.254c-0.34,0.041-0.659,0.075-0.957,0.096   c-0.298,0.021-0.617,0.011-0.956-0.03c-0.553,0.126-1.107,0.14-1.658,0.03c-0.554-0.105-1.106-0.202-1.659-0.287   c-0.128-0.084-0.266-0.192-0.414-0.318c-0.149-0.128-0.266-0.277-0.352-0.447c-0.041-0.553-0.084-1.084-0.128-1.596   c-0.042-0.51-0.105-1.041-0.19-1.593c0.084-0.426,0.106-0.831,0.063-1.211c-0.043-0.384-0.022-0.81,0.065-1.277l0.127-0.256   c0.04-0.765,0.009-1.507-0.096-2.229c-0.108-0.725-0.119-1.447-0.031-2.17c0.083-0.338,0.127-0.701,0.127-1.084   c0-0.381-0.044-0.744-0.127-1.082c0.041-0.598,0.073-1.213,0.094-1.851c0.021-0.64-0.182-1.172-0.604-1.596   c-0.256-0.043-0.479-0.149-0.671-0.32c-0.191-0.17-0.437-0.19-0.733-0.063c-0.341,0.299-0.692,0.384-1.052,0.256   c-0.363-0.126-0.714-0.105-1.053,0.062c-0.256-0.085-0.501-0.062-0.735,0.064c-0.233,0.126-0.458,0.232-0.669,0.318   c-0.468,0.467-0.65,1.053-0.542,1.754c0.105,0.703,0.117,1.35,0.031,1.945c-0.17,0.51-0.191,1.021-0.063,1.531   c0.127,0.511,0.211,0.999,0.254,1.466c-0.254,0.767-0.309,1.563-0.16,2.394s0.139,1.604-0.031,2.328   c-0.041,0.127-0.022,0.233,0.064,0.318c0.084,0.087,0.127,0.17,0.127,0.257c-0.085,0.595-0.117,1.212-0.095,1.852   c0.021,0.636-0.01,1.255-0.096,1.85c-0.17,0.341-0.426,0.616-0.764,0.827c-0.341,0.215-0.724,0.277-1.148,0.191   c-0.299-0.086-0.585-0.098-0.862-0.031c-0.276,0.062-0.563,0.096-0.861,0.096c-0.809,0.044-1.627,0.057-2.457,0.032   c-0.829-0.021-1.604-0.032-2.328-0.032c-0.34,0-0.627-0.137-0.86-0.414c-0.235-0.275-0.458-0.521-0.671-0.732   c-0.297-0.467-0.393-0.978-0.288-1.531c0.108-0.553,0.118-1.126,0.033-1.723c0.085-0.297,0.085-0.595,0-0.893   s-0.128-0.615-0.128-0.957c0-0.469,0.054-0.938,0.16-1.404c0.105-0.467,0.053-0.934-0.16-1.402   c0.085-0.426,0.073-0.829-0.032-1.211c-0.105-0.385-0.052-0.788,0.16-1.213c-0.085-0.553-0.085-1.073,0-1.562   c0.085-0.49,0.085-0.988,0-1.5c0-1.232-0.011-2.434-0.033-3.604c-0.021-1.17,0.012-2.37,0.099-3.604   c-0.172-0.51-0.204-1.019-0.099-1.532c0.108-0.508,0.075-1.021-0.095-1.529c0.085-0.767,0.128-1.477,0.128-2.137   c0-0.658-0.043-1.371-0.128-2.137c-0.084-0.383-0.063-0.765,0.064-1.148c0.129-0.381,0.106-0.766-0.064-1.147   c0.17-0.467,0.182-0.945,0.033-1.435c-0.151-0.488-0.118-0.968,0.095-1.435c0.085-0.467,0.054-0.925-0.095-1.373   c-0.151-0.446-0.118-0.901,0.095-1.372c0-0.678-0.021-1.369-0.064-2.072c-0.042-0.703,0.042-1.349,0.256-1.943   c0.041-0.426,0.222-0.703,0.542-0.829c0.319-0.13,0.606-0.3,0.861-0.51c0.765-0.044,1.553-0.076,2.36-0.096   c0.808-0.021,1.616-0.032,2.423-0.032c0.214,0.169,0.405,0.202,0.575,0.094c0.17-0.106,0.361-0.136,0.574-0.094   c0.383,0.212,0.819,0.33,1.308,0.35c0.489,0.023,0.839,0.289,1.053,0.797c0.084,0.298,0.148,0.618,0.19,0.957   c0.043,0.341,0.022,0.682-0.063,1.021c0.085,0.469,0.128,0.945,0.128,1.434c0,0.491-0.021,0.968-0.065,1.436   c0.087,0.34,0.138,0.662,0.159,0.957c0.022,0.299-0.01,0.616-0.094,0.957c-0.171,0.342-0.182,0.639-0.033,0.894   c0.149,0.254,0.182,0.554,0.096,0.893c0,0.341-0.041,0.714-0.128,1.117c-0.084,0.403-0.021,0.776,0.192,1.115   c-0.086,0.172-0.117,0.343-0.095,0.511c0.021,0.172,0.052,0.344,0.095,0.51c0.042,0.17,0.073,0.342,0.095,0.51   c0.021,0.171-0.031,0.343-0.159,0.512c0.17,0.341,0.256,0.732,0.256,1.18c0,0.446,0.233,0.733,0.702,0.862   c0.595,0.126,1.156,0.149,1.69,0.062c0.53-0.084,1.052-0.125,1.563-0.125c0.34-0.043,0.69-0.149,1.052-0.32   c0.361-0.17,0.583-0.447,0.67-0.829c0.083-0.511,0.127-1.054,0.127-1.626c0-0.575,0.021-1.137,0.062-1.691   c-0.041-1.104-0.054-2.199-0.031-3.286c0.02-1.083,0.008-2.221-0.032-3.411c-0.127-0.425-0.127-0.851,0-1.275   c0.127-0.424,0.19-0.852,0.19-1.275c-0.127-0.382-0.168-0.745-0.127-1.085c0.213-0.424,0.521-0.701,0.925-0.829   c0.404-0.128,0.817-0.234,1.243-0.318c0.171,0.128,0.362,0.19,0.574,0.19c0.213,0,0.414-0.021,0.607-0.062   c0.19-0.044,0.392-0.087,0.606-0.128c0.211-0.042,0.424-0.021,0.636,0.064c0.342,0.042,0.692,0.084,1.054,0.126   C77.678,33.423,78.009,33.338,78.307,33.125z"/>
	<path fill="#141412" d="M96.677,32.681c0.722,0.084,1.467,0.094,2.232,0.03c0.766-0.062,1.446,0.034,2.042,0.288   c0.722-0.042,1.393,0.107,2.01,0.447c0.615,0.341,1.265,0.595,1.944,0.764c0.468,0.385,0.957,0.747,1.468,1.085   c0.51,0.341,0.978,0.744,1.403,1.211c0.211,0.426,0.531,0.809,0.956,1.149c0.426,0.341,0.724,0.743,0.894,1.211   c0.594,0.469,1.009,1.021,1.244,1.657c0.232,0.64,0.52,1.254,0.86,1.853c0.084,0.467,0.225,0.914,0.415,1.339   c0.192,0.424,0.33,0.872,0.415,1.339c0.341,0.765,0.543,1.573,0.606,2.423c0.064,0.852,0.224,1.681,0.479,2.488   c-0.085,0.426-0.064,0.809,0.063,1.146c0.127,0.341,0.105,0.681-0.063,1.021c0.128,0.598,0.159,1.202,0.096,1.818   c-0.064,0.615-0.033,1.201,0.094,1.753c-0.17,0.809-0.265,1.637-0.286,2.487c-0.021,0.854-0.096,1.701-0.223,2.553   c-0.469,1.914-1.032,3.793-1.689,5.644c-0.661,1.852-1.692,3.54-3.094,5.071c-0.597,0.682-1.181,1.287-1.754,1.816   c-0.575,0.533-1.225,1.013-1.946,1.437c-0.468,0.172-0.925,0.362-1.372,0.575c-0.447,0.213-0.925,0.361-1.436,0.447   c-0.212,0.168-0.436,0.213-0.668,0.127c-0.236-0.084-0.437-0.021-0.607,0.189c-0.723,0.085-1.435,0.098-2.136,0.032   c-0.702-0.063-1.415-0.117-2.137-0.16c-0.469,0.087-0.893,0.043-1.276-0.127c-0.381-0.169-0.789-0.297-1.212-0.384   c-0.467-0.211-0.925-0.415-1.371-0.605c-0.447-0.189-0.882-0.455-1.307-0.797c-0.342-0.341-0.692-0.627-1.052-0.861   c-0.364-0.232-0.671-0.541-0.927-0.924c-0.468-0.596-0.873-1.191-1.21-1.789c-0.341-0.594-0.618-1.231-0.829-1.912   c-0.511-0.34-0.83-0.765-0.958-1.274c-0.127-0.511-0.382-0.999-0.765-1.468c-0.086-0.383-0.202-0.744-0.351-1.086   c-0.149-0.338-0.222-0.741-0.222-1.211c-0.214-0.594-0.394-1.179-0.543-1.754c-0.15-0.573-0.181-1.199-0.096-1.881   c-0.127-0.34-0.243-0.701-0.35-1.086c-0.108-0.382-0.097-0.742,0.031-1.085c0.086-0.806,0.076-1.583-0.031-2.327   c-0.108-0.744-0.118-1.479-0.032-2.199c-0.086-0.254-0.107-0.49-0.064-0.703s0.097-0.424,0.16-0.637   c0.065-0.213,0.105-0.427,0.127-0.64s-0.011-0.446-0.095-0.701c0.213-0.852,0.351-1.724,0.415-2.616   c0.065-0.894,0.329-1.699,0.798-2.426c0.085-0.508,0.223-0.986,0.414-1.434c0.19-0.446,0.308-0.945,0.351-1.5   c0.213-0.467,0.415-0.934,0.607-1.403c0.191-0.468,0.457-0.914,0.796-1.34c0.298-0.213,0.521-0.487,0.67-0.829   c0.149-0.339,0.329-0.658,0.544-0.957c0.338-0.595,0.784-1.136,1.337-1.626c0.553-0.487,1.064-0.968,1.532-1.435   c0.34-0.212,0.67-0.437,0.99-0.669c0.319-0.234,0.669-0.373,1.05-0.414c0.512-0.341,1.128-0.618,1.85-0.831   c0.256,0.087,0.469,0.064,0.64-0.064C96.271,32.809,96.463,32.722,96.677,32.681z M100.504,42.884   c-0.383-0.382-0.808-0.508-1.275-0.382c-0.468,0.128-0.938,0.149-1.403,0.063c-0.64,0.342-1.203,0.819-1.691,1.437   c-0.489,0.616-0.798,1.287-0.925,2.008c-0.043,0.427-0.182,0.788-0.415,1.085c-0.234,0.299-0.309,0.682-0.223,1.149   c0.042,0.468-0.031,0.894-0.223,1.276c-0.191,0.381-0.246,0.808-0.16,1.274c-0.297,0.595-0.393,1.267-0.287,2.008   c0.105,0.746,0.139,1.479,0.096,2.202c0,0.596,0.053,1.17,0.16,1.723c0.106,0.552,0.117,1.146,0.031,1.785   c0.256,0.512,0.352,1.086,0.287,1.723c-0.062,0.639,0.032,1.213,0.288,1.722c0.297,0.298,0.489,0.64,0.574,1.021   c0.086,0.383,0.213,0.744,0.383,1.086c0.34,0.382,0.648,0.785,0.925,1.211c0.276,0.426,0.69,0.701,1.244,0.828   c0.17,0.043,0.341,0.064,0.511,0.064c0.167,0,0.339,0.043,0.51,0.128c0.424-0.084,0.828-0.212,1.211-0.382   c0.383-0.169,0.745-0.446,1.085-0.829c0.042-0.552,0.266-1.021,0.668-1.405c0.404-0.381,0.628-0.85,0.67-1.401   c0.128-0.298,0.245-0.595,0.351-0.896c0.105-0.295,0.223-0.614,0.353-0.955c-0.087-0.68-0.023-1.286,0.189-1.819   c0.214-0.529,0.276-1.137,0.192-1.816c0.17-0.212,0.234-0.438,0.191-0.67c-0.042-0.232-0.021-0.479,0.064-0.732   c-0.086-0.468-0.096-0.926-0.033-1.371c0.065-0.446,0.012-0.904-0.158-1.373c-0.086-0.595-0.17-1.179-0.256-1.752   c-0.083-0.576-0.105-1.182-0.062-1.82c-0.086-0.254-0.16-0.498-0.225-0.733c-0.062-0.231-0.116-0.5-0.159-0.797   c-0.256-0.511-0.457-1.03-0.604-1.562c-0.15-0.531-0.33-1.074-0.543-1.627c-0.127-0.299-0.329-0.563-0.606-0.797   C100.962,43.323,100.715,43.099,100.504,42.884z"/>
	<path fill="#141412" d="M119.511,33.38c0.129,0.043,0.256,0.043,0.384,0c0.127-0.042,0.255-0.062,0.382-0.062   c0.168-0.044,0.329-0.044,0.477,0c0.149,0.041,0.287,0.084,0.417,0.126c0.127,0.043,0.254,0.075,0.381,0.096   c0.127,0.023,0.276-0.011,0.447-0.096c0.467-0.126,0.956-0.17,1.466-0.126c0.511,0.041,0.958,0.21,1.34,0.51   c0.342,0.424,0.606,0.871,0.798,1.337c0.191,0.469,0.245,0.98,0.16,1.532v14.479c0.168,0.212,0.19,0.446,0.063,0.703   c-0.127,0.254-0.127,0.488,0,0.701c-0.043,0.426-0.094,0.853-0.159,1.274c-0.064,0.427-0.055,0.832,0.032,1.211   c0.127,0.344,0.117,0.672-0.032,0.99c-0.15,0.319-0.117,0.629,0.096,0.924l-0.064,6.826c-0.17,0.256-0.214,0.541-0.127,0.86   c0.084,0.32,0.211,0.586,0.382,0.799c0.339,0.425,0.767,0.584,1.276,0.478c0.51-0.105,0.999-0.117,1.467-0.031   c0.468-0.212,0.925-0.225,1.371-0.034c0.446,0.194,0.905,0.16,1.372-0.094c0.467-0.084,0.893-0.054,1.277,0.094   c0.38,0.151,0.785,0.119,1.209-0.094c0.64,0,1.242,0.063,1.82,0.19c0.57,0.127,1.155,0.234,1.752,0.319   c0.469,0.383,0.713,0.861,0.732,1.435c0.021,0.574,0.098,1.14,0.223,1.691c-0.255,0.639-0.274,1.298-0.061,1.979   c-0.128,0.341-0.173,0.68-0.128,1.019c0.042,0.341,0.083,0.683,0.128,1.021c0.04,0.342,0.02,0.672-0.064,0.989   c-0.084,0.318-0.318,0.584-0.703,0.798c-0.252,0.297-0.562,0.413-0.922,0.351c-0.361-0.064-0.714-0.03-1.055,0.096   c-0.469-0.126-0.916-0.137-1.339-0.032c-0.426,0.107-0.853,0.032-1.274-0.224c-0.384,0.215-0.775,0.269-1.181,0.16   c-0.406-0.105-0.8-0.073-1.181,0.096c-0.768-0.169-1.555-0.222-2.36-0.16c-0.809,0.064-1.594,0.034-2.36-0.096   c-0.341-0.083-0.712-0.126-1.116-0.126c-0.405,0-0.777-0.042-1.116-0.128c-0.341,0.043-0.67,0.086-0.988,0.128   c-0.32,0.043-0.628,0-0.927-0.128c-1.361,0.213-2.742,0.278-4.146,0.192c-0.381-0.043-0.701-0.225-0.956-0.543   c-0.254-0.319-0.532-0.584-0.829-0.797c-0.086-0.424-0.106-0.871-0.064-1.339c0.043-0.467-0.022-0.895-0.189-1.274   c-0.044-0.467,0.008-0.938,0.158-1.404c0.148-0.469,0.117-0.936-0.096-1.405c0.043-0.254,0.074-0.53,0.096-0.827   c0.021-0.297-0.011-0.595-0.096-0.895c0-0.296,0.055-0.594,0.16-0.893c0.105-0.297,0.096-0.617-0.033-0.957   c0.043-0.51,0.043-1.041,0-1.595c-0.042-0.552-0.062-1.104-0.062-1.657c0.041-0.765,0.062-1.594,0.062-2.487   c0-0.895-0.042-1.743-0.127-2.552c0.043-0.256,0.096-0.511,0.16-0.765c0.065-0.256,0.053-0.532-0.033-0.831   c-0.084-0.807-0.138-1.57-0.158-2.294c-0.023-0.724-0.031-1.489-0.031-2.296c0.127-0.554,0.189-1.148,0.189-1.788   c0-0.637-0.042-1.231-0.127-1.786c0.127-0.637,0.16-1.253,0.096-1.85c-0.062-0.594-0.031-1.189,0.096-1.786   c-0.214-0.593-0.286-1.221-0.223-1.882c0.063-0.657,0.074-1.307,0.031-1.944c0.127-0.341,0.192-0.703,0.192-1.085   s-0.01-0.775-0.032-1.18c-0.022-0.403-0.033-0.797-0.033-1.182c0-0.379,0.064-0.765,0.193-1.146   c-0.043-0.254,0.01-0.51,0.159-0.767c0.149-0.254,0.351-0.422,0.606-0.508c0.51,0.086,0.966,0.01,1.371-0.224   C118.544,33.178,119.001,33.169,119.511,33.38z"/>
	<path fill="#141412" d="M159.824,33.19c0.468,0,0.912,0.021,1.339,0.064c0.426,0.042,0.871,0.084,1.342,0.126   c0.252,0.128,0.51,0.277,0.766,0.449c0.257,0.167,0.467,0.403,0.637,0.701c0.215,0.808,0.233,1.604,0.064,2.391   c-0.172,0.789-0.215,1.607-0.128,2.457c-0.044,0.425-0.087,0.852-0.13,1.275c-0.041,0.425-0.104,0.828-0.188,1.213   c-0.472,0.595-1.056,0.893-1.756,0.893c-0.701,0-1.372,0-2.012,0c-0.551,0.084-1.082,0.062-1.594-0.062   c-0.512-0.13-1.021-0.106-1.531,0.062c-0.342,0.169-0.7,0.202-1.082,0.094c-0.383-0.105-0.77-0.179-1.147-0.222   c-0.471-0.042-0.927-0.01-1.373,0.097c-0.446,0.104-0.884,0.2-1.306,0.285c-0.344,0.129-0.555,0.33-0.641,0.606   s-0.17,0.521-0.254,0.733c0.168,0.597,0.224,1.223,0.158,1.881c-0.062,0.662-0.056,1.287,0.029,1.883   c0.087,0.213,0.232,0.394,0.449,0.541c0.211,0.15,0.422,0.224,0.637,0.224c0.338-0.083,0.701-0.096,1.085-0.03   c0.384,0.062,0.767,0.095,1.146,0.095c0.812,0,1.631,0.062,2.457,0.192c0.83,0.125,1.649,0.084,2.457-0.129   c0.596,0.088,1.203,0.105,1.818,0.062c0.614-0.04,1.137,0.234,1.562,0.83c0.172,0.172,0.267,0.361,0.287,0.576   c0.021,0.211,0.03,0.435,0.03,0.668s0,0.47,0,0.701c0,0.235,0.042,0.438,0.13,0.606c-0.217,0.765-0.224,1.53-0.031,2.296   c0.189,0.768,0.201,1.553,0.031,2.361c-0.172,0.467-0.49,0.787-0.957,0.957c-0.469,0.169-0.938,0.297-1.404,0.382   c-1.443,0.043-2.868,0.063-4.273,0.063c-1.4,0-2.783-0.085-4.145-0.256c-0.215,0.086-0.426,0.16-0.641,0.225   c-0.213,0.063-0.382,0.203-0.51,0.414c0.041,0.467-0.01,0.884-0.158,1.244c-0.15,0.361-0.225,0.775-0.225,1.242   c0.128,0.215,0.138,0.438,0.031,0.67c-0.104,0.234-0.116,0.458-0.031,0.672c0,0.381,0,0.775,0,1.178   c0,0.406,0.085,0.776,0.254,1.117c-0.041,0.256,0.042,0.447,0.257,0.574c0.211,0.129,0.382,0.256,0.511,0.383   c0.342,0.045,0.689,0.098,1.055,0.159c0.357,0.064,0.709,0.054,1.051-0.032c0.385-0.082,0.765-0.072,1.148,0.032   c0.385,0.105,0.741,0.054,1.086-0.159c0.465-0.084,0.922-0.02,1.369,0.191c0.445,0.213,0.883,0.15,1.31-0.191   c0.298,0.127,0.573,0.17,0.829,0.127c0.253-0.041,0.509-0.094,0.765-0.16c0.256-0.063,0.509-0.104,0.765-0.127   c0.258-0.021,0.515,0.054,0.768,0.224c0.808,0,1.402,0.341,1.785,1.021c0.341,0.681,0.438,1.404,0.287,2.168   c-0.149,0.768-0.184,1.531-0.097,2.297c-0.128,0.384-0.104,0.808,0.064,1.274c-0.087,0.386-0.171,0.767-0.257,1.149   c-0.084,0.382-0.299,0.701-0.638,0.957c-0.511,0.213-1.054,0.33-1.628,0.351c-0.572,0.022-1.139,0.075-1.689,0.158   c-0.637,0.087-1.297,0.13-1.978,0.13s-1.341,0.041-1.978,0.126c-0.428,0-0.86-0.062-1.309-0.192   c-0.449-0.125-0.863-0.063-1.244,0.192c-1.361,0.044-2.731,0.056-4.112,0.032c-1.384-0.021-2.731-0.01-4.054,0.031   c-0.172-0.127-0.338-0.189-0.508-0.189c-0.173,0-0.33,0.021-0.479,0.062c-0.147,0.043-0.31,0.062-0.479,0.062   c-0.169,0-0.34-0.041-0.51-0.126c-0.469-0.043-0.916-0.096-1.339-0.16c-0.427-0.064-0.767-0.33-1.021-0.797   c-0.257-0.341-0.31-0.712-0.162-1.117c0.15-0.402,0.141-0.797-0.029-1.181c0.083-0.722,0.126-1.476,0.126-2.265   c0-0.785-0.043-1.519-0.126-2.199c0.083-0.469,0.105-0.926,0.064-1.372c-0.043-0.445-0.111-0.902-0.192-1.37   c0.041-0.341,0.116-0.671,0.223-0.991c0.104-0.317,0.076-0.646-0.095-0.987c0.042-0.424,0.042-0.862,0-1.307   c-0.045-0.445,0-0.841,0.126-1.182c0-0.551-0.032-1.084-0.097-1.594c-0.062-0.511-0.029-1.021,0.097-1.531   c-0.043-1.021-0.043-1.987,0-2.901c0.044-0.916,0.044-1.819,0-2.711c0.126-0.213,0.172-0.405,0.126-0.575   c-0.041-0.169-0.094-0.341-0.158-0.51c-0.064-0.17-0.105-0.33-0.128-0.479c-0.022-0.149,0.033-0.33,0.16-0.543   c-0.043-0.468-0.009-0.914,0.096-1.34c0.104-0.424,0.076-0.869-0.096-1.339c0.044-0.639,0.021-1.274-0.062-1.914   c-0.086-0.636-0.086-1.253,0-1.85c-0.13-0.213-0.141-0.435-0.035-0.67c0.104-0.232,0.097-0.457-0.029-0.669   c0.126-0.553,0.158-1.115,0.095-1.69c-0.063-0.573-0.012-1.157,0.158-1.754c-0.17-0.467-0.2-0.934-0.095-1.403   c0.104-0.467,0.074-0.935-0.094-1.403c0.168-0.424,0.295-0.894,0.381-1.403c0.084-0.508,0.426-0.829,1.021-0.957   c0.597,0,1.17-0.042,1.726-0.126c0.551-0.085,1.104-0.064,1.656,0.064c0.936-0.128,1.87-0.108,2.807,0.062   c0.936,0.172,1.873,0.149,2.807-0.062c0.342,0.21,0.693,0.222,1.054,0.03c0.361-0.19,0.712-0.2,1.054-0.03   c0.338,0,0.711-0.034,1.113-0.096c0.404-0.063,0.777,0.009,1.116,0.222c0.724,0.128,1.353,0.096,1.884-0.096   c0.531-0.19,1.156-0.243,1.883-0.158c0.084-0.085,0.201-0.119,0.35-0.096C159.622,33.117,159.738,33.148,159.824,33.19z"/>
	<path fill="#141412" d="M174.94,33.19c0.637,0.084,1.268,0.148,1.882,0.19c0.617,0.043,1.245,0.107,1.884,0.192   c0.594-0.043,1.189-0.117,1.784-0.224c0.597-0.106,1.19-0.117,1.786-0.03c0.298-0.128,0.605-0.17,0.926-0.128   c0.318,0.042,0.627,0.105,0.926,0.19c0.297,0.086,0.596,0.14,0.894,0.16c0.298,0.023,0.595-0.053,0.896-0.222   c0.592-0.087,1.209-0.128,1.849-0.128c0.637,0,1.255,0.064,1.851,0.19c0.211,0.172,0.448,0.298,0.7,0.383   c0.257,0.086,0.468,0.256,0.638,0.51c0.215,0.725,0.285,1.467,0.228,2.232c-0.065,0.768-0.034,1.512,0.094,2.234   c-0.043,0.552-0.043,1.115,0,1.689c0.042,0.574-0.043,1.094-0.254,1.562c-0.213,0.384-0.479,0.629-0.801,0.734   c-0.316,0.105-0.646,0.148-0.987,0.127s-0.688-0.062-1.051-0.127c-0.361-0.065-0.712-0.096-1.055-0.096   c-0.681-0.085-1.31-0.042-1.883,0.128c-0.574,0.169-1.16,0.341-1.75,0.509c-0.216,0.385-0.311,0.746-0.289,1.086   c0.021,0.341,0.073,0.692,0.159,1.053c0.083,0.361,0.159,0.724,0.224,1.085c0.063,0.36,0.012,0.733-0.159,1.116   c0,0.341,0.03,0.67,0.097,0.988c0.062,0.318,0.029,0.627-0.097,0.926c-0.089,0.51-0.115,1.009-0.095,1.498s0.072,0.988,0.16,1.5   c-0.088,0.469-0.11,0.979-0.065,1.531c0.043,0.553-0.045,1.042-0.254,1.467c0.165,0.723,0.272,1.426,0.319,2.104   c0.039,0.68-0.047,1.381-0.259,2.104c-0.041,0.554,0,1.096,0.129,1.627c0.13,0.531,0.105,1.073-0.062,1.625   c0.126,0.427,0.138,0.83,0.031,1.211c-0.107,0.385-0.078,0.791,0.095,1.214c0.043,0.51,0.055,1.01,0.03,1.497   c-0.021,0.49-0.075,0.969-0.157,1.437c0,0.171,0.012,0.31,0.032,0.414c0.021,0.106,0.05,0.224,0.095,0.353   c-0.127,0.254-0.173,0.531-0.127,0.828c0.038,0.299,0.062,0.597,0.062,0.895c-0.086,0.595-0.098,1.202-0.03,1.814   c0.062,0.619-0.013,1.183-0.226,1.692c-0.172,0.341-0.384,0.586-0.637,0.733c-0.257,0.15-0.513,0.309-0.769,0.479   c-0.3-0.13-0.598-0.171-0.894-0.13c-0.298,0.043-0.597,0.087-0.892,0.13c-0.854,0-1.715,0-2.586,0s-1.689-0.022-2.457-0.065   c-0.636,0-1.082-0.295-1.338-0.892c-0.084-0.467-0.184-0.927-0.289-1.374c-0.104-0.443-0.094-0.925,0.032-1.436   c-0.085-1.232-0.053-2.496,0.099-3.793c0.146-1.297,0.096-2.562-0.159-3.797c0.129-0.635,0.182-1.316,0.159-2.039   c-0.023-0.724-0.076-1.424-0.159-2.106c0.083-0.211,0.104-0.403,0.062-0.575c-0.042-0.167-0.062-0.359-0.062-0.572   c0.042-0.467,0.053-0.935,0.028-1.403c-0.021-0.468,0.014-0.935,0.101-1.403c0.039-0.211,0.021-0.436-0.065-0.671   c-0.086-0.231-0.062-0.478,0.065-0.729c-0.215-1.149-0.226-2.234-0.035-3.256c0.192-1.02,0.204-2.104,0.035-3.252   c-0.087-0.723-0.119-1.402-0.101-2.041c0.022-0.637,0.055-1.275,0.101-1.912c-0.087-0.213-0.16-0.446-0.226-0.703   c-0.063-0.256-0.225-0.446-0.478-0.574c-0.256-0.042-0.502-0.096-0.733-0.158c-0.232-0.064-0.461-0.032-0.672,0.094   c-0.596,0.043-1.18,0.012-1.754-0.094s-1.158-0.117-1.754-0.032h-1.085c-0.683-0.467-1.062-1.17-1.149-2.104   c0.17-0.211,0.201-0.438,0.099-0.669c-0.106-0.233-0.099-0.479,0.03-0.735c-0.041-0.68-0.041-1.316,0-1.914   c0.041-0.593,0-1.211-0.129-1.85c0.129-0.339,0.215-0.689,0.258-1.051c0.044-0.36,0.232-0.648,0.572-0.861   c0.597,0.084,1.125,0.064,1.599-0.064c0.467-0.128,0.934-0.17,1.399-0.128c0.17,0.086,0.329,0.086,0.479,0   c0.149-0.084,0.327-0.104,0.542-0.062c0.596,0.169,1.156,0.188,1.689,0.062c0.529-0.126,1.096-0.126,1.688,0   C174.196,33.552,174.601,33.488,174.94,33.19z"/>
	<path fill="#141412" d="M51.135,86.438c0.469,0,0.915,0.021,1.341,0.062c0.423,0.043,0.87,0.086,1.337,0.127   c0.256,0.129,0.513,0.277,0.767,0.447s0.467,0.404,0.636,0.703c0.215,0.809,0.235,1.604,0.065,2.391   c-0.171,0.787-0.214,1.605-0.127,2.457c-0.043,0.424-0.086,0.85-0.127,1.275c-0.043,0.426-0.108,0.828-0.192,1.211   c-0.468,0.596-1.052,0.893-1.753,0.893c-0.703,0-1.372,0-2.01,0c-0.554,0.084-1.085,0.064-1.594-0.062   c-0.512-0.127-1.021-0.105-1.531,0.062c-0.342,0.172-0.703,0.203-1.085,0.098c-0.381-0.105-0.765-0.18-1.148-0.223   c-0.468-0.045-0.925-0.014-1.37,0.096c-0.446,0.105-0.883,0.201-1.309,0.285c-0.341,0.127-0.552,0.33-0.638,0.605   c-0.085,0.277-0.17,0.52-0.255,0.734c0.17,0.596,0.224,1.223,0.159,1.881c-0.063,0.66-0.054,1.285,0.033,1.883   c0.083,0.211,0.232,0.393,0.446,0.541c0.21,0.148,0.424,0.225,0.637,0.225c0.341-0.086,0.701-0.096,1.086-0.031   c0.381,0.062,0.764,0.094,1.146,0.094c0.809,0,1.626,0.062,2.456,0.193c0.83,0.125,1.649,0.084,2.457-0.131   c0.595,0.086,1.201,0.107,1.817,0.064c0.618-0.041,1.138,0.232,1.562,0.83c0.171,0.17,0.266,0.361,0.287,0.57   c0.021,0.215,0.032,0.439,0.032,0.674c0,0.232,0,0.467,0,0.699c0,0.234,0.043,0.438,0.128,0.605   c-0.212,0.766-0.222,1.529-0.03,2.297c0.189,0.766,0.201,1.553,0.03,2.359c-0.171,0.469-0.489,0.787-0.956,0.955   c-0.469,0.172-0.938,0.299-1.404,0.385c-1.445,0.043-2.871,0.062-4.273,0.062s-2.787-0.086-4.146-0.256   c-0.214,0.086-0.425,0.16-0.638,0.225c-0.213,0.062-0.383,0.201-0.51,0.414c0.041,0.469-0.012,0.885-0.16,1.244   c-0.149,0.361-0.223,0.775-0.223,1.242c0.128,0.213,0.137,0.438,0.031,0.67c-0.106,0.234-0.118,0.459-0.031,0.672   c0,0.381,0,0.773,0,1.18c0,0.402,0.085,0.773,0.255,1.115c-0.043,0.256,0.041,0.445,0.254,0.574   c0.213,0.127,0.383,0.254,0.511,0.383c0.339,0.043,0.689,0.096,1.052,0.16c0.36,0.062,0.712,0.053,1.054-0.031   c0.381-0.086,0.762-0.074,1.148,0.031c0.381,0.105,0.741,0.053,1.083-0.16c0.468-0.086,0.925-0.021,1.372,0.189   c0.446,0.215,0.882,0.15,1.307-0.189c0.298,0.129,0.575,0.172,0.831,0.129c0.254-0.043,0.511-0.098,0.765-0.16   c0.255-0.062,0.511-0.105,0.767-0.129c0.254-0.021,0.509,0.057,0.764,0.225c0.806,0,1.403,0.342,1.786,1.021   c0.339,0.68,0.436,1.402,0.288,2.168c-0.15,0.768-0.182,1.529-0.098,2.297c-0.127,0.381-0.105,0.809,0.065,1.273   c-0.087,0.383-0.171,0.766-0.255,1.148c-0.086,0.383-0.298,0.701-0.639,0.957c-0.509,0.215-1.052,0.328-1.626,0.352   c-0.573,0.021-1.139,0.072-1.69,0.158c-0.638,0.086-1.299,0.127-1.977,0.127c-0.681,0-1.339,0.043-1.979,0.129   c-0.425,0-0.861-0.062-1.306-0.191c-0.447-0.129-0.861-0.062-1.245,0.191c-1.361,0.041-2.732,0.055-4.114,0.031   c-1.381-0.021-2.733-0.012-4.05,0.033c-0.171-0.129-0.34-0.193-0.511-0.193c-0.17,0-0.33,0.023-0.478,0.064   c-0.15,0.041-0.309,0.062-0.479,0.062c-0.171,0-0.341-0.041-0.51-0.129c-0.468-0.041-0.915-0.096-1.338-0.158   c-0.426-0.062-0.767-0.328-1.021-0.799c-0.255-0.338-0.309-0.709-0.16-1.115c0.148-0.4,0.138-0.799-0.033-1.18   c0.085-0.723,0.129-1.479,0.129-2.266s-0.043-1.52-0.129-2.201c0.085-0.467,0.106-0.924,0.065-1.369   c-0.043-0.447-0.106-0.904-0.192-1.373c0.043-0.34,0.117-0.668,0.225-0.988c0.105-0.316,0.074-0.646-0.098-0.988   c0.043-0.424,0.043-0.859,0-1.309c-0.042-0.445,0-0.838,0.129-1.18c0-0.553-0.031-1.084-0.096-1.594   c-0.064-0.512-0.033-1.021,0.096-1.531c-0.043-1.021-0.043-1.986,0-2.902c0.042-0.914,0.042-1.818,0-2.711   c0.127-0.213,0.169-0.402,0.127-0.574c-0.042-0.17-0.096-0.34-0.159-0.512c-0.064-0.166-0.108-0.326-0.128-0.477   c-0.022-0.15,0.031-0.33,0.16-0.543c-0.043-0.469-0.011-0.914,0.096-1.342c0.105-0.424,0.073-0.869-0.096-1.338   c0.042-0.639,0.021-1.275-0.064-1.914c-0.087-0.639-0.087-1.254,0-1.85c-0.127-0.213-0.137-0.438-0.032-0.67   c0.105-0.234,0.096-0.457-0.033-0.67c0.129-0.553,0.16-1.115,0.098-1.689c-0.064-0.574-0.012-1.158,0.159-1.756   c-0.171-0.467-0.202-0.934-0.096-1.4c0.106-0.467,0.074-0.936-0.095-1.402c0.169-0.426,0.297-0.896,0.383-1.404   c0.084-0.51,0.424-0.828,1.021-0.957c0.595,0,1.169-0.041,1.723-0.127c0.552-0.084,1.104-0.062,1.656,0.062   c0.937-0.127,1.872-0.104,2.807,0.062c0.936,0.17,1.871,0.15,2.808-0.062c0.338,0.213,0.69,0.225,1.052,0.031   c0.361-0.191,0.711-0.201,1.052-0.031c0.34,0,0.712-0.031,1.115-0.098c0.404-0.062,0.776,0.014,1.117,0.227   c0.723,0.125,1.351,0.096,1.881-0.098c0.532-0.191,1.159-0.244,1.883-0.158c0.084-0.086,0.2-0.117,0.351-0.096   C50.932,86.363,51.05,86.396,51.135,86.438z"/>
	<path fill="#141412" d="M80.284,86.693L81.56,86.5c0.211,0.129,0.479,0.213,0.797,0.256s0.627,0.098,0.925,0.16   c0.298,0.062,0.541,0.184,0.733,0.35c0.191,0.172,0.266,0.471,0.223,0.895c0.086,0.385,0.129,0.809,0.129,1.275   c0,0.469-0.064,0.895-0.191,1.273c0.17,0.6,0.201,1.203,0.095,1.82c-0.105,0.617-0.138,1.223-0.095,1.816   c0.041,0.342,0.062,0.703,0.062,1.082c0,0.387-0.042,0.729-0.127,1.021c0,0.299,0,0.562,0,0.799c0,0.232,0.086,0.457,0.256,0.67   c-0.213,0.596-0.234,1.17-0.064,1.723c0.17,0.555,0.149,1.105-0.064,1.658c0.129,0.469,0.107,0.893-0.062,1.275   c-0.17,0.383-0.15,0.785,0.062,1.211c0.214,1.83,0.214,3.658,0,5.486c0.043,0.469,0.043,0.957,0,1.467   c-0.042,0.512,0,1,0.129,1.469c-0.042,0.338-0.055,0.725-0.031,1.146c0.02,0.426,0.073,0.828,0.158,1.211   c-0.085,0.512-0.148,1.031-0.191,1.562s-0.086,1.055-0.127,1.562c0.211,0.596,0.254,1.18,0.127,1.754   c-0.127,0.576-0.127,1.18,0,1.814c0.084,0.174,0.095,0.344,0.033,0.512c-0.065,0.172-0.098,0.361-0.098,0.574   c-0.042,0.512-0.031,1.074,0.033,1.689c0.065,0.617,0.096,1.213,0.096,1.785c0,0.574-0.086,1.117-0.256,1.629   c-0.17,0.51-0.509,0.916-1.02,1.211c-0.426,0.086-0.861,0.127-1.308,0.127c-0.445,0-0.903-0.02-1.372-0.061   c-0.381,0.168-0.828,0.244-1.337,0.223c-0.511-0.021-0.979-0.072-1.405-0.16c-0.468,0.129-0.913,0.16-1.339,0.098   c-0.424-0.062-0.872-0.117-1.34-0.16c-0.34-0.299-0.658-0.604-0.956-0.926c-0.298-0.316-0.447-0.713-0.447-1.18   c-0.085-0.211-0.16-0.414-0.222-0.605c-0.065-0.191-0.096-0.414-0.096-0.67c-0.427-0.594-0.703-1.254-0.83-1.979   c-0.128-0.723-0.382-1.402-0.764-2.041c-0.043-0.467-0.15-0.926-0.32-1.369c-0.171-0.449-0.351-0.885-0.542-1.309   c-0.192-0.426-0.374-0.861-0.543-1.311c-0.17-0.445-0.278-0.9-0.318-1.369c0.041-0.426-0.076-0.775-0.352-1.055   c-0.276-0.275-0.393-0.625-0.35-1.051c-0.341-0.342-0.479-0.746-0.416-1.215c0.063-0.467-0.053-0.869-0.351-1.211   c0-0.211-0.106-0.383-0.32-0.512c-0.17-0.043-0.329-0.043-0.477,0c-0.149,0.043-0.245,0.15-0.287,0.32   c0.128,0.211,0.19,0.424,0.19,0.637c0,0.215-0.022,0.426-0.062,0.639c-0.043,0.213-0.064,0.426-0.064,0.639   c0,0.215,0.043,0.426,0.127,0.639c0.043,0.168,0.043,0.34,0,0.512c-0.042,0.172-0.095,0.328-0.159,0.479   c-0.063,0.146-0.096,0.297-0.096,0.445c0,0.146,0.085,0.285,0.255,0.414c-0.255,1.617-0.35,3.23-0.287,4.848   c0.064,1.619,0.054,3.232-0.031,4.85c0,0.256,0.009,0.541,0.031,0.861c0.021,0.316,0.01,0.615-0.031,0.895   c-0.042,0.275-0.127,0.529-0.256,0.764c-0.127,0.236-0.34,0.395-0.637,0.479c-0.595,0.129-1.223,0.227-1.882,0.287   c-0.659,0.064-1.308,0.055-1.944-0.031l-0.256,0.129c-0.468,0.043-0.914,0-1.339-0.129c-0.425-0.127-0.873-0.105-1.34,0.062   c-0.213-0.084-0.469-0.127-0.764-0.127c-0.297,0-0.489-0.168-0.575-0.51c-0.297-0.426-0.437-0.902-0.416-1.438   c0.021-0.527-0.01-1.027-0.096-1.498c0.086-0.383,0.086-0.785,0-1.213c-0.084-0.426-0.042-0.828,0.129-1.211   c-0.085-0.469-0.16-0.947-0.224-1.436c-0.063-0.49-0.053-0.988,0.033-1.5c0.041-0.807,0.062-1.596,0.062-2.359   s0.043-1.51,0.129-2.23c-0.129-0.723-0.202-1.455-0.224-2.199c-0.021-0.746-0.075-1.48-0.159-2.201   c0.212-0.766,0.309-1.564,0.287-2.395c-0.021-0.826-0.033-1.646-0.033-2.457c0.086-0.338,0.086-0.699,0-1.084   c-0.084-0.381-0.084-0.783,0-1.211c-0.084-0.723-0.084-1.414,0-2.07c0.086-0.66,0.149-1.33,0.192-2.012   c-0.086-0.424-0.127-0.852-0.127-1.275s0.021-0.859,0.064-1.309c0.042-0.445,0.063-0.881,0.063-1.307   c0-0.424-0.063-0.852-0.192-1.275c0.214-0.682,0.319-1.402,0.319-2.168s-0.105-1.51-0.319-2.232   c0.129-0.256,0.192-0.521,0.192-0.797c0-0.277,0.022-0.555,0.064-0.83c0.042-0.277,0.116-0.531,0.224-0.766   c0.105-0.232,0.309-0.416,0.606-0.543c0.935-0.17,1.955-0.299,3.061-0.383c0.767,0,1.562,0.029,2.391,0.094   c0.83,0.066,1.606,0.016,2.33-0.156c0.34-0.041,0.638,0.074,0.894,0.352c0.254,0.275,0.487,0.521,0.701,0.734   c0.084,0.467,0.212,0.873,0.382,1.211c0.17,0.342,0.297,0.744,0.383,1.211l0.255,0.447c0.212,0.979,0.499,1.924,0.86,2.838   c0.362,0.916,0.649,1.859,0.862,2.838c0.128,0.342,0.275,0.691,0.446,1.055c0.169,0.361,0.213,0.732,0.127,1.115   c0.086,0.342,0.213,0.646,0.384,0.926c0.169,0.277,0.338,0.584,0.509,0.924c0.085,0.725,0.233,1.414,0.447,2.072   c0.213,0.66,0.489,1.311,0.829,1.945c0.213,0.213,0.446,0.275,0.701,0.191c0.129-0.17,0.182-0.342,0.16-0.512   c-0.021-0.168-0.054-0.34-0.096-0.51c-0.043-0.17-0.053-0.342-0.032-0.512c0.022-0.17,0.096-0.342,0.223-0.51   c0-0.385-0.031-0.773-0.096-1.18c-0.062-0.406,0.012-0.777,0.225-1.117c0.041-0.34,0-0.67-0.129-0.986   c-0.127-0.32-0.127-0.648,0-0.99c0-0.297-0.041-0.572-0.127-0.83c-0.086-0.254-0.042-0.531,0.127-0.828   c-0.213-0.469-0.266-0.986-0.158-1.562c0.106-0.574,0.117-1.158,0.031-1.756c0.086-0.34,0.075-0.658-0.031-0.955   c-0.108-0.299-0.076-0.617,0.096-0.957c0.041-0.258,0-0.521-0.129-0.797c-0.127-0.277-0.106-0.543,0.064-0.799   c0.043-0.465,0.053-0.936,0.031-1.404c-0.021-0.467,0.16-0.869,0.543-1.211c0.511-0.424,1.115-0.646,1.818-0.67   c0.702-0.02,1.371,0.012,2.008,0.098C79.497,86.438,79.943,86.523,80.284,86.693z"/>
	<path fill="#141412" d="M115.175,86.119l1.53,0.381c0.255,0.256,0.563,0.363,0.925,0.318c0.361-0.041,0.649,0.045,0.861,0.258   c0.34,0.043,0.617,0.182,0.831,0.414c0.21,0.236,0.445,0.414,0.7,0.543c0.297,0.297,0.488,0.645,0.575,1.051   c0.083,0.404,0.117,0.83,0.095,1.275c-0.021,0.447-0.043,0.895-0.064,1.342c-0.021,0.443,0.031,0.859,0.158,1.242   c0.087,0.426,0.098,0.809,0.033,1.145c-0.064,0.346-0.116,0.727-0.16,1.15c0,0.34,0,0.668,0,0.988c0,0.316,0.086,0.604,0.256,0.859   c-0.042,0.297-0.17,0.531-0.383,0.701c-0.212,0.17-0.446,0.297-0.701,0.385c-0.425-0.043-0.796-0.184-1.115-0.418   c-0.321-0.232-0.638-0.486-0.956-0.764c-0.32-0.277-0.64-0.531-0.958-0.766c-0.318-0.234-0.691-0.373-1.117-0.414   c-0.468-0.17-0.934-0.342-1.403-0.512c-0.469-0.17-0.956-0.146-1.468,0.064c-0.297-0.086-0.595-0.074-0.891,0.031   c-0.298,0.104-0.573,0.201-0.83,0.285c-0.979,0.852-1.467,1.873-1.467,3.062c0.127,0.68,0.455,1.232,0.989,1.656   c0.53,0.428,1.029,0.852,1.498,1.273c0.341,0.217,0.669,0.396,0.988,0.545c0.319,0.148,0.628,0.352,0.927,0.605   c0.467,0.086,0.892,0.277,1.275,0.574c0.381,0.299,0.807,0.488,1.275,0.572c0.34,0.215,0.658,0.469,0.956,0.768   c0.298,0.297,0.618,0.572,0.958,0.828c0.51,0.213,0.893,0.521,1.149,0.926c0.255,0.404,0.551,0.799,0.892,1.18   c0.896,0.598,1.438,1.338,1.627,2.234c0.191,0.891,0.436,1.762,0.733,2.613c0.169,0.766,0.234,1.498,0.191,2.199   c-0.042,0.701-0.042,1.438,0,2.199c-0.255,0.729-0.458,1.457-0.605,2.201c-0.151,0.744-0.394,1.479-0.733,2.199   c-0.299,0.639-0.649,1.225-1.053,1.756c-0.405,0.531-0.883,1.074-1.436,1.627c-0.127,0.254-0.299,0.5-0.509,0.732   c-0.214,0.234-0.427,0.457-0.639,0.67c-0.596,0.469-1.19,0.936-1.785,1.402c-0.597,0.467-1.256,0.766-1.979,0.895   c-0.297,0-0.542,0.072-0.732,0.223c-0.192,0.148-0.414,0.246-0.67,0.289c-0.468,0.338-0.988,0.486-1.562,0.445   c-0.575-0.045-1.16-0.021-1.754,0.062c-0.595,0.17-1.158,0.158-1.689-0.031c-0.534-0.191-1.097-0.246-1.692-0.16   c-0.468-0.041-0.903-0.141-1.307-0.287c-0.406-0.146-0.82-0.328-1.244-0.541c-0.469,0-0.861-0.117-1.179-0.352   c-0.321-0.232-0.714-0.373-1.181-0.414c-0.382-0.215-0.777-0.49-1.181-0.83c-0.403-0.34-0.669-0.723-0.795-1.146   c0.04-0.469,0.02-0.957-0.065-1.469c-0.084-0.512,0-0.998,0.256-1.467c0.17-0.211,0.224-0.414,0.159-0.607   c-0.062-0.189-0.139-0.379-0.223-0.572c-0.086-0.189-0.159-0.381-0.223-0.574c-0.064-0.188-0.031-0.414,0.097-0.668   c-0.171-0.596-0.193-1.148-0.065-1.66c0.129-0.51,0.192-1.061,0.192-1.656c0.254-0.297,0.553-0.512,0.894-0.641   c0.466,0.129,0.913,0.289,1.337,0.48c0.426,0.189,0.767,0.52,1.021,0.986c0.469,0.426,0.958,0.732,1.469,0.926   c0.509,0.191,1.021,0.395,1.529,0.605c0.426,0.213,0.895,0.311,1.404,0.285c0.511-0.02,1,0.014,1.468,0.098   c0.339-0.084,0.701-0.148,1.083-0.189c0.383-0.043,0.68-0.234,0.894-0.574c0.723-0.469,1.287-1.062,1.689-1.785   c0.404-0.725,0.52-1.512,0.352-2.359c-0.17-0.641-0.522-1.211-1.053-1.723c-0.531-0.512-1.032-1.021-1.499-1.531   c-0.681-0.299-1.318-0.648-1.913-1.055c-0.596-0.4-1.212-0.771-1.85-1.113c-0.214-0.172-0.393-0.309-0.542-0.414   s-0.331-0.201-0.542-0.289c-0.426-0.338-0.841-0.682-1.244-1.021c-0.405-0.34-0.819-0.658-1.245-0.955   c-0.508-0.258-0.861-0.617-1.052-1.086c-0.19-0.467-0.499-0.871-0.924-1.211c-0.255-0.467-0.436-0.938-0.542-1.404   c-0.106-0.467-0.286-0.936-0.541-1.4c-0.087-0.469-0.182-0.957-0.287-1.469c-0.109-0.512-0.098-0.998,0.031-1.469   c-0.213-0.596-0.268-1.211-0.16-1.85c0.105-0.641,0.329-1.189,0.671-1.658c-0.127-0.764,0.009-1.424,0.414-1.977   c0.403-0.555,0.734-1.148,0.988-1.785c0.34-0.471,0.69-0.939,1.052-1.406c0.362-0.467,0.798-0.869,1.309-1.211   c0.424-0.342,0.87-0.604,1.339-0.797c0.467-0.191,0.894-0.457,1.276-0.797c0.596-0.385,1.231-0.598,1.913-0.639   c0.68-0.043,1.318-0.23,1.914-0.576c0.552,0.088,1.105,0.088,1.659,0c0.552-0.084,1.125-0.104,1.723-0.062   c0.296-0.129,0.562-0.115,0.797,0.031C114.547,86.109,114.833,86.162,115.175,86.119z"/>
	<path fill="#141412" d="M137.181,85.928c0.55,0.043,1.104,0.055,1.657,0.031c0.551-0.021,1.104-0.021,1.658,0   c0.553,0.021,1.084,0.086,1.594,0.191c0.512,0.104,0.979,0.33,1.404,0.668c0.465-0.125,0.869-0.062,1.209,0.191   c0.342,0.256,0.641,0.531,0.896,0.828c0.126,0.344,0.19,0.727,0.19,1.15s0.041,0.807,0.127,1.145   c0.041,0.469,0.021,0.916-0.063,1.342c-0.087,0.426-0.063,0.871,0.063,1.34c-0.213,0.893-0.213,1.785,0,2.678   c-0.086,0.215-0.182,0.447-0.287,0.701c-0.108,0.256-0.286,0.449-0.541,0.574c-0.385,0.131-0.701,0.131-0.957,0   c-0.256-0.125-0.51-0.285-0.767-0.479c-0.256-0.191-0.521-0.369-0.799-0.541c-0.274-0.17-0.604-0.193-0.985-0.062   c-0.473,0-0.927-0.033-1.373-0.098c-0.445-0.062-0.881-0.01-1.308,0.16c-1.021,0.297-1.767,0.895-2.231,1.785   c-0.47,0.893-0.916,1.744-1.338,2.551c0.082,0.469,0.008,0.84-0.224,1.117c-0.237,0.277-0.312,0.627-0.228,1.051   c-0.084,0.51-0.211,1.021-0.381,1.531c-0.17,0.512-0.215,1.062-0.127,1.658c-0.215,0.51-0.248,1.031-0.097,1.562   c0.146,0.533,0.179,1.094,0.097,1.689c0.082,0.553,0.094,1.117,0.029,1.688c-0.064,0.574,0.032,1.098,0.288,1.564   c-0.085,0.383-0.063,0.723,0.062,1.02c0.129,0.297,0.256,0.598,0.386,0.895c-0.043,0.893,0.19,1.68,0.7,2.359   c0.513,0.682,1.084,1.297,1.722,1.85c0.384,0.512,0.829,0.842,1.341,0.986c0.509,0.152,1.041,0.27,1.596,0.352   c0.467-0.082,0.9-0.166,1.308-0.254c0.405-0.084,0.799-0.23,1.179-0.445c0.298-0.424,0.68-0.594,1.148-0.512   c0.468,0.088,0.894,0.088,1.274,0c0.384,0.299,0.554,0.639,0.513,1.021c0.041,0.512,0.041,1.031,0,1.562   c-0.043,0.531,0,1.031,0.127,1.498c-0.17,0.51-0.225,1.062-0.157,1.66c0.062,0.594,0.03,1.17-0.099,1.721   c0.213,0.342,0.232,0.66,0.063,0.957c-0.17,0.297-0.319,0.574-0.447,0.83c-0.597,0.596-1.255,1.012-1.978,1.242   c-0.725,0.234-1.467,0.438-2.233,0.605c-1.146,0.127-2.306,0.137-3.478,0.031c-1.168-0.107-2.242-0.373-3.219-0.799   c-0.979-0.127-1.744-0.51-2.297-1.146c-0.342,0.043-0.585-0.094-0.734-0.414c-0.146-0.316-0.393-0.5-0.732-0.543   c-0.469-0.512-0.941-1.01-1.434-1.498c-0.49-0.488-0.842-1.029-1.053-1.627c-0.086-0.213-0.214-0.393-0.384-0.543   c-0.17-0.146-0.299-0.33-0.383-0.541c-0.086-0.34-0.213-0.648-0.381-0.924c-0.172-0.277-0.353-0.562-0.542-0.863   c-0.192-0.295-0.373-0.594-0.542-0.891c-0.17-0.299-0.278-0.617-0.319-0.957c0-0.385-0.054-0.736-0.16-1.055   c-0.107-0.318-0.214-0.641-0.319-0.957c-0.106-0.318-0.203-0.641-0.288-0.957c-0.085-0.318-0.085-0.646,0-0.988   c-0.468-0.85-0.679-1.807-0.638-2.869c0.042-1.062,0-2.084-0.127-3.061c-0.042-0.723-0.075-1.424-0.096-2.105   c-0.022-0.68-0.032-1.381-0.032-2.104c0.341-0.596,0.542-1.223,0.606-1.883c0.065-0.656,0.116-1.35,0.159-2.068   c0.042-0.301,0.127-0.564,0.255-0.801c0.127-0.232,0.148-0.52,0.065-0.859c0.211-0.469,0.403-0.914,0.573-1.34   c0.168-0.426,0.297-0.871,0.383-1.342c0.339-0.639,0.585-1.307,0.734-2.008c0.148-0.701,0.541-1.285,1.179-1.756   c0.341-0.764,0.786-1.443,1.339-2.039c0.936-0.809,1.883-1.572,2.838-2.299c0.957-0.721,2.012-1.23,3.16-1.529   c0.338-0.041,0.646-0.139,0.922-0.287C136.531,86.131,136.838,86.014,137.181,85.928z"/>
	<path fill="#141412" d="M153.956,86.438c0.766-0.086,1.487-0.064,2.17,0.062c0.68,0.127,1.359,0.17,2.037,0.127   c0.596,0.213,1.184,0.246,1.756,0.096c0.574-0.146,1.158-0.223,1.756-0.223c0.255-0.041,0.521-0.041,0.797,0   c0.273,0.043,0.554,0.086,0.828,0.127c0.274,0.043,0.553,0.064,0.828,0.064c0.276,0,0.545-0.086,0.801-0.254   c0.211,0.127,0.426,0.188,0.636,0.188c0.215,0,0.427-0.02,0.642-0.061c0.381,0.086,0.817,0.189,1.31,0.316   c0.485,0.127,0.922,0.043,1.305-0.256c0.343-0.084,0.649-0.084,0.925,0c0.275,0.086,0.563,0.17,0.863,0.256   c0.297,0.342,0.469,0.734,0.51,1.182c0.041,0.443,0.021,0.885-0.063,1.309c0.085,0.383,0.104,0.756,0.063,1.117   s-0.104,0.73-0.19,1.115c0.086,0.594,0.138,1.244,0.159,1.943c0.021,0.701-0.14,1.311-0.479,1.818   c-0.343,0.213-0.714,0.34-1.117,0.383c-0.404,0.041-0.82,0.062-1.244,0.062c-0.427,0-0.853-0.012-1.274-0.033   c-0.425-0.02-0.831,0.012-1.211,0.1c-0.597-0.215-1.171-0.227-1.724-0.035c-0.555,0.191-1.104,0.203-1.658,0.035   c-0.512-0.088-1.065-0.105-1.659-0.064c-0.597,0.041-1.13,0.02-1.595-0.062c-0.34,0.084-0.604,0.285-0.799,0.604   c-0.188,0.32-0.369,0.605-0.541,0.861c0.127,0.639,0.117,1.244-0.033,1.818c-0.146,0.576-0.095,1.158,0.16,1.754   c-0.084,0.127-0.127,0.277-0.127,0.447s0.043,0.297,0.127,0.383l0.957,0.893c0.596,0.213,1.19,0.225,1.787,0.031   c0.594-0.191,1.188-0.18,1.784,0.031c0.554,0,1.104-0.039,1.66-0.127c0.551-0.084,1.062-0.105,1.53-0.062   c0.382,0.041,0.764,0.055,1.147,0.029c0.379-0.02,0.765-0.02,1.148,0c0.38,0.023,0.739,0.084,1.079,0.189   c0.345,0.107,0.617,0.332,0.83,0.672c0.216,0.426,0.297,0.893,0.257,1.4c-0.041,0.514-0.064,1-0.064,1.471   c0.17,0.34,0.234,0.723,0.192,1.146c-0.041,0.424-0.041,0.809,0,1.146c-0.088,0.342-0.117,0.725-0.098,1.146   c0.021,0.428-0.071,0.809-0.287,1.148c-0.254,0.342-0.562,0.555-0.924,0.639c-0.363,0.084-0.744,0.127-1.147,0.127   c-0.404,0-0.808-0.02-1.209-0.062c-0.408-0.043-0.777-0.021-1.12,0.062c-0.339-0.043-0.668-0.053-0.986-0.031   s-0.63-0.031-0.923-0.16c-0.301-0.041-0.577-0.041-0.833,0c-0.255,0.043-0.509,0.098-0.765,0.16   c-0.254,0.064-0.521,0.096-0.798,0.096c-0.276,0-0.543-0.062-0.797-0.189c-0.51-0.127-0.988-0.096-1.437,0.096   s-0.817,0.479-1.116,0.861c0.084,0.68,0.117,1.381,0.096,2.104c-0.021,0.727,0.013,1.426,0.099,2.105l-0.256,0.957   c0.085,0.34,0.243,0.691,0.479,1.051c0.23,0.363,0.541,0.605,0.926,0.734c0.34,0.213,0.679,0.268,1.02,0.16   c0.341-0.105,0.68-0.117,1.021-0.035c0.213,0.131,0.414,0.131,0.605,0c0.189-0.125,0.393-0.146,0.605-0.062   c0.679-0.17,1.339-0.191,1.978-0.062c0.64,0.125,1.313,0.146,2.039,0.062c0.341,0.215,0.726,0.285,1.147,0.225   c0.426-0.064,0.838-0.127,1.244-0.191c0.404-0.062,0.799-0.053,1.181,0.029c0.384,0.088,0.7,0.344,0.959,0.768   c0.085,0.469,0.167,0.926,0.254,1.371c0.083,0.447,0.063,0.904-0.063,1.371c-0.212,0.383-0.244,0.766-0.097,1.15   c0.147,0.381,0.138,0.764-0.031,1.145c0.128,0.471,0.128,0.895,0,1.275c-0.128,0.383-0.147,0.809-0.062,1.275   c-0.129,0.297-0.299,0.488-0.514,0.572c-0.213,0.086-0.447,0.139-0.701,0.16s-0.51,0.043-0.764,0.064   c-0.256,0.02-0.49,0.094-0.703,0.223c-0.299,0-0.574-0.031-0.83-0.096s-0.53-0.055-0.828,0.029   c-0.172,0.086-0.33,0.107-0.479,0.064s-0.311-0.086-0.479-0.129c-0.553,0.215-1.096,0.268-1.629,0.16   c-0.529-0.105-1.094-0.117-1.688-0.031c-0.47-0.086-0.914-0.064-1.338,0.062c-0.43,0.129-0.872,0.105-1.34-0.062   c-0.512,0.086-0.991,0.062-1.438-0.064c-0.447-0.127-0.906-0.104-1.371,0.064c-0.682-0.129-1.33-0.148-1.947-0.064   c-0.612,0.086-1.242,0.021-1.881-0.189c-0.468,0.086-0.968,0.127-1.5,0.127c-0.529,0-1.029-0.021-1.498-0.062   c-0.725,0-1.338-0.297-1.85-0.893c-0.212-0.299-0.265-0.574-0.16-0.83c0.105-0.254,0.117-0.551,0.032-0.893   c-0.084-1.105-0.125-2.285-0.125-3.541c0-1.254,0.042-2.455,0.125-3.605c0.085-0.467,0.073-0.881-0.032-1.242   c-0.104-0.359-0.052-0.732,0.16-1.115c0.04-0.385-0.009-0.732-0.16-1.055c-0.148-0.316-0.137-0.646,0.032-0.99   c-0.043-0.422-0.032-0.859,0.032-1.305c0.064-0.447,0.029-0.883-0.096-1.311c0.125-0.254,0.147-0.51,0.062-0.766   c-0.084-0.256-0.084-0.488,0-0.699c-0.084-0.213-0.119-0.428-0.096-0.641c0.021-0.213,0.062-0.436,0.128-0.668   s0.104-0.457,0.129-0.672c0.021-0.209-0.013-0.424-0.101-0.639c0.088-1.23,0-2.316-0.252-3.252c0.17-0.512,0.211-1.062,0.125-1.658   c-0.084-0.596-0.02-1.15,0.192-1.658c-0.171-0.596-0.171-1.189,0-1.785c0.168-0.596,0.104-1.189-0.192-1.787   c0-0.256,0.014-0.51,0.033-0.766c0.021-0.254,0.053-0.51,0.094-0.766c-0.041-0.596-0.104-1.225-0.188-1.883   c-0.087-0.658,0-1.242,0.253-1.754c-0.043-0.299-0.096-0.604-0.159-0.926c-0.062-0.318-0.033-0.627,0.094-0.924   c-0.211-0.344-0.23-0.701-0.062-1.084c0.168-0.385,0.149-0.746-0.063-1.086c-0.043-0.34,0.043-0.627,0.254-0.859   c0.213-0.232,0.447-0.416,0.701-0.543c0.344-0.084,0.703-0.158,1.086-0.223c0.383-0.066,0.742-0.139,1.082-0.225   c0.513-0.086,0.998-0.055,1.472,0.094C153.016,86.811,153.487,86.736,153.956,86.438z"/>
	<path fill="#141412" d="M195.478,86.693l1.274-0.193c0.216,0.129,0.479,0.213,0.801,0.256c0.316,0.043,0.626,0.098,0.924,0.16   c0.297,0.062,0.541,0.184,0.732,0.35c0.19,0.172,0.266,0.471,0.223,0.895c0.086,0.385,0.126,0.809,0.126,1.275   c0,0.469-0.062,0.895-0.188,1.273c0.168,0.6,0.2,1.203,0.096,1.82c-0.105,0.617-0.14,1.223-0.096,1.816   c0.043,0.342,0.062,0.703,0.062,1.082c0,0.387-0.039,0.729-0.126,1.021c0,0.299,0,0.562,0,0.799c0,0.232,0.087,0.457,0.252,0.67   c-0.211,0.596-0.232,1.17-0.062,1.723c0.166,0.555,0.146,1.105-0.064,1.658c0.126,0.469,0.105,0.893-0.062,1.275   c-0.169,0.383-0.146,0.785,0.062,1.211c0.212,1.83,0.212,3.658,0,5.486c0.043,0.469,0.043,0.957,0,1.467   c-0.039,0.512,0,1,0.126,1.469c-0.04,0.338-0.049,0.725-0.028,1.146c0.021,0.426,0.073,0.828,0.16,1.211   c-0.087,0.512-0.152,1.031-0.191,1.562c-0.045,0.531-0.086,1.055-0.129,1.562c0.211,0.596,0.256,1.18,0.129,1.754   c-0.129,0.576-0.129,1.18,0,1.814c0.082,0.174,0.096,0.344,0.031,0.512c-0.063,0.172-0.098,0.361-0.098,0.574   c-0.039,0.512-0.03,1.074,0.031,1.689c0.064,0.617,0.095,1.213,0.095,1.785c0,0.574-0.083,1.117-0.252,1.629   c-0.172,0.51-0.511,0.916-1.021,1.211c-0.427,0.086-0.863,0.127-1.309,0.127c-0.444,0-0.903-0.02-1.371-0.061   c-0.383,0.168-0.829,0.244-1.338,0.223c-0.514-0.021-0.98-0.072-1.405-0.16c-0.467,0.129-0.913,0.16-1.339,0.098   c-0.424-0.062-0.873-0.117-1.34-0.16c-0.344-0.299-0.659-0.604-0.957-0.926c-0.297-0.316-0.446-0.713-0.446-1.18   c-0.085-0.211-0.159-0.414-0.223-0.605c-0.065-0.191-0.099-0.414-0.099-0.67c-0.424-0.594-0.701-1.254-0.828-1.979   c-0.127-0.723-0.383-1.402-0.764-2.041c-0.044-0.467-0.15-0.926-0.32-1.369c-0.17-0.449-0.352-0.885-0.543-1.309   c-0.19-0.426-0.373-0.861-0.541-1.311c-0.17-0.445-0.277-0.9-0.316-1.369c0.039-0.426-0.077-0.775-0.354-1.055   c-0.274-0.275-0.394-0.625-0.35-1.051c-0.342-0.342-0.48-0.746-0.415-1.215c0.062-0.467-0.055-0.869-0.352-1.211   c0-0.211-0.106-0.383-0.321-0.512c-0.169-0.043-0.329-0.043-0.477,0c-0.148,0.043-0.248,0.15-0.286,0.32   c0.127,0.211,0.188,0.424,0.188,0.637c0,0.215-0.021,0.426-0.062,0.639c-0.042,0.213-0.064,0.426-0.064,0.639   c0,0.215,0.046,0.426,0.13,0.639c0.043,0.168,0.043,0.34,0,0.512s-0.096,0.328-0.158,0.479c-0.064,0.148-0.1,0.297-0.1,0.445   c0,0.146,0.086,0.285,0.256,0.414c-0.256,1.617-0.35,3.23-0.285,4.848c0.062,1.619,0.053,3.232-0.029,4.85   c0,0.256,0.008,0.541,0.029,0.861c0.021,0.316,0.01,0.615-0.029,0.895c-0.047,0.275-0.129,0.529-0.258,0.764   c-0.127,0.236-0.338,0.395-0.639,0.479c-0.596,0.129-1.224,0.227-1.883,0.287c-0.659,0.064-1.309,0.055-1.941-0.031l-0.259,0.129   c-0.468,0.043-0.913,0-1.339-0.129c-0.424-0.127-0.872-0.105-1.34,0.062c-0.214-0.084-0.473-0.127-0.766-0.127   c-0.299,0-0.489-0.168-0.573-0.51c-0.3-0.426-0.438-0.902-0.417-1.438c0.021-0.527-0.012-1.027-0.096-1.498   c0.084-0.383,0.084-0.785,0-1.213c-0.084-0.426-0.043-0.828,0.129-1.211c-0.088-0.469-0.158-0.947-0.226-1.436   c-0.062-0.49-0.054-0.988,0.033-1.5c0.041-0.807,0.063-1.596,0.063-2.359s0.041-1.51,0.127-2.23   c-0.127-0.723-0.203-1.455-0.226-2.199c-0.021-0.746-0.073-1.48-0.159-2.201c0.213-0.766,0.311-1.564,0.285-2.395   c-0.02-0.826-0.027-1.646-0.027-2.457c0.082-0.338,0.082-0.699,0-1.084c-0.086-0.381-0.086-0.783,0-1.211   c-0.086-0.723-0.086-1.414,0-2.07c0.082-0.66,0.146-1.33,0.19-2.012c-0.087-0.424-0.128-0.852-0.128-1.275s0.02-0.859,0.062-1.309   c0.041-0.445,0.063-0.881,0.063-1.307c0-0.424-0.063-0.852-0.192-1.275c0.213-0.682,0.318-1.402,0.318-2.168   s-0.105-1.51-0.318-2.232c0.129-0.256,0.192-0.521,0.192-0.797c0-0.277,0.021-0.555,0.063-0.83   c0.041-0.277,0.115-0.531,0.222-0.766c0.106-0.232,0.31-0.416,0.606-0.543c0.936-0.17,1.957-0.299,3.061-0.383   c0.768,0,1.562,0.029,2.393,0.094c0.829,0.066,1.604,0.016,2.328-0.156c0.342-0.041,0.641,0.074,0.895,0.352   c0.257,0.275,0.488,0.521,0.701,0.734c0.084,0.467,0.211,0.873,0.385,1.211c0.169,0.342,0.297,0.744,0.38,1.211l0.259,0.447   c0.211,0.979,0.498,1.924,0.861,2.838c0.359,0.916,0.646,1.859,0.861,2.838c0.125,0.342,0.271,0.691,0.441,1.055   c0.171,0.361,0.215,0.732,0.13,1.115c0.085,0.342,0.211,0.646,0.382,0.926c0.168,0.277,0.338,0.584,0.51,0.924   c0.086,0.725,0.232,1.414,0.446,2.072c0.21,0.66,0.487,1.311,0.829,1.945c0.215,0.213,0.447,0.275,0.699,0.191   c0.129-0.17,0.184-0.342,0.163-0.512c-0.022-0.168-0.058-0.34-0.097-0.51c-0.043-0.17-0.057-0.342-0.031-0.512   c0.021-0.17,0.094-0.342,0.226-0.51c0-0.385-0.034-0.773-0.098-1.18c-0.064-0.406,0.011-0.777,0.224-1.117   c0.04-0.34,0-0.67-0.126-0.986c-0.132-0.32-0.132-0.648,0-0.99c0-0.297-0.045-0.572-0.132-0.83   c-0.083-0.254-0.041-0.531,0.132-0.828c-0.215-0.469-0.269-0.986-0.162-1.562c0.105-0.574,0.117-1.158,0.03-1.756   c0.087-0.34,0.075-0.658-0.03-0.955c-0.104-0.299-0.075-0.617,0.097-0.957c0.039-0.258,0-0.521-0.129-0.797   c-0.125-0.277-0.104-0.543,0.062-0.799c0.045-0.465,0.055-0.936,0.034-1.404c-0.022-0.467,0.157-0.869,0.541-1.211   c0.51-0.424,1.118-0.646,1.819-0.67c0.702-0.02,1.368,0.012,2.01,0.098C194.691,86.438,195.137,86.523,195.478,86.693z"/>
	<path fill="#141412" d="M221.822,86.438c0.47,0,0.915,0.021,1.343,0.062c0.42,0.043,0.866,0.086,1.336,0.127   c0.254,0.129,0.514,0.277,0.769,0.447c0.254,0.17,0.466,0.404,0.635,0.703c0.216,0.809,0.233,1.604,0.065,2.391   c-0.172,0.787-0.215,1.605-0.126,2.457c-0.046,0.424-0.089,0.85-0.13,1.275c-0.043,0.426-0.106,0.828-0.19,1.211   c-0.469,0.596-1.055,0.893-1.756,0.893s-1.369,0-2.008,0c-0.556,0.084-1.087,0.064-1.595-0.062   c-0.513-0.127-1.021-0.105-1.532,0.062c-0.339,0.172-0.701,0.203-1.082,0.098c-0.384-0.105-0.77-0.18-1.148-0.223   c-0.47-0.045-0.924-0.014-1.372,0.096c-0.443,0.105-0.881,0.201-1.308,0.285c-0.34,0.127-0.554,0.33-0.64,0.605   c-0.084,0.277-0.172,0.52-0.254,0.734c0.17,0.596,0.225,1.223,0.157,1.881c-0.06,0.66-0.052,1.285,0.034,1.883   c0.083,0.211,0.232,0.393,0.446,0.541c0.211,0.148,0.425,0.225,0.637,0.225c0.342-0.086,0.701-0.096,1.087-0.031   c0.381,0.062,0.762,0.094,1.146,0.094c0.81,0,1.627,0.062,2.455,0.193c0.83,0.125,1.646,0.084,2.457-0.131   c0.595,0.086,1.2,0.107,1.813,0.064c0.618-0.041,1.14,0.232,1.563,0.83c0.168,0.17,0.265,0.361,0.285,0.57   c0.022,0.215,0.032,0.439,0.032,0.674c0,0.232,0,0.467,0,0.699c0,0.234,0.043,0.438,0.126,0.605   c-0.213,0.766-0.221,1.529-0.029,2.297c0.191,0.766,0.203,1.553,0.029,2.359c-0.169,0.469-0.486,0.787-0.955,0.955   c-0.47,0.172-0.937,0.299-1.402,0.385c-1.444,0.043-2.87,0.062-4.271,0.062c-1.402,0-2.789-0.086-4.146-0.256   c-0.213,0.086-0.426,0.16-0.64,0.225c-0.211,0.062-0.383,0.201-0.509,0.414c0.04,0.469-0.012,0.885-0.162,1.244   c-0.146,0.361-0.223,0.775-0.223,1.242c0.129,0.213,0.136,0.438,0.031,0.67c-0.105,0.234-0.117,0.459-0.031,0.672   c0,0.381,0,0.773,0,1.18c0,0.402,0.086,0.773,0.257,1.115c-0.045,0.256,0.042,0.445,0.254,0.574   c0.212,0.127,0.383,0.254,0.509,0.383c0.342,0.043,0.693,0.096,1.055,0.16c0.36,0.062,0.711,0.053,1.056-0.031   c0.381-0.086,0.763-0.074,1.146,0.031s0.742,0.053,1.084-0.16c0.469-0.086,0.926-0.021,1.371,0.189   c0.446,0.215,0.881,0.15,1.307-0.189c0.3,0.129,0.576,0.172,0.828,0.129c0.26-0.043,0.516-0.098,0.77-0.16s0.509-0.105,0.77-0.129   c0.252-0.021,0.508,0.057,0.762,0.225c0.809,0,1.404,0.342,1.787,1.021c0.34,0.68,0.438,1.402,0.287,2.168   c-0.147,0.768-0.183,1.529-0.1,2.297c-0.126,0.381-0.104,0.809,0.065,1.273c-0.089,0.383-0.173,0.766-0.255,1.148   c-0.088,0.383-0.299,0.701-0.642,0.957c-0.509,0.215-1.05,0.328-1.624,0.352c-0.572,0.021-1.14,0.072-1.691,0.158   c-0.637,0.086-1.297,0.127-1.978,0.127c-0.679,0-1.338,0.043-1.979,0.129c-0.424,0-0.857-0.062-1.308-0.191   c-0.444-0.129-0.857-0.062-1.243,0.191c-1.357,0.041-2.729,0.055-4.112,0.031c-1.38-0.021-2.731-0.012-4.048,0.033   c-0.174-0.129-0.344-0.193-0.513-0.193c-0.172,0-0.331,0.023-0.479,0.064c-0.149,0.041-0.312,0.062-0.478,0.062   c-0.171,0-0.343-0.041-0.514-0.129c-0.468-0.041-0.911-0.096-1.338-0.158c-0.425-0.062-0.764-0.328-1.021-0.799   c-0.254-0.338-0.309-0.709-0.158-1.115c0.146-0.4,0.137-0.799-0.032-1.18c0.087-0.723,0.129-1.479,0.129-2.266   s-0.042-1.52-0.129-2.201c0.087-0.467,0.104-0.924,0.062-1.369c-0.041-0.447-0.104-0.904-0.189-1.373   c0.045-0.34,0.115-0.668,0.227-0.988c0.105-0.316,0.07-0.646-0.099-0.988c0.044-0.424,0.044-0.859,0-1.309   c-0.041-0.445,0-0.838,0.129-1.18c0-0.553-0.03-1.084-0.097-1.594c-0.062-0.512-0.032-1.021,0.097-1.531   c-0.042-1.021-0.042-1.986,0-2.902c0.04-0.914,0.04-1.818,0-2.711c0.128-0.213,0.168-0.402,0.128-0.574   c-0.042-0.17-0.096-0.34-0.158-0.512c-0.062-0.166-0.107-0.326-0.128-0.477c-0.022-0.15,0.029-0.33,0.158-0.543   c-0.042-0.469-0.013-0.914,0.098-1.342c0.105-0.424,0.07-0.869-0.098-1.338c0.04-0.639,0.021-1.275-0.063-1.914   c-0.088-0.639-0.088-1.254,0-1.85c-0.125-0.213-0.137-0.438-0.029-0.67c0.104-0.234,0.095-0.457-0.034-0.67   c0.129-0.553,0.161-1.115,0.099-1.689s-0.012-1.158,0.158-1.756c-0.17-0.467-0.202-0.934-0.096-1.4   c0.104-0.467,0.072-0.936-0.098-1.402c0.17-0.426,0.299-0.896,0.385-1.404c0.082-0.51,0.425-0.828,1.021-0.957   c0.597,0,1.168-0.041,1.724-0.127c0.552-0.084,1.104-0.062,1.655,0.062c0.937-0.127,1.871-0.104,2.81,0.062   c0.935,0.17,1.867,0.15,2.807-0.062c0.339,0.213,0.689,0.225,1.051,0.031c0.362-0.191,0.713-0.201,1.055-0.031   c0.342,0,0.713-0.031,1.114-0.098c0.405-0.062,0.778,0.014,1.117,0.227c0.724,0.125,1.351,0.096,1.88-0.098   c0.531-0.191,1.16-0.244,1.885-0.158c0.082-0.086,0.198-0.117,0.352-0.096C221.618,86.363,221.734,86.396,221.822,86.438z"/>
</g>
</svg>