<svg xmlns="http://www.w3.org/2000/svg" xmlns:xlink="http://www.w3.org/1999/xlink" version="1.1" id="Calque_1" x="0px" y="0px" width="255.118px" height="170.078px" viewBox="0 39.955 255.118 170.078" enable-background="new 0 39.955 255.118 170.078" xml:space="preserve">
<g>
	<path fill="#141412" d="M171.78,187.921c-0.037,0.791-0.074,1.578-0.105,2.368c-0.049,1.076,0.029,2.176-0.188,3.216   c-0.093,0.435-0.751,0.925-1.247,1.068c-1.127,0.321-2.306,0.567-3.474,0.631c-3.278,0.174-6.561,0.25-9.844,0.339   c-1.286,0.034-2.6,0.159-3.854-0.05c-0.885-0.149-1.754-0.7-2.515-1.235c-0.863-0.609-1.72-1.308-2.357-2.133   c-0.782-1.014-1.458-2.152-1.935-3.338c-0.208-0.523,0.191-1.29,0.539-1.992c0.095,0.85,0.188,1.697,0.281,2.547   c0.095-0.004,0.19-0.007,0.285-0.01c0-1.346,0.055-2.694-0.015-4.036c-0.085-1.625-0.251-3.249-0.425-4.869   c-0.104-0.956-0.348-1.896-0.411-2.854c-0.083-1.261,0.007-2.535-0.078-3.796c-0.215-3.225-0.483-6.441-0.729-9.661   c-0.25-3.283-0.557-6.564-0.731-9.854c-0.144-2.636-0.101-5.283-0.196-7.924c-0.031-0.859-0.218-1.716-0.365-2.568   c-0.56-3.276-1.443-6.504-1.352-9.882c0.07-2.54,1.01-3.711,3.721-3.579c1.243,0.06,2.506-0.244,3.762-0.388   c0.067-0.006,0.156-0.024,0.201-0.073c1.306-1.41,2.142-0.201,2.989,0.579c1.107,1.019,1.986,2.427,3.263,3.075   c1.152,0.587,0.641,1.115,0.635,1.831c-0.016,1.44,0.121,2.882,0.164,4.321c0.037,1.33-0.002,2.662,0.056,3.992   c0.081,1.866,0.201,3.73,0.339,5.593c0.092,1.261,0.273,2.515,0.354,3.773c0.047,0.679-0.051,1.363-0.065,2.044   c-0.038,1.646-0.058,3.293-0.097,4.938c-0.059,2.547-0.336,5.107-0.137,7.633c0.246,3.143,0.901,6.252,1.338,9.385   c0.172,1.215,0.226,2.45,0.355,3.957c1.02-0.05,2.167,0.086,3.202-0.197c2.724-0.738,4.653,0.285,6.241,2.389   c0.253,0.335,0.678,0.529,0.965,0.841c0.352,0.379,0.689,0.784,0.947,1.229c0.26,0.451,0.41,0.961,0.609,1.447   c0.104-0.018,0.206-0.035,0.309-0.053c0-0.626,0.019-1.253-0.002-1.877c-0.043-1.302-0.105-2.6-0.156-3.898   c-0.004-0.108,0.076-0.228,0.053-0.32c-0.689-2.604-0.367-5.249-0.338-7.881c0.004-0.355,0.21-0.717,0.182-1.062   c-0.015-0.177-0.494-0.318-0.506-0.488c-0.023-0.438,0.135-0.887,0.153-1.33c0.065-1.484,0.084-2.971,0.16-4.453   c0.093-1.733,0.256-3.465,0.333-5.201c0.056-1.229,0.265-2.479-0.326-3.672c-0.116-0.233-0.007-0.832,0.163-0.912   c0.612-0.289,0.28-0.743,0.301-1.119c0.081-1.619,0.157-3.237,0.187-4.857c0.023-1.294,0.004-2.592-0.051-3.884   c-0.094-2.164-0.254-4.323-0.346-6.485c-0.122-2.798-0.277-5.595-0.248-8.392c0.006-0.586,0.619-1.457,1.168-1.692   c1.168-0.504,2.465-0.8,3.735-0.949c1.235-0.148,2.557-0.213,3.75,0.072c0.875,0.206,1.599,1.036,2.396,1.584   c1.995,1.367,2.202,3.506,2.318,5.621c0.104,1.889,0.021,3.785,0.021,5.782c1.148-2.16,2.201-4.201,3.309-6.211   c1.238-2.246,3.006-4.144,5.035-5.569c1.503-1.053,3.527-1.38,5.525-1.174c2.061,0.21,4.135,0.26,6.203,0.357   c3.234,0.152,6.479,0.214,9.705,0.484c0.717,0.058,1.557,0.684,2.021,1.288c1.783,2.319,4.059,4.261,5.382,6.933   c0.22,0.447,0.562,0.832,0.868,1.274c-0.07,0.087-0.238,0.295-0.476,0.585c-0.05-0.353-0.089-0.63-0.136-0.972   c-1.65,2.673-3.703,4.765-6.374,6.205c-0.317,0.171-0.976,0.204-1.187,0c-1.15-1.113-2.595-0.813-3.854-0.683   c-1.402,0.152-2.531,0.063-3.564-0.959c-0.533-0.53-1.196-0.939-1.836-1.356c-1.451-0.947-2.479-0.753-3.451,0.805   c-1.533,2.461-2.571,5.132-2.646,8.058c-0.087,3.492-0.185,6.996,0.04,10.476c0.15,2.334,0.663,4.688,1.352,6.933   c0.944,3.101,2.207,6.104,3.33,9.149c0.389,1.048,0.777,2.095,1.16,3.135c1.297-0.791,2.539-1.434,3.643-2.269   c0.574-0.432,0.99-1.152,1.309-1.82c0.781-1.629,1.739-1.908,3.282-1.066c1.93,1.053,3.788,2.224,6.063,2.604   c1.104,0.184,2.113,1.064,3.118,1.707c1.739,1.107,3.431,2.295,5.161,3.415c0.807,0.521,1.071,1.582,0.854,2.823   c-0.359,2.043-1.521,3.57-2.675,5.232c-1.786,2.576-4.209,4.279-6.857,5.549c-2.446,1.174-5.226,1.498-7.988,0.877   c-3.428-0.776-6.897-1.416-10.272-2.383c-2.715-0.777-5.199-2.06-7.336-4.094c-1.615-1.541-2.395-3.472-3.504-5.268   c-1.478-2.391-1.853-5.146-2.82-7.703c-0.328-0.867-0.734-1.708-1.359-2.564c0,1.949-0.012,3.897,0.003,5.848   c0.01,1.365,0.048,2.734,0.089,4.103c0.067,2.224,0.145,4.448,0.227,6.675c0.015,0.357,0.174,0.725,0.123,1.066   c-0.067,0.476-0.008,1.031-0.862,1.023c-3.239-0.033-6.483,0.082-9.724-0.006c-0.598-0.017-1.344-0.596-1.729-1.127   c-0.762-1.047-1.333-2.23-1.943-3.379c-0.193-0.371-0.262-0.811-0.386-1.217C171.92,187.969,171.849,187.945,171.78,187.921z    M202.156,177.032c-0.491-1.593-0.981-3.185-1.448-4.697c-0.281,0.195-0.569,0.394-0.854,0.588c0.254-1.453-0.24-2.774-0.584-4.162   c-0.547-2.209-0.926-4.483-1.129-6.752c-0.291-3.295-0.444-6.606-0.488-9.912c-0.021-1.62,0.062-3.346,0.597-4.847   c0.935-2.617,2.174-5.137,3.929-7.357c1.241-1.574,3.005-2.117,4.821-2.479c1.135-0.228,2.254-0.037,3.379,0.524   c1.545,0.774,2.709,1.879,3.716,3.223c0.841,1.125,1.305,1.218,2.435,0.394c1.053-0.77,2.045-1.62,3.113-2.362   c0.645-0.45,0.633-0.856,0.209-1.422c-0.958-1.273-2.02-2.496-2.812-3.869c-1.039-1.804-2.634-2.62-4.537-2.672   c-2.662-0.066-5.349-0.004-8,0.267c-3.994,0.405-7.136,2.237-8.902,6.037c-0.423,0.909-0.997,1.751-1.463,2.641   c-1.021,1.949-2.197,3.843-2.954,5.888c-0.573,1.547-0.64,3.295-0.845,4.963c-0.161,1.312-0.412,2.67-0.233,3.949   c0.5,3.584,1.081,7.162,1.87,10.693c0.525,2.35,1.556,4.584,2.186,6.918c1.051,3.904,1.532,7.952,3.045,11.739   c0.784,1.965,1.133,4.136,3.07,5.477c0.622,0.431,1.072,1.11,1.584,1.661c0.075-0.066,0.205-0.181,0.336-0.298   c0.15,0.221,0.385,0.421,0.436,0.663c0.16,0.779,1.662,2.062,2.263,1.693c0.976-0.603,1.772-0.062,2.653,0.02   c0.787,0.075,1.002,0.378,0.633,1.007c1.392,0.542,2.893-1.133,4.136,0.152c0.535-0.162,1.019-0.244,1.44-0.449   c0.898-0.435,1.931,0.146,2.857-0.571c0.711-0.554,1.729-0.717,2.624-1.018c0.595-0.2,1.3-0.192,1.8-0.52   c2.601-1.701,4.504-4.037,5.885-6.801c0.104-0.209,0.115-0.613-0.017-0.762c-0.506-0.564-1.032-1.139-1.651-1.569   c-1.504-1.05-3.043-2.055-4.607-3.008c-0.585-0.354-1.297-0.728-1.932-0.695c-0.465,0.021-0.979,0.623-1.334,1.076   c-1.368,1.742-2.801,3.418-4.713,4.582c-0.539,0.328-1.261,0.718-1.805,0.609c-2.054-0.401-4.06-0.993-5.627-2.546   c-0.293-0.293-0.785-0.406-1.204-0.543c-0.928-0.311-1.866-0.582-2.493-0.773c0-1.359,0.097-2.456-0.041-3.521   c-0.067-0.518-0.703-0.941-0.852-1.473c-0.347-1.251-0.553-2.541-0.814-3.816c0.188,0.08,0.494,0.115,0.537,0.238   c0.316,0.915,0.521,1.871,0.883,2.764c0.174,0.424,0.611,0.74,0.923,1.109c-0.013,1.092,0.247,2.064,0.982,2.833   c0.12-0.052,0.236-0.104,0.356-0.159C203.06,178.802,202.607,177.917,202.156,177.032z M184.276,191.854   c0.025-0.188,0.064-0.364,0.067-0.543c0.063-3.049,0.116-6.099,0.187-9.146c0.066-2.893,0.231-5.785,0.194-8.677   c-0.045-3.518-0.271-7.031-0.392-10.546c-0.086-2.495-0.149-4.995-0.184-7.493c-0.045-3.599-0.006-7.198-0.093-10.796   c-0.06-2.502-0.261-5-0.408-7.496c-0.071-1.199-0.108-2.401-0.274-3.588c-0.039-0.286-0.517-0.729-0.8-0.733   c-1.228-0.021-2.459,0.158-3.686,0.133c-1.015-0.02-1.366,0.489-1.394,1.364c-0.026,0.859,0.004,1.722,0.008,2.583   c0,2.524,0.03,5.054-0.008,7.579c-0.045,3.146-0.16,6.29-0.219,9.435c-0.102,5.811-0.169,11.621-0.279,17.433   c-0.078,4.235-0.226,8.476-0.3,12.712c-0.046,2.618-0.009,5.239-0.009,7.78C179.211,191.854,181.693,191.854,184.276,191.854z    M155.682,134.614c-0.777,0.093-1.303,0.151-1.825,0.221c-0.858,0.112-1.728,0.367-2.575,0.317c-1.08-0.066-1.361,0.529-1.393,1.35   c-0.104,2.741-0.25,5.484-0.186,8.219c0.047,1.827,0.449,3.643,0.646,5.469c0.359,3.364,0.688,6.733,1.023,10.101   c0.082,0.836,0.182,1.674,0.213,2.515c0.084,2.161,0.138,4.326,0.199,6.489c0.049,1.808,0.123,3.615,0.129,5.425   c0.006,1.857-0.088,3.715-0.088,5.57c0.006,1.979,0.053,3.956,0.113,5.932c0.049,1.603,0.09,3.204,0.239,4.797   c0.177,1.902,0.227,1.873,2.172,1.892c2.739,0.026,5.478,0.134,8.216,0.138c2.062,0.005,4.125-0.111,6.188-0.14   c0.645-0.011,1.052-0.167,1.076-0.896c0.067-1.792,0.153-3.582,0.232-5.383c-0.314-0.039-0.457-0.07-0.598-0.075   c-3.233-0.075-6.467-0.142-9.7-0.229c-0.429-0.013-0.89-0.046-1.267-0.218c-1.129-0.512-1.021-1.572-0.957-2.537   c0.281-4.33-0.012-8.639-0.453-12.936c-0.387-3.744-0.89-7.457-0.698-11.251c0.182-3.606,0.136-7.233,0.019-10.845   C156.26,143.95,155.938,139.367,155.682,134.614z M199.259,130.964c-3.819-0.35-6.321,1.784-8.558,4.211   c-2.055,2.232-3.016,5.052-3.516,8.017c-0.139,0.811-0.2,1.637-0.354,2.442c-0.31,1.623-0.894,3.232-0.94,4.858   c-0.086,3.083,0.067,6.177,0.245,9.259c0.074,1.282,0.465,2.547,0.721,3.817c0.385,1.906,0.791,3.81,1.16,5.721   c0.141,0.716,0.189,1.449,0.312,2.171c0.158,0.944,0.275,1.906,0.543,2.821c0.305,1.033,0.789,2.015,1.138,3.04   c0.733,2.159,1.387,4.349,2.151,6.495c1.062,2.975,3.652,4.767,5.612,7.037c0.461,0.533,1.287,0.748,2.093,1.193   c-0.805-1.107-1.65-1.965-2.132-2.995c-0.979-2.101-1.856-4.26-2.593-6.454c-0.749-2.234-1.281-4.537-1.898-6.812   c-0.238-0.877-0.447-1.766-0.668-2.646c0.096-0.307,0.131-0.651,0.043-0.963c-0.57-1.998-1.229-3.971-1.735-5.984   c-0.411-1.646-0.591-3.352-0.974-5.006c-0.727-3.153-1.115-6.322-0.766-9.56c0.037-0.345-0.018-0.701,0.034-1.043   c0.253-1.692,0.28-3.474,0.854-5.052c0.887-2.438,2.114-4.752,3.272-7.083c0.757-1.519,1.621-2.985,2.489-4.444   c0.291-0.484,0.701-0.931,1.139-1.296C197.677,132.087,198.481,131.54,199.259,130.964z M145.963,133.312   c-0.104,0.666-0.287,1.211-0.256,1.744c0.25,4.289,0.5,8.582,0.83,12.867c0.241,3.135,0.613,6.258,0.912,9.389   c0.295,3.09,0.637,6.183,0.84,9.279c0.18,2.699,0.198,5.406,0.277,8.111c0.066,2.259,0.055,4.523,0.191,6.777   c0.164,2.582,0.436,5.16,0.723,7.729c0.046,0.417,0.417,0.794,0.641,1.19c0.131-0.036,0.262-0.071,0.391-0.107   c0-1.673-0.02-3.35,0.005-5.021c0.049-3.49,0.17-6.984,0.167-10.476c-0.004-2.576-0.114-5.151-0.256-7.725   c-0.165-2.938-0.44-5.867-0.621-8.802c-0.075-1.188,0.057-2.394-0.057-3.576c-0.232-2.447-0.586-4.887-0.846-7.334   c-0.068-0.643,0.068-1.306,0.027-1.953c-0.07-1.066-0.295-2.129-0.305-3.192c-0.021-2.235,0.062-4.475,0.078-6.713   c0-0.214-0.105-0.521-0.268-0.629C147.667,134.348,146.862,133.871,145.963,133.312z M175.344,190.504   c0.066-0.912,0.154-1.589,0.16-2.263c0.033-3.442,0.004-6.888,0.078-10.33c0.082-3.873,0.254-7.744,0.386-11.615   c0.057-1.623,0.116-3.243,0.151-4.864c0.043-2.164,0.073-4.332,0.096-6.498c0.014-1.26-0.053-2.521,0.008-3.776   c0.062-1.382,0.324-2.759,0.314-4.14c-0.014-1.867-0.277-3.729-0.302-5.599c-0.024-1.866,0.179-3.735,0.147-5.603   c-0.027-1.605-0.213-3.228-2.428-3.644c0,0.361-0.018,0.7,0.004,1.033c0.049,0.751,0.149,1.5,0.166,2.251   c0.026,1.359-0.031,2.718,0.013,4.077c0.063,1.965,0.259,3.927,0.267,5.89c0.012,2.52-0.105,5.039-0.167,7.559   c-0.061,2.469-0.114,4.94-0.179,7.408c-0.092,3.621-0.189,7.24-0.287,10.859c-0.05,1.871-0.141,3.744-0.139,5.613   c0.002,2.064,0.115,4.131,0.133,6.197C173.784,185.549,173.884,188.011,175.344,190.504z M216.818,178.698   c-1.126-0.436-2.062-0.822-3.014-1.153c-0.71-0.243-1.528-0.604-2.046,0.258c-0.883,1.471-2.254,2.311-3.656,3.151   c-0.509,0.307-0.943,0.733-1.412,1.104c0.51,0.429,0.958,0.982,1.54,1.262c1.089,0.521,2.301,1.186,3.492,0.572   C213.975,182.739,215.254,180.577,216.818,178.698z M212.736,142.186c-0.632-2.572-4.873-4.108-7.387-2.75   c0.791,0.562,1.589,1.177,2.435,1.721c0.713,0.462,1.438,1.043,2.232,1.206C210.85,142.531,211.771,142.266,212.736,142.186z    M159.14,182.834c-0.081,0.812,0.483,1.471,1.456,1.475c1.798,0.008,3.596-0.016,5.394-0.065c0.334-0.009,0.663-0.207,1.134-0.364   c-0.351-0.301-0.496-0.525-0.68-0.562c-0.945-0.187-1.898-0.41-2.861-0.461C162.139,182.779,160.687,182.834,159.14,182.834z    M147.656,132.585c1.363,1.202,4.583,1.526,6.103,0.751C152.023,131,149.86,132.439,147.656,132.585z M174.709,130.701   c0.922,0.697,1.774,1.229,3.115,0.93c1.328-0.293,2.771-0.062,4.164-0.062c0.043-0.143,0.085-0.282,0.126-0.426   c-0.604-0.297-1.212-0.849-1.813-0.841C178.445,130.32,176.59,130.549,174.709,130.701z"/>
	<path fill="#141412" d="M173.249,119.158c-0.963,0.099-1.924-0.071-2.528,0.317c-1.099,0.702-2.252,0.8-3.438,0.853   c-2.158,0.097-4.293,0.376-6.429-0.601c-1.278-0.586-1.739-1.434-2.121-2.616c-1.022-3.198-2.097-6.382-3.215-9.551   c-1.412-3.992-2.886-7.963-4.343-11.941c-1.976-5.397-3.957-10.79-5.941-16.182c-0.118-0.324-0.27-0.637-0.625-0.917   c0,1.337,0,2.671,0,4.006c0,3.473-0.081,6.951,0.021,10.419c0.125,4.189,0.357,8.378,0.638,12.563   c0.175,2.647,0.584,5.281,0.761,7.928c0.09,1.365-0.006,2.759-0.195,4.117c-0.112,0.809-0.688,1.447-1.642,1.473   c-1.862,0.056-3.728,0.108-5.589,0.128c-1.189,0.012-1.896-0.841-2.564-1.634c-1.046-1.235-1.972-2.567-3.014-3.801   c-0.545-0.645-0.496-1.352-0.496-2.085c0.002-3.577,0-7.156,0-9.945c-0.348,2.253-0.707,5.315-1.318,8.327   c-0.527,2.59-1.918,4.755-3.705,6.753c-2.108,2.356-4.803,2.985-7.708,3.597c-3.102,0.653-6.012,0.429-8.941-0.594   c-1.262-0.441-2.576-0.761-3.791-1.298c-2.225-0.982-3.645-2.821-4.358-5.051c-0.724-2.261-1.241-4.574-1.253-7.027   c-0.014-2.558-0.592-5.107-0.807-7.669c-0.206-2.46-0.261-4.935-0.391-7.401c-0.065-1.184-0.164-2.368-0.222-3.552   c-0.094-1.904-0.136-3.81-0.264-5.711c-0.144-2.173-0.392-4.34-0.525-6.516c-0.059-0.971,0.112-1.959,0.079-2.934   c-0.075-2.246-0.197-4.492-0.321-6.736c-0.081-1.425-0.263-2.849-0.255-4.273c0.002-0.346,0.507-0.897,0.877-0.996   c0.94-0.248,1.938-0.268,2.901-0.431c1.071-0.181,2.142-0.385,3.195-0.643c0.836-0.203,1.489,0.006,2.056,0.623   c0.753,0.823,1.56,1.598,2.27,2.453c0.397,0.478,0.838,1.048,0.93,1.629c0.37,2.295,0.675,4.602,0.881,6.915   c0.284,3.181,0.486,6.368,0.667,9.557c0.132,2.302,0.112,4.617,0.268,6.92c0.146,2.156,0.549,4.297,0.622,6.453   c0.079,2.273-0.136,4.555-0.142,6.834c-0.001,0.779,0.111,1.615,0.406,2.327c0.564,1.362,1.196,2.726,2,3.957   c0.627,0.958,2.155,0.891,2.761-0.073c0.444-0.708,0.859-1.589,0.863-2.396c0.01-2.896,0.393-5.736,0.834-8.59   c0.254-1.643,0.352-3.346,0.242-5.006c-0.248-3.766-0.729-7.519-0.993-11.287c-0.153-2.183-0.194-4.391-0.053-6.573   c0.171-2.583-0.413-5.048-0.729-7.564c-0.187-1.477-0.13-2.983-0.128-4.476c0.002-0.234,0.256-0.629,0.458-0.677   c2.313-0.544,4.635-1.058,6.968-1.516c0.257-0.049,0.641,0.246,0.885,0.468c2.188,2.002,2.407,4.705,2.676,7.42   c0.343,3.422,0.855,6.829,1.201,10.252c0.195,1.949,0.146,3.92,0.307,5.875c0.385,4.661,0.844,9.316,1.238,13.976   c0.082,0.962,0.013,1.937,0.013,2.907c0.163,0.004,0.327,0.008,0.489,0.014c0-0.992-0.006-1.984,0-2.976   c0.039-4.547,0.143-9.096,0.088-13.641c-0.039-3.314-0.188-6.632-0.473-9.932c-0.238-2.777-0.891-5.52-1.076-8.293   c-0.123-1.788,0.084-3.648,0.484-5.399c0.307-1.325,1.626-1.756,2.942-1.866c1.522-0.126,3.075-0.11,4.562-0.423   c2.011-0.421,3.515,0.248,5.136,1.381c2.803,1.963,4.597,4.46,5.588,7.731c0.865,2.856,1.976,5.654,3.195,8.38   c1.413,3.158,3.077,6.207,4.604,9.314c0.557,1.129,1.039,2.292,1.708,3.43c-0.061-0.706-0.159-1.411-0.18-2.116   c-0.107-4.195-0.15-8.394-0.312-12.589c-0.117-3.121-0.372-6.238-0.579-9.355c-0.092-1.355-0.182-2.714-0.352-4.063   c-0.104-0.842,0.291-1.107,1.014-1.186c1.225-0.133,2.461-0.21,3.661-0.452c0.968-0.193,1.881-0.768,2.843-0.843   c0.645-0.052,1.502,0.305,1.971,0.772c0.887,0.889,1.531,1.982,2.879,2.358c0.302,0.084,0.549,0.802,0.601,1.253   c0.16,1.449,0.226,2.908,0.313,4.363c0.156,2.547,0.332,5.094,0.447,7.644c0.112,2.446,0.156,4.898,0.241,7.347   c0.194,5.605,0.403,11.208,0.595,16.812c0.104,2.985,0.2,5.971,0.258,8.956c0.022,1.186-0.133,2.376-0.102,3.558   c0.041,1.558,0.182,3.111,0.277,4.667c0.027,0.436,0.046,0.873,0.064,1.311C173.163,117.2,173.211,118.303,173.249,119.158z    M136.857,61.928c-0.069,1.339-0.188,2.353-0.165,3.361c0.105,4.508,0.264,9.015,0.377,13.523c0.049,1.89,0.014,3.78,0.055,5.67   c0.041,1.914,0.174,3.825,0.184,5.739c0.014,2.151-0.159,4.307-0.084,6.457c0.084,2.44,0.451,4.873,0.516,7.314   c0.061,2.299-0.173,4.606-0.162,6.907c0.01,1.649,0.206,3.298,0.338,4.944c0.056,0.696,0.407,1.193,1.152,1.205   c1.747,0.028,3.496,0.008,5.32,0.008c0-0.851,0.037-1.487-0.006-2.118c-0.215-3.095-0.475-6.189-0.672-9.287   c-0.146-2.247-0.22-4.5-0.332-6.75c-0.069-1.4-0.236-2.801-0.213-4.201c0.047-2.667,0.26-5.33,0.289-7.997   c0.026-2.476-0.104-4.952-0.152-7.43c-0.012-0.608,0.091-1.224,0.037-1.825c-0.14-1.583-0.363-3.161-0.483-4.746   c-0.021-0.263,0.269-0.692,0.513-0.787c0.206-0.08,0.699,0.134,0.816,0.354c0.434,0.802,0.828,1.638,1.115,2.503   c0.815,2.462,1.498,4.972,2.373,7.413c1.318,3.671,2.718,7.316,4.15,10.945c1.45,3.669,3.127,7.253,4.444,10.966   c1.476,4.154,2.665,8.408,3.963,12.625c0.238,0.77,0.651,1.378,1.494,1.354c2.731-0.077,5.46-0.197,8.187-0.382   c0.282-0.017,0.713-0.531,0.764-0.863c0.279-1.792,0.619-3.596,0.649-5.399c0.065-3.603-0.004-7.21-0.112-10.811   c-0.108-3.591-0.356-7.177-0.506-10.767c-0.168-4.008-0.306-8.017-0.432-12.027c-0.104-3.245-0.137-6.492-0.264-9.735   c-0.07-1.812-0.232-3.621-0.446-5.42c-0.037-0.317-0.533-0.824-0.815-0.826c-1.375-0.006-2.754,0.222-4.127,0.186   c-1.215-0.033-1.425,0.62-1.393,1.563c0.077,2.147,0.165,4.297,0.273,6.444c0.104,2.067,0.256,4.13,0.354,6.197   c0.144,3.052,0.258,6.106,0.383,9.161c0.106,2.561,0.23,5.118,0.313,7.678c0.08,2.501,0.105,5.005,0.188,7.507   c0.053,1.579,0.203,3.157,0.229,4.734c0.009,0.576-0.21,1.156-0.32,1.703c-0.987-0.053-1.083-0.577-1.209-1.257   c-0.324-1.74-0.597-3.528-1.224-5.17c-1.266-3.318-2.777-6.539-4.139-9.822c-1.527-3.673-2.986-7.376-4.498-11.059   c-2.109-5.129-4.262-10.24-6.343-15.38c-0.519-1.282-1.159-2.149-2.71-1.768c-0.197,0.049-0.43-0.04-0.648-0.06   C141.61,62.317,139.344,62.132,136.857,61.928z M127.688,63.426c-1.142,0.182-1.892,0.38-2.643,0.397   c-0.716,0.016-1.102,0.199-1.102,0.978c0.008,2.201-0.099,4.403,0,6.604c0.149,3.229,0.407,6.454,0.674,9.676   c0.331,3.955,0.865,7.894,1.039,11.855c0.177,4.16,0.262,8.349-0.049,12.495c-0.248,3.31-1.337,6.437-4.542,8.319   c-1.257,0.741-2.583,1.154-3.83,0.535c-1.245-0.618-2.448-1.528-3.339-2.59c-1.154-1.376-1.473-3.189-1.636-4.981   c-0.189-2.063-0.458-4.122-0.578-6.187c-0.15-2.574-0.138-5.159-0.276-7.733c-0.251-4.69-0.592-9.375-0.839-14.065   c-0.14-2.62-0.112-5.249-0.27-7.867c-0.114-1.88-0.411-3.749-0.62-5.623c-0.055-0.512-0.179-0.801-0.828-0.642   c-1.262,0.31-2.566,0.462-3.819,0.809c-0.346,0.096-0.78,0.627-0.805,0.987c-0.059,0.846,0.107,1.705,0.182,2.561   c0.149,1.764,0.305,3.526,0.446,5.292c0.149,1.867,0.326,3.733,0.413,5.604c0.062,1.318-0.084,2.643,0.006,3.957   c0.165,2.372,0.523,4.732,0.635,7.103c0.116,2.431-0.003,4.87,0.056,7.305c0.029,1.287,0.187,2.575,0.352,3.851   c0.195,1.5,0.457,2.989,0.695,4.482c0.424,2.676,0.763,5.357,1.571,7.976c0.566,1.835,2.457,3.969,4.396,4.173   c2.503,0.262,4.948,0.705,7.536-0.033c4.433-1.263,8.146-3.918,8.561-9.023c0.308-3.766,0.91-7.507,1.214-11.273   c0.146-1.835-0.103-3.703-0.164-5.558c-0.045-1.424,0.129-2.889-0.15-4.262c-0.973-4.726-0.779-9.546-1.332-14.304   C128.227,70.689,128.008,67.116,127.688,63.426z M120.079,62.97c0,0.85-0.053,1.461,0.008,2.062   c0.549,5.565,1.278,11.122,1.633,16.699c0.316,4.99,0.275,10.005,0.3,15.008c0.018,3.349-0.22,6.704-1.38,9.881   c-0.925,2.533-1.961,3.504-4.307,3.249c-0.657-0.073-1.291-0.35-2.02-0.559c0.505,1.81,1.851,2.697,3.278,3.477   c0.902,0.494,1.834,0.333,2.69-0.146c1.324-0.738,2.568-1.654,2.961-3.176c0.561-2.166,1.273-4.384,1.285-6.581   c0.023-4.539-0.318-9.084-0.614-13.619c-0.204-3.156-0.602-6.295-0.865-9.448c-0.147-1.797-0.21-3.603-0.289-5.406   c-0.14-3.154-0.258-6.311-0.396-9.466c-0.008-0.194-0.062-0.466-0.199-0.564C121.531,63.912,120.86,63.491,120.079,62.97z    M100.715,62.869c-0.088,1.051-0.24,1.835-0.2,2.612c0.065,1.21,0.287,2.411,0.389,3.623c0.305,3.54,0.572,7.081,0.874,10.622   c0.09,1.029,0.312,2.051,0.352,3.08c0.04,1.044-0.146,2.096-0.096,3.138c0.059,1.204,0.333,2.396,0.396,3.6   c0.106,2.02,0.128,4.045,0.165,6.069c0.03,1.502-0.029,3.007,0.06,4.503c0.09,1.55,0.354,3.085,0.465,4.633   c0.144,2.024,0.284,4.022,1.041,5.953c0.754,1.92,1.666,3.69,3.296,5.133c-0.346-1.473-0.743-2.826-0.971-4.205   c-0.451-2.722-0.816-5.458-1.198-8.189c-0.222-1.615-0.525-3.233-0.584-4.859c-0.114-3.18-0.02-6.372-0.132-9.555   c-0.144-4.068-0.336-8.14-0.635-12.203c-0.234-3.187-0.828-6.354-0.942-9.541C102.926,65.444,102.027,64.299,100.715,62.869z    M133.206,60.433c-0.067,0.607-0.219,1.174-0.168,1.727c0.248,2.84,0.682,5.672,0.805,8.516c0.229,5.249,0.351,10.508,0.406,15.763   c0.039,3.819-0.168,7.645-0.143,11.466c0.028,4.034,0.203,8.064,0.305,12.099c0.019,0.709-0.236,1.532,0.038,2.11   c0.511,1.082,1.317,2.023,2,3.021c0.138-0.72,0.041-1.296,0.035-1.874c-0.03-2.515,0.005-5.035-0.06-7.55   c-0.105-4.201-0.303-8.399-0.398-12.6c-0.081-3.574-0.07-7.147-0.096-10.72c-0.014-1.842,0.054-3.684-0.026-5.523   c-0.173-3.945-0.411-7.886-0.64-11.827c-0.049-0.85,0.033-1.786-0.296-2.521C134.615,61.745,133.842,61.159,133.206,60.433z    M163.422,99.763c0.021-0.46,0.041-0.588,0.033-0.716c-0.216-5.418-0.441-10.838-0.649-16.259   c-0.161-4.194-0.267-8.392-0.46-12.583c-0.109-2.33-0.383-4.651-0.52-6.981c-0.076-1.286-1.414-1.093-2.007-1.857   c-0.062,1.08,0.042,2.11,0.093,3.141c0.17,3.446,0.328,6.891,0.473,10.339c0.048,1.137-0.004,2.278,0.059,3.413   c0.165,3.022,0.42,6.043,0.542,9.07c0.097,2.376,0.045,4.76,0.068,7.139c0.002,0.21,0.028,0.441,0.116,0.628   C161.862,96.551,162.567,98,163.422,99.763z M108.529,63.369c-0.692-0.822-1.267-1.536-1.88-2.218   c-0.118-0.13-0.395-0.21-0.572-0.177c-1.478,0.284-2.95,0.598-4.457,0.911c0.333,0.448,0.637,0.809,0.889,1.203   c0.456,0.708,1.019,1.064,1.912,0.896C105.729,63.743,107.052,63.587,108.529,63.369z M134.547,59.294   c0.33,1.048,0.808,1.294,1.578,1.291c1.67-0.01,3.34,0.078,5.01,0.135c0.77,0.028,1.537,0.071,2.308,0.108   c0.047-0.092,0.095-0.185,0.142-0.277c-0.677-0.542-1.336-1.521-2.033-1.55C139.262,58.911,136.963,59.166,134.547,59.294z    M166.463,60.444c-1.754-1.601-3.684-0.493-5.604-0.336c0.521,0.409,1.095,0.793,1.656,0.773   C163.834,60.838,165.147,60.602,166.463,60.444z M126.668,62.13c-0.401-0.431-0.789-1.108-1.024-1.056   c-1.292,0.268-2.549,0.716-4.038,1.168c0.488,0.295,0.798,0.649,1.06,0.614C123.932,62.685,125.187,62.409,126.668,62.13z"/>
	<path fill="#141412" d="M102.393,134.493c-0.079,0.267-0.349,0.7-0.299,1.093c0.361,2.874,0.926,5.725,1.16,8.605   c0.352,4.358,0.555,8.729,0.689,13.104c0.075,2.437-0.232,4.884-0.162,7.32c0.059,2.159,0.315,4.323,0.642,6.461   c0.456,2.987,0.157,5.926-0.789,8.718c-1.28,3.793-2.87,7.484-4.371,11.2c-0.43,1.069-1.063,2.056-1.525,3.114   c-0.63,1.444-1.755,2.276-3.179,2.785c-1.608,0.57-3.195,1.235-4.842,1.666c-2.004,0.521-4.079,0.477-6.038-0.183   c-2.119-0.708-4.344-1.346-6.197-2.528c-4.601-2.937-7.103-7.205-7.12-12.799c-0.01-3.308-0.183-6.615-0.179-9.923   c0.008-4.304,0.116-8.606,0.191-12.908c0.042-2.639,0.129-5.276,0.163-7.913c0.051-3.822,0.088-7.641,0.088-11.463   c0-0.816-0.208-1.633-0.285-2.451c-0.144-1.592-0.262-3.187-0.396-4.777c-0.037-0.471,0.036-0.997-0.153-1.4   c-0.544-1.176-0.021-1.453,1.047-1.553c2.159-0.203,4.305-0.596,6.469-0.717c2.594-0.146,4.91,2.109,4.965,4.712   c0.089,4.095,0.065,8.194,0.209,12.286c0.095,2.619,0.531,5.228,0.592,7.845c0.063,2.653-0.2,5.313-0.218,7.972   c-0.02,2.762,0.078,5.526,0.137,8.287c0.028,1.316,0.073,2.633,0.124,3.948c0.067,1.64,0.104,3.28,0.24,4.916   c0.061,0.704,0.273,1.42,0.549,2.073c0.318,0.758,0.968,0.683,1.668,0.5c3.597-0.926,5.371-3.377,6.104-6.89   c0.935-4.468,1.255-8.944,0.879-13.503c-0.305-3.688-0.289-7.402-0.558-11.092c-0.175-2.443-0.64-4.861-0.899-7.301   c-0.149-1.389-0.159-2.792-0.208-4.19c-0.065-1.979-0.104-3.961-0.166-5.938c-0.015-0.531-0.185-1.09-0.059-1.58   c0.093-0.369,0.503-0.878,0.838-0.932c2.277-0.361,4.571-0.968,6.88-0.257c0.572,0.177,1.172,0.484,1.589,0.903   C100.839,132.571,101.591,133.553,102.393,134.493z M75.103,151.32c-0.108,0.373-0.311,0.753-0.317,1.132   c-0.033,2.678-0.032,5.354-0.032,8.028c0,2.898,0,5.798,0.022,8.696c0.012,1.841,0.049,3.686,0.102,5.526   c0.067,2.318,0.116,4.639,0.258,6.951c0.106,1.707,0.217,3.437,0.561,5.104c0.421,2.031,1.476,3.812,2.579,5.575   c1.398,2.24,3.333,3.51,5.904,3.871c2.765,0.387,5.448-0.217,8.126-0.758c1.438-0.289,2.723-0.993,3.521-2.226   c1.237-1.908,2.535-3.828,3.417-5.91c1.474-3.481,3.043-6.973,3.108-10.883c0.025-1.482,0.287-2.969,0.257-4.449   c-0.053-2.512-0.303-5.02-0.384-7.531c-0.111-3.448-0.059-6.905-0.229-10.353c-0.216-4.389-0.579-8.771-0.893-13.155   c-0.118-1.65-0.313-3.295-0.411-4.944c-0.038-0.638-0.318-0.853-0.888-0.81c-0.794,0.062-1.594,0.254-2.371,0.185   c-1.07-0.099-1.316,0.405-1.363,1.313c-0.104,2.088-0.364,4.174-0.368,6.26c-0.004,1.963,0.177,3.936,0.387,5.889   c0.202,1.857,0.736,3.693,0.791,5.548c0.09,3.04-0.149,6.093-0.14,9.138c0.013,4.245,0.161,8.492,0.188,12.737   c0.01,1.437,0.103,2.859-0.505,4.288c-1.035,2.434-2.557,4.52-4.032,6.675c-1.18,1.733-2.482,2.562-4.618,2.21   c-1.616-0.263-2.981-1.117-3.88-2.199c-1.924-2.312-2.504-5.312-2.687-8.22c-0.253-4.028-0.093-8.083-0.116-12.127   c-0.02-3.368-0.053-6.737-0.077-10.104c-0.008-0.883,0.022-1.768-0.012-2.65c-0.081-2.064-0.218-4.128-0.275-6.191   c-0.036-1.295,0.057-2.596,0.045-3.89c-0.016-1.63-0.067-3.263-0.128-4.892c-0.053-1.438-0.142-2.873-0.22-4.409   c-1.403,0.077-2.74,0.211-4.074,0.198c-0.963-0.006-1.326,0.436-1.349,1.303c-0.075,2.785-0.161,5.568-0.207,8.354   c-0.033,1.903-0.021,3.811,0.01,5.713C74.812,150.674,75.014,151.031,75.103,151.32z M92.731,133.801   c0,0.359-0.018,0.674,0.003,0.981c0.079,1.12,0.191,2.243,0.256,3.366c0.139,2.371,0.218,4.748,0.391,7.115   c0.195,2.629,0.555,5.247,0.68,7.877c0.166,3.463,0.217,6.937,0.238,10.403c0.016,2.545-0.083,5.095-0.155,7.642   c-0.103,3.651-0.453,7.178-2.984,10.194c-1.775,2.119-3.634,3.812-6.523,3.878c-0.161,1.282,0.995,1.577,1.7,2.174   c1.452,1.224,3.664,0.916,4.787-0.594c0.976-1.309,2.042-2.562,2.877-3.956c0.741-1.231,1.577-2.575,1.739-3.944   c0.289-2.42,0.346-4.927,0.035-7.338c-0.35-2.729-0.091-5.42-0.126-8.127c-0.069-5.033,0.057-10.057-0.729-15.076   c-0.435-2.768-0.132-5.643-0.307-8.459c-0.129-2.103,0.822-4.555-1.642-6.039C92.939,133.881,92.902,133.871,92.731,133.801z    M74.515,190.215c0.034-0.037,0.071-0.074,0.106-0.111c-0.267-1.672-0.697-3.336-0.769-5.014   c-0.205-5.031-0.329-10.064-0.364-15.101c-0.018-2.56,0.279-5.117,0.336-7.681c0.072-3.262,0.049-6.526,0.059-9.791   c0.008-3.461,0.027-6.924,0.003-10.389c-0.011-1.718-0.22-3.441-0.146-5.154c0.071-1.646-0.224-2.354-1.797-3.01   c-0.084,1.104-0.218,2.184-0.23,3.266c-0.01,0.832,0.159,1.662,0.202,2.496c0.155,3.004,0.354,6.004,0.415,9.006   c0.075,3.774,0.056,7.55,0.029,11.322c-0.021,2.918-0.198,5.836-0.161,8.752c0.058,4.252,0.169,8.506,0.409,12.752   c0.114,2.045,0.511,4.082,0.905,6.102C73.687,188.543,74.171,189.363,74.515,190.215z M79.91,133.551   c0.01-0.128,0.018-0.252,0.025-0.378c-0.899-0.498-1.556-1.544-2.879-1.065c-0.314,0.113-0.717-0.034-1.082-0.027   c-1.182,0.027-2.366,0.072-3.55,0.109c-0.02,0.121-0.037,0.24-0.057,0.359c0.568,0.364,1.124,1.01,1.711,1.041   C76.016,133.693,77.965,133.58,79.91,133.551z M94.475,133.34c0.705,0.905,3.357,1.105,4.477,0.336   C98.011,132.836,96.308,132.709,94.475,133.34z"/>
	<path fill="#141412" d="M114.571,131.751c1.512-0.519,3.017-1.18,4.591-1.526c1.274-0.283,2.637-0.148,3.955-0.266   c1.767-0.152,3.45,0.133,5.208,0.389c4.771,0.693,7.26,3.934,9.682,7.455c0.467,0.68,0.928,1.367,1.408,2.039   c1.162,1.617,1.367,3.458,1.457,5.385c0.098,2.152,0.407,4.291,0.623,6.438c0.245,2.371,0.697,4.703-0.584,7.016   c-0.664,1.2-0.812,2.692-1.136,4.065c-0.063,0.262,0.084,0.634,0.247,0.877c1.221,1.829,2.581,3.577,3.664,5.485   c0.566,0.996,0.742,2.25,0.95,3.412c0.354,1.969,0.766,3.95,0.842,5.938c0.11,2.921,0.312,5.858-0.671,8.738   c-1.962,5.743-6.596,9.122-12.669,9.513c-3.759,0.241-7.074-0.836-10.35-2.386c-0.282-0.134-0.659-0.062-1.013-0.091   c-0.122-0.184-0.342-0.518-0.564-0.853c-0.083,0.046-0.164,0.089-0.247,0.131c0.085,0.335,0.171,0.673,0.24,0.939   c-0.751,1.522-2.348,1.403-3.587,1.81c-1.737,0.565-3.599,0.751-5.414,1.062c-0.983,0.168-1.881-0.021-2.575-0.827   c-1.341-1.55-2.785-3.022-4.02-4.655c-1.135-1.499-0.522-3.277-0.383-4.949c0.207-2.49,0.478-4.975,0.641-7.468   c0.182-2.746,0.32-5.498,0.378-8.252c0.037-1.772-0.16-3.551-0.155-5.329c0.008-2.384,0.206-4.768,0.145-7.145   c-0.07-2.874,0.488-5.692,0.575-8.528c0.098-3.345-0.284-6.702-0.423-10.054c-0.044-1.069,0.114-2.151,0.012-3.213   c-0.124-1.243-0.412-2.479-0.659-3.709c-0.271-1.334-0.11-1.723,1.228-2.006c1.378-0.287,2.787-0.42,4.188-0.609   c0.713-0.096,1.437-0.127,2.146-0.243C113.16,130.191,113.436,130.325,114.571,131.751z M134.975,163.352   c0.622-0.522,1.357-0.836,1.559-1.357c1.139-2.93,2.488-5.818,2.342-9.082c-0.086-1.916-0.223-3.832-0.205-5.747   c0.023-2.822-0.359-5.522-1.779-8.017c-0.989-1.734-2.112-3.516-4.145-3.883c-2.696-0.485-5.481-0.728-8.219-0.662   c-1.684,0.041-3.408,0.707-4.998,1.371c-0.751,0.312-1.2,1.312-1.85,1.931c-0.281,0.268-0.727,0.362-1.096,0.534   c-0.114-0.368-0.366-0.756-0.316-1.104c0.116-0.82-0.18-1.451-0.899-1.646c-1.634-0.443-3.321-0.683-4.944,0.06   c-0.243,0.112-0.446,0.574-0.464,0.883c-0.047,0.933,0.018,1.869,0.016,2.804c-0.007,1.629-0.084,3.258-0.043,4.888   c0.142,5.67,0.33,11.34,0.488,17.01c0.053,1.956,0.133,3.916,0.088,5.875c-0.045,2.073-0.256,4.142-0.336,6.214   c-0.116,2.905-0.142,5.812-0.276,8.715c-0.161,3.598-0.542,7.188,0.191,10.778c0.199,0.97,0.574,1.454,1.562,1.351   c1.412-0.151,2.818-0.371,4.232-0.49c2.396-0.198,2.388-0.178,2.559-2.513c0.041-0.562-0.236-1.288,0.647-1.549   c0.494,0.409,1.123,0.729,1.459,1.245c1.089,1.664,2.746,2.436,4.547,2.645c2.368,0.274,4.776,0.299,7.165,0.244   c1.607-0.035,3.253-0.216,4.797-0.643c2.072-0.57,3.561-2.124,4.617-3.903c1.164-1.966,1.634-4.188,1.513-6.534   c0.054,0.185,0.106,0.364,0.158,0.545c0.062-0.008,0.124-0.02,0.187-0.028c0-1.028,0-2.054,0-3.079   c-0.087,0.002-0.171,0.002-0.258,0.003c0,0.584,0,1.168,0,1.754c-0.249-1.095-0.386-2.196-0.387-3.293   c-0.004-2.335,0.041-4.653-0.887-6.874c-0.596-1.416-1.006-2.911-1.638-4.309c-0.642-1.428-1.747-2.506-3.139-3.221   C136.491,163.889,135.699,163.641,134.975,163.352z M106.743,134.284c0.089,0.792,0.176,1.438,0.232,2.087   c0.103,1.16,0.256,2.32,0.264,3.479c0.008,1.536-0.166,3.072-0.151,4.606c0.018,1.76,0.196,3.517,0.23,5.274   c0.063,3.265,0.164,6.528,0.081,9.789c-0.1,3.957-0.352,7.91-0.577,11.863c-0.196,3.48-0.501,6.955-0.648,10.438   c-0.1,2.329-0.026,4.668,0.01,7.001c0.003,0.273,0.201,0.606,0.409,0.807c0.586,0.555,1.225,1.057,1.87,1.602   c0.02-0.23,0.069-0.543,0.071-0.854c0.004-1.487-0.043-2.979,0-4.468c0.034-1.163,0.22-2.323,0.252-3.485   c0.062-2.289,0.025-4.58,0.102-6.869c0.042-1.344,0.307-2.682,0.318-4.021c0.038-4.372,0.047-8.744-0.007-13.115   c-0.045-3.667-0.199-7.328-0.293-10.994c-0.021-0.848-0.001-1.696,0.004-2.548c0.01-1.266,0.047-2.532,0.029-3.797   c-0.02-1.303-0.156-2.602-0.12-3.899C108.867,135.244,108.862,135.166,106.743,134.284z M117.885,135.271   c3.875-2.045,7.989-2.309,12.201-2.111c-1.234-0.432-2.444-0.842-3.689-0.985c-2.279-0.268-4.584-0.387-6.838,0.181   c-0.97,0.244-2.04,0.442-2.451,1.211C117.438,134.294,117.65,134.763,117.885,135.271z M112.885,133.889   c0.059-0.148,0.118-0.297,0.177-0.445c-0.409-0.225-0.828-0.653-1.229-0.639c-1.201,0.049-2.399,0.269-3.764,0.443   C109.642,134.9,111.344,133.641,112.885,133.889z"/>
	<path fill="#141412" d="M53.23,70.502c-2.057,0.284-3.979,0.61-5.912,0.797c-1.367,0.132-2.754,0.097-4.131,0.095   c-1.41,0-2.821-0.014-4.226-0.098c-0.488-0.03-1.05-0.178-1.424-0.468c-1.17-0.905-2.277-1.893-3.387-2.875   c-0.93-0.824-0.94-1.945-0.948-3.08c-0.008-1.847-0.025-3.695-0.128-5.538c-0.063-1.186,0.781-2.399,2.059-2.489   c2.93-0.209,5.865-0.339,8.797-0.473c1.856-0.083,3.717-0.226,5.567-0.149c3.552,0.149,7.108,0.366,10.646,0.704   c1.449,0.138,2.462,1.265,3.514,2.223c0.789,0.722,1.695,1.313,2.481,1.911c0.042,0.474,0.03,0.954,0.129,1.409   c0.408,1.886,0.493,3.748,0.198,5.688c-0.507,3.365-0.055,6.734,0.248,10.104c0.295,3.32,0.472,6.655,0.561,9.989   c0.059,2.232-0.085,4.476-0.227,6.708c-0.142,2.267-0.456,4.525-0.584,6.792c-0.149,2.714-0.116,5.438-0.293,8.148   c-0.106,1.626-0.368,3.256-0.726,4.846c-0.501,2.218-2.1,3.756-3.827,5.003c-1.351,0.978-2.963,1.68-4.557,2.223   c-1.595,0.543-3.278,0.743-5.015,0.305c-1.79-0.452-3.641-0.637-5.452-1.007c-3.151-0.645-5.117-2.738-6.724-5.381   c-1.082-1.778-2.464-3.369-3.646-5.088c-0.672-0.972-1.294-1.996-1.791-3.066c-0.854-1.835-0.748-1.75,1.073-2.769   c2.295-1.286,4.494-2.75,6.707-4.177c0.607-0.392,0.973-0.24,1.628,0.031c2.336,0.964,3.176,3.446,5.141,4.74   c0.544,0.36,1.06,0.773,1.638,1.068c2.751,1.406,4.61-0.527,4.987-2.81c0.396-2.396,0.221-4.885,0.336-7.334   c0.077-1.636,0.167-3.276,0.372-4.899c0.358-2.86-0.114-5.659-0.596-8.438C54.998,78.985,54.097,74.856,53.23,70.502z    M37.829,109.46c1.199,1.982,2.364,3.651,3.269,5.45c1.713,3.41,4.454,5.01,8.187,5.176c1.58,0.071,3.155,0.37,4.734,0.4   c2.445,0.041,4.773-0.443,6.555-2.297c2.573-2.679,3.904-6,4.095-9.613c0.275-5.285,0.195-10.586,0.242-15.883   c0.018-2.07,0.018-4.147-0.051-6.217c-0.13-3.853-0.407-7.701-0.454-11.554c-0.043-3.607,0.149-7.216,0.201-10.823   c0.021-1.555-0.651-2.317-2.193-2.466c-0.778-0.077-1.579,0.035-2.368,0.097c-0.825,0.064-1.649,0.226-2.478,0.245   c-1.945,0.045-3.896-0.025-5.841,0.06c-2.144,0.09-4.281,0.352-6.428,0.444c-2.446,0.104-4.897,0.106-7.357,0.155   c0,0.956,0.006,1.66-0.002,2.364c-0.007,0.706-0.08,1.416-0.033,2.12c0.161,2.494,0.843,2.746,2.937,2.608   c4.201-0.275,8.39-0.726,12.593-1.009c1.432-0.097,2.889,0.023,4.32,0.188c0.382,0.043,0.915,0.553,1.016,0.943   c0.311,1.181,0.554,2.401,0.621,3.619c0.19,3.595,0.256,7.198,0.422,10.797c0.095,2.068,0.358,4.13,0.412,6.199   c0.045,1.849-0.189,3.708-0.132,5.558c0.138,4.655-0.828,9.098-2.48,13.403c-2.03,5.285-7.544,4.632-10.683,1.678   c-1.027-0.966-1.705-2.318-2.484-3.532c-0.361-0.566-0.757-0.93-1.414-0.625C41.307,107.75,39.604,108.599,37.829,109.46z    M44.554,103.692c-0.097,0.096-0.194,0.192-0.291,0.289c1.385,3.231,2.773,6.425,6.482,7.817c1.585,0.596,3.512,0.219,4.598-1.087   c2.067-2.488,2.479-5.609,3.118-8.573c0.499-2.319,0.459-4.767,0.511-7.163c0.051-2.397-0.029-4.801-0.144-7.198   c-0.106-2.246-0.372-4.482-0.494-6.728c-0.175-3.228-0.228-6.464-0.455-9.688c-0.086-1.258-0.327-1.304-1.777-0.956   c0.12,1.599,0.169,3.229,0.383,4.84c0.238,1.79,0.74,3.548,0.931,5.34c0.683,6.407,0.842,12.827,0.232,19.254   c-0.102,1.072,0.116,2.198-0.124,3.227c-0.332,1.418-0.832,2.838-1.52,4.118c-0.352,0.655-1.21,1.261-1.951,1.452   c-2.964,0.757-5.139-0.916-7.215-2.67C46.02,105.275,45.312,104.453,44.554,103.692z M62.076,60.347   c-1.54-2.008-3.325-2.394-5.261-2.419c-2.612-0.031-5.224-0.126-7.833-0.107c-3.815,0.022-7.631,0.086-11.442,0.216   c-0.756,0.025-1.495,0.431-2.401,0.71c2.22,1.994,2.22,1.994,4.852,2.257c0.071,0.008,0.145,0.028,0.218,0.028   c2.671,0.01,5.346,0.079,8.019,0.001c1.666-0.046,3.324-0.396,4.991-0.469C56.093,60.437,58.974,60.417,62.076,60.347z    M42.311,102.766c-1.45,0.854-2.852,1.664-4.242,2.496c-0.647,0.387-1.314,0.763-1.894,1.237c-0.863,0.7,0.12,1.27,0.275,1.886   c0.02,0.085,0.783,0.132,1.09-0.025c1.284-0.655,2.511-1.418,3.781-2.094c0.653-0.349,1.357-0.604,2.049-0.905   C42.985,104.414,42.658,103.615,42.311,102.766z M36.803,67.258c0-1.365,0.02-2.557-0.003-3.75   c-0.032-1.391-0.627-2.258-1.933-2.905C34.347,63.749,34.751,65.202,36.803,67.258z"/>
	<path fill="#141412" d="M44.673,133.54c1.152-0.612,2.159-1.427,3.296-1.694c1.737-0.404,3.558-0.492,5.34,0.021   c0.523,0.15,1.07,0.229,1.61,0.299c2.112,0.271,3.708,1.43,5.198,2.857c1.381,1.319,2.997,2.33,4.36,3.734   c2.049,2.104,3.118,4.537,3.7,7.253c0.442,2.056,0.639,4.163,0.904,6.257c0.309,2.416,0.649,4.836,0.842,7.264   c0.193,2.432-0.336,4.765-1.247,7.035c-1.18,2.944-2.6,5.681-4.86,8.009c-2.486,2.559-5.436,3.438-8.849,3.214   c-2.438-0.161-4.582-1.034-6.541-2.985c0,0.58-0.002,0.952,0.001,1.326c0.021,2.074,0.018,4.151,0.077,6.228   c0.094,3.355,0.256,6.711,0.336,10.07c0.028,1.121,0.37,2.364-0.615,3.278c-0.492,0.454-1.088,1.062-1.672,1.104   c-1.872,0.131-3.768,0.105-5.642-0.023c-0.482-0.031-0.883-0.737-1.387-1.008c-1.423-0.769-2.21-2.184-3.37-3.219   c-1.478-1.317-2.086-2.886-2.069-5.022c0.045-5.088-0.348-10.179-0.519-15.271c-0.069-2.062-0.049-4.127-0.014-6.189   c0.036-2.061,0.155-4.121,0.211-6.184c0.075-2.638,0.194-5.278,0.155-7.914c-0.043-2.881-0.151-5.737-0.964-8.586   c-0.557-1.951-0.397-4.119-0.499-6.193c-0.063-1.356-0.049-2.719-0.018-4.075c0.018-0.805,1.343-1.971,2.407-2.092   c2.119-0.242,4.24-0.535,6.364-0.57c0.704-0.01,1.53,0.595,2.101,1.129C43.926,132.168,44.304,132.994,44.673,133.54z    M40.025,181.666c-0.049,0.002-0.097,0.005-0.146,0.01c0.232,3.559,0.474,7.119,0.69,10.68c0.114,1.871,1.396,2.994,3.2,2.772   c0.68-0.081,1.384-0.047,2.043-0.209c0.33-0.082,0.789-0.446,0.837-0.741c0.207-1.251,0.374-2.52,0.384-3.783   c0.024-2.463-0.09-4.927-0.102-7.39c-0.004-1.269,0.161-2.541,0.12-3.806c-0.069-2.108-0.275-4.208-0.36-6.317   c-0.052-1.217,0.771-1.694,1.849-1.099c0.405,0.224,0.837,0.535,1.066,0.921c1.317,2.204,3.638,2.505,5.731,2.542   c3.793,0.066,7.099-1.438,9.383-4.6c1.962-2.717,2.708-5.955,2.967-9.192c0.351-4.386,0.005-8.804-0.867-13.115   c-0.438-2.172-1.254-4.34-2.291-6.301c-1.133-2.147-3.298-3.306-5.48-4.276c-3.171-1.417-6.426-1.232-9.661-0.335   c-0.747,0.207-1.526,0.779-1.994,1.404c-0.658,0.875-1.251,1.149-1.989,0.386c-0.681-0.701-1.28-1.488-1.871-2.27   c-0.796-1.062-1.703-1.422-2.889-1.084c-0.625,0.181-1.27,0.312-1.863,0.565c-0.271,0.114-0.623,0.472-0.621,0.712   c0.012,2.527,0,5.06,0.177,7.576c0.173,2.385,0.659,4.743,0.834,7.129c0.24,3.27,0.361,6.553,0.454,9.83   c0.165,5.682,0.269,11.365,0.393,17.049C40.043,179.705,40.025,180.686,40.025,181.666z M34.772,135.938   c0,1.438-0.061,2.914,0.01,4.381c0.211,4.375,0.498,8.748,0.708,13.123c0.13,2.694,0.198,5.397,0.25,8.096   c0.077,4.141,0.146,8.279,0.157,12.42c0.006,2.531-0.169,5.064-0.134,7.596c0.033,2.334,0.216,4.667,0.396,6.995   c0.039,0.499,0.216,1.133,0.564,1.435c0.794,0.685,1.732,1.197,2.822,1.918c-0.175-1.006-0.391-1.74-0.418-2.481   c-0.083-2.335-0.11-4.672-0.126-7.008c-0.014-2.104,0.067-4.209,0.018-6.312c-0.063-2.781-0.234-5.559-0.311-8.34   c-0.02-0.765,0.229-1.538,0.201-2.301c-0.07-2.01-0.224-4.016-0.352-6.023c-0.142-2.285-0.23-4.574-0.451-6.851   c-0.264-2.707-0.678-5.401-0.959-8.108c-0.151-1.463-0.358-2.963-0.185-4.404C37.201,138.076,36.647,136.786,34.772,135.938z    M56.385,135.205c-2.396-1.215-4.583-1.621-6.925-1.316c-1.276,0.166-2.077,0.997-2.838,1.844   c-0.205,0.227,0.086,0.899,0.181,1.604C49.645,135.146,52.95,135.643,56.385,135.205z M42.428,134.162   c0.032-0.137,0.061-0.275,0.093-0.413c-0.616-0.287-1.231-0.815-1.841-0.81c-1.479,0.02-2.954,0.271-4.427,0.465   c-0.352,0.048-0.684,0.229-1.097,0.379C37.636,136.939,40.047,134.475,42.428,134.162z"/>
	<path fill="#141412" d="M185.651,71.25c0,1.964-0.049,3.927,0.014,5.886c0.076,2.402,1.35,4.358,2.969,5.894   c1.182,1.121,1.621,2.33,1.748,3.769c0.158,1.836,0.199,3.683,0.293,5.526c0.044,0.804-0.264,1.261-1.142,1.182   c-0.216-0.02-0.444-0.039-0.651,0.006c-3.047,0.672-2.666-0.081-2.588,3.021c0.039,1.524,0.154,3.045,0.191,4.569   c0.037,1.404,0.051,2.811,0.005,4.213c-0.026,0.928,0.382,1.194,1.251,1.176c2.433-0.048,4.864-0.095,7.29,0   c0.625,0.025,1.399,0.424,1.806,0.906c0.947,1.121,1.625,2.474,2.574,3.595c1.75,2.071,0.666,4.502,0.957,6.748   c0.109,0.844-0.359,1.812-1.678,1.81c-2.378-0.004-4.758,0.112-7.137,0.183c-1.762,0.054-3.535,0.006-5.281,0.205   c-1.893,0.216-3.682-0.134-5.466-0.624c-0.359-0.099-0.726-0.433-0.941-0.757c-0.788-1.196-1.364-2.566-2.305-3.619   c-1.167-1.306-1.829-2.622-1.843-4.421c-0.027-3.617-0.437-7.236-0.362-10.847c0.095-4.75,0.409-9.499,0.797-14.235   c0.365-4.484,0.525-8.923-0.331-13.387c-0.559-2.911-0.846-5.881-1.1-8.838c-0.104-1.224,0.124-2.494,0.328-3.723   c0.193-1.135,2.146-2.807,3.08-2.362c2.129,1.007,3.838-0.435,5.74-0.598c1.334-0.118,2.653-0.633,3.937-1.095   c1.798-0.643,3.585-0.235,5.362-0.028c0.377,0.043,0.67,0.693,1.033,1.034c0.524,0.492,1.024,1.046,1.633,1.402   c0.726,0.423,0.953,1.019,1.021,1.765c0.137,1.48,0.32,2.959,0.402,4.442c0.033,0.6-0.094,1.227-0.248,1.817   c-0.23,0.873-0.771,1.121-1.754,1.164c-2.926,0.126-5.838,0.479-8.752,0.767c-0.659,0.065-0.911,0.502-0.885,1.157   c0.028,0.765,0.006,1.534,0.006,2.301C185.635,71.25,185.643,71.25,185.651,71.25z M188.55,85.717   c-0.947,0.112-1.832,0.242-2.727,0.316c-0.915,0.077-1.424-0.312-1.446-1.304c-0.071-3.448-0.226-6.894-0.254-10.341   c-0.021-2.213,0.15-4.425,0.17-6.64c0.009-0.812,0.31-1.213,1.097-1.317c3.121-0.417,6.235-0.877,9.36-1.239   c0.715-0.081,0.998-0.295,0.931-0.979c-0.146-1.459-0.292-2.918-0.452-4.51c-1.755,0.229-3.363,0.454-4.975,0.644   c-3.244,0.382-6.493,0.727-9.729,1.135c-0.356,0.045-0.897,0.36-0.962,0.639c-0.203,0.871-0.314,1.786-0.284,2.678   c0.095,2.63,0.289,5.253,0.414,7.881c0.163,3.426,0.285,6.853,0.448,10.276c0.124,2.576,0.369,5.147,0.415,7.723   c0.073,4.254,0.008,8.51,0.047,12.766c0.03,3.668,0.089,7.34,0.218,11.008c0.036,0.993,0.377,1.975,0.606,3.105   c0.437-0.356,0.616-0.502,0.928-0.758c-0.086,0.5-0.137,0.801-0.22,1.261c0.957,0.156,1.84,0.425,2.722,0.417   c2.46-0.022,4.921-0.152,7.379-0.251c1.802-0.073,3.603-0.144,5.403-0.25c1.027-0.063,1.355-0.547,1.181-1.577   c-0.116-0.681-0.282-1.363-0.298-2.047c-0.03-1.157-0.613-1.56-1.699-1.574c-0.828-0.01-1.658-0.122-2.477-0.258   c-2.566-0.421-5.125-0.896-7.693-1.303c-0.789-0.124-1.171-0.529-1.238-1.273c-0.156-1.654-0.347-3.306-0.424-4.966   c-0.177-3.796-0.271-7.597-0.451-11.393c-0.041-0.922,0.361-1.223,1.18-1.304c1.106-0.111,2.209-0.281,3.324-0.425   C189.523,90.634,189.336,88.096,188.55,85.717z M179.768,113.862c-0.098-2.938-0.194-5.597-0.271-8.255   c-0.012-0.393,0.092-0.79,0.09-1.186c-0.006-2.862-0.021-5.723-0.043-8.585c-0.014-1.689-0.051-3.376-0.059-5.068   c-0.008-1.673,0.062-3.351-0.008-5.021c-0.035-0.887-0.38-1.76-0.425-2.647c-0.13-2.573-0.181-5.147-0.259-7.721   c-0.041-1.4-0.067-2.801-0.107-4.201c-0.033-1.203-0.068-2.407-0.113-3.609c-0.062-1.639-0.141-3.277-0.203-4.915   c-0.041-1.016-0.162-1.971-1.552-2.197c0.077,1.253,0.142,2.494,0.229,3.731c0.147,2.027,0.324,4.051,0.465,6.079   c0.188,2.755,0.477,5.508,0.502,8.266c0.031,3.092-0.176,6.189-0.295,9.283c-0.034,0.871-0.139,1.74-0.186,2.611   c-0.074,1.343-0.203,2.69-0.176,4.032c0.076,3.74,0.283,7.481,0.321,11.222C177.708,108.468,177.782,111.199,179.768,113.862z    M193.197,58.531c0.054-0.157,0.108-0.314,0.161-0.475c-0.73-0.399-1.488-1.171-2.193-1.124c-1.597,0.103-3.16,0.642-4.754,0.94   c-1.51,0.283-3.037,0.478-4.554,0.731c-1.288,0.216-2.569,0.46-3.854,0.69c0.015,0.144,0.028,0.287,0.043,0.431   C183.209,60.958,188.14,58.826,193.197,58.531z M186.749,110.006c3.461,0.491,6.909,0.983,10.355,1.475   c-0.105-0.575-0.302-0.814-0.479-1.07c-0.888-1.28-2.08-1.866-3.657-1.745c-0.565,0.042-1.146-0.14-1.722-0.181   c-1.483-0.106-2.967-0.19-4.498-0.289C186.749,108.802,186.749,109.232,186.749,110.006z M185.874,84.407c0.615,0,1.129,0,1.769,0   c-0.738-0.659-1.356-1.213-2.129-1.904C185.657,83.26,185.77,83.864,185.874,84.407z"/>
	<path fill="#141412" d="M84.986,101.374c-0.366,0-0.732,0.013-1.095-0.001c-0.9-0.042-1.296,0.283-1.237,1.276   c0.084,1.412,0.045,2.84-0.016,4.256c-0.055,1.296,0.818,1.313,1.67,1.255c2.214-0.155,4.433-0.299,6.629-0.598   c1.611-0.218,2.457,0.806,3.42,1.723c0.417,0.397,0.814,0.816,1.252,1.188c1.046,0.889,1.306,2.101,1.43,3.372   c0.07,0.745,0.134,1.494,0.179,2.244c0.038,0.643,0.159,1.312,0.045,1.933c-0.411,2.236-0.914,2.58-3.203,2.69   c-3.674,0.177-7.342,0.493-11.02,0.59c-1.682,0.045-3.375-0.297-5.064-0.468c-0.067-0.008-0.132-0.091-0.194-0.088   c-2.751,0.11-3.487-2.079-4.531-3.939c-0.492-0.874-1.115-1.676-1.605-2.551c-0.218-0.391-0.331-0.879-0.368-1.333   c-0.238-2.852-0.521-5.701-0.636-8.559c-0.082-2.095,0.01-4.203,0.134-6.297c0.104-1.75-0.562-3.538,0.248-5.257   c0.086-0.181,0.031-0.435,0.018-0.655c-0.14-2.4-0.35-4.801-0.409-7.204c-0.055-2.331,0.077-4.665,0.063-6.998   c-0.012-2.217-0.14-4.417-0.488-6.624c-0.361-2.29-0.366-4.635-0.533-6.954c-0.09-1.247-0.153-2.498-0.303-3.739   c-0.126-1.07,0.489-1.823,1.612-1.894c2.685-0.171,5.364-0.383,8.048-0.537c2.132-0.122,4.268-0.159,6.4-0.283   c1.233-0.073,2.49-0.12,3.686-0.403c1.673-0.393,2.976-0.029,4.047,1.324c0.629,0.795,1.326,1.548,2.043,2.266   c1.174,1.178,1.217,2.673,1.263,4.175c0.067,2.327,0.191,4.657,0.142,6.984c-0.018,0.816-0.696,1.353-1.609,1.465   c-3.36,0.407-6.722,0.822-10.077,1.276c-1.854,0.25-1.949,0.498-1.864,2.288c0.057,1.189-0.146,2.389-0.21,3.587   c-0.063,1.191-0.103,2.386-0.142,3.578c-0.052,1.528,1.293,2.194,2.043,3.209c0.753,1.015,1.68,1.909,2.576,2.811   c1.023,1.026,0.859,2.372,0.929,3.597c0.104,1.896-0.091,3.81-0.018,5.709c0.039,0.973-0.37,1.315-1.202,1.421   c-0.681,0.089-1.363,0.16-2.045,0.238C84.99,101.421,84.988,101.399,84.986,101.374z M86.424,91.769   c-1.294,0.106-2.405,0.194-3.515,0.289c-0.93,0.076-1.467-0.341-1.542-1.272c-0.144-1.835-0.289-3.674-0.377-5.513   c-0.05-0.973,0.047-1.948,0.033-2.922c-0.038-2.547-0.146-5.091-0.112-7.635c0.006-0.47,0.425-1.117,0.84-1.357   c0.568-0.327,1.312-0.438,1.99-0.478c3.337-0.19,6.677-0.36,10.02-0.466c0.987-0.033,1.26-0.437,1.215-1.351   c-0.108-2.138-0.171-4.278-0.218-6.417c-0.04-1.786-0.494-2.149-2.248-1.979c-2.901,0.285-5.81,0.506-8.719,0.714   c-1.927,0.138-3.862,0.169-5.788,0.317c-1.215,0.092-2.421,0.311-3.621,0.47c0.126,1.91,0.27,3.768,0.36,5.627   c0.055,1.172-0.049,2.354,0.051,3.521c0.236,2.732,1.109,5.415,0.629,8.203c-0.018,0.102,0.033,0.216,0.04,0.324   c0.131,2.814,0.316,5.628,0.371,8.445c0.04,2.028-0.134,4.058-0.144,6.087c-0.01,1.591,0.106,3.184,0.133,4.775   c0.042,2.295-0.049,4.597,0.103,6.883c0.169,2.581,0.615,5.139,0.81,7.717c0.212,2.838,1.645,4.266,4.48,4.17   c1.77-0.062,3.538-0.232,5.31-0.292c2.018-0.069,4.042-0.034,6.06-0.114c0.952-0.04,1.897-0.232,2.839-0.403   c0.159-0.027,0.348-0.264,0.407-0.442c0.293-0.885,0.627-1.749,0.207-2.728c-0.252-0.586-0.36-1.267-0.39-1.914   c-0.049-1.074-0.559-1.354-1.56-1.22c-3.448,0.46-6.903,0.809-10.394,0.603c-1.986-0.116-2.757-0.921-2.767-2.917   c-0.012-2.394-0.122-4.789-0.146-7.183c-0.01-1.009,0.036-2.025,0.159-3.026c0.132-1.07,0.76-1.231,1.841-1.05   c1.176,0.199,2.413,0.084,3.621,0.043c0.157-0.006,0.423-0.39,0.431-0.604c0.039-1.257,0.066-2.521-0.002-3.778   C86.778,93.884,86.575,92.885,86.424,91.769z M75.31,117.792c0.075-0.047,0.149-0.09,0.222-0.138   c-0.029-0.57-0.059-1.138-0.088-1.709c-0.162-3.129-0.325-6.256-0.484-9.385c-0.134-2.619-0.336-5.237-0.372-7.857   c-0.034-2.602,0.186-5.21,0.151-7.811c-0.04-2.734-0.258-5.464-0.386-8.195c-0.029-0.655,0.002-1.314-0.012-1.971   c-0.037-1.645-0.068-3.289-0.133-4.933c-0.094-2.275-0.224-4.549-0.324-6.827c-0.01-0.234,0.142-0.486,0.102-0.708   c-0.397-2.188-0.72-4.42-2.801-5.946c-0.049,0.396-0.151,0.777-0.14,1.155c0.052,1.418,0.132,2.836,0.211,4.254   c0.072,1.345,0.131,2.69,0.234,4.034c0.22,2.863,0.368,5.737,0.725,8.583c0.559,4.429,0.362,8.83-0.07,13.25   c-0.13,1.322-0.034,2.665-0.051,3.999c-0.027,2.24-0.135,4.481-0.073,6.72c0.051,1.771,0.297,3.537,0.474,5.302   c0.173,1.713-0.045,3.495,0.947,5.062C74.089,115.697,74.688,116.749,75.31,117.792z M93.265,61.444   c-0.513-0.588-0.755-0.96-1.083-1.224c-1.025-0.826-2.054-1.729-3.499-0.833c-0.087,0.056-0.211,0.047-0.321,0.058   c-4.207,0.372-8.411,0.691-12.648,0.508c-1.371-0.061-2.759,0.289-4.382,0.48c0.938,0.94,1.383,1.842,2.742,1.689   c1.037-0.116,2.14,0.487,3.204,0.462c2.488-0.062,4.969-0.297,7.454-0.48C87.468,61.904,90.203,61.684,93.265,61.444z    M82.28,109.978c0.395,2.038,0.393,2.049,2.242,2.137c0.802,0.04,1.613,0.075,2.411,0.014c2.338-0.183,4.676-0.413,7.145-0.637   c-0.616-0.742-1.052-1.321-1.552-1.843c-0.173-0.185-0.5-0.333-0.745-0.318c-2.675,0.157-5.346,0.35-8.017,0.535   C83.295,109.899,82.827,109.937,82.28,109.978z M82.801,87.925c-0.134,0.069-0.271,0.138-0.405,0.207   c0.096,0.82,0.189,1.638,0.275,2.413c0.826,0,1.505,0,2.184,0c0.057-0.106,0.114-0.21,0.169-0.314   C84.283,89.461,83.542,88.694,82.801,87.925z"/>
</g>
</svg>