<?xml version="1.0" encoding="utf-8"?>
<!-- Generator: Adobe Illustrator 24.0.0, SVG Export Plug-In . SVG Version: 6.00 Build 0)  -->
<svg version="1.1" id="Calque_1" xmlns="http://www.w3.org/2000/svg" xmlns:xlink="http://www.w3.org/1999/xlink" x="0px" y="0px"
	 viewBox="0 0 160 80" style="enable-background:new 0 0 160 80;" xml:space="preserve">
<style type="text/css">
	.st0{fill:#418B9E;}
	.st1{fill:#FFFFFF;}
</style>
<g>
	<g>
		<path class="st0" d="M150.06,29.17L138.6,25.4c-0.41-0.13-0.73-0.46-0.87-0.87l-3.77-11.47c-0.32-0.96-1.54-1.25-2.25-0.54
			l-12.15,12.15h11.5v26.28l19.54-19.54C151.32,30.71,151.03,29.49,150.06,29.17z"/>
	</g>
	<g>
		<path class="st0" d="M28.49,28.31L9.42,47.38C8.71,48.09,9,49.31,9.95,49.62l11.49,3.78c0.41,0.13,0.73,0.45,0.86,0.86l3.78,11.49
			c0.31,0.95,1.52,1.24,2.23,0.53l12.02-12.02H28.49V28.31z"/>
	</g>
	<g>
		<polygon class="st0" points="118.13,26.11 57.84,26.11 30.69,26.11 29.92,26.11 29.92,26.89 29.92,52.83 41.76,52.83 
			101.77,52.83 129.2,52.83 129.64,52.83 129.64,52.39 129.64,26.11 		"/>
	</g>
</g>
<g>
	<path class="st1" d="M39.64,45.83v-2.28h1.03l2.55-6.52h-1.03v-2.28h8.38v2.28h-1.03l2.57,6.52h1.03v2.28h-6.02v-2.28h1.14
		l-0.46-1.52h-3.23l-0.49,1.52h0.95v2.28H39.64z M45.22,39.94h1.92l-0.87-2.91h-0.1L45.22,39.94z"/>
	<path class="st1" d="M70.29,41.92c-0.14,0.79-0.46,1.49-0.96,2.11c-0.5,0.62-1.17,1.11-2.01,1.46s-1.82,0.53-2.94,0.53
		c-1.23,0-2.33-0.23-3.32-0.68c-0.98-0.46-1.75-1.11-2.31-1.97s-0.84-1.87-0.84-3.05c0-1.18,0.26-2.2,0.78-3.07
		c0.52-0.87,1.23-1.53,2.14-2c0.91-0.46,1.92-0.69,3.05-0.69c0.79,0,1.48,0.11,2.1,0.33c0.61,0.22,1.12,0.54,1.51,0.96v-1.1h2.47
		v4.14h-2.09c-0.32-0.57-0.71-1-1.19-1.3c-0.48-0.3-1.05-0.45-1.74-0.45c-0.96,0-1.72,0.28-2.26,0.84
		c-0.54,0.56-0.82,1.32-0.82,2.28c0,0.96,0.25,1.73,0.74,2.31c0.49,0.58,1.16,0.86,2,0.86c0.75,0,1.34-0.21,1.78-0.64
		c0.44-0.42,0.73-1.05,0.88-1.87L70.29,41.92z"/>
	<path class="st1" d="M78.39,45.83v-2.28h1.14v-6.59h-1.6v1.98h-2.39v-4.18h11.78v4.18h-2.39v-1.98h-1.6v6.59h1.14v2.28H78.39z"/>
	<path class="st1" d="M94.57,44.97c-0.89-0.71-1.34-1.77-1.34-3.19v-4.75h-0.95v-2.28h5.85v2.28h-1.1v4.69
		c0,1.34,0.58,2.01,1.73,2.01c0.58,0,1.02-0.17,1.32-0.51c0.3-0.34,0.45-0.84,0.45-1.5v-4.69H99.8v-2.28h4.52v2.28h-0.95v4.67
		c0,1.42-0.41,2.5-1.24,3.23c-0.82,0.73-2.06,1.1-3.71,1.1C96.75,46.04,95.46,45.68,94.57,44.97z"/>
	<path class="st1" d="M118.82,39.95c0.58,0.59,0.86,1.42,0.86,2.48c0,1.14-0.35,2.02-1.06,2.65s-1.67,0.94-2.87,0.94
		c-0.65,0-1.31-0.12-2-0.35c-0.68-0.23-1.22-0.55-1.6-0.96v1.12h-2.47v-3.78h2.18c0.34,0.6,0.78,1.06,1.32,1.4
		c0.54,0.34,1.14,0.5,1.81,0.5c0.33,0,0.6-0.07,0.8-0.22c0.2-0.15,0.3-0.36,0.3-0.64c0-0.3-0.11-0.54-0.33-0.7
		c-0.22-0.16-0.6-0.3-1.13-0.42l-1.52-0.32c-1.23-0.28-2.12-0.71-2.69-1.3c-0.56-0.59-0.85-1.38-0.85-2.38
		c0-0.66,0.15-1.24,0.47-1.76s0.75-0.92,1.32-1.21c0.57-0.29,1.23-0.44,1.98-0.44c1.44,0,2.61,0.41,3.5,1.23v-1.04h2.28v3.27h-2.09
		c-0.25-0.39-0.61-0.72-1.06-0.99c-0.46-0.27-0.97-0.4-1.54-0.4c-0.67,0-1.01,0.25-1.01,0.76c0,0.29,0.14,0.52,0.43,0.68
		c0.28,0.16,0.78,0.32,1.47,0.46l0.76,0.15C117.34,38.94,118.25,39.36,118.82,39.95z"/>
</g>
</svg>
